<?xml version="1.0" encoding="UTF-8"?>
<svg id="Capa_1" data-name="Capa 1" xmlns="http://www.w3.org/2000/svg" viewBox="0 0 352.01 514.87">
  <text transform="translate(0 468.08)" style="fill: aqua; font-family: Lato-Heavy, Lato; font-weight: 800;"><tspan x="0" y="0" style="font-size: 160.53px; letter-spacing: -.05em;">P</tspan><tspan x="92.55" y="0" style="font-size: 160.53px;">AX</tspan><tspan x="314.32" y="0" style="font-size: 158.72px;"> </tspan></text>
  <g>
    <path d="M169.36.16c55.23-3.61,92.97,56.64,64.56,104.59-25.18,42.5-86.22,46.13-115.91,6.39C84.99,66.92,114.68,3.73,169.36.16ZM140.1,35.8c-42.82,41.85,18.86,109.76,65.04,69.84,49.13-42.48-18.56-115.26-65.04-69.84Z" style="fill: aqua;"/>
    <path d="M168.62,153.68c64.37-3.13,122.58,48.11,125.53,112.9.38,8.26-.32,18.82-11.47,18.19-11.85-.67-9.63-13.33-10.79-21.16-17.75-119.58-183.29-115.83-196.6,3.71-.29,2.61.28,5.44-.07,8.09-1.64,12.27-19.71,12.33-21.38,0-1.35-9.91,1.41-25.3,4.19-34.99,14.17-49.49,59.3-84.24,110.59-86.74Z" style="fill: aqua;"/>
  </g>
</svg>