<?xml version="1.0" encoding="UTF-8"?>
<svg id="Capa_1" data-name="Capa 1" xmlns="http://www.w3.org/2000/svg" viewBox="0 0 523.3 547.03">
  <text transform="translate(0 499.22)" style="fill: aqua; font-family: Lato-Heavy, Lato; font-weight: 800;"><tspan x="0" y="0" style="font-size: 164.01px;">CALLS</tspan><tspan x="484.79" y="0" style="font-size: 162.16px; letter-spacing: 0em;"> </tspan></text>
  <path d="M326.5,56.39h44.7c2.51,0,7.79,5,7.41,8.08l.1,90.71,28.29,11.83c4.33,2.92,5.59,7.61,4.36,12.6l-34.14,105.16c.24.99,7.9,1.87,9.47,1.87,11.9,0,17.28-4.33,27.1-8.15,11.41-4.44,19.7,9.09,9.08,17.53-13.1,10.42-38.48,11.89-54.14,7.8-14.29-3.74-23.8-13.94-39.05-15.16-30.19-2.4-42.83,21.89-78.08,16.84-23.2-3.33-32.4-19.14-58.5-16.8-15.32,1.38-26.31,12.8-41.75,15.97-13.87,2.85-43.77.84-53.31-11.04-6.87-8.56,1.31-19.05,12-14.82,9.59,3.8,15.33,7.83,26.73,7.82,1.56,0,9.23-.88,9.47-1.87l-34.28-106.41c-1.01-4.6.68-8.72,4.51-11.35l28.29-11.83.1-90.71c-.38-3.08,4.9-8.08,7.41-8.08h44.7V8.17c0-.21,1.72-3.02,2.11-3.52,2.63-3.34,6.14-3.63,10.17-3.9,34.45-2.36,71.59,1.83,106.32.04,3.36-.32,10.92,3.9,10.92,7.38v48.22ZM306.79,20.49h-90.1v35.9h90.1V20.49ZM358.88,76.1h-194.29v71.8l97.43-37.24,96.86,37.24v-71.8ZM251.88,135.23l-118.15,47.37,30.87,94.83c16.48-8.07,33.8-10.84,51.82-6.43,20.55,5.04,29.51,18.95,53.93,14.69,12.47-2.17,19.09-8.98,30.13-12.81,13.93-4.84,29.28-5.29,43.45-1.27l14.98,5.52,30.97-95.76-118.29-46.15v94.68c0,3.08-6.27,7.44-9.5,7.45-4,.02-10.21-4.02-10.21-8.16v-93.98Z" style="fill: aqua;"/>
</svg>