<svg version="1.2" xmlns="http://www.w3.org/2000/svg" viewBox="0 0 290 299" width="290" height="299">
	<title>file</title>
	<style>
		tspan { white-space:pre } 
		.t0 { font-size: 161px;fill: #00ffff;font-weight: 800;font-family: "Lato-Heavy", "Lato" } 
		.t1 { font-size: 159px;fill: #00ffff;font-weight: 800;font-family: "Lato-Heavy", "Lato" } 
		.s2 { fill: #00ffff } 
	</style>
	<g>
		<text id="P" style="transform: matrix(1,0,0,1,-27,468.08)" >
			<tspan x="0" y="0" class="t0">P
</tspan>
		</text>
		<text id="AX" style="transform: matrix(1,0,0,1,65.55,468.08)" >
			<tspan x="0" y="0" class="t0">AX
</tspan>
		</text>
		<text id=" " style="transform: matrix(1,0,0,1,287.32,468.08)" >
			<tspan x="0" y="0" class="t1"> 
</tspan>
		</text>
	</g>
	<g>
		<path class="s2" d="m142.4 0.2c55.2-3.6 92.9 56.6 64.5 104.5-25.2 42.6-86.2 46.2-115.9 6.4-33-44.2-3.3-107.4 51.4-110.9zm-29.3 35.6c-42.8 41.9 18.9 109.8 65 69.8 49.2-42.4-18.5-115.2-65-69.8z"/>
		<path class="s2" d="m141.6 153.7c64.4-3.1 122.6 48.1 125.5 112.9 0.4 8.2-0.3 18.8-11.4 18.2-11.9-0.7-9.7-13.4-10.8-21.2-17.8-119.6-183.3-115.8-196.6 3.7-0.3 2.6 0.3 5.5-0.1 8.1-1.6 12.3-19.7 12.3-21.4 0-1.3-9.9 1.4-25.3 4.2-35 14.2-49.5 59.3-84.2 110.6-86.7z"/>
	</g>
</svg>