<?xml version="1.0" encoding="UTF-8"?>
<svg id="Capa_1" data-name="Capa 1" xmlns="http://www.w3.org/2000/svg" xmlns:xlink="http://www.w3.org/1999/xlink" viewBox="0 0 533.36 534.05">
  <defs>
    <filter id="outer-glow-1" x="-9.32" y="-9.97" width="552" height="554" filterUnits="userSpaceOnUse">
      <feOffset dx="0" dy="0"/>
      <feGaussianBlur result="blur" stdDeviation="3"/>
      <feFlood flood-color="#7fe5ef" flood-opacity=".9"/>
      <feComposite in2="blur" operator="in"/>
      <feComposite in="SourceGraphic"/>
    </filter>
  </defs>
  <g style="filter: url(#outer-glow-1);">
    <path d="M265.78,0c215.67-.84,343.39,245.26,218.32,421.93-110.43,155.99-346.69,147.83-445.4-15.82C-68.27,228.78,59.22.8,265.78,0ZM246.94,32.73C86.27,44.66-12.85,215.74,51.7,362.94c73.3,167.16,304.81,189.42,408.29,38.66,112.81-164.35-14.69-383.62-213.05-368.88Z" style="fill: aqua;"/>
    <path d="M362.52,339.37c15.53-3.55,26.98,14.16,16.09,26.14-11.08,12.19-42.55,31.11-58.03,37.53-50.5,20.96-104.78,12.95-147.45-20.69-10.22-8.06-31.44-24.37-15.25-37.62,14.69-12.02,29.12,9.66,40.39,17.52,40.67,28.37,86.01,26.92,128.17,2.65,7.72-4.44,31.67-24.52,36.08-25.53Z" style="fill: aqua;"/>
    <path d="M165.22,184.74c35.79-1.92,47.65,49.05,14.05,61.93-48.09,18.44-61.44-59.39-14.05-61.93Z" style="fill: aqua;"/>
    <path d="M365.17,184.77c42.52-1.52,44.03,64.74.85,64.81-40.9.07-42.7-63.31-.85-64.81Z" style="fill: aqua;"/>
  </g>
</svg>