<svg version="1.2" xmlns="http://www.w3.org/2000/svg" viewBox="0 0 349 326" width="349" height="326">
	<title>file</title>
	<style>
		tspan { white-space:pre } 
		.t0 { font-size: 164px;fill: #00ffff;font-weight: 800;font-family: "Lato-Heavy", "Lato" } 
		.t1 { font-size: 162px;fill: #00ffff;font-weight: 800;font-family: "Lato-Heavy", "Lato" } 
		.s2 { fill: #00ffff } 
	</style>
	<g>
		<text id="CALLS" style="transform: matrix(1,0,0,1,-88,499.22)" >
			<tspan x="0" y="0" class="t0">CALLS
</tspan>
		</text>
		<text id=" " style="transform: matrix(1,0,0,1,396.79,499.22)" >
			<tspan x="0" y="0" class="t1"> 
</tspan>
		</text>
	</g>
	<path class="s2" d="m238.5 56.4h44.7c2.5 0 7.8 5 7.4 8.1l0.1 90.7 28.3 11.8c4.3 2.9 5.6 7.6 4.4 12.6l-34.2 105.2c0.3 1 7.9 1.8 9.5 1.8 11.9 0 17.3-4.3 27.1-8.1 11.4-4.4 19.7 9.1 9.1 17.5-13.1 10.4-38.5 11.9-54.2 7.8-14.3-3.7-23.8-13.9-39-15.1-30.2-2.4-42.8 21.8-78.1 16.8-23.2-3.3-32.4-19.1-58.5-16.8-15.3 1.4-26.3 12.8-41.7 16-13.9 2.8-43.8 0.8-53.4-11.1-6.8-8.5 1.4-19 12-14.8 9.6 3.8 15.4 7.8 26.8 7.8 1.5 0 9.2-0.9 9.4-1.8l-34.2-106.5c-1-4.6 0.6-8.7 4.5-11.3l28.3-11.8 0.1-90.7c-0.4-3.1 4.9-8.1 7.4-8.1h44.7v-48.2c0-0.2 1.7-3 2.1-3.5 2.6-3.4 6.1-3.7 10.2-3.9 34.4-2.4 71.5 1.8 106.3 0 3.3-0.3 10.9 3.9 10.9 7.4 0 0 0 48.2 0 48.2zm-19.7-35.9h-90.1v35.9h90.1zm52.1 55.6h-194.3v71.8l97.4-37.2 96.9 37.2zm-107 59.1l-118.2 47.4 30.9 94.8c16.5-8 33.8-10.8 51.8-6.4 20.6 5 29.5 18.9 53.9 14.7 12.5-2.2 19.1-9 30.2-12.8 13.9-4.9 29.3-5.3 43.4-1.3l15 5.5 31-95.7-118.3-46.2v94.7c0 3.1-6.3 7.4-9.5 7.4-4 0.1-10.2-4-10.2-8.1v-94z"/>
</svg>