<?xml version="1.0" encoding="UTF-8"?>
<svg id="Capa_2" data-name="Capa 2" xmlns="http://www.w3.org/2000/svg" viewBox="0 0 188.2 82.61">
  <defs>
    <style>
      .cls-1 {
        fill: #fff;
      }
    </style>
  </defs>
  <g id="Capa_1-2" data-name="Capa 1">
    <g>
      <path class="cls-1" d="M155.13,46.07l4.92,10.55c1.28.09,2.59.13,3.91.12l-7.04-15.12h-2.01l-5.44,12.87,1.86.51,3.82-8.93Z"/>
      <path class="cls-1" d="M161.28,59.26l.12.27,3.41,7.32h3.85l-3.52-7.56c-.53.02-1.06.02-1.59.02-.76,0-1.52-.02-2.27-.05"/>
      <polygon class="cls-1" points="144.34 66.59 144.23 66.84 146.26 66.84 149.39 59.53 150.22 57.56 150.3 57.38 148.45 56.87 144.34 66.59"/>
      <polygon class="cls-1" points="9.52 66.84 13.12 66.84 13.12 57.89 9.52 56.9 9.52 66.84"/>
      <polygon class="cls-1" points="13.12 43.93 22.64 43.93 22.64 41.61 0 41.61 0 43.93 9.52 43.93 9.52 54.24 13.12 55.23 13.12 43.93"/>
      <path class="cls-1" d="M26.04,56.71l4.55-10.65,4.39,9.41,3.42-.94-6.02-12.93h-2.01l-6.39,15.12c.69,0,1.39,0,2.08-.02"/>
      <path class="cls-1" d="M22.89,59.28l-3.09,7.31-.11.25h2.03l3.13-7.32.09-.22c-.69,0-1.37,0-2.05-.02"/>
      <polygon class="cls-1" points="36.87 59.53 40.28 66.85 44.13 66.85 39.5 56.9 36.08 57.84 36.87 59.53"/>
      <path class="cls-1" d="M54,41.61h-3.6v9.7c1.12-.23,2.34-.4,3.6-.53v-9.17Z"/>
      <path class="cls-1" d="M50.4,66.84h3.6v-13.48c-1.28.14-2.5.33-3.6.57v12.91Z"/>
      <path class="cls-1" d="M63.17,66.84h2v-13.41c-.65-.08-1.32-.15-2-.2v13.6Z"/>
      <path class="cls-1" d="M85.2,55.9v-14.29h-2v13.77l.91.25c.35.1.71.18,1.09.27"/>
      <path class="cls-1" d="M83.2,58.04v2.46l-3.46-3.41-7.35-2.02,12.37,12.19h.44v-8.75c-.62-.12-1.21-.26-1.77-.42l-.23-.06Z"/>
      <path class="cls-1" d="M65.17,47.96l3.53,3.48c.4.09.79.18,1.16.29l6.14,1.69-12.4-12.22h-.44v9.48c.68.05,1.35.11,2,.19v-2.9Z"/>
      <path class="cls-1" d="M127.64,43.54h4.15c.9,0,1.67.13,2.29.38.63.25,1.14.58,1.54.99.39.4.68.87.86,1.39.18.52.27,1.05.27,1.57,0,.66-.13,1.28-.39,1.84-.21.47-.51.88-.86,1.24,1.16.16,2.26.36,3.26.61.5-.49.91-1.05,1.22-1.67.34-.7.52-1.45.52-2.23,0-.68-.15-1.39-.44-2.09-.29-.71-.74-1.36-1.34-1.94-.6-.58-1.37-1.07-2.3-1.44-.93-.37-2.04-.56-3.29-.56h-9.08v9.12c1.17-.11,2.38-.17,3.6-.2v-6.99Z"/>
      <path class="cls-1" d="M124.04,53.31v13.53h9.13c1.61,0,2.99-.21,4.1-.63,1.11-.42,2.02-.98,2.7-1.66.68-.68,1.18-1.46,1.49-2.32.3-.86.46-1.73.46-2.6,0-1.38-.31-2.51-.92-3.34-.61-.82-1.33-1.46-2.16-1.9-.24-.13-.49-.24-.73-.34-3.87-.94-9.35-1.18-14.06-.73M134.35,54.86c.83.3,1.52.7,2.06,1.2.54.5.94,1.09,1.2,1.74.26.66.4,1.37.4,2.1,0,.8-.14,1.51-.43,2.12-.29.61-.67,1.14-1.15,1.58s-1.05.76-1.7.97c-.65.22-1.36.33-2.1.33h-4.98v-10.5h3.74c1.14,0,2.14.15,2.97.45"/>
      <polygon class="cls-1" points="188.2 41.61 185.86 41.61 178.53 54.24 181.35 53.47 188.2 41.61"/>
      <polygon class="cls-1" points="175.73 66.84 179.32 66.84 179.32 56.98 175.73 57.68 175.73 66.84"/>
      <polygon class="cls-1" points="171.08 41.61 167 41.61 174.62 55.32 178.12 54.36 171.08 41.61"/>
      <path class="cls-1" d="M92.88,54.56c0-1.61.25-3.09.74-4.44.5-1.35,1.18-2.51,2.04-3.47.86-.97,1.88-1.72,3.06-2.26,1.18-.54,2.46-.81,3.84-.81s2.64.27,3.85.81c1.21.54,2.27,1.3,3.18,2.26.91.97,1.63,2.13,2.16,3.47.39.99.63,2.04.74,3.17l3.22-.88c-.13-.64-.32-1.3-.56-1.98-.53-1.46-1.35-2.82-2.45-4.06-1.11-1.25-2.51-2.28-4.2-3.09-1.69-.82-3.69-1.23-6-1.23s-4.24.4-5.88,1.21c-1.64.81-2.99,1.83-4.05,3.06-1.06,1.23-1.84,2.59-2.33,4.06-.5,1.48-.74,2.87-.74,4.18,0,.64.06,1.31.18,1.99,1.09.09,2.23.15,3.37.17-.11-.69-.16-1.42-.16-2.17"/>
      <path class="cls-1" d="M111.76,59c-.53,1.35-1.25,2.51-2.16,3.47-.91.97-1.97,1.72-3.18,2.26-1.21.54-2.5.81-3.86.81s-2.66-.27-3.84-.81c-1.18-.54-2.2-1.3-3.06-2.26-.8-.89-1.43-1.95-1.91-3.17-1.12,0-2.24-.04-3.33-.12.5,1.27,1.21,2.46,2.15,3.57,1.06,1.24,2.41,2.28,4.05,3.09,1.64.82,3.6,1.23,5.88,1.23,1.54,0,2.94-.19,4.2-.57,1.26-.38,2.39-.89,3.39-1.54,1-.65,1.87-1.39,2.61-2.23s1.34-1.73,1.82-2.66c.47-.93.83-1.87,1.07-2.82.2-.78.31-1.53.35-2.25l-3.45.95c-.11,1.08-.35,2.1-.72,3.05"/>
      <g>
        <path class="cls-1" d="M110.54,16.44c-1.25,0-2.36-.61-3.06-1.54-.82-5.99-5.58-10.74-11.57-11.54-.88-.7-1.44-1.78-1.44-2.99,0-.2-.17-.37-.37-.37s-.37.17-.37.37c0,1.21-.56,2.29-1.44,2.99-5.99.81-10.75,5.55-11.57,11.54-.7.93-1.81,1.54-3.06,1.54-.2,0-.37.16-.37.37s.17.37.37.37c1.27,0,2.39.62,3.08,1.57.87,5.84,5.49,10.46,11.32,11.35,1.01.69,1.67,1.85,1.67,3.16,0,.2.17.37.37.37s.37-.17.37-.37c0-1.31.66-2.47,1.67-3.16,5.83-.89,10.45-5.51,11.32-11.35.7-.95,1.82-1.57,3.08-1.57.2,0,.37-.16.37-.37s-.17-.37-.37-.37M105.79,19.83c-1.12,4.24-4.49,7.57-8.75,8.64-.94.24-1.92.36-2.94.36s-2-.13-2.94-.36c-4.26-1.07-7.63-4.4-8.75-8.64-.26-.99-.4-2.02-.4-3.09s.13-2.05.38-3.01c1.08-4.2,4.36-7.51,8.53-8.65,1.01-.28,2.08-.43,3.18-.43s2.16.15,3.18.43c4.17,1.14,7.45,4.45,8.53,8.65.25.96.38,1.98.38,3.02s-.14,2.1-.4,3.09"/>
        <path class="cls-1" d="M91.24,17.13l.07-.05c.15-.11.3-.22.44-.35.16-.14.31-.3.45-.46l.03-.03c.12-.14.23-.29.34-.44l.04-.07c.09-.14.18-.29.25-.43l.02-.04c.09-.18.17-.37.24-.57.02-.06.04-.12.06-.18.08-.25.13-.48.17-.7.04-.27.06-.52.06-.75v-6.54l-.33.03s-.04,0-.07,0c-.35.04-.7.09-1.08.17l-.24.05v6.27c0,.18-.02.37-.06.59v.07c-.02.05-.03.11-.05.16-.05.17-.12.36-.22.57-.04.08-.08.16-.12.24-.08.13-.17.26-.28.39-.06.07-.11.14-.18.2-.2.21-.43.38-.69.54l-5.77,3.33.07.23c.05.16.1.31.16.5.07.2.14.41.22.61l.13.32,6.05-3.49c.1-.05.18-.12.27-.18"/>
        <path class="cls-1" d="M96.04,18.31c-.29-.13-.55-.23-.82-.29-.03,0-.06-.01-.09-.02h-.04c-.13-.04-.26-.06-.39-.08-.07-.01-.15-.02-.22-.02h-.07s-.09-.01-.14-.01h-.07c-.08,0-.15-.01-.23-.01-.04,0-.08,0-.11,0h-.04c-.1,0-.2.01-.3.02-.1,0-.21.02-.31.04-.05,0-.1.02-.15.03h-.04c-.26.06-.5.13-.73.21-.29.11-.52.22-.74.34l-6,3.46.18.27c.2.29.43.59.71.91l.16.19,5.8-3.35c.13-.08.29-.15.46-.21.12-.04.23-.08.35-.11.14-.03.26-.06.37-.07.12-.01.24-.02.38-.02.08,0,.16,0,.27.01.12,0,.25.03.37.05.14.03.29.07.43.12.11.04.23.09.33.14l.07.03c.05.02.1.05.15.08l5.69,3.28.22.11.16-.19c.27-.31.5-.61.71-.9l.19-.27-6.11-3.53c-.13-.08-.27-.14-.42-.21"/>
        <path class="cls-1" d="M98.06,15.73c-.25-.14-.47-.32-.68-.53-.06-.06-.11-.12-.17-.19-.12-.14-.22-.28-.29-.41-.04-.07-.08-.14-.12-.23-.1-.21-.18-.41-.23-.61-.01-.06-.02-.11-.03-.17v-.04c-.05-.22-.07-.4-.07-.58v-6.18l-.28-.06c-.05-.01-.11-.02-.16-.03-.3-.06-.58-.1-.86-.13-.03,0-.06,0-.09-.01l-.33-.03v6.45c0,.22.02.46.06.71.03.22.08.44.15.68.02.08.05.15.09.26.07.2.16.4.26.59.08.16.18.32.28.48l.03.04c.11.15.22.31.37.48.15.17.3.32.47.47.15.13.31.25.48.36l.08.05c.06.04.13.09.2.13l6.08,3.51.13-.32c.11-.27.2-.52.28-.77.02-.07.04-.15.06-.23l.09-.34-5.8-3.35Z"/>
        <path class="cls-1" d="M88.17,14.56c.2,0,.4-.04.59-.11.46-.18.81-.55.96-1.03.05-.17.08-.33.08-.48,0-.03,0-.05,0-.08-.04-.85-.72-1.51-1.56-1.54h-.06c-.46,0-.91.2-1.22.55-.26.3-.41.68-.41,1.07,0,.11.01.21.03.28.14.78.81,1.34,1.6,1.34"/>
        <path class="cls-1" d="M99.3,14.31h0c.26.17.56.26.87.26.9,0,1.63-.73,1.63-1.63,0-.03,0-.06,0-.1-.03-.48-.27-.92-.65-1.2-.48-.36-1.11-.42-1.66-.16-.35.17-.63.46-.79.81-.09.21-.14.43-.14.66,0,.06,0,.12.02.22.06.48.33.9.74,1.15"/>
        <path class="cls-1" d="M94.83,21.82h0c-.44-.2-.93-.19-1.37.02-.13.06-.25.14-.36.24-.36.31-.56.76-.56,1.22,0,.19.04.38.11.57.15.4.46.74.85.91.08.03.16.06.24.08.14.04.28.07.43.07.1,0,.21-.01.31-.03.13-.03.26-.07.39-.13.39-.19.69-.53.83-.94.06-.18.09-.36.09-.53,0-.48-.21-.93-.59-1.25-.12-.1-.24-.18-.37-.23"/>
      </g>
      <g>
        <path class="cls-1" d="M23.87,79.08c0,.5-.09.96-.26,1.38-.17.42-.41.79-.73,1.09s-.69.55-1.13.72c-.44.17-.93.26-1.46.26h-2.68v-6.89h2.68c.54,0,1.02.09,1.46.26.44.17.82.41,1.13.72s.55.67.73,1.09c.17.42.26.88.26,1.37ZM22.24,79.08c0-.34-.04-.65-.13-.92-.09-.27-.22-.51-.38-.7-.17-.19-.37-.34-.61-.44-.24-.1-.51-.15-.82-.15h-1.07v4.43h1.07c.31,0,.58-.05.82-.15.24-.1.44-.25.61-.44.17-.19.29-.42.38-.7.09-.27.13-.58.13-.93Z"/>
        <path class="cls-1" d="M34.28,79.08c0,.5-.09.96-.26,1.39-.17.43-.41.8-.73,1.12-.31.32-.69.57-1.13.75-.44.18-.93.27-1.46.27s-1.02-.09-1.47-.27c-.44-.18-.82-.43-1.13-.75-.31-.32-.56-.69-.73-1.12-.17-.43-.26-.89-.26-1.39s.09-.96.26-1.39c.17-.43.41-.8.73-1.12.31-.32.69-.56,1.13-.74.44-.18.93-.27,1.47-.27s1.02.09,1.46.27c.44.18.82.43,1.13.75.31.32.55.69.73,1.12s.26.89.26,1.39ZM32.64,79.08c0-.34-.04-.65-.13-.92-.09-.27-.22-.5-.38-.69-.17-.19-.37-.33-.61-.44-.24-.1-.51-.15-.82-.15s-.58.05-.83.15c-.24.1-.44.25-.61.44-.17.19-.29.42-.38.69-.09.27-.13.58-.13.92s.04.65.13.92c.09.27.22.5.38.69.17.19.37.33.61.43.24.1.52.15.83.15s.58-.05.82-.15c.24-.1.44-.24.61-.43.17-.19.29-.42.38-.69.09-.27.13-.58.13-.92Z"/>
        <path class="cls-1" d="M41.59,79.75c.06.13.11.26.17.4.05-.14.11-.27.17-.4.06-.13.12-.26.18-.38l1.77-3.49c.03-.06.06-.11.1-.14.03-.03.07-.06.11-.07.04-.02.09-.02.14-.02h1.4v6.89h-1.41v-3.96c0-.19,0-.4.03-.62l-1.83,3.54c-.06.11-.13.19-.23.25-.1.06-.21.09-.33.09h-.22c-.12,0-.23-.03-.33-.09s-.17-.14-.23-.25l-1.84-3.55c.01.11.02.22.03.33,0,.11,0,.21,0,.3v3.96h-1.41v-6.89h1.4c.05,0,.1,0,.14.02.04.02.08.04.11.07.03.03.07.08.1.14l1.77,3.5c.06.12.12.24.18.37Z"/>
        <path class="cls-1" d="M51.35,82.53h-1.61v-6.89h1.61v6.89Z"/>
        <path class="cls-1" d="M56.49,75.65s.09.02.13.04c.04.02.07.04.11.07.03.03.07.07.12.13l3.27,4.14c-.01-.13-.02-.26-.03-.39s0-.24,0-.35v-3.65h1.41v6.89h-.83c-.12,0-.23-.02-.31-.06-.09-.04-.17-.11-.25-.21l-3.25-4.11c0,.12.02.24.02.35,0,.11,0,.22,0,.32v3.69h-1.41v-6.89h.84c.07,0,.13,0,.18,0Z"/>
        <path class="cls-1" d="M67.21,82.53h-1.61v-6.89h1.61v6.89Z"/>
        <path class="cls-1" d="M75.96,80.75s.08,0,.11.02.07.04.11.07l.63.67c-.28.36-.63.64-1.04.82-.42.18-.91.28-1.48.28-.52,0-.99-.09-1.41-.27-.41-.18-.77-.42-1.05-.74-.29-.31-.51-.69-.66-1.12-.15-.43-.23-.9-.23-1.4s.09-.99.26-1.42c.18-.43.42-.8.74-1.11.32-.31.7-.55,1.14-.73.44-.17.93-.26,1.46-.26.26,0,.5.02.73.07.23.05.44.11.64.19.2.08.38.18.55.29.17.11.32.24.44.37l-.54.72s-.08.08-.12.12c-.05.04-.11.05-.2.05-.06,0-.11-.01-.16-.04s-.1-.06-.16-.09c-.06-.04-.12-.08-.19-.12s-.15-.08-.24-.12c-.09-.04-.2-.07-.33-.09-.12-.03-.27-.04-.44-.04-.29,0-.56.05-.79.15s-.45.25-.62.44c-.17.19-.31.42-.4.69-.1.27-.14.58-.14.91s.05.67.14.94c.1.27.23.51.39.69.17.19.36.33.58.43.22.1.46.15.71.15.15,0,.28,0,.4-.02.12-.01.23-.04.33-.07.1-.03.2-.08.29-.13.09-.06.19-.12.28-.21.04-.03.08-.06.12-.08.04-.02.09-.03.14-.03Z"/>
        <path class="cls-1" d="M86.79,82.53h-1.24c-.14,0-.25-.03-.34-.1-.09-.06-.15-.15-.19-.25l-.41-1.2h-2.62l-.41,1.2c-.03.09-.09.17-.18.24-.09.07-.2.11-.34.11h-1.25l2.67-6.89h1.64l2.67,6.89ZM82.37,79.89h1.88l-.63-1.89c-.04-.12-.09-.26-.14-.42-.06-.16-.11-.34-.16-.53-.05.19-.1.37-.16.53-.05.16-.1.31-.15.43l-.63,1.88Z"/>
        <path class="cls-1" d="M91.21,75.65s.09.02.13.04c.04.02.07.04.11.07.03.03.07.07.12.13l3.27,4.14c-.01-.13-.02-.26-.03-.39s0-.24,0-.35v-3.65h1.41v6.89h-.83c-.12,0-.23-.02-.31-.06-.09-.04-.17-.11-.25-.21l-3.25-4.11c0,.12.02.24.02.35,0,.11,0,.22,0,.32v3.69h-1.41v-6.89h.84c.07,0,.13,0,.18,0Z"/>
        <path class="cls-1" d="M106.44,79.98v2.55h-1.6v-6.89h2.24c.5,0,.92.05,1.27.15s.64.25.86.43c.22.18.38.4.48.65.1.25.15.52.15.81,0,.22-.03.44-.09.63s-.15.38-.27.55c-.12.17-.26.32-.44.45-.17.13-.37.24-.59.33.11.05.21.12.3.2.09.08.17.17.24.29l1.47,2.4h-1.45c-.27,0-.46-.1-.58-.3l-1.14-2c-.05-.09-.11-.15-.18-.19-.07-.04-.16-.06-.29-.06h-.41ZM106.44,78.88h.64c.22,0,.4-.03.56-.08.15-.06.28-.13.38-.23.1-.1.17-.21.21-.34s.07-.27.07-.42c0-.3-.1-.54-.3-.71-.2-.17-.5-.26-.92-.26h-.64v2.04Z"/>
        <path class="cls-1" d="M118.41,75.64v1.23h-2.83v1.61h2.17v1.18h-2.17v1.64h2.83v1.23h-4.44v-6.89h4.44Z"/>
        <path class="cls-1" d="M123.76,80.23v2.3h-1.6v-6.89h2.43c.49,0,.9.06,1.25.17.35.12.64.27.86.48.23.2.39.44.5.71.11.27.16.57.16.89,0,.34-.06.66-.17.95-.11.29-.28.53-.51.74s-.51.37-.86.48c-.35.12-.76.17-1.24.17h-.83ZM123.76,79.02h.83c.42,0,.72-.1.9-.3.18-.2.27-.48.27-.83,0-.16-.02-.3-.07-.43-.05-.13-.12-.24-.22-.33-.1-.09-.22-.16-.36-.22-.15-.05-.32-.08-.52-.08h-.83v2.19Z"/>
        <path class="cls-1" d="M133.9,81.27c.21,0,.41-.04.57-.11.17-.07.31-.17.43-.31.12-.13.21-.29.27-.48.06-.19.09-.41.09-.65v-4.08h1.6v4.08c0,.42-.07.81-.21,1.16s-.33.66-.59.91-.57.45-.93.6-.78.21-1.23.21-.87-.07-1.24-.21c-.37-.14-.68-.34-.93-.6s-.45-.56-.59-.91-.2-.74-.2-1.16v-4.08h1.6v4.08c0,.24.03.46.09.65s.15.35.27.49c.12.13.26.24.43.31.17.07.36.11.57.11Z"/>
        <path class="cls-1" d="M140.74,82.53v-6.89h2.54c.48,0,.88.04,1.22.13.33.09.61.21.82.37.21.16.36.36.46.59.1.23.14.49.14.77,0,.15-.02.3-.07.45-.04.14-.11.28-.21.4-.09.13-.22.24-.36.34-.15.1-.33.19-.53.27.45.11.79.29,1.01.54.22.25.33.57.33.95,0,.29-.06.57-.17.82-.11.25-.28.47-.5.66-.22.19-.49.33-.81.44-.32.11-.69.16-1.1.16h-2.75ZM142.34,78.54h.83c.18,0,.34-.01.48-.04.14-.03.26-.07.36-.13s.17-.15.23-.26c.05-.11.08-.25.08-.42s-.02-.3-.06-.41c-.04-.11-.1-.2-.19-.26-.09-.07-.19-.11-.32-.14-.13-.03-.29-.04-.47-.04h-.94v1.7ZM142.34,79.61v1.72h1.13c.21,0,.38-.03.52-.08.13-.05.24-.12.31-.21s.13-.18.16-.29.04-.22.04-.33c0-.13-.02-.24-.05-.34-.03-.1-.09-.19-.17-.26-.08-.07-.19-.12-.32-.16-.13-.04-.3-.06-.5-.06h-1.12Z"/>
        <path class="cls-1" d="M151.38,81.25h2.55v1.28h-4.15v-6.89h1.6v5.61Z"/>
        <path class="cls-1" d="M159.28,82.53h-1.61v-6.89h1.61v6.89Z"/>
        <path class="cls-1" d="M168.03,80.75s.08,0,.11.02c.04.01.07.04.11.07l.63.67c-.28.36-.63.64-1.04.82-.42.18-.91.28-1.48.28-.52,0-.99-.09-1.41-.27-.41-.18-.77-.42-1.06-.74-.29-.31-.51-.69-.66-1.12s-.23-.9-.23-1.4.09-.99.26-1.42c.18-.43.42-.8.74-1.11s.7-.55,1.14-.73c.44-.17.93-.26,1.46-.26.26,0,.5.02.73.07.23.05.44.11.64.19.2.08.38.18.55.29.17.11.32.24.44.37l-.54.72s-.08.08-.12.12c-.05.04-.11.05-.2.05-.06,0-.11-.01-.16-.04s-.1-.06-.16-.09c-.06-.04-.12-.08-.19-.12-.07-.04-.15-.08-.24-.12-.09-.04-.2-.07-.33-.09-.12-.03-.27-.04-.44-.04-.29,0-.56.05-.79.15s-.45.25-.62.44c-.17.19-.31.42-.4.69-.1.27-.14.58-.14.91s.05.67.14.94c.1.27.23.51.39.69.17.19.36.33.58.43.22.1.46.15.71.15.15,0,.28,0,.4-.02.12-.01.23-.04.33-.07.1-.03.2-.08.29-.13.09-.06.19-.12.28-.21.04-.03.08-.06.12-.08.04-.02.09-.03.14-.03Z"/>
      </g>
    </g>
  </g>
</svg>