<?xml version="1.0" encoding="UTF-8"?>
<svg id="Capa_1" data-name="Capa 1" xmlns="http://www.w3.org/2000/svg" viewBox="0 0 578.26 229.13">
  <path d="M92.33,99.22h-43.58c-1.66,0-3.01-1.35-3.01-3.01v-44.72c0-1.66-1.35-3.01-3.01-3.01H3.01c-1.66,0-3.01,1.35-3.01,3.01v89.32c0,1.66,1.35,3.01,3.01,3.01h89.32c1.66,0,3.01-1.35,3.01-3.01v-38.58c0-1.66-1.35-3.01-3.01-3.01Z" style="fill: #fff;"/>
  <path d="M141.94,0H52.62c-1.66,0-3.01,1.35-3.01,3.01v38.58c0,1.66,1.35,3.01,3.01,3.01h43.58c1.66,0,3.01,1.35,3.01,3.01v44.72c0,1.66,1.35,3.01,3.01,3.01h39.71c1.66,0,3.01-1.35,3.01-3.01V3.01c0-1.66-1.35-3.01-3.01-3.01Z" style="fill: #fff;"/>
  <rect x="193.75" width="34.11" height="143.82" rx="3.2" ry="3.2" style="fill: #fff;"/>
  <path d="M286.29,143.82h28.26c1.67,0,3.03-1.35,3.03-3.03V31.13h35.29c1.67,0,3.03-1.35,3.03-3.03V3.03c0-1.67-1.35-3.03-3.03-3.03h-104.89c-1.67,0-3.03,1.35-3.03,3.03v25.07c0,1.67,1.35,3.03,3.03,3.03h35.29v109.67c0,1.67,1.35,3.03,3.03,3.03Z" style="fill: #fff;"/>
  <path d="M376.09,143.82h25c1.72,0,3.12-1.4,3.11-3.12l-.52-85.22,36.31,59.73c.56.93,1.57,1.49,2.65,1.49h19.17c1.1,0,2.12-.59,2.68-1.54l34.46-58.95-.52,84.48c-.01,1.72,1.38,3.12,3.11,3.12h26.85c1.72,0,3.11-1.39,3.11-3.11V3.11c0-1.72-1.39-3.11-3.11-3.11h-27.76c-1.11,0-2.14.6-2.7,1.56l-41.82,73.07c-1.18,2.06-4.13,2.09-5.36.06L406.66,1.5c-.56-.93-1.57-1.5-2.66-1.5h-27.91c-1.72,0-3.11,1.39-3.11,3.11v137.61c0,1.72,1.39,3.11,3.11,3.11Z" style="fill: #fff;"/>
  <path d="M319.5,167.32c-1.16-1.34-2.49-2.5-3.98-3.46-2.98-1.95-6.45-2.92-10.41-2.92-4.22,0-7.98.99-11.28,2.97-3.31,1.98-5.89,4.7-7.73,8.17-1.85,3.47-2.77,7.48-2.77,12.01s.96,8.46,2.87,11.97,4.51,6.23,7.78,8.17c3.27,1.95,7.05,2.92,11.33,2.92,4.02,0,7.51-.92,10.46-2.77.6-.38,1.16-.81,1.7-1.25v2.76c0,3.83-.94,6.7-2.82,8.61-1.88,1.91-4.32,2.87-7.3,2.87-2.59,0-4.72-.55-6.37-1.65s-3.29-2.92-4.91-5.45l-10.22,5.25.78,1.65c1.49,2.92,3.34,5.27,5.54,7.05,2.2,1.78,4.62,3.05,7.25,3.79,2.63.74,5.2,1.12,7.73,1.12,5.12,0,9.52-1.01,13.18-3.02,3.66-2.01,6.47-4.99,8.41-8.95,1.95-3.96,2.92-8.72,2.92-14.3v-40.76h-10.6l-1.57,5.22ZM315.38,191.67c-1.91,2.01-4.36,3.02-7.35,3.02s-5.43-1.01-7.34-3.02c-1.91-2.01-2.87-4.54-2.87-7.59s.96-5.77,2.87-7.78c1.91-2.01,4.36-3.02,7.34-3.02s5.43,1.01,7.35,3.02c1.91,2.01,2.87,4.6,2.87,7.78s-.96,5.58-2.87,7.59Z" style="fill: #fff;"/>
  <path d="M365.92,160.94c-2.08,0-4.1.5-6.08,1.51-1.98,1.01-3.69,2.22-5.16,3.65-.35.34-.67.67-.98.99l-1.4-4.98h-10.51v47.57h14.2v-31.61c.55-.5,1.14-.95,1.8-1.32,2.37-1.33,5.63-1.99,9.78-1.99h3.21v-12.94c-.52-.33-1.2-.55-2.04-.68-.84-.13-1.78-.19-2.82-.19Z" style="fill: #fff;"/>
  <path d="M410.76,164.1c-3.76-2.11-8.14-3.16-13.13-3.16s-9.28,1.05-13.04,3.16-6.68,5.04-8.75,8.8c-2.08,3.76-3.11,8.11-3.11,13.04s1.04,9.18,3.11,12.94c2.07,3.76,4.99,6.7,8.75,8.8,3.76,2.11,8.11,3.16,13.04,3.16s9.37-1.05,13.13-3.16c3.76-2.11,6.7-5.04,8.81-8.8,2.11-3.76,3.16-8.07,3.16-12.94s-1.05-9.27-3.16-13.04c-2.11-3.76-5.04-6.7-8.81-8.8ZM405.36,193.96c-1.98,2.04-4.56,3.07-7.73,3.07s-5.56-1.02-7.54-3.07c-1.98-2.04-2.97-4.75-2.97-8.12s.99-6.08,2.97-8.12c1.98-2.04,4.49-3.06,7.54-3.06s5.75,1.04,7.73,3.11c1.98,2.08,2.97,4.8,2.97,8.17s-.99,5.98-2.97,8.02Z" style="fill: #fff;"/>
  <path d="M458.92,192.38c-.61.62-1.26,1.18-1.95,1.68-1.3.94-2.63,1.65-3.99,2.14-1.36.49-2.76.73-4.19.73-1.62,0-2.98-.44-4.08-1.31-1.1-.88-1.66-2.64-1.66-5.3v-28.21h-14.2v28.99c0,2.66.21,5.17.63,7.54.42,2.37,1.23,4.48,2.43,6.32,1.2,1.85,2.89,3.29,5.06,4.33,2.17,1.04,5.01,1.55,8.51,1.55,2.53,0,4.93-.45,7.2-1.36,2.27-.91,4.43-2.15,6.47-3.74.63-.49,1.19-1.01,1.77-1.51l1.69,5.45h10.6v-47.57h-14.3v30.28Z" style="fill: #fff;"/>
  <path d="M521.13,164.1c-3.28-2.11-7.08-3.16-11.43-3.16s-7.78,1.01-10.9,3.02c-1.28.82-2.41,1.83-3.45,2.94l-1.42-4.79h-10.6v66.05h14.2v-21.01c.37.27.72.58,1.12.82,3.08,1.91,6.72,2.87,10.94,2.87s8.08-1.05,11.38-3.16c3.31-2.11,5.9-5.04,7.78-8.8,1.88-3.76,2.82-8.07,2.82-12.94s-.92-9.27-2.77-13.04c-1.85-3.76-4.41-6.7-7.69-8.8ZM514.22,194.25c-1.91,2.17-4.33,3.26-7.25,3.26s-5.25-1.08-7.2-3.26c-1.95-2.17-2.92-4.98-2.92-8.41s.97-6.14,2.92-8.32c1.95-2.17,4.34-3.26,7.2-3.26s5.34,1.09,7.25,3.26c1.91,2.17,2.87,4.98,2.87,8.42s-.96,6.14-2.87,8.32Z" style="fill: #fff;"/>
  <path d="M569.03,129.09c.72-.73,1.08-1.66,1.08-2.79,0-1.49-.53-2.65-1.59-3.48-1.06-.83-2.45-1.25-4.19-1.25h-6.34v15.57h3.14v-5.97h1.9l4.1,5.97h3.79l-4.64-6.57c1.11-.26,2.03-.76,2.75-1.49ZM563.87,128.62h-2.75v-4.44h2.94c.91,0,1.6.2,2.08.59.48.4.72.95.72,1.67s-.26,1.26-.79,1.63c-.53.37-1.26.55-2.21.55Z" style="fill: #fff;"/>
  <path d="M576.29,122.04c-1.31-2.18-3.09-3.92-5.34-5.21-2.25-1.29-4.76-1.94-7.53-1.94s-5.31.63-7.54,1.9c-2.24,1.27-4.01,2.99-5.32,5.17-1.31,2.18-1.97,4.64-1.97,7.37s.66,5.2,1.97,7.39c1.31,2.19,3.08,3.92,5.32,5.19s4.75,1.91,7.54,1.91,5.31-.64,7.54-1.91c2.24-1.27,4.01-3.01,5.32-5.19,1.31-2.19,1.97-4.65,1.97-7.39s-.66-5.11-1.97-7.29ZM573.8,135.63c-1.1,1.8-2.57,3.2-4.39,4.19-1.82.99-3.82,1.49-5.99,1.49s-4.17-.5-5.99-1.49c-1.82-.99-3.28-2.39-4.37-4.19-1.09-1.8-1.64-3.9-1.64-6.3s.55-4.46,1.66-6.24c1.1-1.78,2.57-3.17,4.39-4.16,1.82-.99,3.81-1.49,5.96-1.49s4.17.5,5.99,1.49c1.82.99,3.28,2.38,4.39,4.16,1.1,1.78,1.66,3.86,1.66,6.24s-.55,4.5-1.66,6.3Z" style="fill: #fff;"/>
</svg>