<?xml version="1.0" encoding="UTF-8"?>
<svg id="Capa_1" data-name="Capa 1" xmlns="http://www.w3.org/2000/svg" viewBox="0 0 572.88 330.06">
  <g>
    <path d="M457.11,176.38c-.56-.23-1.1-.43-1.58-.63-1.7-.68-3.42-1.22-5.18-1.64-.79-.28-1.59-.49-2.46-.72-.42-.11-.82-.22-1.21-.33-1.85-.65-3.76-1.17-5.73-1.51-.02,0-.04,0-.06,0-13.77-3.79-28.11-5.56-42.47-5.3-8.53.15-17.05,1.12-25.4,2.71-1.4.27-2.81.56-4.22.86-.7.21-1.39.44-2.09.66-13.18,2.77-25.7,8.53-38.77,11.66-2.05.49-4.12.93-6.19,1.33.06.08.11.17.15.26,0,0,0,0,0,.01.5,1.11.02,1.89-.42,2.97-.19.46-.64.96-1.23.88-.18-.02-.35-.04-.53-.07-.15.02-.29.03-.43.04-1.55.1-3.1.21-4.65.31-.58.25-1.16.7-2,1.17-.01.56-.13,1.46-.04,2.33.29,2.63.63,5.26,1,7.88.26,1.9.54,3.8.81,5.69,4.86-1.31,9.58-2.95,14.29-4.76,1.44-.55,2.85-1.14,4.26-1.75,1.52-.46,2.99-1.02,4.45-1.62.14-.09.28-.17.42-.26.19-.06.37-.13.56-.21,4.6-2.07,9.2-4.13,13.79-6.19,1.44-.51,2.88-1.03,4.3-1.57,7.58-2.92,15.3-5.51,22.89-8.43,2.63-.67,5.24-1.42,7.77-2.47.09-.04.18-.08.26-.12,4.95-1.74,9.86-2.89,15.37-2.99,5-.09,9.94.37,14.86,1,5.99,2.59,12.7,1.98,19.19,2.39,3.99.25,7.9,1.19,11.67,2.43,3.69,1.21,7.03,3.57,10.94,4.09,2.25.3,4.01-1.15,3.58-3.39-.46-2.4-3.01-3.86-5.89-4.75Z" style="fill: #fff;"/>
    <path d="M314.03,163.04c.14.2.26.41.38.62.44.8.74,1.63.95,2.48,1.47-.15,2.93-.34,4.38-.57,3.96-.42,7.92-.85,11.84-1.58,1.36-.25,2.72-.56,4.06-.89,7.89-1.59,15.79-3.27,23.78-4.22,6.5-.77,13.1-1.03,19.68-1.27.52,0,1.03.01,1.55.02,11.91-.8,23.76.24,35.82.85,6.51.33,13.18.52,19.68,1.38.22-.04.44-.1.64-.18.22-.02.43-.04.66-.07,1.08-.16,1.2-1.57.6-2.24-1.95-2.21-4.96-1.95-7.66-2.15-1.75-.13-3.47-.43-5.17-.8-1.59-.42-3.21-.83-4.83-1.2-.81-.22-1.62-.43-2.43-.64-6.05-1.56-12.3-1.98-18.54-2.16-7.32-.53-14.64-1.32-21.96-1.84-.58-.02-1.16-.02-1.74-.04-5.87-.2-12.73-1.04-18.4.72-3.96,1.23-7.38,2.45-11.53,1.41-1.52-.38-1.81-1.95-1.25-3.13,3.05-6.39,16.62-5.01,22.38-4.65,7.61.47,14.63.39,22.12-1.14,5.61-1.14,11.18-1.75,16.93-1.89,3.45.28,6.91.69,10.35.91,3.94.25,8.46-.39,10.58-4.12.73-1.28.43-2.71-.18-3.94-.92-1.83-3.26-1.56-4.9-1.37-1.26.15-2.53.26-3.8.36-.12-.02-.25-.03-.39-.01-6.84.79-13.59-1.07-20.46-.2-6.01.76-12.35,2.57-18.27.99-2.27-.8-3.97-2.17-4.17-4.31-.13-1.43.45-2.57,1.39-3.48,1.6-1.15,3.44-1.87,5.26-2.66,2.45-1.06,4.39-2.49,6.25-4.38,1.07-1.09,2.16-2.17,3.25-3.22,8.21-6.82,17.33-13.8,27.6-14.98.4-.15.79-.3,1.19-.45,2.33-.63,4.19-1.91,4.43-4.67.26-2.91-3.08-5.45-5.32-6.56-4.27-2.12-8.75-1.71-13.01-.21-.78.22-1.55.46-2.31.73-.07.02-.14.04-.22.08-1.47.53-2.88,1.13-4.19,1.75-1.19.56-2.54,1.3-3.97,2.09-.81.53-1.62,1.06-2.42,1.6-2.97,1.76-5.85,3.68-8.81,5.47-4.95,3-10.34,5.11-15.71,7.24-4.43,1.51-8.92,2.9-13.37,4.33-2.21.47-4.46.73-6.74.72-.06,0-.11,0-.17,0-.05,0-.09,0-.14,0-.07,0-.15,0-.22-.02-2.7-.3-5.08-3.02-3.12-5.85.2-.29.42-.55.65-.8.21-.26.46-.5.74-.7,1.54-1.28,3.48-1.96,5.34-2.85.05-.04.1-.07.15-.11.28-.12.55-.25.82-.39,3.27-1.31,6.27-3.09,8.95-5.3,1.35-1.01,2.58-2.12,3.59-3.39,6.44-7.27,12.49-15.06,21.96-17.96.97-.18,1.87-.54,2.7-1.01,1.54-.56,2.81-1.79,4.06-2.88.26-.23.52-.47.76-.71,4.29-3.72,7.3-9.23,3.83-14.14-2.07-2.94-5.69-2.94-8.38-.95-1.69,1.25-3.11,2.87-4.73,4.21-.73.6-1.49,1.16-2.27,1.69-.11.07-.22.14-.33.21-.18.08-.35.16-.52.25-2.71,1.25-5.38,2.64-7.88,4.2-3.71,2.32-6.3,1.68-7.2-2.33-.04-.2-.09-.37-.14-.55-.07-.52-.19-1.04-.31-1.55-.04-.52-.14-1.03-.41-1.5-.85-1.51-2.21-2.25-3.93-2.4-5.35-.48-6.91,3.44-9.64,7.27-2.61,3.67-9.69,13.5-14.32,6.89-1.36-1.94-1.07-4.47-.16-6.64.06-.1.11-.2.14-.32.07-.15.14-.29.22-.44.07-.07.13-.15.18-.23.09-.16.19-.32.3-.47.02-.03.05-.07.07-.1.02-.02.14-.17.17-.21h0c1.87-2.28,4.05-4.28,5.09-5.22,2.5-2.25,4.62-4.4,6.12-7.13.76-.95,1.43-1.98,2.09-3.01.86-1.1,1.77-2.17,2.79-3.17,2.03-1.98,4.49-3.35,6.67-5.14.21-.17.39-.35.57-.55,1.5-.98,2.17-2.26,2.76-4.01.27-.81.62-1.96.57-2.97.17-.92-.09-1.8-1.32-2.59-2.86-1.83-4.91.73-6.59,2.66-7.01,8.07-14.36,15.82-22.64,22.86-1.2,1.02-2.27,2.14-3.21,3.35-1.37,1.3-2.53,2.9-3.51,4.64-1.81,2.63-3.05,5.61-4.25,8.58-.85,2.11-1.19,4.4-1.83,6.58-.57,1.94-1.5,3.13-2.87,3.68-1.02.3-2.13.21-3.09-.19-.18-.14-.35-.27-.53-.4-.35-.44-.59-1.05-.66-1.89-.2-2.42.43-4.87.74-7.31.13-.62.24-1.25.33-1.88,1.12-7.53,5.2-13.78,8.6-20.47,1.58-3.86,3.15-7.72,4.72-11.58.61-1.64,1.26-3.27,1.98-4.86h0s0,0,0,0c.69-1.53,1.47-3.04,2.35-4.52,1.79-3.89,3.42-7.86,7.1-10.9.58-.48.99-1.06,1.26-1.67.34-.42.62-.88.86-1.38,1.12-1.53,2.01-3.32,2.75-4.57,1.43-2.42,3.62-7.34.12-9.11-2.92-1.48-6.11,2.27-7.6,4.18-1.44,1.86-3,3.67-4.27,5.66-.7,1.1-1.02,2.39-1.18,3.69-.37,1.22-.66,2.48-1.08,3.64-.42,1.15-.91,2.18-1.52,3.13-.35.39-.73.75-1.12,1.16-.48.51-.87,1.09-1.21,1.71-.5.62-.92,1.32-1.37,1.91-1.13,1.49-2.37,2.93-3.26,4.56-.63,1.15-.89,2.5-1.27,3.76-1.32,2.84-3.12,5.59-4.89,8.09-2.61,3.47-5.74,6.62-8.47,9.98-2.37,2.91-4.11,6.1-6.04,9.22-.03.04-.07.08-.1.11-2.07,2.86-4.14,4.76-6.56,2.35-.01-.01-.02-.03-.03-.04-3.37-3.24-.26-7.97-1.04-11.98.01-.83-.11-1.58-.48-2.19-.21-.71-.59-1.35-1.28-1.81-2.09-1.42-3.82.49-3.74,2.56,0,0,0,.01,0,.02-.16,1.47-.01,3.38-.34,4.96-.02.04-.05.07-.07.12-.18.54-.51,1.01-.91,1.42-.34.28-.71.54-1.11.75-2.17.77-2.98-.4-3.58-1.86-.09-.32-.16-.65-.23-.98-.21-1.59-.43-3.17-.64-4.76-.06-1.14-.15-2.26-.36-3.29-1.01-5.11-1.36-9.82-1.18-15.02,0-.09,0-.16-.02-.24.39-4.72.78-9.43,1.09-14.15.12-1.78.6-4.18-2.67-4.11-3.03.06-4.76,2.35-3.86,4.39,3.31,7.49,1.32,14.97.75,22.43-.55,3.94-.8,7.97-.3,11.87.48,3.71,2.32,8.11,1.54,11.99-.16.27-.28.56-.38.86-.09.13-.19.27-.31.41-.46.55-.87,1.04-1.58,1.26-.43.13-.92.11-1.4.05-.94-.15-1.87-.46-2.62-.78-2.08-.89-3.15-3.12-3.91-5.09-1.39-3.62-2.28-7.5-2.99-11.34-.1-1.18-.18-2.35-.24-3.53,0-.12,0-.24,0-.36-.05-1.53-.09-3.06-.12-4.59.09-.98.18-1.96.23-2.95.07-1.34.1-2.9-.44-4.17-.08-.26-.17-.51-.29-.75-.76-1.49-2.43-3.15-4.31-2.72-1.59.36-1.43,2.29-1.45,3.57-.05,2.62.83,5.29,1.33,7.92.33,2.78.53,5.57.75,8.36-.03,5.04.15,10.06,1.53,14.95.18.63.39,1.24.62,1.84.44,1.61,1.04,3.16,1.71,4.73.72,1.7,2.14,4.41,2.46,6.84,0,.03,0,.07,0,.1,0,0,0,0,0,0-.04.72-.41,1.48-.98,1.9-.05.04-.1.08-.14.12-.15.1-.31.18-.47.26-.08.02-.15.05-.23.07-.88.11-1.82.04-2.77-.18-2.16-.5-3.5-2.11-4.82-3.73-.56-.69-1.11-1.38-1.66-2.09-.68-.95-1.37-1.89-2.07-2.83-.43-.7-.87-1.39-1.32-2.07-.05-.1-.11-.19-.17-.29-1.38-2.74-2.76-5.48-4.14-8.23-2.12-4.82-4.04-9.71-6.21-14.51-.63-.9-1.25-1.81-1.87-2.71-.14-.23-.29-.45-.46-.65-.32-.47-.65-.94-.98-1.41-2.76-3.87-6.44-6.96-9.38-10.69-.69-.88-1.36-1.78-2.02-2.69-.03-.06-.05-.11-.09-.17-1.58-2.37-4.53-9.25-8.58-6.18-1.66,1.26-.49,3.75.39,5.1,1,1.53,2.14,3,3.29,4.46.66,1.13,1.3,2.28,1.91,3.43.09.24.19.48.28.72,1.76,4.49,3.96,8.79,5.05,13.38,4.41,9.5,5.64,20.32,11.37,29.49.13.2.26.41.38.62.01.02.03.04.04.06h0s0,0,0,0c0,0,0,0,0,0,.45.8.8,1.65,1.01,2.59.06.29.11.59.16.9.11,2.34-.2,4.65-1.73,6.57-.67.83-1.48,1.34-2.38,1.61-3.57-.29-4.8-3.99-6.77-7.36-.13-.22-.28-.43-.42-.64-.26-.68-.55-1.36-.92-2.04-.74-1.38-2.06-2.59-3.05-3.91-.58-1.23-1.12-2.48-1.84-3.63-.95-1.49-2.37-2.63-3.44-4.03-1.26-1.66-1.77-3.76-3.05-5.45-1.38-1.82-3.22-3.1-5.08-4.37-1.47-1.4-3.02-2.73-4.39-4.09-.66-.66-1.3-1.33-1.93-2-.62-.92-1.24-1.85-1.86-2.77-.32-.54-.63-1.08-.94-1.63-.16-.38-.32-.76-.51-1.12-.47-1.2-1.03-2.32-2.13-3.15-1.45-1.1-4.02-.89-5.53-.12-1.61.83-1.84,2.83-1.37,4.37.28.91.95,1.66,1.57,2.35.57.63,1.13,1.24,1.66,1.87.23.35.45.7.65,1.05,1.26,2.18,3.05,4.59,2.73,7.2-.1.83-.78,1.29-1.54,1.18-.59-.3-1.2-.56-1.83-.79-.67-.24-1.7-.03-2.17.49-2.05,2.29.08,5.23,1.69,7.19.31.37.63.74.97,1.1.91,1.36,1.98,2.62,3.03,3.74.95,1.25,2.11,2.27,3.45,3.23,2.1,1.52,4.22,2.99,6.27,4.56,1.19,1.14,2.18,2.43,2.78,4.03.96,2.56,2.67,4.62,4.37,6.69.42.71.83,1.43,1.23,2.15.95,1.72,1.56,3.91-.68,5.17-1.69.95-3.51.1-4.81-1.2-6.32-6.33-13.97-10.83-21.93-14.9-1.83-1.19-3.74-2.64-5.85-3.2-.89-.4-1.81-.62-2.73-.56-3.72.21-4.01,4.02-2,6.44,1.48,1.78,4.25,2.98,6.3,3.91,2.56,1.17,4.57,2.69,6.58,4.6.5.61,1.01,1.2,1.53,1.78.07.14.15.28.24.42,3.21,4.98,6.52,9.19,11.74,12.19,4.13,2.37,7.63,5.6,11.51,8.35.58.55,1.14,1.11,1.67,1.7.15.16.26.35.38.53.55.98.91,2.03,1.11,3.11,0,0,0,.01,0,.02.13,1.35-.21,2.93-1.06,4.04-1.49,1.48-3.5,1.9-5.71,1.66-.78-.17-1.59-.42-2.4-.77-3.1-1.32-5.53-3.85-8.68-5.22-3.09-1.34-6.42-3.23-9.8-3.63-.82-.1-1.61-.21-2.4-.34-2.68-1.1-5.42-2.06-8.26-2.72-1.69-.56-3.38-.79-4.96-.36-3.82,1.04-5.63,4.3-3.94,7.95.94,2.02,3.23,3.49,4.86,4.88,2.01,1.72,2.55,4.02,1.48,5.63-.07.05-.14.1-.21.16l-.15.15c-.07.07-.13.14-.18.22-2.37,1.41-5.39,1.87-8.16,1.75-2.64-.11-5.28-.54-7.92-.55-1.09,0-2.17,0-3.25-.04-.09-.01-.18-.03-.27-.04-2.64-.35-9.08-1.69-10.89,1.14-.38.34-.66.77-.76,1.29-.47,2.42.6,3.93,2.79,4.74.12.05.23.11.35.17.06,0,.11,0,.17,0,.06.02.11.04.16.05,2.12.58,4.98.02,7.16-.04,2.95-.08,5.9-.17,8.85-.25,2-.06,4-.11,5.99-.17,6.43.21,12.86,1.17,19.29,1.81.55.15,1.09.32,1.59.54,1.04.46,2.1,1.2,2.94,1.94.79.69.89,2.1.81,3.49-.99,3.6-4.6,4.97-12.59,4.93-16.71-.08-32.85,2.81-49,5.95-2.32.38-4.63.85-6.96,1.24-2.35.39-8.49-.34-8.58,3.45-.08,3.27,3.21,3.81,5.87,4.2,2.59.38,5.07.29,7.61-.26.12,0,.24-.02.36-.03.56-.2,1.13-.37,1.69-.56.07-.02.13-.04.2-.07,1.77-.59,3.55-1.14,5.34-1.64.33-.05.67-.1,1.02-.12.17-.01.33-.04.48-.08.1-.04.2-.08.3-.12-.05.02-.11.04-.16.06.15-.06.3-.12.44-.18.13-.08.25-.16.36-.26,1.18-.32,2.36-.61,3.57-.83,3.61-.78,7.28-1.37,11.01-1.7,15.6-1.39,31.2-2.73,46.79-4.09h0s0,0,0,0c3.22-.34,6.46-.55,9.65-1.07.11-.02.22-.04.34-.06.26,0,.51-.01.77-.04.01,0,.02,0,.03,0,0,0,0,0,0,0,.11-.01.22-.02.33-.03.67,0,1.37.04,2.03.16.77.24,1.47.65,2.1,1.2.06.08.12.16.19.24.04.11.09.23.12.36.75,2.79-2.27,3.91-4.27,4.46-4.83,1.31-9.84,2.18-14.84,2.87-2.98.41-5.75.88-4.74,4.29.97,3.29,4.04,2.57,6.68,1.92.74-.18,1.5-.35,2.25-.52,2.21-.23,4.55-.29,6.91-.17.11.03.22.05.34.06,5.54.73,10.07,2.05,14.41,5.52,3.58,2.86,6.79,6.21,10.01,9.47.11.15.23.3.38.44.21.2.42.39.64.58.28.28.56.56.84.83.26.25.53.44.81.57.7.57,1.41,1.11,2.14,1.63,8.36,6.66,18.25,10.7,28.78,12.62.78-5.76,1.49-11.45,2.08-17.02-1.5-.03-2.83-.01-4.16-.11-.69-.05-1.38-.27-2.05-.48-.72-.22-1.4-.67-2.13-.75-1.07-.11-1.98-.12-1.88-1.52,0-.08-.01-.16-.04-.25-.23-.17-.38-.38-.49-.6,0-.17.02-.33.03-.5,0,0,0-.01,0-.02v-1.12c0-.24.09-.43.22-.57.1-.2.27-.36.51-.42-1.62-.56-3.22-1.17-4.8-1.85-.18-.2-.4-.38-.63-.55-1.39-.97-2.77-1.93-4.16-2.9-1.49-1.41-2.98-2.82-4.48-4.22l-3.97-6.02c-2.12-3.22-4.17-6.2-5.26-9.9-2.09-7.05-2.72-14.47-2.35-21.78.18-.87.36-1.73.54-2.56.02-.31.04-.61.06-.92.13-.58.27-1.17.45-1.75.06-.49.11-.98.17-1.47.68-2.82,1.56-5.6,2.63-8.35,1.42-3.61,3.28-7.12,5.51-10.34,1.13-1.63,2.42-3.05,3.56-4.57.09-.09.17-.19.26-.28.53-.45,1.07-.89,1.63-1.33.55-.46,1.1-.92,1.68-1.38,1.55-1.22,3.12-2.4,4.74-3.53.79-.57,1.6-1.11,2.43-1.61,1.72-1.08,3.49-2.09,5.34-2.97,4.81-2.28,10.24-2.89,15.53-3.36.75.06,1.51.06,2.25-.05,2.16.07,4.31.28,6.4.64,2.73.24,5.52.66,8.28,1.26.91.43,1.87.75,2.84.95.18.04.35.06.53.08,4.03,1.68,7.94,3.58,11.5,6.19,4.92,3.61,8.97,9.53,10.49,15.38.77,2.95.88,6.02.94,9.05,0,.16,0,.32.01.48,0,.06-.01.12-.01.18-.04.36-.06.71-.05,1.07,0,.06,0,.12.01.18l-.09,1.53c-.06.29-.09.6-.1.94-1.19,4.72-2.66,9.02-6.47,12.43-.88.79-1.83,1.63-2.85,2.37-.8.37-1.61.71-2.43,1-.21.08-.42.17-.62.27-2.16.57-4.38.84-6.6.65-1.25-.24-2.4-.57-3.23-.87-2.66-.97-5.15-2.91-5.94-5.54-.59-1.21-.76-2.53-.29-3.93,0-.14.04-.28.1-.42.13-.27.28-.63.58-.85.38-.27.88-.4,1.35-.33.47.07.75.29.94.58.02.02.03.04.05.05.24.44.44.9.69,1.34.63,1.37,1.93,2.34,3.49,2.65,1.07.33,2.22.39,3.42.11,1.39-.33,2.6-1.24,3.4-2.38.81-.89,1.44-2,1.85-3.28.35-1.08.53-2.18.59-3.28.43-3.41-.38-7.03-1.99-10.19-3.29-6.44-10.73-10.06-17.91-10.9-7.66-.9-15.76.45-21.82,5.19-5.65,4.42-8.89,12.04-9.68,18.8-.44,3.7-.17,7.34.69,10.77.91,5.6,3.43,10.91,7.46,15.36.44.49.92.93,1.41,1.34,1.9-2.6,4.29-4.8,6.69-7.11,3.62-3.49,7.02-7.16,10.44-10.81.1-.11.21-.18.32-.23.12-.14.24-.27.35-.41.35-.42.83-.36,1.15-.09.35.12.64.37.99.7.06.06.13.13.19.19,1.98,1.43,3.81,3.09,5.57,4.84,1.79,1.67,3.51,3.45,5.18,5.24,3.52,3.12,6.86,6.41,9.65,10.19.11.16.16.31.17.45Z" style="fill: #fff;"/>
  </g>
  <path d="M417.94,276.06c-3.59-.06-7.09-.98-10.11-3.03-1.71-1.16-3.48-2.35-4.82-3.88-1.67-1.89-3.08-4.05-4.31-6.26-1.16-2.08-2.13-4.31-2.86-6.57-.58-1.81-.71-3.77-.99-5.66-.42-2.77-.96-5.54-1.15-8.33-.21-3.16-.2-6.34-.1-9.5.13-3.68.28-7.38.75-11.02.56-4.31,1.47-8.58,2.27-12.87.51-2.76-.71-4.37-3.57-4.51-3.46-.18-6.44,1.38-9.49,2.67-.9.38-1.88.62-2.7,1.13-2.02,1.26-4.09,2.48-5.89,4-1.58,1.33-3.22,2.86-4.13,4.64-1.49,2.93-2.41,6.14-3.58,9.23-2.85,7.54-5.66,15.09-9.76,22.1-.61,1.04-1.34,2-2.23,3.32-1.37-2.94-2.69-5.48-3.75-8.11-1.08-2.68-1.99-5.44-2.85-8.2-1.14-3.65-2.33-7.3-3.21-11.01-1.01-4.26-1.75-8.58-2.55-12.88-.06-.34-.12-.69-.18-1.03-.02-.38-.06-.75-.13-1.12-.09-2.1-.46-4.1-2.87-4.5-2.91-.48-7.46,2.1-9.78,3.74-2.5,1.76-4.04,5.29-4.96,8.3-.11.21-.19.43-.25.67-.64,1.49-1.22,3.02-1.81,4.52-1.54,3.88-3.03,7.78-4.36,11.73-.19.56-.35,1.12-.52,1.68-.06-.6-.12-1.2-.18-1.8-.31-3.27-.45-6.57-.83-9.83-.42-3.67-1.02-7.32-1.55-10.98-.37-2.58-.73-5.16-1.1-7.74-.27-1.9-.55-3.8-.81-5.69-.36-2.62-.71-5.25-1-7.88-.1-.88.02-1.78.04-2.33.84-.48,1.42-.93,2-1.17,1.55-.1,3.1-.21,4.65-.31.13,0,.28-.02.43-.04.18.02.35.04.53.07.59.07,1.05-.43,1.23-.88.44-1.08.92-1.86.42-2.97,0,0,0,0,0-.01-.03-.09-.09-.18-.15-.26-.02-.04-.04-.08-.06-.11-.06-.39-.34-.72-.87-.69-.52.03-1.04.06-1.55.08-.06,0-.1.03-.16.04-.28-.05-.57-.11-.85-.19-.2-.15-.45-.25-.77-.26-1.84-.04-3.69-.07-5.53-.11-.62-3.61-1.22-7.12-1.82-10.61.77,0,1.54,0,2.31-.02.02,0,.03,0,.05.01.56.04,1.13-.01,1.68-.14.3.01.61.04.91.04.14,0,.26-.03.37-.07.36-.05.67-.29.61-.74-.21-1.54-.32-3.09-.69-4.58-.21-.85-.5-1.68-.95-2.48-.12-.21-.25-.42-.38-.62,0-.14-.05-.3-.17-.45-2.79-3.79-6.12-7.08-9.65-10.19-1.67-1.8-3.38-3.58-5.18-5.24-1.75-1.76-3.59-3.41-5.57-4.84-.06-.06-.13-.13-.19-.19-.34-.33-.63-.58-.99-.7-.33-.27-.8-.33-1.15.09-.12.14-.24.27-.35.41-.11.05-.22.12-.32.23-3.42,3.66-6.83,7.33-10.44,10.81-2.4,2.31-4.79,4.51-6.69,7.11-.1.14-.2.27-.3.41-.29.32-.59.64-.87.97-2.26,2.7-2.24,5.26-2.65,8.62-.07.6.4.87.89.85.15.09.31.16.49.16,2.03,0,4.06.05,6.08.19.05,0,.1,0,.16,0,.29.09.41.49.49.86-.44,3.56-.87,7.07-1.29,10.54-3.36-.02-6.72,0-10.08.06-.17,0-.31.05-.43.11-.09,0-.18,0-.27,0-.11,0-.2,0-.29.03-.24.06-.41.23-.51.42-.13.14-.22.32-.22.57v1.12s0,.01,0,.02c-.01.17-.02.33-.03.5.11.22.27.43.49.6.03.08.05.17.04.25-.1,1.39.82,1.4,1.88,1.52.73.08,1.41.53,2.13.75.67.21,1.36.43,2.05.48,1.32.1,2.66.08,4.16.11-.6,5.58-1.3,11.27-2.08,17.02-3.43,25.25-8.34,51.81-12.13,76.09-1.5-.09-2.99-.21-4.47-.34-13.08-1.22-25.75-4.27-38.56-6.89,0,0,0,0,0,.01-.5-.11-1-.2-1.5-.3-4.28-1.31-8.62-2.42-12.98-3.43-.24-.22-.55-.37-.88-.34h-.07c-.45-.2-.92-.35-1.45-.45-3.48-1.2-6.8-2.39-10.37-3.03-.15-.11-.33-.19-.55-.23-5.94-1.08-11.89-1.61-17.34.29-3.05.72-5.7,2.11-7.22,4.62-3.02,3.71-4.61,9.75-.28,12.42,2.73,1.69,6.16-1.12,7.9-3.01,2.45-2.67,3.76-6.54,6.48-8.79,1.77-.89,3.63-1.41,5.96-1.44,4.35-.05,8.86,2,12.95,3.31.96.31,1.93.6,2.89.9,5.84,2.47,11.8,4.52,17.89,6.11,10.8,3.44,21.78,6.31,32.99,7.8,13.39,1.78,31.39,3.97,43.76-2.71,17.05-9.21,24.98-24.28,31.95-43.47,1.86-4.75,3.53-8.08,4.79-10.67.03.06.05.12.08.17.93,5.25,1.66,10.53,2.19,15.84.14,2.66.15,5.34.22,8,.03,1.09.04,2.18.04,3.28.01,2.42,0,4.84.03,7.26,0,.9.02,1.8.12,2.69.18,1.61.06,3.38.76,4.76.63,1.25,2.04,2.28,3.33,3.03,2.4,1.39,5.19,2.27,7.71.7,1.85-1.15,3.43-2.92,4.72-4.7,1.62-2.23,2.87-4.72,4.18-7.16,1.29-2.4,2.54-4.84,3.67-7.32.89-1.96,1.53-4.03,2.33-6.03.89-2.2,1.93-4.35,2.75-6.58,1.19-3.26,2.24-6.56,3.36-9.84.95-2.8,1.84-5.62,2.9-8.38.78-2.02,1.79-3.95,2.7-5.92.2.01.4.03.6.04.26,1.94.47,3.88.79,5.81,1.06,6.39,2.12,12.78,3.25,19.16.4,2.27.98,4.51,1.5,6.76.41,1.78.65,3.62,1.31,5.3,1.7,4.28,3.5,8.57,6.73,12,2.57,2.72,4.79,5.75,8.14,7.79,4.23,2.57,8.78,3.83,13.64,4.14,1.45.09,2.94-.16,4.4-.31,4.89-.49,9.1-2.28,12.04-6.33,1.07-1.47,1.52-3.15,1.74-5.37-.67.6-1,.89-1.32,1.19-2.46,2.43-5.6,3.42-8.91,3.37ZM283.27,172c1.41.13,2.79.02,4.15-.17,0,0,0,0,0,0,.72,0,1.45.01,2.17.02.19,0,.33.05.43.13.05,1.79.1,3.6.15,5.41-.05.11-.09.23-.08.37.07,1.59.01,3.17-.16,4.74-1.34.1-2.67.23-3.99.41-.11.01-.18.05-.26.09-1.15-.05-2.3-.12-3.43-.18.34-3.68.68-7.26,1.01-10.83ZM298.74,272c-4.5,4.09-9.58,6.71-14.97,8.31.34-5.01.75-11.35,1.83-15.28.59-2.16.4-4.51.69-6.76.2-1.56.66-3.1.95-4.65.19-1.02.27-2.06.43-3.08.44-2.65.45-2.65,2.23-4.96.77-.27,1.57-.65,2.4-.82,2.43-.51,5.29.86,6.22,3.04.44,1.03.67,2.17.86,3.27.84,5,1.65,10,2.41,15.01.13.84.24,1.68.35,2.53-1.08,1.17-2.21,2.31-3.41,3.4ZM304.63,182.33s-.04.03-.07.04c-2.64-.09-5.29-.15-7.92-.13-.16-2.06-.31-4.11-.46-6.15.02-1.63.04-3.26.07-4.89,1.14-.08,2.28-.15,3.42-.2,1.43.1,2.86.22,4.27.32.45,3.36.88,6.64,1.32,9.96-.06.49-.22.93-.63,1.05Z" style="fill: #fff;"/>
  <path d="M572.05,245.41c-.95-2.29-4.69-4.17-6.82-2.9-2.42,1.44-3.45,4.3-2.55,7.03.56,1.69,1.54,2.54,3.29,2.35,1.03-.12,2-.81,3-1.24.04.04.08.08.12.11.05.38.24.81.13,1.14-1.06,3.09-2.37,5.87-5.57,7.47-3.97,2-6.21-.11-6.74-3.72-.46-3.09-.65-6.24-.63-9.37.02-3.31.61-6.58,1.63-9.76.81-2.53,1.67-5.06,2.17-7.66.6-3.15-1-5.27-4.33-5.08-2.48.14-4.82.94-6.7,2.74-.82.78-1.62.9-2.7.38-1.65-.79-3.26-1.75-5.28-1.39-3.16.55-6.37.78-9.51,1.42-2.77.56-5.33,1.87-7.46,3.75-1.54,1.36-3.06,2.91-4.05,4.69-1.18,2.11-1.93,4.52-2.59,6.88-.67,2.42-.83,4.99-1.53,7.4-.48,1.66-1.12,3.68-2.37,4.61-2.83,2.11-6.03,3.74-9.18,5.37-1.57.81-3.13-.38-2.99-2.18.19-2.49.36-5.01.9-7.43.72-3.24,1.75-6.42,2.7-9.6.77-2.58,1.4-5.23,2.47-7.69.92-2.12,1.13-4.2,1.02-6.43-.12-2.39-2.43-4.57-4.78-4.26-1.59.21-3.19.45-4.82.71-.42.03-.84.08-1.26.14-.95.02-1.9.04-2.76.43-.37.09-.71.37-.76.84-.82,7.85-1.97,15.65-3.46,23.41-.02.11,0,.21,0,.31-.12.45-.24.91-.39,1.36-.6,1.91-1.44,3.96-2.77,5.36-3.02,3.17-7.01,4.58-11.29,4.99-2.44.24-4.99-1.32-5.1-4.24-.09-2.24-.17-4.55.23-6.74.8-4.38,1.81-8.74,2.97-13.04.93-3.43,2.38-6.71,3.29-10.15.77-2.92.19-5.34-3.15-5.72-3.13-.36-6.17.09-9.07,1.39-2.73,1.22-3.53,2.81-3.18,5.91.28,2.47.52,4.95.56,7.43.03,1.95-.2,3.91-.46,5.84-.39,2.99-.65,6.02-1.41,8.92-1.03,3.92-2.34,7.83-5.8,10.38-2.15,1.59-5.59,1.92-6.59-1.56-1.09-3.79-.76-7.6-.24-11.41.38-2.79.94-5.56,1.41-8.34.37-2.16.73-4.33,1.12-6.49.35-1.97.83-3.92,1.06-5.9.17-1.51-1.06-2.97-2.54-2.8-2.28.26-4.58.72-6.73,1.5-1.14.42-1.98,1.7-3,2.63-3.26-2.97-7.11-4.31-11.21-4.82-3.35-.42-6.41,1.04-9.49,2.13-1.22.43-2.53.88-3.53,1.68-2.94,2.36-5.84,4.8-8.58,7.4-2.67,2.54-3.97,5.83-4.22,9.54-.42,6.1.77,11.84,3.57,17.26,2.3,4.44,7.37,8.48,13.01,7.6,4.7-.74,8.58-2.76,11.83-6.21.75-.8,1.6-1.5,2.5-2.33.18.45.29.68.36.92.95,3.24,3.06,5.65,5.84,7.21,3.9,2.19,8.1,2.6,12.18.41,1.93-1.03,3.67-2.44,5.43-3.77,2.23-1.67,4.17-1.51,6.25.32,2.6,2.29,4.8,5.03,8.38,6.08,3.89,1.14,7.62,1.98,11.4-.19,1.12-.64,2.25-1.24,3.52-1.94-.21,1.09-.37,2.11-.61,3.1-.4,1.69-1.12,4.6-1.94,7.95-9.8,1.35-19.26,4.63-26.5,11.13-.15.12-.31.23-.47.36-4.29,3.6-7.78,9.01-8.87,14.56-.25,1.26-.36,2.53-.35,3.79-.05.11-.08.25-.08.4.04,1.77.15,3.62.8,5.23,1.19,6.3,5.3,11.95,11.75,14.12,2.35.79,5,1.05,7.62.78,2.03.03,4.07-.27,6.12-.75,3.64-.85,7.02-2.13,9.62-5,3.17-3.5,4.29-8.05,5.91-12.3.92-2.41,1.34-5.03,1.95-7.56.26-1.06.46-2.13.65-3.21.48-2.69,2.1-10.13,3.46-16.25,5.58-.35,11.2-.39,16.62-.64,7.53-.35,14.99-1.41,22.12-4,2.5-.91,7.22-2.5,8.57-5.34,1.08-1.3,1.51-3.17,1.18-4.88-.27-1.42-1.31-1.52-2.49-1.49-.48.01-.9.21-1.27.51-1.99.8-3.81,3.15-5.09,4.47-3.52,3.59-7.69,4.75-12.21,5.61-5.95.68-12.19.34-18.35.07-.05-.01-.09-.04-.14-.04-2.46-.19-5-.31-7.57-.33.18-.82.34-1.51.45-2.02.46-2.06,1.53-3.97,2.34-5.94,1.3-3.16,3.2-5.91,6.06-7.74,2.52-1.62,5.23-2.95,7.89-4.34,1.54-.8,3.07-.12,3.76,1.46.63,1.45,1.35,2.86,2.01,4.29,1.44,3.14,4.11,4.28,7.27,4.43,1.07.05,2.15-.35,3.23-.52,4.27-.66,8.05-2.38,11.33-5.25,1.32-1.16,3.42-.66,4.36.67.95,1.35,2.05,2.73,3.38,3.63,4.75,3.2,9.65,2.43,14.11-.51,3.65-2.41,5.93-6.27,7.64-10.26,1.52-3.55,2.63-7.26.97-11.29ZM432.22,238.95c-.39,2.86-.52,5.77-1.03,8.6-.35,1.92-.82,4.02-1.89,5.56-1.33,1.92-2.6,4.2-5.2,4.86-1.62.41-4.46-1.2-5.17-2.78-1.82-4.07-2.22-8.46-2.99-12.78-.64-3.56.24-6.81,2.52-9.34,2.44-2.71,5.65-4.42,8.88-4.61,1.9.04,3.54,1.48,4.06,3.18.73,2.38,1.17,4.78.83,7.31ZM479.47,298.86c-.59,2.34-1.15,4.71-1.88,7-.32.61-.59,1.24-.8,1.9-.43.9-.87,1.8-1.3,2.68-.58.87-1.21,1.72-1.72,2.63-.1.18-.21.34-.32.52-.27.26-.51.54-.73.84-.73.63-1.47,1.24-2.28,1.77-1.83,1.21-3.97.9-5.97.29-2.05-1.23-3.84-3.33-4.38-5.17-.43-1.45-.4-3.09-.37-4.63.06-3.2,1.52-6.33,3.35-9.06.54-.58,1.03-1.22,1.55-1.84,4.68-4.57,10.88-7.27,17.19-9.03.24-.06.47-.11.71-.17-1.25,5.04-2.46,9.88-3.05,12.26ZM538.13,255.07c-1.66,1.22-3.35,2.21-5.45,2.36-3.03.21-4.43-.64-5.47-3.74-1.42-4.27-1.14-8.57-.21-12.86.88-4.04,3.76-6.25,7.33-7.68,1.09-.44,2.25-.7,3.05-.94,1.78.12,2.93.73,3.51,2.07.79,1.82,1.56,3.6,1.28,5.76-.22,1.72.27,3.53.21,5.29-.12,3.8-.96,7.32-4.25,9.74Z" style="fill: #fff;"/>
  <path d="M80.54,208.37c3.53,2.04,7.53,1.55,11.32,1.61,6.62.1,13.24-.39,19.87-.53,7.4-.15,14.81-.33,22.22-.22,5.35.08,10.68.77,16.03.88,3.9.07,7.05,1.82,9.61,4.24,2.72,2.59,4.47,6.08,4.92,9.89.36,3.03.3,6.11.4,9.17.13,4.05.14,8.1.36,12.15.15,2.77.43,5.56.95,8.28.44,2.32,2.28,3.78,4.05,5.24,1.88,1.55,3.82,2.28,5.72,2.29,3.8.96,6.95-1.12,9.96-3.85,3.22-2.93,6.3-6.03,9.27-9.21,0,.05,0,.1,0,.14,0,2.35-.29,4.75.09,7.03.59,3.45,1.7,6.71,4.66,9.12,2.54,2.07,5.43,3.26,8.52,3.08,5.67-.34,10.61-2.74,14.69-6.73.99-.97,1.91-2,3.05-3.2.15.86.15,1.54.4,2.11,1.17,2.72,2.52,5.11,5.3,6.85,4.33,2.7,8.58,2.56,12.88.7,4.91-2.12,8.71-5.62,11.66-10.14,2.67-4.09,4.67-8.22,4.37-13.31-.09-1.46-.3-2.67-.67-3.66-.02-.17-.05-.34-.1-.51-.1-.35-.31-.66-.54-.95-.36-.68-.97-1.23-1.74-1.65-.03-.01-.05-.03-.08-.04-.15-.08-.31-.16-.47-.23-1.96-.87-3.71-.4-5.36.86-1.66,1.26-2.96,3.1-2.69,5.27.14,1.13.69,2.1,1.52,2.64.64.58,1.5.93,2.54.93,1.3.17,2.7-.19,3.64-1.05.04.54.06,1.09.06,1.63-.09.97-.18,1.9-.43,2.79-.85,3.07-2.85,5.31-5.44,7.18-4.34,3.13-8.98,2.03-10.54-2.93-.84-2.7-.57-5.9-.14-8.78.45-3.03,1.75-5.92,2.56-8.91,1.1-4.05,2.69-7.94,2.65-12.32-.04-3.6-3.13-6.82-6.69-5.76-1.93.57-3.64,1.9-5.68,3.01.02.01-.37-.14-.61-.42-2.08-2.42-4.98-2.82-7.85-2.81-4.71,0-9.38.59-13.6,2.92-2.88,1.59-5.47,3.54-7.2,6.44-.69,1.16-1.33,2.37-2.07,3.5-.38,1.09-.93,2.07-1.58,2.97-4.53,4.38-9.6,8.4-15.75,9.51-1.37.14-2.72.02-3.74-.58-.68-.54-1.12-1.3-1.42-2.16,0-.08-.02-.16-.05-.23-.09-.25-.16-.49-.21-.73,0-.01,0-.02,0-.04-.02-.28-.05-.56-.09-.83,0-2.61-.01-5.22-.02-7.83.03-1.82.06-3.64.08-5.46.37-2.07.71-4.24,1.74-5.96,2.61-4.39,7.15-6.43,11.83-7.92,2.31-.74,4.77-1.07,7.19-1.42,2.51-.36,5.05-.61,7.58-.73,2.45-.12,5.47,0,7.92,0,2.57,0,5.15-.05,7.72,0,3.2.06,8.07.3,11.27.27.8.06,1.61.09,2.41.12,2.38.24,5.31.55,7.71.76,0,0,.02,0,.02,0,.5.07,1,.11,1.51.14,1.42.24,2.87.2,3.35-1.49.47-1.65-1.73-3.95-3.2-4.3-1.31-.31-2.49-.24-3.81-.05-2.31.34-5.12.66-7.44.79-1.85.07-4.82.1-6.67.13-.91-.01-2.37-.02-3.28-.04-3.23-.06-6.45-.21-9.67-.27-2.22-.05-4.99-.13-7.2-.02-3.03.15-6.06.66-9.08.68-3.46.03-6.95-.08-10.37-.55-4.34-.59-6.56-3.5-5.74-7.4.77-3.67,1.96-7.25,2.91-10.89.55-2.09,1.19-4.19,1.43-6.32.47-4.17-2.22-6.88-6.32-5.97-3.54.79-6.99,2.2-10.31,3.71-2.44,1.1-2.46,3.72-2.75,6.05-.51,4.03-.75,8.13-1.75,12.03-.96,3.74-4.02,6.13-7.69,6.99-3.64.84-7.44,1.15-11.19,1.29-4.86.18-9.73.03-14.6-.08-4.75-.11-9.5-.37-14.25-.51-2.46-.07-4.93-.15-7.38.01-3.88.26-7.76.71-11.63,1.11-2.86.29-5.7.72-8.56.89-2.37.14-4.75,0-7.12-.02-.02-.18-.04-.36-.06-.54.96-.48,2-.87,2.87-1.47,1.29-.89,2.78-1.94,2.52-3.67-.28-1.84-1.34-3.59-3.3-4.06-1.61-.38-3.39-.41-5.03-.17-3.46.5-5.93,4.21-4.92,7.27.75,2.26,2.89,3.19,4.77,4.28ZM208.06,242.62c1.25-5.84,4.23-10.74,8.63-14.71,2.2-1.99,4.94-3.2,7.94-3.59,3.17-.41,5.69,2.05,6.43,5.76.6,2.99-.16,5.68-1.22,8.37-.86,2.18-1.61,4.42-2.69,6.5-.99,1.92-2.21,3.78-3.59,5.45-1.79,2.19-3.69,4.34-5.84,6.16-.99.84-2.7.85-4.08,1.24-3.53-.27-5.85-2.46-6.12-5.91-.11-1.39-.46-2.78-.37-4.15.12-1.72.53-3.42.9-5.11Z" style="fill: #fff;"/>
  <path d="M157.38,257.55c-2.08-2.93-3.96-6.01-6.23-8.79-2.16-2.65-4.81-4.9-7.05-7.49-2.99-3.46-5.79-7.06-7.96-11.13-2.06-3.87-1.37-8.13,2.18-9.6,2.13-.88,4.32-.97,6.33.2,2.73,1.6,4.97,3.79,6.69,6.45.36.56.57,1.22.81,1.74-.99.06-1.84-.08-2.52.19-1.87.76-2.86,3.11-2.24,5.03.97,3.01,3.19,4.96,5.9,6.28,1.44.7,3.28,1.01,4.53-.46.76-.9,1.36-2.11,1.58-3.27.61-3.15.12-6.26-1.16-9.18-1.67-3.84-3.32-7.68-7.15-10.07-2.46-1.53-5.01-2.91-7.91-2.89-4.07.03-8.02.79-11.6,3.02-3.16,1.97-5.04,4.82-5.62,8.34-.36,2.16-.12,4.46.16,6.65.21,1.66.7,3.37,1.45,4.86.92,1.82,2.12,3.54,3.44,5.1,3.23,3.83,6.58,7.57,9.93,11.3,2.53,2.81,4.61,5.71,4.02,9.83-.42,2.97-1.61,5.39-4.51,6.39-4.42,1.53-8.37.69-11.54-2.98-2.07-2.39-2.6-5.34-1.14-7.56-1.71,0-3.81,1.85-4.4,3.64-1.68,5.01.12,9.17,3.48,12.67,3.16,3.29,7.26,5.28,11.81,5.87.75.1,1.5.13,2.26.13,2.89.23,5.71.1,8.43-1.04,4.01-1.28,7.61-4.51,9.3-8.36,1.06-1.94,1.5-4.09,1.37-6.38-.17-3.01-.84-5.93-2.65-8.47Z" style="fill: #fff;"/>
  <path d="M121.3,245.51c.14-1.95.19-3.9.22-5.85.03-2.02.18-4.06-.08-6.05-.59-4.56-2.06-8.89-4.47-12.83-3.91-6.39-6.87-7.13-12.99-5.77-6.96,1.54-11.95,6.15-15.57,11.88-2.66,4.2-4.61,8.92-5.54,13.94-1.53,8.29.05,15.74,5.71,22.21,3.1,3.54,6.99,5.21,13.01,5.32.03,0,.08-.02.11-.03,2.75.2,5.55-.86,7.91-2.48,1.53-.87,2.68-2.22,3.96-3.45,4.82-4.64,7.28-10.3,7.75-16.88ZM110.67,257.35c-.35.53-.88.95-1.32,1.42h0c-.23.14-.44.31-.66.53-.18.18-.41.32-.65.46-.09.05-.19.11-.28.16-.14.07-.27.15-.4.22-1.75.89-3.64,1.35-5.65.96-1.37-.58-2.61-1.77-3.42-3.31-2.87-5.46-4.55-11.29-5.24-17.38-.3-2.67-.4-5.4-.24-8.08.21-3.7,2.58-6.27,5.22-8.59,3.67-3.22,8.86-1.63,10.33,3.07.88,2.81,2.1,5.51,2.92,8.33.67,2.32,1.11,4.72,1.41,7.12.31,2.41.38,4.85.45,7.29.09,2.86-.87,5.44-2.46,7.8Z" style="fill: #fff;"/>
  <path d="M84.24,279.43c-.76-1.22-1.7-2.32-2.56-3.48-.14.09-.28.17-.42.26.04.23.06.47.12.69,1.1,3.63.24,7.16-.89,10.54-1.1,3.29-3.09,6.17-5.31,8.9-2.47,3.04-5.26,5.76-8.64,7.63-3.66,2.02-7.59,3.32-11.96,3.43-4.56.11-8.74-.86-12.56-3.14-2.72-1.62-5.25-3.6-7.75-5.56-2.44-1.91-4.45-4.24-5.97-6.97-1.04-1.87-2.15-3.71-3.17-5.6-1.01-1.86-2.32-3.65-2.84-5.65-1.08-4.15-1.83-8.39-2.5-12.63-.31-1.97-.24-4.02-.15-6.03.07-1.64.37-3.28.68-4.89.53-2.75,1.16-5.48,1.63-7.67.87-2.31,1.37-4.14,2.21-5.79,1.67-3.25,3.87-6.16,6.42-8.81,3.29-3.43,6.64-6.82,11.08-8.79.02,0,.04-.02.06-.03.09-.04.18-.08.27-.12.17-.11.35-.21.53-.3,5-3.39,12.86-4.81,17.52-.84-.3-.63-.66-1.22-1.1-1.77-1.04-1.12-2.09-2.25-3.25-3.23-3.39-2.85-7.21-4.96-11.72-5.33-3.23-.26-6.14,1.02-9.11,2.21-4.76,1.91-8.64,5.06-12.59,8.11-3.86,2.98-6.98,6.71-9.65,10.78-2.03,3.09-4.02,6.21-5.81,9.44-1.11,2.01-1.94,4.21-2.64,6.41-1.09,3.44-2.19,6.9-2.86,10.43-.63,3.32-.64,6.75-1.07,10.11-.59,4.63-.08,9.22.82,13.69.87,4.37,2.4,8.62,3.8,12.87.62,1.9,1.45,3.77,2.48,5.48,1.56,2.6,3.22,5.19,5.12,7.55,2.13,2.64,4.33,5.34,6.97,7.42,2.84,2.23,6.22,3.81,9.4,5.61,4.89,2.76,10.28,3.82,15.81,4.13,2.89.16,5.81-.13,8.7-.31.94-.06,1.88-.36,2.78-.66,1.47-.49,2.94-.98,4.34-1.61,2.86-1.29,5.97-2.29,8.45-4.11,3.53-2.59,6.66-5.74,9.8-8.82,1.76-1.72,3.49-3.6,4.67-5.72,1.29-2.3,1.99-4.94,2.85-7.47,1.25-3.69,1.49-7.47.81-11.31-.56-3.14-1.07-6.31-2.81-9.07Z" style="fill: #fff;"/>
  <path d="M66.34,226.12c1.93,5.14,2.3,10.38.24,15.67-1.46,3.75-3.72,6.53-7.75,7.59-2.75.72-5.32.48-7.3-1.78-.79-.9-1.34-2-2.13-3.19-.13.67-.33,1.25-.33,1.84-.02,4.22,2.69,6.78,5.87,8.8,1.37.87,3.22,1.07,4.89,1.36,4.36.75,8.45.11,11.98-2.75,3.17-2.58,5.7-5.74,7.52-9.35,2.2-4.35,2.5-9.05,1.33-13.74-1.3-5.24-3.67-9.91-8.38-13.01-2.12-1.39-4.19-3.03-6.54-3.85-3.11-1.09-6.44-1.69-9.73-2.09-2.19-.27-4.47.18-6.71.31,4.36,1.56,7.95,4.06,11.32,6.97,2.37,2.05,4.61,4.28,5.7,7.2Z" style="fill: #fff;"/>
</svg>