<?xml version="1.0" encoding="UTF-8"?>
<svg id="Capa_2" data-name="Capa 2" xmlns="http://www.w3.org/2000/svg" viewBox="0 0 195.8 169.29">
  <defs>
    <style>
      .cls-1 {
        fill: #fff;
      }
    </style>
  </defs>
  <g id="Capa_1-2" data-name="Capa 1">
    <g>
      <path class="cls-1" d="M89.41,24.43c.89-2.01,1.46-3.99,1.72-5.93.26-1.95.31-3.77.16-5.46-.16-1.69-.46-3.18-.9-4.47-.44-1.29-.95-2.3-1.53-3.01-.58-.72-1.27-1.36-2.08-1.94-.81-.58-1.65-1.08-2.51-1.52-.86-.44-1.67-.8-2.43-1.07-.76-.28-1.4-.5-1.92-.66-.89-.24-1.62-.36-2.19-.36-2.56-.08-5.02.28-7.37,1.07-2.35.8-4.58,1.89-6.7,3.28-2.12,1.39-4.06,3.01-5.84,4.86-1.78,1.85-3.37,3.76-4.78,5.73-1.41,1.97-2.61,3.94-3.6,5.9-.99,1.97-1.75,3.77-2.27,5.4-.84,2.74-1.16,5.03-.98,6.86.18,1.83.63,3.29,1.33,4.38.7,1.09,1.57,1.88,2.59,2.36.67.32,1.29.53,1.86.65h.03s.55.15,1.13.18c1.41.04,2.61-.2,3.6-.72.99-.52,1.8-1.11,2.43-1.79.73-.76,1.33-1.63,1.8-2.62-.78.99-1.57,1.72-2.35,2.18-.78.46-1.5.77-2.16.92-.65.16-1.2.21-1.64.15-.44-.06-.72-.11-.82-.15-1.05-.32-1.83-.86-2.35-1.61-.52-.76-.85-1.64-.98-2.65-.13-1.01-.1-2.1.08-3.25.18-1.15.43-2.31.74-3.46.89-2.74,1.93-5.08,3.13-7.01,1.2-1.93,2.19-3.41,2.98-4.44,3.24-3.9,6.27-6.82,9.09-8.77,2.82-1.95,5.29-3.29,7.4-4.03,2.12-.73,3.85-1.09,5.21-1.07,1.36.02,2.19.05,2.51.09.37.04.94.39,1.72,1.04.78.66,1.49,1.68,2.12,3.07.63,1.39,1.04,3.18,1.25,5.37.21,2.19-.08,4.83-.86,7.93-.63,2.47-1.44,4.56-2.43,6.29-.99,1.73-2.05,3.18-3.17,4.35-1.12,1.17-2.22,2.12-3.29,2.83-1.07.72-2,1.29-2.78,1.73-.68.4-1.44.74-2.27,1.01l.23-2.5c.26-2.15.58-4.27.94-6.38.37-2.11.84-4.21,1.41-6.32.42-1.39.84-2.82,1.25-4.29.42-1.47,1.07-2.84,1.96-4.12.16-.2.3-.4.43-.6.13-.2.2-.4.2-.6-.05-.2-.18-.32-.39-.36-.21-.04-.39-.06-.55-.06-1.05.12-1.93.42-2.66.89-.73.48-1.36,1.04-1.88,1.7-.52.66-.94,1.35-1.25,2.09-.31.74-.58,1.42-.78,2.06-1.05,3.1-1.84,6.26-2.39,9.48-.55,3.22-.93,6.44-1.14,9.66-.84-.2-1.49-.56-1.96-1.07-.1.4-.08.8.08,1.19.1.32.29.67.55,1.04.26.38.68.69,1.25.92v2.21c0,1.95.1,3.92.31,5.9.21,1.99.68,3.94,1.41,5.84.16.44.36.91.63,1.43.26.52.6,1,1.02,1.46.42.46.91.81,1.49,1.07.57.26,1.23.35,1.96.27.21-.04.42-.1.63-.18.17-.08.29-.14.47-.23.18-.1.4-.28.47-.48.04-.14.03-.25-.04-.33-.1-.11-.21-.08-.35-.09-.99-.08-1.74-.43-2.23-1.04-.5-.62-.88-1.24-1.14-1.88-.37-.99-.54-2.08-.51-3.25.03-1.17.04-2.3.04-3.37,0-2.27.08-4.57.23-6.92.89-.12,1.72-.31,2.51-.57.78-.26,1.46-.53,2.04-.8.1-.08.18-.12.23-.12,0-.04.03-.06.08-.06.73-.36,1.37-.72,1.92-1.07.55-.36.95-.64,1.22-.84,2.45-1.67,4.45-3.48,5.99-5.43,1.54-1.95,2.76-3.93,3.64-5.93"/>
      <path class="cls-1" d="M136.55,20.19c1.14.18,1.95.39,2.44.61.49.22.76.42.8.61.04.18.06.29.06.33.17-.48.07-.96-.29-1.46-.36-.5-1.15-.92-2.35-1.27-1.2-.35-2.86-.61-4.98-.77-2.12-.17-4.85-.19-8.2-.08-.9.04-1.76.06-2.57.08-.81.02-1.59.06-2.31.14-.09-.92-.31-1.63-.68-2.12-.27-.37-.61-.58-1.02-.63h0s0,0,0,0c0,0,0,0,0,0-.09-.01-.18-.02-.27-.02-.23,0-.46.02-.67.1-.57.21-1.06.58-1.45,1.11-.45.61-.83,1.28-1.12,2.01-2.31.29-4.24.59-5.79.88-1.54.29-2.44.48-2.7.55-.09.04-.14.07-.16.11-.02.04-.05.07-.1.11-.21.37-.24.74-.06,1.1.09.18.2.31.35.39.15.07.29.13.42.16,0,.04.11.06.32.06,1.97-.44,4.26-.83,6.88-1.16-.3,1.47-.58,3.12-.84,4.96-.07.53-.14,1.02-.2,1.51-.18,1.54-.48,3.06-.91,4.55-.64,1.87-1.22,3.51-1.74,4.9-.21.62-.44,1.21-.67,1.76-.24.55-.45,1.03-.64,1.43-.19.4-.38.71-.55.91-.17.2-.52.26-.65.14-.39-.44-.63-.98-.74-1.63-.11-.64-.14-1.36-.1-2.15.04-.79.15-1.62.32-2.48.17-.86.39-1.72.64-2.56.56-1.95,1.33-4.02,2.31-6.23.09-.18.09-.31.03-.41-.05-.1-.1-.17-.16-.25-.09-.11-.25-.23-.48-.36-.24-.13-.57-.21-1-.25-.6-.04-1.11,0-1.54.11-.22.11-.38.24-.48.39-.11.15-.18.26-.23.33-.04.06-.03.05-.06.09-.02.03-.01.03-.03.06-.02.04-.03.07-.04.12-.22.4-.47.7-.77.88-.3.18-.58.31-.84.39-.34.11-.67.15-.96.11-.26,0-.43-.02-.51-.05.09-.44.16-.93.22-1.46.06-.53.08-1.05.03-1.54-.04-.5-.14-.93-.29-1.3-.15-.37-.38-.62-.68-.77-.43-.15-.84-.17-1.22-.06-.34.07-.65.29-.93.63-.28.35-.48.95-.61,1.79-.13.92,0,1.71.39,2.37.39.66.99,1.18,1.8,1.54-.13.81-.28,1.57-.45,2.29-.08.32-.16.62-.24.92-.2.02-.42.07-.67.15-.09.07-.17.14-.26.19-.09.06-.15.1-.19.14-.21.29-.61.77-1.19,1.43-.58.66-1.3,1.23-2.15,1.71.17-.62.34-1.43.51-2.42.17-.99.24-1.99.19-3-.04-1.01-.24-1.96-.58-2.84-.34-.88-.96-1.51-1.86-1.87-.56-.26-1.14-.31-1.74-.16-.51.11-1.08.39-1.7.85-.62.46-1.23,1.26-1.83,2.4-.13.29-.26.62-.39.99-.09.29-.18.63-.29,1.02-.11.39-.16.8-.16,1.24-.39,0-.7.05-.93.14-.24.09-.4.17-.48.25-.13.15-.19.28-.19.39-.73,2.02-1.01,3.89-.84,5.62.17,1.73.62,3.03,1.35,3.91.17.26.41.48.71.66.26.18.57.34.93.47.36.13.8.16,1.32.08.34-.04.74-.15,1.19-.33.45-.18.92-.5,1.41-.96.49-.46,1-1.09,1.51-1.9.51-.81,1.01-1.85,1.48-3.14.77-.18,1.49-.47,2.15-.85.66-.39,1.26-.79,1.8-1.21.53-.42.98-.84,1.35-1.24.36-.4.63-.72.8-.94.09-.15.09-.26,0-.33-.07-.08-.17-.15-.28-.22.06-.26.11-.52.17-.8.13-.64.28-1.39.45-2.23,0-.04.02-.07.06-.11.64.18,1.44.24,2.38.17-.43,1.4-.78,3.08-1.06,5.04-.28,1.97-.22,3.99.16,6.09.13.74.37,1.29.74,1.65.36.37.76.64,1.19.83.47.18,1.01.28,1.61.28.43,0,1.11-.28,1.51-.83.41-.55.79-1.22,1.16-2.01.36-.79.68-1.65.96-2.59.05-.16.09-.3.13-.45h0c.3-1,.64-2.28.84-3.07-.02.84-.03,1.66-.03,2.48s.03,1.62.1,2.37c.06.75.14,1.4.23,1.96.13.63.34,1.13.64,1.52.3.39.61.67.93.85.32.18.64.3.96.36.32.06.59.08.8.08h.19s.06-.02.06-.06c.21,0,.47-.09.77-.28.3-.22.59-.57.87-1.05.28-.48.55-1.01.8-1.6.26-.59.49-1.22.71-1.9.21-.68.41-1.35.58-2.01.39-1.25.7-2.34.93-3.28.23-.94.35-1.44.35-1.52,0-.11-.08-.13-.26-.05-.18.07-.27.1-.41.16-.14.05-.21.08-.3.12l-.45,1.54c-.13.48-.29.99-.48,1.54-.19.55-.4,1.14-.61,1.76-.26.62-.51,1.23-.77,1.82-.26.59-.5,1.11-.74,1.57-.24.46-.46.82-.67,1.07-.22.26-.39.39-.51.39h-.06c-.26-.18-.43-.79-.51-1.82-.04-.59-.04-1.2,0-1.85.04-.64.09-1.26.13-1.85.64-1.29,1.23-2.64,1.77-4.05.53-1.41,1-2.83,1.38-4.24.39-1.41.69-2.77.9-4.08.21-1.3.34-2.49.39-3.55,2.01-.18,4.05-.32,6.11-.41,2.06-.09,4.11-.12,6.17-.08,2.19.07,3.85.2,4.98.39M90.65,40.66c-.51.86-1.12,1.13-1.8.8-.6-.29-.87-1.06-.8-2.29.06-1.23.42-2.64,1.06-4.21.51.62,1.29,1.14,2.31,1.54.26.07.49.15.71.22-.47,1.76-.96,3.08-1.48,3.94M93.42,29.72c-.09.92-.26,2.09-.51,3.53-.21.88-.41,1.71-.58,2.48-.73-.33-1.22-.91-1.48-1.74-.26-.83-.32-1.74-.19-2.73.13-.99.43-1.96.9-2.92.47-.95,1.05-1.71,1.74-2.26.09.33.15.81.19,1.43.04.55.02,1.29-.06,2.2M101.37,25.87c-.02.37-.05.7-.1.99-.34-.26-.58-.59-.71-.99-.13-.4-.19-.78-.19-1.13s.06-.64.19-.88c.13-.24.26-.34.39-.3.13,0,.23.12.29.36.06.24.11.53.13.88.02.35.02.71,0,1.07M117.58,22.92c-.15,1.01-.33,2.09-.55,3.22-.21,1.14-.48,2.31-.8,3.53-.32,1.21-.7,2.37-1.13,3.47v-.28c0-.22.01-.43.03-.63.02-.2.05-.41.1-.63.17-1.47.37-2.96.61-4.46.17-1.1.34-2.17.5-3.21.13-.81.3-1.61.53-2.4,0,0,0,0,0-.01.11-.37.2-.7.29-.99l.71-.11c-.04.66-.14,1.5-.29,2.51"/>
      <polygon class="cls-1" points="187.95 47 187.95 74.11 168.97 47 168.97 47 161.11 47 161.11 107.77 168.97 107.77 168.97 60.69 187.95 87.8 187.95 107.77 195.8 107.77 195.8 47 187.95 47"/>
      <polygon class="cls-1" points="107.08 107.77 114.94 107.77 114.94 54.86 129.79 54.86 129.79 47 114.94 47 114.94 47 107.08 47 107.08 47 92.07 47 92.07 54.86 107.08 54.86 107.08 107.77"/>
      <path class="cls-1" d="M7.71,72.59h3.39l18.37,35.18h8.13l-18.42-35.28,2.43.1c2.13,0,4.19-.63,5.97-1.81,3.66-2.43,5.84-6.54,5.84-10.99,0-4.45-2.18-8.56-5.83-10.99-1.77-1.18-3.83-1.8-5.95-1.8H7.71s-7.71,0-7.71,0v60.78h7.71v-35.18ZM7.71,54.85h13.93c.61,0,1.21.18,1.73.52,1.49.99,2.35,2.6,2.35,4.42,0,1.81-.86,3.42-2.35,4.42-.52.35-1.13.53-1.75.53H7.71v-9.89Z"/>
      <path class="cls-1" d="M53.15,82.03c9.66,0,17.51-7.86,17.51-17.52s-7.86-17.51-17.51-17.51-17.51,7.86-17.51,17.51,7.86,17.52,17.51,17.52M53.15,54.23c5.67,0,10.29,4.62,10.29,10.29s-4.62,10.29-10.29,10.29-10.29-4.62-10.29-10.29,4.62-10.29,10.29-10.29"/>
      <path class="cls-1" d="M125.69,107.77l1.49-5.57h21.53l1.49,5.57h8.13l-16.28-60.77h-8.21l-16.28,60.77h8.13ZM137.94,62.03l8.66,32.32h-17.32l8.66-32.32Z"/>
      <path class="cls-1" d="M31.53,93.23l3.8,7.15c1.02-.86,2.8-2.26,4.87-3.34,8.55-4.3,13.43-2.38,21.14.69,1.37.55,2.85,1.13,4.43,1.71l-2.23,8.34h8.13l1.62-6.05c3.31.72,6.48.99,9.36.99,4.93,0,9.06-.79,11.77-1.51l1.76,6.57h8.13l-16.28-60.77h-8.21l-12.04,44.93c-1.23-.46-2.42-.93-3.58-1.39-7.25-2.88-13.71-5.43-22.77-2.39h0s-.04,0-.1.03c-.1.03-.2.08-.3.11-.12.05-.28.1-.45.17-1.44.53-2.94,1.2-4.52,2.03-.47.24-.95.5-1.44.77-.05.03-.09.05-.13.07h0c-.99.56-1.99,1.21-2.95,1.89M83.92,62.03l8.5,31.71c-3.38.89-9.79,2-17.12.48l8.63-32.19Z"/>
      <path class="cls-1" d="M167.72,118.07c-3.55-.88-6.66-1.85-9.67-2.79-2.49-.77-4.88-1.52-7.29-2.14h0c-3.67-1-6.96-1.46-10.04-1.55-.05,0-.11,0-.16,0-.35,0-.7,0-1.04,0-.35,0-.69,0-1.04,0-.05,0-.11,0-.16,0-3.07.09-6.37.55-10.03,1.55h0c-2.41.62-4.8,1.37-7.29,2.14-3.01.94-6.13,1.91-9.68,2.79-.43.11-.87.21-1.3.3-2.72.57-6.93,1.23-11.95,1.26-5.21,0-9.56-.69-12.35-1.28-.41-.09-.83-.19-1.25-.29-3.54-.88-6.66-1.85-9.68-2.79-2.49-.77-4.88-1.52-7.29-2.14h0c-3.69-1.01-7-1.47-10.09-1.56-.03,0-.06,0-.09,0-.38,0-.74,0-1.11,0-.32,0-.64,0-.96,0-.09,0-.17,0-.26.01-3.05.1-6.32.56-9.96,1.55h0c-2.41.62-4.8,1.37-7.29,2.14-3.01.94-6.13,1.91-9.68,2.79-13.12,3.27-24.94.55-28.08-.3v6.8l1.66.45c1.83.5,6.78,1.65,13.23,1.65,4.06,0,7.98-.47,11.67-1.38,3.37-.84,6.39-1.78,9.34-2.7.9-.28,1.85-.58,2.83-.87l-.02-.05,2.88-.78c.48-.14.97-.27,1.46-.4l.36-.1c3.93-1.07,7.66-1.64,11.4-1.76.09,0,.19,0,.31-.01.25,0,.5,0,.74,0h.22s.19,0,.19,0h.41c.28,0,.56,0,.87,0h.11c3.79.11,7.56.69,11.54,1.77l.36.1c.56.15,1.11.3,1.66.45l2.7.74-.02.05c.97.29,1.91.59,2.81.87,2.93.91,5.95,1.86,9.32,2.69.36.09.71.17,1.06.25,2.46.52,6.35,1.13,10.96,1.13,4.51-.03,8.28-.63,10.65-1.12.37-.08.74-.17,1.11-.26,3.37-.84,6.39-1.78,9.34-2.7.89-.28,1.82-.57,2.79-.86l-.02-.05,2.9-.79c.49-.14.98-.27,1.48-.4l.36-.1c3.94-1.07,7.69-1.65,11.45-1.76.07,0,.14,0,.24,0,.27,0,.53,0,.79,0h.3s.1,0,.1,0h.13s.3,0,.3,0c.26,0,.53,0,.82,0,.07,0,.14,0,.21,0,3.76.11,7.51.69,11.45,1.76l.35.1c.56.15,1.12.3,1.68.46l2.69.73-.02.05c.97.29,1.92.59,2.82.87,2.93.91,5.95,1.86,9.32,2.69,3.69.92,7.61,1.38,11.67,1.38,6.45,0,11.4-1.16,13.22-1.65l1.66-.45v-6.8c-3.14.85-14.96,3.57-28.08.3"/>
      <path class="cls-1" d="M167.72,129.44c-3.55-.88-6.66-1.86-9.67-2.79-2.49-.77-4.88-1.52-7.29-2.14h0c-3.67-1-6.96-1.46-10.04-1.55-.05,0-.11,0-.16,0-.21,0-.42,0-.63,0-.14,0-.27,0-.41,0-.14,0-.27,0-.41,0-.21,0-.42,0-.63,0-.05,0-.11,0-.16,0-3.07.09-6.37.55-10.03,1.55h0c-2.41.62-4.8,1.37-7.29,2.14-3.01.94-6.13,1.91-9.68,2.79-.43.11-.87.21-1.3.3-2.72.57-6.93,1.23-11.95,1.26-5.21,0-9.56-.69-12.35-1.28-.41-.09-.83-.19-1.25-.29-3.54-.88-6.66-1.86-9.68-2.79-2.49-.77-4.88-1.52-7.29-2.14h0c-3.69-1.01-7-1.47-10.09-1.56-.03,0-.06,0-.09,0-.23,0-.45,0-.68,0-.15,0-.29,0-.44,0-.13,0-.25,0-.38,0-.19,0-.39,0-.58,0-.09,0-.17,0-.26.01-3.05.1-6.32.56-9.96,1.55h0c-2.41.62-4.8,1.37-7.29,2.14-3.01.94-6.13,1.91-9.68,2.79-4.68,1.17-9.19,1.57-13.2,1.57-7.25,0-12.86-1.32-14.88-1.87v6.81c3.3.73,8.52,1.6,14.82,1.6,4.72,0,10.03-.48,15.59-1.87,3.81-.95,7.2-2.01,10.19-2.94,2.66-.83,5.05-1.57,7.34-2.14.16-.04.31-.08.46-.11,2.35-.56,4.62-.94,6.99-1.02.02,0,.05,0,.07,0,.13,0,.26,0,.39,0,.1,0,.2,0,.3,0,.03,0,.06,0,.09,0,2.71,0,5.26.39,7.92,1.03.14.03.27.07.41.1,2.31.57,4.71,1.32,7.38,2.15,2.34.73,4.93,1.53,7.76,2.3.73.22,2.81.82,5.88,1.38,4.3.81,8.41,1.12,12.13,1.12.06,0,.11,0,.16,0s.11,0,.16,0c3.72,0,7.82-.31,12.12-1.12,3.09-.56,5.18-1.16,5.9-1.39,2.83-.77,5.42-1.57,7.76-2.3,2.65-.83,5.03-1.57,7.32-2.14.16-.04.32-.08.48-.12,2.35-.56,4.61-.93,6.98-1.01.03,0,.06,0,.08,0,.12,0,.24,0,.37,0,.1,0,.19,0,.29,0,.03,0,.06,0,.09,0,2.72,0,5.29.39,7.96,1.03.12.03.23.06.34.09,2.32.57,4.74,1.32,7.43,2.16,2.99.93,6.38,1.99,10.19,2.94,5.56,1.39,10.87,1.87,15.59,1.87,6.3,0,11.52-.86,14.82-1.6v-6.81c-2.02.55-7.64,1.87-14.88,1.87-4.01,0-8.52-.41-13.2-1.57"/>
      <path class="cls-1" d="M163.86,139.91c-3.97-.99-7.44-2.07-10.53-3.03-2.51-.78-4.89-1.52-7.08-2.06h-.04s-.04-.02-.04-.02l-.13-.03-.11-.03c-2.42-.58-4.48-.85-6.43-.85h-.12s-.16,0-.16,0h-.13s-.02,0-.02,0c-.03,0-.06,0-.11,0h-.03s-.07,0-.07,0c-1.74.06-3.55.33-5.71.84l-.15.04-.21.05h-.04s-.04.02-.04.02c-2.18.54-4.62,1.3-6.99,2.04-2.18.68-4.88,1.52-7.88,2.34-.92.28-3.21.93-6.48,1.52-4.33.81-8.8,1.23-13.3,1.23h-.15s-.17,0-.17,0c-4.5,0-8.98-.41-13.28-1.22-3.29-.6-5.57-1.25-6.5-1.53-3.01-.82-5.82-1.7-7.88-2.34-2.49-.78-4.85-1.51-7.03-2.05h-.04s-.04-.02-.04-.02l-.18-.04-.13-.03c-2.41-.58-4.45-.85-6.4-.85h-.11s-.17,0-.17,0h-.13s-.02,0-.02,0c-.04,0-.08,0-.13,0h-.03s-.07,0-.07,0c-1.74.06-3.56.33-5.71.84l-.15.04-.2.05h-.04s-.04.02-.04.02c-2.18.54-4.52,1.27-7,2.04-3.07.96-6.55,2.04-10.53,3.03-5.47,1.36-11.23,2.06-17.12,2.06S3.6,141.23,0,140.51v6.72c3.3.73,8.52,1.6,14.82,1.6,4.72,0,10.03-.48,15.59-1.87,3.81-.95,7.2-2.01,10.19-2.94,2.66-.83,5.05-1.57,7.34-2.14.16-.04.31-.08.46-.11,2.35-.56,4.62-.94,6.99-1.02.02,0,.05,0,.07,0,.26,0,.52,0,.78,0,2.71,0,5.26.39,7.92,1.03.14.03.27.07.41.1,2.31.57,4.71,1.32,7.38,2.15,2.34.73,4.93,1.53,7.76,2.3.73.22,2.81.82,5.89,1.38,4.3.81,8.41,1.12,12.13,1.12.06,0,.11,0,.16,0,.06,0,.11,0,.16,0,3.72,0,7.82-.31,12.12-1.12,3.09-.56,5.18-1.16,5.9-1.39,2.83-.77,5.42-1.57,7.76-2.3,2.65-.83,5.03-1.57,7.33-2.14.16-.04.32-.08.48-.12,2.35-.56,4.61-.93,6.98-1.01.03,0,.06,0,.09,0,.25,0,.5,0,.75,0,2.72,0,5.29.39,7.96,1.03.12.03.23.06.34.09,2.32.57,4.74,1.32,7.43,2.16,2.99.93,6.39,1.99,10.19,2.94,5.56,1.39,10.87,1.87,15.59,1.87,6.3,0,11.52-.86,14.82-1.6v-6.72c-3.6.72-8.76,1.46-14.82,1.46s-11.65-.69-17.12-2.06"/>
      <path class="cls-1" d="M43.39,156.89c.55,1,.68,1.56.68,2.88v2.66h-6.01v-2.66c0-1.33.13-1.88.68-2.88v-.03h-3.11v.03c.55,1,.68,1.55.68,2.88v6.36c0,1.31-.13,1.88-.68,2.88v.03h3.11v-.03c-.55-1-.68-1.55-.68-2.88v-3.03h6.01v3.03c0,1.31-.13,1.88-.68,2.88v.03h3.11v-.03c-.55-1-.68-1.55-.68-2.88v-6.36c0-1.33.13-1.88.68-2.88v-.03h-3.11v.03Z"/>
      <path class="cls-1" d="M58.89,156.61c-3.18,0-6.22,2.81-6.22,6.36s3.05,6.32,6.22,6.32,6.26-2.78,6.26-6.32-3.08-6.36-6.26-6.36M58.89,168.62c-2.65,0-4.24-2.46-4.24-5.66s1.6-5.69,4.24-5.69,4.26,2.48,4.26,5.69-1.61,5.66-4.26,5.66"/>
      <path class="cls-1" d="M79.22,156.87c.82,1.13,1.01,1.73,1.03,3.19l.05,6.04-7.02-9.27h-2.63v.03c.83.65,1.18,1.15,1.31,2.1v6.82c0,1.46-.18,2.06-1,3.19v.03h2.86v-.03c-.95-1.13-1.15-1.73-1.15-3.19l-.08-6.97,7.64,10.25.7-.05v-8.95c0-1.46.2-2.06,1-3.19v-.03h-2.71v.03Z"/>
      <path class="cls-1" d="M92.73,156.82c-2.21,0-2.5.07-4.59.07v.03c.55.9.68,1.38.68,2.56v6.99c0,1.18-.13,1.66-.68,2.56v.03h4.54c4.19,0,6.56-2.25,6.56-6.17s-2.46-6.07-6.51-6.07M92.54,168.42l-1.98.03v-10.98h2.01c3.11,0,4.66,1.61,4.66,5.42,0,3.48-1.28,5.44-4.69,5.52"/>
      <path class="cls-1" d="M112.89,156.73v.03c.98,1.13,1.2,1.73,1.2,3.19v4.79c0,1.93-.8,3.69-3.23,3.69-1.75,0-3.06-.93-3.06-3.54v-5.26c0-1.33.2-2.03.67-2.88v-.03h-3.11v.03c.57,1,.68,1.55.68,2.88v5.31c0,2.99,2.08,4.21,4.54,4.21,3.18,0,4.21-2.05,4.21-4.43v-4.78c0-1.46.22-2.06,1.15-3.19l-.08-.03h-2.96Z"/>
      <path class="cls-1" d="M129.81,166.71l-1.9-3.68c1.6-.57,2.33-1.75,2.33-3.16,0-1.81-1.18-3.01-4.11-3.01h-4.24v.03c.55,1,.68,1.55.68,2.9v6.32c0,1.33-.13,1.9-.68,2.9v.03h3.11v-.03c-.55-1-.68-1.55-.68-2.9v-2.76h1.76l2.93,5.69h2.75v-.1c-.86-.43-1.23-.83-1.95-2.23M125.81,162.7h-1.5v-5.17c.73-.02,1.23-.02,1.48-.02,2.01,0,2.6.93,2.6,2.43,0,1.41-.53,2.76-2.58,2.76"/>
      <path class="cls-1" d="M142.29,156.79h-.68l-3.48,9.42c-.52,1.36-.8,2.05-1.56,2.86v.03h2.56v-.03c-.37-.53-.78-1.6-.07-3.53l.32-.87h4.01l.58,1.6c.48,1.33.43,2.33.12,2.8v.03h3.26v-.03c-.6-.62-.96-1.2-1.53-2.71l-3.53-9.57ZM139.61,164.03l1.76-4.79,1.76,4.79h-3.53Z"/>
      <path class="cls-1" d="M156.8,161.85c-1.51-.73-2.95-1.36-2.95-2.9,0-1.03.67-1.68,1.95-1.68,1.2,0,2.28.6,3.28,2.65l.28-.08-.33-2.76c-.75-.27-1.71-.47-2.68-.47-2.03,0-3.83.9-3.83,3.14,0,2.11,1.75,2.91,3.38,3.73,1.43.72,2.78,1.38,2.78,3.01,0,1.16-.72,2.15-2.33,2.15s-2.85-.98-3.96-3.24l-.28.12.33,3.16c1.06.38,2.26.62,3.39.62,2.33,0,4.33-1.03,4.33-3.51,0-2.26-1.71-3.14-3.36-3.93"/>
    </g>
  </g>
</svg>