<?xml version="1.0" encoding="UTF-8"?>
<svg id="Capa_2" data-name="Capa 2" xmlns="http://www.w3.org/2000/svg" viewBox="0 0 263.37 89.46">
  <defs>
    <style>
      .cls-1 {
        fill: #fff;
      }
    </style>
  </defs>
  <g id="Capa_1-2" data-name="Capa 1">
    <path class="cls-1" d="M176.83,20.55c.97.97,2.56.97,3.53,0l3.77-3.77c.97-.97.97-2.56,0-3.53l-4.12-4.12c-.79-.79-2.06-.79-2.85,0l-4.12,4.12c-.97.97-.97,2.56,0,3.53l3.77,3.77Z"/>
    <path class="cls-1" d="M247.5,34.84c-1.14.49-2.37.88-3.62,1.19-1.86.46-3.78.66-5.7.66h-.11c-10.81,0-14.81,4.69-14.81,11.44,0,7.25,5.06,10.87,11.87,10.87,4.81,0,8.6-1.79,11.28-4.48h0s.23-.22.23-.22c1.36-1.36,3.84,1.56,3.58,3.47-.16,1.14.8,2.13,1.95,2.13h8.58c2.02,0,3.29-2.21,2.24-3.94-.02-.03-.04-.06-.06-.1-2.16-3.51-3.17-9.45-2.73-13.55l.93-8.49c1.6-10.56-5.31-16.81-18.12-16.81-10.89,0-17.34,4.72-19.19,14.1-.21,1.06.5,2.08,1.57,2.24l9.12,1.35c.03-1.21.1-2.35.2-3.45.32-3.53,3.32-6.23,6.86-6.23,4.27,0,6.77,1.79,7.9,5.41v.03c.55,1.76-.29,3.67-1.98,4.4ZM250.19,43.26s0,.08,0,.1c0,.42-.14.83-.4,1.16-3.24,4.12-6.51,5.8-10.41,5.8-3.13,0-5.19-1.44-5.19-4.44v-.1c0-1.68,1.24-3.08,2.9-3.37,2.72-.47,4.99-1.45,6.9-2.5,2.67-1.46,6.01.31,6.19,3.35Z"/>
    <path class="cls-1" d="M172.93,57.32c0,.72.57,1.3,1.29,1.29l10.08-.11s-.22-13.79-.22-19.99.05-6.98.2-13.7c.03-1.1-.89-1.93-1.99-1.93s-1.52.27-1.99.59h-.01c-2.17,1.58-4.99.26-6.5-.41-.42-.18-.89.14-.88.6.22,8.32.18,26.7.03,32.61v1.05Z"/>
    <path class="cls-1" d="M218.79,58.5v-2.12s-.22-37.21-.1-44.58c.02-1.1-.91-1.98-2-1.91l-9.46.62c.07,4.06.14,45.79.14,45.79v.92c0,.7.57,1.27,1.28,1.27h10.15Z"/>
    <path class="cls-1" d="M190.21,57.23c0,.7.57,1.27,1.28,1.27h10.15v-2.12s-.22-37.21-.1-44.58c.02-1.1-.91-1.98-2-1.91l-9.46.62c.07,4.06.14,45.79.14,45.79v.92Z"/>
    <path class="cls-1" d="M167.57,11.8c.01-1.1-.91-1.98-2-1.91l-9.46.62c.07,4.06.14,45.79.14,45.79v.92c0,.7.57,1.27,1.28,1.27h10.15v-2.12s-.22-37.21-.1-44.58Z"/>
    <path class="cls-1" d="M125.97,41.35c5.61-2.27,12.52-3.38,17.43-3.91l8.05-.62c-.19-13.12-7.31-19.69-19.19-19.69s-19.75,7.12-19.75,20.87c0,5.86,1.32,10.52,3.81,13.93.01.02.02.03.02.03,0,0,0,0,0,0,3.34,4.58,8.77,6.92,15.93,6.92,10.17,0,16.77-4.48,18.6-14.3.23-1.21-.71-2.32-1.93-2.32h-3.98c-2.53,0-4.68,1.86-5.03,4.36v.07c-.36,2.47-2.48,4.3-4.97,4.31h-2.12c-4.63,0-7.3-2.1-8.42-6.54-.33-1.29.34-2.61,1.57-3.11ZM123.81,33.38s0,0,0-.01c-.09-3.82,2.76-6.74,6.16-7.78,2.83-.86,6.04-.41,8.24,1.92.78.83,1.29,1.86,1.51,2.97.25,1.22-.38,2.42-1.62,2.52-3.55.66-7.64,1.95-10.52,2.94-1.79.62-3.7-.66-3.77-2.56Z"/>
    <path class="cls-1" d="M93.22,18.73c1.04-.74,2.13-1.42,3.29-2.03.12-.06.2-.19.2-.32v-5.57c0-.2.17-.37.37-.37h2.73c1.28,0,2.37-.21,3.27-.62.9-.41,1.59-1,2.06-1.78.48-.77.71-1.71.71-2.82s-.24-2.04-.71-2.82c-.47-.77-1.16-1.36-2.06-1.78-.9-.41-1.99-.62-3.27-.62l-6.81.02c-.2,0-.37.17-.37.37v18.04c0,.3.34.47.59.3ZM96.71,3.06h2.46c.86,0,1.5.18,1.93.53s.65.9.65,1.63-.22,1.27-.65,1.63-1.08.53-1.93.53h-2.46V3.06Z"/>
    <path class="cls-1" d="M110.19,15.15c.95.48,2.03.72,3.25.72s2.34-.24,3.28-.72c.94-.48,1.67-1.18,2.2-2.11.53-.92.79-2.03.79-3.33s-.27-2.4-.79-3.33c-.53-.92-1.26-1.63-2.2-2.11-.94-.48-2.03-.72-3.28-.72s-2.3.24-3.25.72c-.95.48-1.69,1.18-2.22,2.11-.53.92-.79,2.03-.79,3.33s.26,2.4.79,3.33c.53.92,1.27,1.63,2.22,2.11ZM111.5,7.82c.17-.49.43-.84.76-1.07.33-.22.73-.33,1.18-.33s.88.11,1.21.33c.33.22.58.58.76,1.07.17.49.26,1.12.26,1.9s-.09,1.4-.26,1.88c-.17.48-.43.84-.76,1.07-.33.23-.73.34-1.21.34s-.85-.11-1.18-.34c-.33-.23-.58-.58-.76-1.07-.17-.48-.26-1.11-.26-1.88s.09-1.41.26-1.9Z"/>
    <path class="cls-1" d="M122.5,15.81c1.02-.39,2.1-.71,3.23-.97.17-.04.29-.19.29-.36v-4.82c0-.62.13-1.13.37-1.53.25-.4.57-.71.98-.91.41-.21.85-.31,1.33-.31.34,0,.64.02.89.06s.44.09.61.15l.4-3.31c-.13-.08-.3-.15-.51-.19-.21-.05-.47-.07-.77-.07-.92,0-1.67.24-2.26.73-.6.49-1.04,1.18-1.34,2.06l-.17-2.56h-3.55v11.68c0,.26.26.44.5.34Z"/>
    <g>
      <path class="cls-1" d="M120.63,73.79c-.44.35-.98.52-1.61.52-.67,0-1.23-.15-1.69-.45-.45-.3-.79-.76-1.02-1.36-.22-.6-.34-1.35-.34-2.23s.12-1.64.37-2.24c.24-.6.59-1.05,1.05-1.35.45-.3.99-.45,1.61-.45s1.15.15,1.57.45c.41.3.71.86.9,1.68l2.98-1.2c-.22-.83-.6-1.51-1.12-2.03-.53-.53-1.17-.92-1.93-1.17-.76-.26-1.6-.38-2.51-.38-1.3,0-2.43.27-3.39.8-.96.53-1.7,1.3-2.21,2.3s-.77,2.2-.77,3.61.26,2.61.77,3.61c.51,1,1.25,1.77,2.21,2.3.96.53,2.1.8,3.41.8.92,0,1.76-.13,2.52-.4.76-.27,1.42-.7,1.97-1.28.55-.59.95-1.33,1.2-2.24l-3.08-.87c-.16.72-.46,1.26-.9,1.61Z"/>
      <path class="cls-1" d="M127.94,62.55c-.68,0-1.18.13-1.49.38-.31.26-.46.67-.46,1.23s.15.96.46,1.21c.31.26.81.39,1.49.39s1.16-.13,1.48-.39c.32-.26.47-.66.47-1.21s-.16-.98-.47-1.23c-.32-.26-.81-.38-1.48-.38Z"/>
      <rect class="cls-1" x="126.26" y="66.91" width="3.35" height="9.87"/>
      <path class="cls-1" d="M138.25,74.48c-.23.07-.5.11-.82.11-.41,0-.73-.1-.96-.31-.23-.2-.35-.54-.35-1.02v-3.97h2.94v-2.39h-2.94v-3.14l-3.35.93v2.21h-1.7v2.39h1.7v4.52c.01.76.17,1.37.46,1.83.3.46.72.8,1.26,1.01.55.21,1.19.32,1.94.32.53,0,1.04-.07,1.54-.2.5-.13.91-.32,1.24-.55l-.35-2.07c-.18.15-.39.25-.62.33Z"/>
      <path class="cls-1" d="M145.7,72.46l-.55,2.17-.47-2.09-1.52-5.62h-3.69l2.96,7.4,1.14,2.68-.26.61c-.14.37-.34.62-.58.75-.24.13-.56.2-.94.2-.41,0-.74-.04-1.01-.11-.26-.07-.51-.19-.75-.37l-.67,2.27c.34.21.74.37,1.2.49.46.12.97.18,1.52.18.83,0,1.54-.14,2.13-.41.59-.28,1.1-.72,1.54-1.34.43-.62.83-1.45,1.2-2.49l3.59-9.87h-3.33l-1.52,5.54Z"/>
      <path class="cls-1" d="M164.37,67.32c-.78-.4-1.69-.6-2.73-.6s-1.91.2-2.7.6-1.4.99-1.84,1.76c-.44.77-.66,1.69-.66,2.77s.22,2,.66,2.77c.44.77,1.06,1.36,1.84,1.76.79.4,1.69.6,2.7.6s1.95-.2,2.73-.6c.78-.4,1.39-.99,1.84-1.76.44-.77.66-1.69.66-2.77s-.22-2-.66-2.77c-.44-.77-1.05-1.35-1.84-1.76ZM163.28,73.41c-.14.4-.35.7-.63.89-.28.19-.61.29-1.01.29s-.71-.1-.99-.29c-.28-.19-.49-.49-.63-.89-.14-.4-.22-.92-.22-1.57s.07-1.17.22-1.58c.14-.41.35-.7.63-.89.28-.18.61-.28.99-.28s.73.09,1.01.28c.28.18.49.48.63.89.14.41.22.93.22,1.58s-.07,1.17-.22,1.57Z"/>
      <path class="cls-1" d="M172.95,65.12c.3-.21.67-.32,1.13-.32.28,0,.51.03.69.08.18.05.35.13.49.22l.33-2.09c-.2-.14-.5-.27-.91-.38-.41-.11-.88-.17-1.42-.17s-1.03.07-1.5.2c-.47.13-.9.34-1.26.63-.37.29-.66.66-.86,1.1-.2.45-.31.99-.31,1.62v.91h-1.58v2.39h1.58v7.48h3.35v-7.48h2.8v-2.39h-3v-.69c0-.53.15-.89.44-1.1Z"/>
      <path class="cls-1" d="M190,73.79c-.44.35-.98.52-1.61.52-.67,0-1.23-.15-1.69-.45-.45-.3-.79-.76-1.02-1.36-.22-.6-.34-1.35-.34-2.23s.12-1.64.37-2.24c.24-.6.59-1.05,1.05-1.35.45-.3.99-.45,1.61-.45s1.15.15,1.57.45.71.86.9,1.68l2.98-1.2c-.22-.83-.6-1.51-1.12-2.03-.53-.53-1.17-.92-1.93-1.17-.76-.26-1.6-.38-2.51-.38-1.3,0-2.43.27-3.39.8-.96.53-1.7,1.3-2.21,2.3-.51,1-.77,2.2-.77,3.61s.26,2.61.77,3.61c.51,1,1.25,1.77,2.21,2.3.96.53,2.1.8,3.41.8.92,0,1.76-.13,2.52-.4.76-.27,1.42-.7,1.97-1.28.55-.59.95-1.33,1.2-2.24l-3.08-.87c-.16.72-.46,1.26-.9,1.61Z"/>
      <path class="cls-1" d="M202.09,72.2c0,.38-.04.71-.13,1-.09.28-.21.51-.37.69-.16.18-.34.31-.55.39-.21.09-.43.13-.67.13-.46,0-.82-.13-1.07-.37-.25-.25-.37-.69-.37-1.32v-5.8h-3.35v6.59c0,.83.15,1.5.43,2.01.29.51.69.88,1.19,1.12.51.23,1.09.35,1.77.35.8,0,1.49-.17,2.05-.5.57-.34,1.01-.85,1.32-1.55l.1,1.85h3v-9.87h-3.35v5.29Z"/>
      <path class="cls-1" d="M212.11,74.63c-.34,0-.59-.09-.73-.28-.14-.18-.22-.49-.22-.93v-10.69h-3.35v11.13c0,1.1.24,1.9.71,2.39.47.49,1.24.73,2.29.73.37,0,.74-.05,1.12-.14.38-.09.69-.21.93-.36l.22-2.01c-.18.05-.34.09-.47.12-.13.03-.3.04-.49.04Z"/>
      <path class="cls-1" d="M220.21,74.48c-.23.07-.5.11-.82.11-.41,0-.73-.1-.96-.31-.23-.2-.35-.54-.35-1.02v-3.97h2.94v-2.39h-2.94v-3.14l-3.35.93v2.21h-1.7v2.39h1.7v4.52c.01.76.17,1.37.46,1.83.3.46.72.8,1.26,1.01.55.21,1.19.32,1.94.32.53,0,1.04-.07,1.54-.2.5-.13.91-.32,1.24-.55l-.35-2.07c-.18.15-.39.25-.62.33Z"/>
      <path class="cls-1" d="M232.39,66.91h-3.35v5.29c0,.38-.04.71-.13,1-.09.28-.21.51-.37.69-.16.18-.34.31-.55.39-.21.09-.43.13-.67.13-.46,0-.82-.13-1.07-.37-.25-.25-.37-.69-.37-1.32v-5.8h-3.35v6.59c0,.83.15,1.5.43,2.01.29.51.69.88,1.19,1.12.51.23,1.1.35,1.77.35.8,0,1.49-.17,2.05-.5.57-.34,1.01-.85,1.32-1.55l.1,1.85h3v-9.87Z"/>
      <path class="cls-1" d="M241.12,69.57c.2.03.37.08.5.13l.34-2.76c-.11-.07-.25-.12-.42-.16-.18-.04-.39-.06-.64-.06-.76,0-1.39.2-1.88.61-.49.41-.86.98-1.11,1.72l-.14-2.13h-2.96v9.87h3.35v-4.97c0-.51.1-.94.31-1.27.2-.34.48-.59.82-.76.34-.17.71-.26,1.1-.26.29,0,.54.02.74.05Z"/>
      <path class="cls-1" d="M252.69,72.1c.01-.24.02-.47.02-.71,0-.91-.19-1.71-.57-2.42-.38-.7-.94-1.26-1.67-1.66-.73-.4-1.62-.6-2.65-.6s-1.91.2-2.69.61c-.78.41-1.39.99-1.82,1.76-.43.76-.65,1.68-.65,2.76s.22,2,.65,2.76,1.05,1.35,1.84,1.76c.8.41,1.74.61,2.83.61.68,0,1.34-.1,1.96-.3.62-.2,1.16-.49,1.62-.88.45-.39.77-.86.96-1.43l-2.68-.89c-.15.35-.37.63-.66.83-.3.2-.69.3-1.19.3-.45,0-.83-.09-1.14-.27-.32-.18-.56-.47-.73-.87-.09-.22-.16-.49-.2-.78h6.73c.03-.16.05-.36.06-.59ZM245.93,70.9c.04-.22.08-.43.14-.61.15-.42.37-.73.67-.93.3-.2.65-.3,1.08-.3.59,0,1.03.21,1.31.63.2.3.33.71.39,1.2h-3.59Z"/>
      <path class="cls-1" d="M259.6,74.55c-.26.12-.6.18-1.01.18-.67,0-1.28-.14-1.82-.42-.55-.28-.98-.64-1.31-1.06l-1.58,1.85c.55.61,1.25,1.07,2.1,1.39.85.32,1.77.48,2.75.48,1.04,0,1.9-.15,2.59-.44.68-.3,1.2-.7,1.54-1.21.34-.51.51-1.09.51-1.74,0-.68-.22-1.27-.67-1.76-.45-.49-1.18-.82-2.19-1.01l-1.8-.35c-.45-.09-.75-.2-.92-.33-.16-.12-.25-.27-.25-.44,0-.16.05-.29.16-.39.11-.11.27-.19.48-.25.22-.06.48-.09.8-.09.5,0,1,.11,1.5.34.5.22.91.53,1.22.93l1.6-1.82c-.45-.55-1.05-.97-1.82-1.26-.76-.29-1.64-.43-2.64-.43-1.07,0-1.94.15-2.62.46-.68.31-1.19.71-1.52,1.2-.33.49-.49,1.01-.49,1.55,0,.8.26,1.45.78,1.94.52.49,1.4.86,2.63,1.11l1.38.28c.39.08.66.18.79.29s.2.26.2.44c0,.25-.13.43-.39.55Z"/>
    </g>
    <g>
      <path class="cls-1" d="M234.66,80.73c.18-.06.42-.09.71-.09.5,0,.94.09,1.33.27.39.18.75.44,1.09.8l.98-1.31c-.41-.43-.89-.76-1.45-.99-.56-.22-1.2-.34-1.92-.34s-1.3.11-1.81.33c-.5.22-.89.52-1.16.9-.27.38-.4.82-.4,1.31,0,.43.1.79.3,1.08.2.29.47.52.81.69.34.17.73.31,1.18.41l1.44.32c.33.08.56.18.67.29.12.11.18.25.18.42,0,.15-.04.28-.13.39-.09.11-.22.19-.41.25-.19.06-.42.08-.69.08-.35,0-.7-.05-1.05-.15-.34-.1-.66-.24-.95-.42-.29-.18-.53-.38-.73-.61l-.98,1.36c.26.28.58.52.96.73.38.21.8.38,1.28.49.47.11.97.17,1.49.17.64,0,1.21-.1,1.7-.29.5-.19.89-.48,1.17-.86.28-.38.43-.85.43-1.4s-.18-1.04-.54-1.38c-.36-.35-.93-.61-1.71-.79l-1.31-.3c-.35-.08-.6-.18-.75-.29-.15-.11-.23-.25-.23-.42,0-.14.04-.27.12-.38.08-.11.21-.2.39-.26Z"/>
      <path class="cls-1" d="M244.89,81.32c-.36-.24-.79-.36-1.28-.36-.39,0-.73.09-1.03.26-.3.17-.54.41-.73.71-.07.11-.12.24-.18.37l-.06-1.22h-1.81v8.39h2.01v-3.52c.12.25.27.48.47.67.33.32.76.48,1.3.48.49,0,.92-.12,1.28-.37.37-.24.65-.6.86-1.06.21-.46.31-1.02.31-1.67s-.1-1.2-.3-1.65c-.2-.45-.48-.8-.85-1.04ZM243.72,85.24c-.2.26-.47.38-.82.38-.23,0-.43-.06-.59-.19-.17-.13-.29-.31-.37-.55-.08-.24-.12-.53-.12-.86s.05-.64.14-.87c.09-.24.22-.42.38-.54.17-.12.36-.18.58-.18.35,0,.62.13.81.38.19.26.29.66.29,1.21s-.1.96-.3,1.21Z"/>
      <path class="cls-1" d="M252.46,85.36v-2.16c0-.49-.11-.9-.33-1.24-.22-.33-.53-.59-.93-.76-.41-.17-.9-.25-1.47-.25-.86,0-1.52.17-2,.51-.47.34-.76.79-.87,1.36l1.7.4c.07-.33.2-.56.38-.69.19-.13.41-.19.67-.19s.47.08.62.24c.15.16.23.38.23.66v.17l-2.04.42c-.55.11-.96.31-1.21.59-.26.28-.38.63-.38,1.06,0,.35.08.65.24.89s.39.42.69.55c.3.13.65.19,1.05.19.35,0,.68-.06,1-.17.32-.11.58-.28.78-.51.06-.07.11-.14.15-.22.03.1.07.2.13.29.13.2.32.35.56.45.24.1.51.15.82.15.34,0,.63-.06.86-.17l.12-1.15c-.09.03-.2.05-.34.05-.28,0-.41-.15-.41-.46ZM250.46,84.8c0,.17-.03.32-.08.45-.06.13-.13.23-.22.31-.09.08-.2.14-.33.18-.12.04-.25.06-.38.06-.17,0-.32-.04-.45-.13-.13-.09-.19-.22-.19-.39s.06-.32.17-.41c.11-.09.29-.16.53-.21l.96-.2v.33Z"/>
      <path class="cls-1" d="M255.01,78.46c-.41,0-.71.08-.89.23-.19.15-.28.4-.28.74s.09.57.28.73c.18.15.48.23.89.23s.7-.08.89-.23c.19-.15.28-.4.28-.73s-.09-.59-.28-.74c-.19-.15-.48-.23-.89-.23Z"/>
      <rect class="cls-1" x="254" y="81.07" width="2.01" height="5.91"/>
      <path class="cls-1" d="M262.39,81.19c-.3-.16-.66-.24-1.07-.24-.38,0-.72.07-1.02.22s-.56.36-.76.64c-.09.13-.17.28-.24.45l-.06-1.19h-1.8v5.91h2.01v-3.13c0-.33.05-.59.14-.79.09-.2.22-.34.39-.43.17-.09.34-.14.53-.14.24,0,.44.08.6.24.16.16.24.44.24.85v3.4h2.01v-3.94c0-.46-.09-.85-.26-1.16-.17-.31-.41-.54-.72-.7Z"/>
    </g>
    <path class="cls-1" d="M132.83,13.01h0c0,.27,0,.21,0,0Z"/>
    <path class="cls-1" d="M133.16,14.22c1.18.1,5.21.48,6.95.99.23.07.47-.11.47-.35v-1.41s0-.58,0-.58c0-.16-.1-.3-.25-.35-.75-.25-2.09-.48-3.44-.66-.02-.13-.03-.27-.03-.43v-4.39c0-.2.17-.37.37-.37h2.79c.2,0,.37-.17.37-.37v-2.13c0-.2-.17-.37-.37-.37h-3.16V1.51c0-.82-.66-1.48-1.48-1.48h-2.55v11.4h0v.66c0,.21,0,.45,0,.69,0,.02,0,.04,0,.06,0,.04,0,.09,0,.13,0,.02,0,.04,0,.06,0,.32,0,.63,0,.84,0,.19.14.35.33.36Z"/>
    <g>
      <path class="cls-1" d="M76.52,19.37c-11.74-.93-20.89,14.65-21.44,15.6-.02.03-.03.04-.03.04-6.28,10.03-10.89,31.73-21.8,38.72-7.91,5.06-19.71,3.71-26.84-2.69-2.33-2.1-4.23-4.69-5.61-7.5-.05-.12-.39-1.03-.72-1.91-.32-.85.28-1.76,1.19-1.78.12,0,.25-.02.38-.02,33.41,0,31.13-34.24,48.21-51.32,3.4-3.4,7.56-6.14,12.14-7.68,4.22-1.43,9.26-1.27,12.15,2.5.06.08.12.16.17.23,3.33,4.64,3.09,11.61,2.19,15.81Z"/>
      <path class="cls-1" d="M86.88,37.02c-4.13,5.41-9.11,12.58-13.57,12.73-8.29.27-4.05-18.88-10.95-19.87,3.3-3.73,8.01-7.69,13.15-7.69.11,0,.23,0,.34.01-.92,4.42-2.01,12.55,1.36,15.57,1.77,1.58,4.76,1.77,9.67-.76Z"/>
      <path class="cls-1" d="M111.33,21c-.03.97-.35,1.9-.81,2.76-7.32-1.29-14.05,3.32-18.52,7.55-.02.02-.03.04-.04.05-.01.01-.03.02-.04.04-2.93,2.76-6.73,4.43-10.75,4.65-.09,0-.17,0-.24.02,5.02-4.91,11.89-18.47,26.03-19.29.76-.04,1.53,0,2.21.32,1.65.76,2.21,2.31,2.15,3.9Z"/>
      <path class="cls-1" d="M114.11,59.7s-.01.01-.02.01c-20.94,7.74-25.61-9.3-20.27-20.39.73-1.52,1.33-2.86,1.59-3.92.24-.89.43-1.84.22-2.73-.05-.19-.12-.39-.22-.58,3.31-2.84,7.83-5.69,12.59-5.69.44,0,.9.03,1.34.08-1.25,3.37-1.91,7.25-1.91,11.6,0,6.53,1.46,12.04,4.23,16.3.09.13.17.27.26.4.76,1.21,1.75,2.15,2.55,2.84.71.61.51,1.76-.37,2.08Z"/>
    </g>
  </g>
</svg>