<svg version="1.2" xmlns="http://www.w3.org/2000/svg" viewBox="0 0 230 244" width="230" height="244">
	<style>
		.s0 { fill: #ffffff } 
	</style>
	<g id="Capa_1-2">
		<g>
			<path class="s0" d="m153.34 25h-3.49l-26.85 168.95h16.32l2.24-15.06h23.59l2.24 15.06h16.32l-26.87-168.95h-3.49zm-9.16 136.18l9.16-61.6 9.16 61.6z"/>
			<path class="s0" d="m92.4 37.69h1.79q2.63 0 4.49-1.86 1.86-1.86 1.86-4.49 0-2.63-1.86-4.49-1.86-1.86-4.49-1.86h-5.6v21.58h3.81v-8.89zm0-8.88h1.79q1.05 0 1.8 0.74 0.74 0.74 0.74 1.8 0 1.06-0.74 1.8-0.73 0.74-1.8 0.74h-1.79z"/>
			<path class="s0" d="m108.75 46.58q2.63 0 4.49-1.86 1.86-1.86 1.86-4.49v-8.88q0-2.63-1.86-4.49-1.86-1.86-4.49-1.86-2.63 0-4.49 1.86-1.86 1.86-1.86 4.49v8.89q0 2.63 1.86 4.49 1.86 1.86 4.49 1.86zm-2.54-15.23q0-1.05 0.74-1.8 0.74-0.74 1.8-0.74 1.06 0 1.8 0.74 0.74 0.74 0.74 1.8v8.89q0 1.05-0.74 1.8-0.74 0.75-1.8 0.74-1.06 0-1.8-0.74-0.75-0.73-0.74-1.8z"/>
			<path class="s0" d="m121.34 37.69h1.23l3.49 8.89h4.09l-3.69-9.41q1.04-0.46 1.92-1.35 1.86-1.86 1.85-4.48 0-2.63-1.86-4.49-1.86-1.86-4.49-1.86h-6.35v21.58h3.81v-8.89zm0-8.88h2.54q1.05 0 1.8 0.74 0.75 0.74 0.74 1.8 0 1.06-0.74 1.8-0.73 0.75-1.8 0.74h-2.54z"/>
			<path fill-rule="evenodd" class="s0" d="m136.01 46.58h3.8v-17.77h3.81v-3.81h-11.42v3.81h3.81v17.77z"/>
			<path fill-rule="evenodd" class="s0" d="m206.22 49.32h-40.46l2.91 18.35h17.48l-11.55 54.45 9.02 56.77h22.6v-17.71h-20.34l20.34-101.07v-10.79z"/>
			<path class="s0" d="m75.79 25h-3.49l-26.85 168.95h16.32l2.24-15.06h23.59l2.24 15.06h16.32l-26.88-168.95zm-9.16 136.18l9.16-61.6 9.16 61.6z"/>
			<path fill-rule="evenodd" class="s0" d="m48.32 161.18h-4.4v-111.86h-17.92v129.57h19.5l2.82-17.71z"/>
			<path class="s0" d="m115.69 144l7.11-3.68q3.73-1.94 7.1-4.42l10.25-64.49q-2.05-3.21-4.67-6.54-5.92-7.52-14.23-11.55c-5.61-2.72-11.8-3.99-18.03-3.99h-5.22v78.77l10.47 65.86h7.23v-49.95zm0-71.8q7.84 4.89 11.08 11.87 2.81 6.19 2.81 16.19 0 7.62-3.17 13.45-3.82 6.97-10.72 7.99z"/>
			<g>
				<path class="s0" d="m85.04 205.86l0.56 1.13q1.54 3.17 3.4 6.44l0.97 1.73 0.67-1.17q2.07-3.63 4.32-8.13 0.19 0.06 0.4 0.05 0.21 0 0.38-0.05l0.14 1.49q0.3 3.11 0.72 6.26 0.45 3.34 0.72 4.59-0.87-0.11-1.29-0.11-0.38 0-1.22 0.11l-0.05-0.67q-0.07-0.97-0.16-2.28l-0.58-5.22q-2.82 4.8-4.28 8.16h-0.7q-0.56-1.06-2.48-4.73-0.78-1.41-1.8-3.25-0.6 4.68-0.76 7.98-0.48-0.11-0.83-0.11-0.28 0-0.76 0.11l0.11-0.56q0.3-1.62 0.95-5.95 0.62-4.21 0.77-5.83 0.21 0.06 0.41 0.05 0.01 0 0.4-0.05z"/>
				<path class="s0" d="m101.75 206.98v4.23q2.76 0 3.87-0.13-0.09 0.32-0.09 0.65 0 0.39 0.09 0.61-1.63-0.13-3.87-0.13v4.87q1.61 0 4.28-0.13-0.09 0.2-0.09 0.59 0 0.39 0.09 0.65-1.62-0.11-3.31-0.11c-1.13 0-2.21 0.04-3.36 0.11q0.06-1.27 0.09-2.25 0.07-2.39 0.07-4.06 0-3.71-0.16-6.02 1.76 0.11 3.26 0.11 0.47 0 1.47-0.04 1.36-0.06 1.83-0.07-0.09 0.36-0.09 0.58 0 0.43 0.09 0.67l-1.68-0.09q-0.68-0.03-2.49-0.04z"/>
				<path class="s0" d="m113.15 211.46q2.35 4.14 4.17 6.74-1.36-0.11-1.56-0.11-0.45 0-1.38 0.11l-0.79-1.62q-0.41-0.87-1.76-3.22l-0.92 1.29q-0.42 0.6-2.16 3.54-0.76-0.11-0.94-0.11-0.31 0-0.85 0.11l1.8-2.48q0.33-0.45 0.88-1.24l1.55-2.18q-0.63-1.14-1.92-3.27l-2.01-3.17q0.81 0.11 1.46 0.11 0.56 0 1.42-0.11 1.26 2.73 2.39 4.55 0.61-0.93 1.42-2.19 0.46-0.79 1.38-2.36 0.61 0.11 0.97 0.11l0.86-0.11q-1.56 2.04-4.01 5.59z"/>
				<path class="s0" d="m119.23 210.02q0-2.41-0.18-4.15 1.02 0.11 1.28 0.11 0.42 0 1.28-0.11-0.2 1.33-0.2 6.26 0 4.26 0.18 6.08-0.18 0-0.6-0.05-0.42-0.06-0.66-0.05-0.21 0-0.65 0.05-0.48 0.05-0.65 0.05 0.2-2.14 0.2-8.19z"/>
				<path class="s0" d="m135.11 206.62l-0.54 1.76h-0.18q-0.84-1.69-3.43-1.69-2.24 0-3.42 1.4-1.19 1.4-1.19 3.97 0 2.32 1.1 3.76 1.24 1.64 3.26 1.64 2.41 0 4.15-2.05l0.2 0.13-0.2 1.78q-2.05 1.13-4.55 1.13-2.75 0-4.53-1.6-1.89-1.7-1.89-4.62c0-1.95 0.57-3.45 1.71-4.6q1.84-1.91 5.31-1.91 2.21 0 4.2 0.9z"/>
				<path class="s0" d="m143.17 205.72q2.77 0 4.59 1.46 2.07 1.65 2.07 4.69c0 2.02-0.62 3.58-1.85 4.78q-1.84 1.8-4.86 1.8c-2.01 0-3.52-0.53-4.75-1.6q-1.96-1.69-1.96-4.55 0-3.26 2.01-5 1.81-1.59 4.75-1.58zm-4.3 6.37q0 2.26 0.97 3.72 1.11 1.73 3.27 1.73 2.15 0 3.27-1.76 0.97-1.48 0.97-3.69 0-2.43-0.94-3.83-1.09-1.62-3.31-1.62c-1.48 0-2.51 0.6-3.27 1.8q-0.97 1.51-0.97 3.65z"/>
			</g>
		</g>
	</g>
</svg>