<svg version="1.2" xmlns="http://www.w3.org/2000/svg" viewBox="0 0 1000 430" width="1000" height="430">
	<title>file</title>
	<style>
		.s0 { fill: #ffffff } 
	</style>
	<path class="s0" d="m676.8 122.3c-2.9-2.9-7.6-2.9-10.5 0l-15.2 15.2c-3.6 3.6-3.6 9.4 0 13l13.9 13.9c3.6 3.6 9.5 3.6 13.1 0l13.9-13.9c3.6-3.6 3.6-9.4 0-13l-15.2-15.2z"/>
	<path class="s0" d="m982.8 295q-0.1-0.1-0.2-0.3c-7.9-13-11.7-34.9-10-50l3.4-31.3c5.9-39-19.6-62-66.9-62-40.1 0-63.9 17.4-70.7 52-0.8 3.9 1.8 7.6 5.8 8.2l33.6 5c0.1-4.5 0.3-8.7 0.7-12.8 1.2-13 12.2-22.9 25.3-22.9 15.8 0 25 6.6 29.2 19.9v0.1c2 6.5-1.1 13.5-7.3 16.2-4.2 1.8-8.8 3.3-13.4 4.4-6.8 1.7-13.9 2.5-21 2.5h-0.4c-39.8 0-54.6 17.3-54.6 42.1 0 26.8 18.7 40.2 43.8 40.2 17.7 0 31.7-6.6 41.6-16.6v0.1l0.8-0.9c5.1-5 14.2 5.8 13.2 12.8-0.6 4.2 3 7.9 7.2 7.9h31.7c7.4 0 12.1-8.2 8.3-14.6zm-48.7-42.2c-12 15.2-24 21.4-38.4 21.4-11.5 0-19.1-5.3-19.1-16.4v-0.3c0-6.2 4.5-11.4 10.6-12.5 10.1-1.7 18.4-5.3 25.5-9.2 9.9-5.4 22.2 1.1 22.9 12.4q0 0.2 0 0.3c0 1.6-0.5 3.1-1.5 4.3z"/>
	<path class="s0" d="m692.5 180.1c0.1-4-3.3-7.1-7.3-7.1-4.1 0-5.6 1-7.4 2.2-8 5.8-18.4 1-24-1.5-1.5-0.7-3.3 0.5-3.2 2.2 0.8 30.7 0.6 98.5 0.1 120.3l-0.1 3.9c0 2.6 2.2 4.8 4.8 4.7l37.2-0.4c0 0-0.8-50.9-0.8-73.7 0-22.9 0.1-25.8 0.7-50.6z"/>
	<path class="s0" d="m819.4 132.1c0.1-4-3.3-7.3-7.3-7l-35 2.3c0.3 15 0.5 168.9 0.5 168.9v3.4c0 2.6 2.2 4.7 4.8 4.7h37.4v-7.8c0 0-0.8-137.3-0.4-164.5z"/>
	<path class="s0" d="m756.2 132.1c0-4-3.4-7.3-7.4-7l-34.9 2.3c0.2 15 0.5 168.9 0.5 168.9v3.4c0 2.6 2.1 4.7 4.7 4.7h37.4v-7.8c0 0-0.8-137.3-0.3-164.5z"/>
	<path class="s0" d="m630.9 132.1c0-4-3.4-7.3-7.4-7l-34.9 2.3c0.2 15 0.5 168.9 0.5 168.9v3.4c0 2.6 2.1 4.7 4.7 4.7h37.4v-7.8c0 0-0.7-137.3-0.3-164.5z"/>
	<path class="s0" d="m477.4 241.2c20.7-8.4 46.2-12.5 64.3-14.5l29.7-2.2c-0.7-48.5-27-72.7-70.8-72.7-43.8 0-72.8 26.3-72.8 77 0 21.7 4.9 38.8 14 51.4q0.1 0.1 0.1 0.1 0 0 0 0c12.3 16.9 32.3 25.5 58.7 25.5 37.5 0 61.9-16.5 68.6-52.7 0.9-4.5-2.6-8.6-7.1-8.6h-14.7c-9.3 0-17.2 6.9-18.5 16.1l-0.1 0.3c-1.3 9.1-9.1 15.8-18.3 15.9h-7.8c-17.1 0-26.9-7.8-31.1-24.2-1.2-4.7 1.3-9.6 5.8-11.4zm-7.9-29.4q0 0 0-0.1c-0.3-14.1 10.2-24.9 22.7-28.7 10.5-3.2 22.3-1.5 30.4 7.1 2.9 3.1 4.7 6.9 5.6 11 0.9 4.4-1.4 8.9-6 9.3-13.1 2.4-28.2 7.1-38.8 10.8-6.6 2.3-13.7-2.4-13.9-9.4z"/>
	<path class="s0" d="m356.6 157.7c3.9-2.7 7.9-5.2 12.2-7.5 0.4-0.2 0.7-0.7 0.7-1.2v-20.5c0-0.8 0.6-1.4 1.4-1.4h10.1q7 0 12-2.3 5-2.2 7.6-6.5 2.7-4.3 2.6-10.4 0.1-6.2-2.6-10.4-2.6-4.3-7.6-6.6-4.9-2.3-12-2.3l-25.2 0.1c-0.7 0-1.3 0.6-1.3 1.4v66.5c0 1.1 1.2 1.8 2.1 1.1zm12.9-57.8h9.1q4.7 0 7.1 2 2.4 1.9 2.4 6 0 4-2.4 6-2.4 1.9-7.1 1.9h-9.1z"/>
	<path class="s0" d="m419.2 144.5q5.3 2.7 12 2.7c4.5 0 8.7-0.9 12.1-2.7q5.2-2.6 8.2-7.8 2.9-5.1 2.9-12.2 0-7.2-2.9-12.3-3-5.1-8.2-7.8-5.2-2.7-12.1-2.7c-4.6 0-8.5 0.9-12 2.7q-5.2 2.7-8.1 7.8-3 5.1-3 12.3 0 7.1 3 12.3 2.9 5.1 8.1 7.7zm4.9-27q0.9-2.7 2.8-3.9 1.8-1.3 4.3-1.3c1.7 0 3.3 0.4 4.5 1.3q1.8 1.2 2.8 3.9 0.9 2.7 0.9 7 0 4.2-0.9 6.9-1 2.7-2.8 4-1.9 1.2-4.5 1.2c-1.7 0-3.1-0.4-4.3-1.2q-1.9-1.3-2.8-4-1-2.6-1-6.9 0-4.3 1-7z"/>
	<path class="s0" d="m464.6 146.9q5.7-2.1 11.9-3.5c0.7-0.2 1.1-0.7 1.1-1.3v-17.8q0-3.4 1.4-5.6 1.3-2.3 3.6-3.4 2.3-1.1 4.9-1.1 1.9 0 3.3 0.2 1.3 0.2 2.2 0.5l1.5-12.2q-0.7-0.5-1.9-0.7-1.2-0.3-2.8-0.3-5.1 0-8.4 2.7-3.3 2.8-4.9 7.7l-0.6-9.5h-13.1v43.1c0 0.9 0.9 1.6 1.8 1.2z"/>
	<path class="s0" d="m502.7 136.6c0 1 0 0.8 0 0z"/>
	<path class="s0" d="m503.9 141.1c4.4 0.4 19.3 1.7 25.7 3.6 0.8 0.3 1.7-0.4 1.7-1.3v-5.2-2.1c0-0.6-0.4-1.1-0.9-1.3-2.8-1-7.7-1.8-12.7-2.5q-0.1-0.7-0.1-1.5v-16.2c0-0.8 0.6-1.4 1.4-1.4h10.3c0.7 0 1.3-0.6 1.3-1.4v-7.8c0-0.8-0.6-1.4-1.3-1.4h-11.7v-8.4c0-3-2.4-5.5-5.5-5.5h-9.4v44.5c0.1 0.8 0.1 1.7 0.1 2.5q0 0.1 0 0.2 0 0.3 0 0.5 0 0.1 0 0.2c0 1.2 0 2.3 0 3.1 0 0.7 0.5 1.3 1.2 1.4z"/>
	<path class="s0" d="m435.1 301.2c-3-2.6-6.6-6-9.4-10.5q-0.6-0.7-1-1.5c-10.2-15.7-15.6-36-15.6-60.1 0-20.5 3.9-38.3 11.4-52.8 1.6-3.2 2.8-6.6 2.9-10.2 0.2-5.9-1.8-11.6-7.9-14.4-2.5-1.2-5.4-1.3-8.2-1.2-63.3 3.7-87.1 76.7-107.2 77.6q-1.3 0.1-2.5-0.1c-16.4-14.7-4.1-62.3-2.5-67.9-15.4-1.2-29.5 5.2-41.5 14.1 12-8.9 26.1-15.3 41.4-14.1 3.4-15.5 4.2-41.2-8-58.3q-0.3-0.4-0.7-0.9c-10.6-13.9-29.2-14.5-44.8-9.2-16.9 5.7-32.2 15.8-44.8 28.3-63 63-54.5 189.3-177.8 189.3q-0.7 0-1.4 0.1c-3.3 0.1-5.6 3.4-4.4 6.5 1.2 3.3 2.5 6.6 2.7 7.1 5.1 10.4 12.1 19.9 20.7 27.7 26.3 23.6 69.8 28.6 99 9.9 40.2-25.8 57.2-105.8 80.4-142.8q0 0 0.1-0.2c0.2-0.5 1.1-2 2.6-4.2-1.3 2-2.1 3.4-2.5 4 7.3-11.5 15.2-18.7 24.6-18.7 28.4 0 11.1 74.5 42.5 73.4 16.4-0.5 34.8-27 50-46.9 2.7-3.6 9.4-12 18.8-20.9 1.8-0.9 4.6-1.9 6.6-1.8 3.4 0.2 6.1 3.3 6.9 6.6 0.8 3.3 0.1 6.8-0.8 10.1-1 3.9-3.2 8.8-5.9 14.4-19.6 40.9-2.4 103.8 74.8 75.3q0-0.1 0.1-0.1c3.2-1.2 4-5.4 1.4-7.6z"/>
</svg>