<?xml version="1.0" encoding="UTF-8"?>
<svg id="Capa_2" data-name="Capa 2" xmlns="http://www.w3.org/2000/svg" viewBox="0 0 164.51 191.54">
  <defs>
    <style>
      .cls-1 {
        fill: #fff;
      }
    </style>
  </defs>
  <g id="Capa_1-2" data-name="Capa 1">
    <g>
      <path class="cls-1" d="M44.89,57.51c0-.13,0-.26.01-.4,0-.14.01-.34.01-.59,0-.35.19-.53.56-.53h.65c.16,0,.3,0,.43.01.13,0,.27.01.43.01h.65c.28,0,.5,0,.65-.03.16-.02.31-.03.45-.04.14,0,.29-.02.45-.04.16-.02.38-.03.65-.03.7,0,1.41-.08,2.11-.25.69-.18,1.34-.46,1.95-.83.32-.18.61-.38.89-.58.28-.2.55-.43.81-.69.48-.48.9-1.05,1.25-1.71.19-.31.35-.63.5-.94.15-.31.27-.64.36-.99.09-.33.15-.67.18-1.02.03-.35.04-.71.04-1.08s-.04-.72-.11-1.06c-.07-.34-.16-.68-.25-1.01-.09-.35-.19-.69-.28-1.02-.09-.33-.23-.65-.42-.97-.19-.31-.4-.59-.65-.84-.25-.25-.51-.49-.77-.73-.26-.26-.52-.51-.77-.75-.25-.24-.53-.44-.85-.61-.32-.18-.64-.31-.99-.39-.34-.07-.69-.16-1.04-.25-.71-.2-1.4-.3-2.09-.3h-.57c-.14,0-.27,0-.39.01-.12,0-.25.01-.39.01h-4.45c-.24,0-.44,0-.58-.01-.14,0-.27-.02-.39-.04-.12-.02-.25-.03-.39-.04-.14,0-.33-.01-.57-.01-.17,0-.31.06-.42.18-.11.12-.17.25-.17.4,0,.26,0,.46-.01.61,0,.15-.02.29-.04.41-.02.13-.03.27-.04.41,0,.15-.01.34-.01.58,0,.26,0,.46.03.59.02.14.04.27.07.4.03.13.05.27.07.41.02.15.03.35.03.61s0,.46-.03.59c-.02.14-.04.27-.07.4-.03.13-.05.27-.07.41-.02.15-.03.34-.03.58v2.02c0,.26,0,.46.01.59,0,.14.02.27.03.4,0,.13.02.27.03.41,0,.15.01.35.01.61v.59c0,.14,0,.27-.01.4,0,.13-.01.27-.01.41v.58c0,.26,0,.46.03.61.02.15.03.29.04.41,0,.13.02.27.04.41.02.15.03.34.03.58,0,.26,0,.46-.03.59-.02.14-.03.27-.04.4,0,.13-.02.27-.04.41-.02.15-.03.35-.03.61v.59c0,.14,0,.27-.01.4,0,.13-.01.27-.01.41v1.19c0,.15,0,5.82.01,5.95,0,.13.01.27.01.41v.58c0,.17.07.31.2.44.13.13.28.19.45.19h.67c.17,0,.33,0,.48-.01.15,0,.31-.01.48-.01h.67c.17,0,.32-.06.46-.18.14-.12.21-.26.21-.43,0-.24,0-.43-.01-.57,0-.14-.02-.27-.04-.4-.02-.13-.03-5.8-.04-5.94,0-.14-.01-.34-.01-.59,0-.24,0-.43.01-.57,0-.14.01-.27.01-.4ZM44.78,51.95c0-.26,0-.46.03-.61.02-.15.03-.29.04-.42,0-.13.02-.27.04-.42.02-.15.03-.35.03-.61v-.61c0-.15,0-.29-.01-.42,0-.13-.01-.26-.01-.4v-.6c0-.26,0-.46.01-.61,0-.15.02-.29.03-.42,0-.13.02-.27.03-.42,0-.15.01-.35.01-.61,0-.24,0-.43-.03-.58-.02-.15-.04-.29-.06-.42-.02-.13-.04-.27-.06-.42-.02-.15-.03-.35-.03-.61,0-.17.07-.29.21-.37.14-.08.29-.12.46-.12h2.17c.28,0,.5,0,.65-.01.16,0,.31-.01.45-.01s.29,0,.45-.01c.16,0,.38-.01.65-.01.32,0,.62.03.92.1.3.06.58.15.86.26.3.13.59.26.88.4.29.14.53.32.74.54.22.22.4.48.54.76.14.29.26.58.38.87.22.54.32,1.14.28,1.8,0,.57-.12,1.15-.36,1.75-.24.52-.59,1-1.06,1.44-.22.2-.45.39-.7.55-.24.17-.51.31-.81.42-.28.11-.56.21-.85.3-.29.09-.59.14-.9.14h-.65c-.16,0-.3,0-.43.01-.13,0-.27.01-.43.01h-2.77c-.17,0-.32-.07-.47-.22-.15-.15-.22-.3-.22-.44Z"/>
      <path class="cls-1" d="M80.15,55.81c.19-.3.35-.62.5-.95.15-.33.26-.67.33-1.02.07-.35.15-.7.22-1.05.07-.35.12-.7.14-1.05.02-.35.03-.71.03-1.08s-.01-.73-.04-1.08c-.03-.35-.08-.7-.15-1.05-.07-.37-.17-.72-.28-1.05-.11-.33-.23-.65-.36-.97-.15-.33-.31-.65-.49-.95-.18-.3-.37-.6-.57-.9-.2-.29-.4-.59-.6-.9-.2-.3-.42-.58-.68-.84-.26-.26-.54-.48-.84-.66-.3-.18-.59-.38-.89-.58-.32-.2-.62-.39-.92-.57-.3-.17-.61-.34-.95-.48-.67-.26-1.35-.47-2.03-.64-.35-.06-.71-.11-1.06-.18-.35-.06-.71-.1-1.09-.1s-.73.04-1.09.11c-.35.07-.7.15-1.03.22-.37.07-.72.16-1.06.26-.33.1-.66.23-.97.37-.33.15-.65.3-.96.47-.31.17-.61.35-.9.55-.32.2-.63.39-.95.55-.32.17-.6.38-.86.64-.26.26-.49.53-.68.83-.19.29-.39.59-.6.88-.39.61-.72,1.24-1,1.91-.13.31-.25.64-.36.98-.11.34-.2.69-.28,1.04-.07.35-.12.7-.13,1.05,0,.35-.01.71-.01,1.08v1.08c0,.35.04.7.11,1.05.07.35.16.7.25,1.05.09.35.2.68.33.99.15.33.31.65.49.97.18.31.37.62.57.91.2.29.44.56.7.8.26.24.52.49.78.75.26.26.51.52.74.77.23.26.51.49.82.69.3.2.61.37.93.51.32.14.65.28.99.43.33.15.66.28.99.4.32.12.67.22,1.04.29.35.07.7.12,1.06.15.35.03.71.04,1.09.04s.73-.02,1.09-.07c.35-.05.7-.11,1.06-.18.35-.07.7-.17,1.03-.29.33-.12.66-.25.97-.4.33-.15.67-.28,1-.4.33-.12.65-.28.95-.48.32-.2.61-.41.88-.64.27-.22.53-.46.79-.72.26-.26.5-.52.72-.8.22-.28.44-.56.64-.86.2-.29.4-.59.58-.9ZM77.9,51.62c-.09.31-.19.63-.28.94-.09.31-.19.62-.31.93-.11.3-.25.59-.42.87-.17.28-.35.54-.54.8-.19.26-.41.5-.65.72-.22.24-.47.45-.74.62-.27.18-.54.35-.82.51-.28.15-.57.29-.86.43-.3.14-.6.25-.92.35-.61.17-1.25.25-1.92.25h-.99c-.32,0-.64-.05-.96-.14-.32-.09-.63-.2-.95-.32-.32-.12-.61-.26-.89-.43-.28-.17-.55-.35-.82-.54-.27-.19-.52-.4-.77-.62-.22-.24-.41-.51-.56-.8-.15-.29-.31-.58-.47-.86-.17-.29-.32-.58-.47-.86-.15-.28-.27-.57-.36-.88-.09-.31-.16-.63-.21-.95-.05-.32-.07-.65-.07-.98s.02-.66.07-.98c.05-.32.12-.64.21-.95.09-.31.19-.63.29-.94.1-.31.24-.61.4-.88.17-.28.36-.53.58-.77.22-.24.45-.47.7-.69.22-.24.46-.45.72-.64.26-.18.54-.36.83-.52.28-.17.57-.31.86-.44.3-.13.6-.24.92-.33.32-.09.63-.18.95-.26.32-.08.64-.12.97-.12s.66.04.97.12c.32.08.63.17.95.26.32.09.63.19.95.29.32.1.61.23.89.37.3.17.57.36.81.58.24.22.47.44.7.66.24.24.46.49.65.75.19.26.38.52.54.8.35.59.62,1.18.81,1.77.09.31.17.63.24.95.06.32.1.65.1.98s-.05.65-.14.97Z"/>
      <path class="cls-1" d="M83.6,57.03c-.02.14-.04.27-.06.4-.02.13-.04.27-.06.41-.02.15-.03.34-.03.58v7.4c0,.17.07.31.22.44.15.13.31.19.47.19.28,0,.5,0,.67-.03.17-.02.32-.03.47-.04.15,0,.31-.02.47-.04.17-.02.39-.03.67-.03.33,0,.5-.17.5-.5,0-.31,0-.56.01-.75,0-.18.02-5.74.03-5.91,0-.17.02-.34.03-.52,0-.18.01-.43.01-.75s0-.56-.01-.75c0-.18-.02-.35-.03-.51,0-.16-.02-.33-.03-.51,0-.18-.01-.43-.01-.75,0-.17.07-.3.22-.4.15-.1.31-.15.47-.15.3,0,.66-.02,1.1-.06.44-.04.89-.06,1.35-.06s.95.03,1.39.08c.45.06.81.08,1.09.08.15,0,.28.03.39.08.11.06.18.16.2.3.07.35.14.69.19,1.02.06.33.15.64.28.94.13.31.29.61.47.9.19.29.38.56.59.82.2.24.42.46.66.65.23.19.48.37.74.54.26.17.53.3.82.4.29.1.59.2.91.29.28.09.57.19.86.29.3.1.6.16.92.18.17.02.33-.04.49-.17.16-.13.24-.28.24-.47,0-.28,0-.5-.01-.66,0-.17-.02-.32-.03-.47,0-.15-.02-.3-.03-.47,0-.17-.01-.39-.01-.66,0-.15-.06-.29-.17-.44-.11-.15-.24-.22-.39-.22-.3-.04-.58-.09-.84-.15-.26-.06-.52-.18-.79-.35-.21-.15-.4-.32-.59-.51-.19-.19-.36-.45-.5-.76-.09-.24-.17-.49-.24-.76-.07-.27-.12-.58-.15-.93-.02-.11-.02-.22,0-.33.02-.11.07-.2.17-.28.58-.33,1.09-.73,1.54-1.19.24-.24.48-.47.71-.7.23-.23.43-.48.6-.76.17-.29.31-.6.42-.91.11-.31.21-.63.31-.94.07-.31.11-.63.1-.95,0-.32-.01-.65-.01-.98,0-.35,0-.69-.03-1.01-.02-.32-.07-.64-.17-.95-.09-.31-.2-.62-.32-.93-.12-.3-.26-.59-.43-.87-.17-.29-.36-.57-.57-.81-.21-.25-.44-.49-.68-.73-.24-.22-.49-.44-.74-.65-.25-.21-.52-.4-.82-.57-.3-.15-.6-.29-.91-.41-.31-.13-.63-.24-.96-.33-.32-.09-.64-.13-.96-.11-.33.02-.66.03-1.02.03-.26,0-.47,0-.63-.01-.16,0-.3-.02-.43-.03-.13,0-.27-.02-.43-.03-.16,0-.38-.01-.66-.01s-.5,0-.65-.03c-.16-.02-.3-.03-.43-.04-.13,0-.27-.02-.43-.04-.16-.02-.38-.03-.65-.03s-.5,0-.66.01c-.16,0-.3.02-.43.04-.13.02-.27.03-.43.04-.16,0-.37.01-.63.01-.28,0-.5,0-.66-.01-.16,0-.3-.02-.43-.03-.13,0-.27-.02-.43-.03-.16,0-.38-.01-.66-.01-.17,0-.31.07-.43.22-.12.15-.18.29-.18.44,0,.26,0,.46.01.61,0,.15.02.29.03.41,0,.13.02.27.03.41,0,.15.01.34.01.58v.59c0,.14,0,.27.01.4,0,.13.01.27.01.41v.61c0,.26,0,.46-.01.59,0,.14-.01.27-.01.4s0,.27-.01.41c0,.15-.01.34-.01.58v.61c0,.15,0,.29-.01.41,0,.13-.01.27-.01.41v2.6c0,.26,0,.46.01.59,0,.14.02.27.04.4.02.13.03.27.04.41,0,.15.01.34.01.58,0,.26,0,.46-.01.61,0,.15-.02.29-.03.41,0,.13-.02.27-.03.41,0,.15-.01.34-.01.58v.59c0,.14,0,.27.01.4,0,.13.01.27.01.41v.61c0,.26,0,.46-.03.59ZM86.98,50.08c0-.17.01-.32.01-.47s0-.3.01-.47c0-.17.01-.4.01-.69s0-.52.01-.69c0-.17.01-.32.01-.47s0-.3.01-.47c0-.17.01-.4.01-.69v-.69c0-.17,0-.32-.01-.47,0-.15-.01-.3-.01-.47v-.69c0-.17.06-.29.17-.39.11-.09.25-.14.42-.14h1.75c.22,0,.4,0,.53-.03.13-.02.25-.04.36-.06.11-.02.23-.04.35-.05.12-.02.29-.03.51-.03s.4,0,.53.01c.13,0,.25.02.36.03.11,0,.23.02.36.03.13,0,.31.01.53.01.37,0,.72.07,1.04.21.32.14.64.3.96.48.32.18.61.39.88.62.27.23.5.5.68.81.17.31.28.64.35.98.06.34.1.7.1,1.06-.04.77-.22,1.44-.56,1.99-.2.31-.42.6-.65.87-.23.27-.51.48-.82.65-.65.35-1.34.53-2.06.53h-1.75c-.22,0-.39,0-.51-.03-.12-.02-.24-.03-.35-.04-.11,0-.23-.02-.35-.04-.12-.02-.29-.03-.51-.03h-.52c-.12,0-.24,0-.35.01-.11,0-.23.01-.35.01h-.51c-.17,0-.32-.05-.46-.14-.14-.09-.21-.22-.21-.39,0-.29,0-.52.01-.69Z"/>
      <path class="cls-1" d="M121.47,43.78c.24,0,.43,0,.57-.01.14,0,.27-.02.39-.03.12,0,.25-.02.39-.03.14,0,.33-.01.57-.01.17,0,.32-.05.47-.15.15-.1.22-.23.22-.4,0-.28,0-.5-.01-.66,0-.17-.02-.32-.04-.47-.02-.15-.03-.3-.04-.47,0-.17-.01-.39-.01-.66,0-.17-.06-.29-.17-.39-.11-.09-.25-.14-.42-.14-.26,0-.46,0-.6-.01-.14,0-.27-.02-.4-.04-.13-.02-.27-.03-.42-.04-.15,0-.34-.01-.58-.01h-5.87c-.15,0-.29,0-.42.01-.13,0-.27.01-.42.01h-1.2c-.15,0-.29,0-.42.01-.13,0-.27.01-.42.01h-.58c-.26,0-.46,0-.61-.01-.15,0-.29-.01-.42-.01s-.27,0-.42-.01c-.15,0-.34-.01-.58-.01-.26,0-.46,0-.6.01-.14,0-.27.02-.4.03-.13,0-.27.02-.42.03-.15,0-.35.01-.61.01h-2.63c-.14,0-.27,0-.4-.01-.13,0-.27-.01-.42-.01h-.61c-.26,0-.46,0-.6-.01-.14,0-.27-.02-.4-.04-.13-.02-.27-.03-.42-.04-.15,0-.35-.01-.61-.01-.15,0-.27.07-.38.22-.1.15-.15.3-.15.47,0,.28,0,.5-.01.66,0,.17-.01.32-.01.47s0,.3-.01.47c0,.17-.01.39-.01.66,0,.17.06.3.18.41.12.11.25.17.4.17h.57c.14,0,.27,0,.4-.01.13,0,.26-.01.4-.01h2.49c.24,0,.43,0,.57.03.14.02.27.03.4.04.13,0,.26.02.4.04.14.02.33.03.57.03.15,0,.28.04.39.11.11.07.17.19.17.36v.61c0,.15,0,.29.01.41,0,.13.01.27.01.41v1.19c0,.15,0,.29.01.41,0,.13.01.27.01.41v.58c0,.26,0,.46.01.59,0,.14.01.27.01.4s0,.27.01.41c0,.15.01.35.01.61v.59c0,.14,0,.27-.01.4,0,.13-.01.27-.01.41v.61c0,.26,0,.46-.03.61-.02.15-.03.29-.04.41,0,.13-.02.27-.04.41-.02.15-.03.34-.03.58,0,.26,0,.46.01.61,0,.15.02.29.04.41.02.13.03.27.04.41,0,.15.01.34.01.58,0,.26,0,.46-.01.61,0,.15-.02.29-.04.41-.02.13-.03.27-.04.41,0,.15-.01.34-.01.58v.61c0,.15,0,.29.01.41,0,.13.01.27.01.41v.58c0,.17.06.31.19.43.13.12.28.18.45.18h2.28c.17,0,.31-.06.42-.18.11-.12.17-.26.17-.43v-.58c0-.15,0-.29.01-.41,0-.13.01-.27.01-.41v-.61c0-.24,0-.43.01-.58,0-.15.02-.28.03-.41,0-.13.02-.27.03-.41,0-.15.01-.35.01-.61,0-.24,0-.43-.01-.58,0-.15-.01-.28-.01-.41s0-.27-.01-.41c0-.15-.01-.35-.01-.61,0-.24,0-.43.01-.58,0-.15.01-.29.01-.41s0-.27.01-.41c0-.15.01-.35.01-.61,0-.24,0-.43-.01-.58,0-.15-.02-.29-.03-.41,0-.13-.02-.27-.03-.41,0-.15-.01-.35-.01-.61,0-.24,0-.43.01-.58,0-.15.01-.28.01-.41s0-.27.01-.41c0-.15.01-.35.01-.61,0-.24,0-.43-.03-.58-.02-.15-.04-.29-.06-.41-.02-.13-.04-.27-.06-.41-.02-.15-.03-.35-.03-.61,0-.24,0-.43.03-.58.02-.15.03-.29.04-.41,0-.13.02-.27.04-.41.02-.15.03-.35.03-.61,0-.35.18-.52.53-.52h.57c.14,0,.27,0,.4-.01.13,0,.26-.01.4-.01h1.14c.14,0,.27,0,.39.01.12,0,.25.01.39.01h5.83Z"/>
      <path class="cls-1" d="M79.65,112.12c0,.28-.01.58-.03.9-.02.32-.03.76-.03,1.32s.01,1,.03,1.32c.02.32.04.62.06.9.02.28.04.59.06.93.02.34.03.79.03,1.35,0,.32.1.64.3.96.2.32.48.48.85.48.52,0,.94-.02,1.24-.06.3-.04.59-.09.88-.15.28-.06.57-.11.88-.15.3-.04.72-.06,1.24-.06h4.23c.52,0,.94.02,1.24.06.3.04.59.08.88.12.28.04.57.08.88.12.3.04.71.06,1.24.06h1.24c.3,0,.59-.01.88-.03.28-.02.57-.03.88-.03h1.24c.52,0,.94,0,1.24.03.3.02.59.03.88.03s.58,0,.88.03c.3.02.71.03,1.24.03.73-.04,1.42-.2,2.09-.48.66-.28,1.32-.52,1.97-.72.69-.24,1.34-.5,1.97-.78.62-.28,1.22-.64,1.78-1.08.56-.44,1.07-.92,1.51-1.44.44-.52.87-1.06,1.27-1.62.44-.56.81-1.15,1.09-1.77.28-.62.53-1.27.73-1.95.2-.68.38-1.35.54-2.01.16-.66.24-1.35.24-2.07,0-.68-.03-1.36-.09-2.04-.06-.68-.21-1.34-.45-1.98-.24-.68-.58-1.27-1.03-1.77-.44-.5-.91-1.01-1.39-1.53-.44-.48-.94-.94-1.48-1.38-.54-.44-1.16-.76-1.84-.96-.24-.08-.38-.24-.42-.48-.04-.24.04-.44.24-.6.76-.52,1.45-1.09,2.05-1.71.6-.62,1.09-1.33,1.45-2.13.6-1.48.91-3.2.91-5.15,0-.76-.07-1.5-.21-2.22s-.31-1.42-.51-2.1c-.24-.68-.57-1.32-1-1.92-.42-.6-.86-1.18-1.3-1.74-.44-.6-.88-1.19-1.3-1.77-.42-.58-.94-1.09-1.54-1.53-.56-.44-1.18-.83-1.84-1.17-.67-.34-1.34-.61-2.03-.81-.69-.24-1.39-.37-2.12-.39-.73-.02-1.47-.03-2.24-.03-.56,0-1.02,0-1.36-.03-.34-.02-.66-.04-.94-.06-.28-.02-.59-.04-.91-.06-.32-.02-.77-.03-1.33-.03s-1.02.01-1.36.03c-.34.02-.66.03-.94.03s-.6.01-.94.03c-.34.02-.8.03-1.36.03s-1.01,0-1.33-.03c-.32-.02-.62-.03-.91-.03s-.59,0-.94-.03c-.34-.02-.8-.03-1.36-.03s-1.02.01-1.36.03c-.34.02-.66.05-.94.09-.28.04-.58.07-.91.09-.32.02-.77.03-1.33.03-.36,0-.67.1-.91.3-.24.2-.36.46-.36.78v1.32c0,.32-.01.62-.03.9-.02.28-.03.59-.03.93v5.78c0,.56.01,1,.03,1.32.02.32.05.62.09.9.04.28.07.59.09.93.02.34.03.79.03,1.35s-.01,1-.03,1.32c-.02.32-.04.62-.06.9-.02.28-.04.58-.06.9-.02.32-.03.76-.03,1.32s-.01,1-.03,1.32c-.02.32-.04.62-.06.9-.02.28-.04.59-.06.93-.02.34-.03.79-.03,1.35v1.32c0,.32-.01.62-.03.9-.02.28-.03.58-.03.9v1.32c0,.56,0,1.01.03,1.35.02.34.03.65.03.93s0,.58.03.9c.02.32.03.76.03,1.32s0,1,.03,1.32c.02.32.04.62.06.9.02.28.04.58.06.9.02.32.03.76.03,1.32s-.01,1.01-.03,1.35c-.02.34-.03.65-.03.93ZM87.44,80.68c.32-.26.64-.39.97-.39.64,0,1.17.02,1.57.06.4.04.76.07,1.09.09.32.02.67.05,1.06.09.38.04.92.06,1.6.06h1.63c.4,0,.76,0,1.09-.03.32-.02.67-.03,1.06-.03h1.6c1.77,0,3.24.58,4.41,1.73.56.56,1.07,1.2,1.51,1.94.44.74.66,1.54.66,2.42-.04.84-.27,1.6-.7,2.3-.42.7-.92,1.32-1.48,1.88-1.21,1.11-2.64,1.67-4.29,1.67-.68,0-1.23.02-1.63.06-.4.04-.76.07-1.09.09-.32.02-.68.05-1.09.09-.4.04-.93.06-1.57.06-.68,0-1.23,0-1.63-.03-.4-.02-.77-.04-1.09-.06-.32-.02-.69-.04-1.09-.06-.4-.02-.95-.03-1.63-.03-.32,0-.62-.11-.91-.33-.28-.22-.42-.49-.42-.81,0-.64,0-1.13.03-1.49.02-.36.04-.7.06-1.01.02-.32.04-.66.06-1.01.02-.36.03-.83.03-1.43s-.02-1.07-.06-1.43c-.04-.36-.07-.69-.09-1.01-.02-.32-.05-.66-.09-1.01-.04-.36-.06-.83-.06-1.43,0-.36.16-.67.48-.92ZM87.01,109.9c.04-.36.08-.7.12-1.02.04-.32.08-.66.12-1.02.04-.36.06-.86.06-1.5v-1.44c0-.36,0-.7.03-1.02.02-.32.03-.66.03-1.02v-1.44c0-.36.09-.67.27-.93.18-.26.43-.39.76-.39.52,0,.94,0,1.27.03.32.02.62.04.91.06.28.02.57.04.88.06.3.02.73.03,1.3.03.52,0,.94,0,1.27-.03.32-.02.62-.04.91-.06.28-.02.57-.04.88-.06.3-.02.73-.03,1.3-.03.52,0,.95,0,1.27.03.32.02.62.04.91.06.28.02.57.04.88.06.3.02.73.03,1.3.03.89,0,1.72.12,2.51.36.79.24,1.46.64,2.02,1.2.56.56.99,1.23,1.27,2.01.28.78.44,1.59.48,2.43,0,1.76-.64,3.24-1.93,4.44-.56.56-1.23,1.01-1.99,1.35-.77.34-1.59.51-2.48.51-.56,0-1,0-1.3-.03-.3-.02-.59-.05-.88-.09-.28-.04-.57-.07-.88-.09-.3-.02-.72-.03-1.24-.03h-1.3c-.3,0-.59.01-.88.03-.28.02-.58.03-.91.03h-2.51c-.3,0-.59,0-.88.03-.28.02-.58.03-.91.03h-1.27c-.32,0-.65-.1-.97-.3-.32-.2-.48-.48-.48-.84,0-.6.02-1.08.06-1.44Z"/>
      <path class="cls-1" d="M117.73,103.36c.2.76.44,1.48.72,2.16.32.72.67,1.42,1.06,2.1.38.68.79,1.34,1.24,1.98.44.64.94,1.22,1.51,1.74.56.52,1.13,1.06,1.69,1.62.56.56,1.1,1.12,1.6,1.68.5.56,1.1,1.06,1.78,1.5.64.44,1.32.81,2.02,1.11.7.3,1.42.61,2.14.93.73.32,1.44.61,2.14.87.7.26,1.46.47,2.26.63.76.16,1.53.27,2.29.33.76.06,1.55.09,2.36.09s1.59-.05,2.36-.15c.76-.1,1.53-.23,2.29-.39.76-.16,1.51-.37,2.23-.63.73-.26,1.43-.55,2.11-.87.73-.32,1.45-.61,2.17-.87.73-.26,1.41-.61,2.05-1.05.68-.44,1.32-.9,1.9-1.38.58-.48,1.16-1,1.72-1.56.56-.56,1.09-1.14,1.57-1.74.48-.6.95-1.22,1.39-1.86.44-.64.87-1.29,1.27-1.95.4-.66.76-1.35,1.09-2.07.32-.72.56-1.46.73-2.22.16-.76.32-1.52.48-2.28.16-.76.26-1.52.3-2.28.04-.76.06-1.54.06-2.34s-.03-1.58-.09-2.34c-.06-.76-.17-1.52-.33-2.28-.16-.8-.36-1.56-.6-2.28-.24-.72-.5-1.42-.79-2.1-.32-.72-.67-1.41-1.06-2.07-.38-.66-.79-1.31-1.24-1.95-.44-.64-.88-1.29-1.3-1.95-.42-.66-.92-1.27-1.48-1.83-.56-.56-1.17-1.04-1.81-1.44-.64-.4-1.29-.82-1.93-1.26-.68-.44-1.35-.85-1.99-1.23-.65-.38-1.33-.73-2.05-1.05-1.45-.56-2.92-1.02-4.41-1.38-.77-.12-1.53-.25-2.29-.39-.77-.14-1.55-.21-2.36-.21s-1.59.08-2.36.24c-.76.16-1.51.32-2.23.48-.8.16-1.57.35-2.29.57-.73.22-1.43.49-2.11.81-.72.32-1.42.66-2.08,1.02-.67.36-1.32.76-1.96,1.2-.68.44-1.37.84-2.05,1.2-.68.36-1.31.82-1.87,1.38-.56.56-1.06,1.16-1.48,1.8-.42.64-.86,1.28-1.3,1.92-.85,1.32-1.57,2.7-2.17,4.14-.28.68-.54,1.39-.79,2.13-.24.74-.44,1.49-.6,2.25-.16.76-.25,1.52-.27,2.28-.02.76-.03,1.54-.03,2.34v2.34c0,.76.08,1.52.24,2.28.16.76.34,1.52.54,2.28ZM124.4,94.34c.1-.7.25-1.39.45-2.07.2-.68.41-1.36.63-2.04.22-.68.51-1.32.88-1.92.36-.6.79-1.16,1.27-1.68.48-.52.99-1.02,1.51-1.5.48-.52,1.01-.98,1.57-1.38.56-.4,1.17-.78,1.81-1.14.6-.36,1.23-.68,1.87-.96.64-.28,1.31-.52,1.99-.72.68-.2,1.37-.39,2.05-.57s1.39-.27,2.11-.27,1.43.09,2.11.27c.68.18,1.37.37,2.05.57.68.2,1.37.41,2.05.63.68.22,1.33.49,1.93.81.64.36,1.23.78,1.75,1.26.52.48,1.03.96,1.51,1.44.52.52,1,1.06,1.42,1.62.42.56.82,1.14,1.18,1.74.76,1.28,1.35,2.56,1.75,3.84.2.68.37,1.37.51,2.07.14.7.21,1.41.21,2.13s-.1,1.42-.3,2.1c-.2.68-.4,1.36-.6,2.04-.2.68-.42,1.35-.66,2.01-.24.66-.54,1.29-.91,1.89-.36.6-.76,1.18-1.18,1.74-.42.56-.9,1.08-1.42,1.56-.48.52-1.02.97-1.6,1.35-.58.38-1.18.75-1.78,1.11-.6.32-1.23.63-1.87.93-.65.3-1.31.55-1.99.75-1.33.36-2.72.54-4.17.54h-2.14c-.7,0-1.4-.1-2.08-.3-.69-.2-1.37-.43-2.05-.69-.68-.26-1.33-.57-1.93-.93-.6-.36-1.2-.75-1.78-1.17-.58-.42-1.14-.87-1.66-1.35-.48-.52-.89-1.1-1.21-1.74-.32-.64-.66-1.26-1.03-1.86-.36-.64-.7-1.26-1.03-1.86-.32-.6-.58-1.24-.79-1.92-.2-.68-.35-1.37-.45-2.07-.1-.7-.15-1.41-.15-2.13s.05-1.43.15-2.13Z"/>
      <path class="cls-1" d="M39.8,173.06c.36.04.72-.08,1.06-.36.34-.28.51-.62.51-1.02,0-.6,0-1.08-.03-1.44-.02-.36-.04-.7-.06-1.02-.02-.32-.04-.66-.06-1.02-.02-.36-.03-.84-.03-1.44,0-.32-.12-.64-.37-.96-.24-.32-.53-.48-.85-.48-.65-.08-5.32-1.07-5.88-1.21-.57-.14-1.14-.39-1.7-.75-.45-.32-.87-.69-1.28-1.11-.41-.42-.77-.97-1.1-1.65-.2-.52-.37-1.07-.51-1.65-.14-.58-.25-1.25-.33-2.01-.04-.24-.04-.48,0-.72.04-.24.16-.44.36-.6,1.26-.72,2.37-1.58,3.35-2.58.53-.52,1.04-1.03,1.55-1.53.51-.5.94-1.05,1.31-1.65.36-.64.67-1.3.91-1.98.24-.68.47-1.36.67-2.04.16-.68.23-1.37.21-2.07-.02-.7-.03-1.41-.03-2.13,0-.76-.02-1.49-.06-2.19-.04-.7-.16-1.39-.36-2.07-.2-.68-.43-1.35-.7-2.01-.26-.66-.57-1.29-.94-1.89-.36-.64-.78-1.23-1.24-1.77s-.96-1.07-1.48-1.59c-.52-.48-1.06-.95-1.6-1.41-.54-.46-1.14-.87-1.78-1.23-.65-.32-1.3-.62-1.97-.9-.67-.28-1.36-.52-2.09-.72-.69-.2-1.38-.28-2.09-.24-.71.04-1.44.06-2.21.06-.57,0-1.02,0-1.36-.03-.34-.02-.66-.04-.94-.06-.28-.02-.59-.04-.94-.06-.34-.02-.82-.03-1.42-.03s-1.08-.02-1.42-.06c-.34-.04-.66-.07-.94-.09-.28-.02-.6-.05-.94-.09-.34-.04-.82-.06-1.42-.06s-1.08.01-1.42.03c-.34.02-.65.05-.94.09-.28.04-.6.07-.94.09-.34.02-.8.03-1.36.03-.61,0-1.08,0-1.42-.03-.34-.02-.66-.04-.94-.06-.28-.02-.59-.04-.94-.06-.34-.02-.82-.03-1.42-.03-.36,0-.68.16-.94.48-.26.32-.39.64-.39.96,0,.56,0,1,.03,1.32.02.32.04.62.06.9.02.28.04.58.06.9.02.32.03.74.03,1.26v1.29c0,.3,0,.59.03.87.02.28.03.58.03.9v1.32c0,.56-.01.99-.03,1.29-.02.3-.03.59-.03.87s-.01.58-.03.9c-.02.32-.03.74-.03,1.26v1.32c0,.32-.01.62-.03.9-.02.28-.03.58-.03.9v5.63c0,.56,0,.99.03,1.29.02.3.05.59.09.87.04.28.07.58.09.9.02.32.03.74.03,1.26,0,.56-.01,1-.03,1.32-.02.32-.04.62-.06.9-.02.28-.04.58-.06.9-.02.32-.03.74-.03,1.26v1.29c0,.3,0,.59.03.87.02.28.03.58.03.9v1.32c0,.56-.02.99-.06,1.29-.04.3-.08.59-.12.87-.04.28-.08.58-.12.9-.04.32-.06.74-.06,1.26v4.38c0,.36.16.68.48.96.32.28.66.42,1.03.42.6,0,1.09-.02,1.45-.06.36-.04.7-.07,1.03-.09.32-.02.66-.05,1.03-.09.36-.04.85-.06,1.45-.06.73,0,1.09-.36,1.09-1.08,0-.68,0-1.22.03-1.62.02-.4.04-.78.06-1.14.02-.36.04-.74.06-1.14.02-.4.03-.94.03-1.62s0-1.22-.03-1.62c-.02-.4-.04-.77-.06-1.11-.02-.34-.04-.71-.06-1.11-.02-.4-.03-.94-.03-1.62,0-.36.16-.65.48-.87.32-.22.67-.33,1.03-.33.65,0,1.44-.04,2.39-.12.95-.08,1.93-.12,2.93-.12s2.06.06,3.03.18c.97.12,1.75.18,2.36.18.32,0,.6.06.85.18.24.12.38.34.42.66.16.76.3,1.5.42,2.22.12.72.32,1.4.61,2.04.28.68.62,1.33,1.03,1.95.4.62.83,1.21,1.27,1.77.44.52.92.99,1.42,1.41.5.42,1.04.81,1.6,1.17.56.36,1.16.65,1.79.87.62.22,1.28.43,1.97.63.6.2,1.23.41,1.87.63.65.22,5.37,1.24,6.05,1.28ZM27.32,148.17c-.5.58-1.1,1.05-1.78,1.41-1.41.76-2.9,1.14-4.47,1.14h-3.8c-.48,0-.86-.02-1.12-.06-.26-.04-.51-.07-.76-.09-.24-.02-.49-.05-.75-.09-.26-.04-.63-.06-1.12-.06h-1.12c-.26,0-.51.01-.75.03-.24.02-.49.03-.75.03h-1.12c-.36,0-.69-.1-1-.3-.3-.2-.45-.48-.45-.84,0-.64,0-1.14.03-1.5.02-.36.03-.7.03-1.02s0-.66.03-1.02c.02-.36.03-.86.03-1.5s0-1.14.03-1.5c.02-.36.03-.7.03-1.02s0-.66.03-1.02c.02-.36.03-.86.03-1.5v-1.5c0-.36,0-.7-.03-1.02-.02-.32-.03-.66-.03-1.02v-1.5c0-.36.12-.64.36-.84.24-.2.54-.3.91-.3h3.8c.48,0,.87-.02,1.15-.06.28-.04.54-.08.79-.12.24-.04.49-.08.76-.12.26-.04.63-.06,1.12-.06s.86.01,1.15.03c.28.02.54.04.79.06.24.02.5.04.79.06.28.02.66.03,1.15.03.8,0,1.56.15,2.26.45.7.3,1.4.65,2.08,1.05.68.4,1.32.85,1.9,1.35.58.5,1.08,1.09,1.48,1.77.36.68.61,1.39.75,2.13.14.74.21,1.51.21,2.31-.08,1.68-.48,3.12-1.21,4.32-.44.68-.92,1.31-1.42,1.89Z"/>
      <path class="cls-1" d="M79.32,160.74c.58-.48,1.16-1,1.72-1.56.56-.56,1.09-1.14,1.57-1.74.48-.6.95-1.22,1.39-1.86.44-.64.87-1.29,1.27-1.95.4-.66.76-1.35,1.09-2.07.32-.72.56-1.46.72-2.22.16-.76.32-1.52.48-2.28.16-.76.26-1.52.3-2.28.04-.76.06-1.54.06-2.34s-.03-1.58-.09-2.34c-.06-.76-.17-1.52-.33-2.28-.16-.8-.36-1.56-.6-2.28-.24-.72-.5-1.42-.79-2.1-.32-.72-.67-1.41-1.06-2.07-.38-.66-.79-1.31-1.24-1.95-.44-.64-.88-1.29-1.3-1.95-.42-.66-.92-1.27-1.48-1.83-.56-.56-1.17-1.04-1.81-1.44-.64-.4-1.29-.82-1.93-1.26-.68-.44-1.35-.85-1.99-1.23-.64-.38-1.33-.73-2.05-1.05-1.45-.56-2.92-1.02-4.41-1.38-.77-.12-1.53-.25-2.29-.39-.77-.14-1.55-.21-2.35-.21s-1.59.08-2.36.24c-.76.16-1.51.32-2.23.48-.81.16-1.57.35-2.29.57-.72.22-1.43.49-2.11.81-.72.32-1.42.66-2.08,1.02-.66.36-1.32.76-1.96,1.2-.68.44-1.37.84-2.05,1.2-.68.36-1.31.82-1.87,1.38-.56.56-1.06,1.16-1.48,1.8-.42.64-.86,1.28-1.3,1.92-.85,1.32-1.57,2.7-2.17,4.14-.28.68-.54,1.39-.78,2.13-.24.74-.44,1.49-.6,2.25-.16.76-.25,1.52-.27,2.28-.02.76-.03,1.54-.03,2.34v2.34c0,.76.08,1.52.24,2.28.16.76.34,1.52.54,2.28.2.76.44,1.48.72,2.16.32.72.67,1.42,1.06,2.1.38.68.79,1.34,1.24,1.98.44.64.95,1.22,1.51,1.74.56.52,1.13,1.06,1.69,1.62.56.56,1.1,1.12,1.6,1.68.5.56,1.1,1.06,1.78,1.5.64.44,1.32.81,2.02,1.11.7.3,1.42.61,2.14.93.73.32,1.44.61,2.14.87.7.26,1.46.47,2.26.63.76.16,1.53.27,2.29.33.76.06,1.55.09,2.36.09s1.59-.05,2.35-.15c.76-.1,1.53-.23,2.29-.39.76-.16,1.51-.37,2.23-.63.72-.26,1.43-.55,2.11-.87.73-.32,1.45-.61,2.17-.87.73-.26,1.41-.61,2.05-1.05.68-.44,1.32-.9,1.9-1.38ZM75.6,153.79c-.48.52-1.02.97-1.6,1.35-.58.38-1.18.75-1.78,1.11-.6.32-1.23.63-1.87.93-.64.3-1.31.55-1.99.75-1.33.36-2.72.54-4.17.54h-2.14c-.7,0-1.4-.1-2.08-.3-.69-.2-1.37-.43-2.05-.69-.69-.26-1.33-.57-1.93-.93-.6-.36-1.2-.75-1.78-1.17-.58-.42-1.14-.87-1.66-1.35-.48-.52-.89-1.1-1.21-1.74-.32-.64-.66-1.26-1.03-1.86-.36-.64-.7-1.26-1.03-1.86-.32-.6-.58-1.24-.79-1.92-.2-.68-.35-1.37-.45-2.07-.1-.7-.15-1.41-.15-2.13s.05-1.43.15-2.13c.1-.7.25-1.39.45-2.07.2-.68.41-1.36.63-2.04.22-.68.51-1.32.88-1.92.36-.6.79-1.16,1.27-1.68.48-.52.99-1.02,1.51-1.5.48-.52,1.01-.98,1.57-1.38.56-.4,1.17-.78,1.81-1.14.6-.36,1.23-.68,1.87-.96.64-.28,1.31-.52,1.99-.72.68-.2,1.37-.39,2.05-.57.68-.18,1.39-.27,2.11-.27s1.43.09,2.11.27c.68.18,1.37.37,2.05.57.68.2,1.37.41,2.05.63.68.22,1.33.49,1.93.81.64.36,1.23.78,1.75,1.26.52.48,1.03.96,1.51,1.44.52.52,1,1.06,1.42,1.62.42.56.82,1.14,1.18,1.74.76,1.28,1.35,2.56,1.75,3.84.2.68.37,1.37.51,2.07.14.7.21,1.41.21,2.13s-.1,1.42-.3,2.1c-.2.68-.4,1.36-.6,2.04-.2.68-.42,1.35-.66,2.01-.24.66-.54,1.29-.91,1.89-.36.6-.76,1.18-1.18,1.74-.42.56-.9,1.08-1.42,1.56Z"/>
      <path class="cls-1" d="M161.46,160.28c.4-.66.76-1.35,1.09-2.07.32-.72.56-1.46.72-2.22.16-.76.32-1.52.48-2.28.16-.76.26-1.52.3-2.28.04-.76.06-1.54.06-2.34s-.03-1.58-.09-2.34c-.06-.76-.17-1.52-.33-2.28-.16-.8-.36-1.56-.6-2.28-.24-.72-.5-1.42-.79-2.1-.32-.72-.67-1.41-1.06-2.07-.38-.66-.79-1.31-1.24-1.95-.44-.64-.88-1.29-1.3-1.95-.42-.66-.92-1.27-1.48-1.83-.56-.56-1.17-1.04-1.81-1.44-.64-.4-1.29-.82-1.93-1.26-.68-.44-1.35-.85-1.99-1.23-.64-.38-1.33-.73-2.05-1.05-1.45-.56-2.92-1.02-4.41-1.38-.77-.12-1.53-.25-2.29-.39-.77-.14-1.55-.21-2.35-.21s-1.59.08-2.36.24c-.76.16-1.51.32-2.23.48-.81.16-1.57.35-2.29.57-.72.22-1.43.49-2.11.81-.72.32-1.42.66-2.08,1.02-.66.36-1.32.76-1.96,1.2-.68.44-1.37.84-2.05,1.2-.68.36-1.31.82-1.87,1.38-.56.56-1.06,1.16-1.48,1.8-.42.64-.86,1.28-1.3,1.92-.85,1.32-1.57,2.7-2.17,4.14-.28.68-.54,1.39-.78,2.13-.24.74-.44,1.49-.6,2.25-.16.76-.25,1.52-.27,2.28-.02.76-.03,1.54-.03,2.34v2.34c0,.76.08,1.52.24,2.28.16.76.34,1.52.54,2.28.2.76.44,1.48.72,2.16.32.72.67,1.42,1.06,2.1.38.68.79,1.34,1.24,1.98.44.64.95,1.22,1.51,1.74.56.52,1.13,1.06,1.69,1.62.56.56,1.1,1.12,1.6,1.68.5.56,1.1,1.06,1.78,1.5.64.44,1.32.81,2.02,1.11.7.3,1.42.61,2.14.93.73.32,1.44.61,2.14.87.7.26,1.46.47,2.26.63.76.16,1.53.27,2.29.33.76.06,1.55.09,2.36.09s1.59-.05,2.35-.15c.76-.1,1.53-.23,2.29-.39.76-.16,1.51-.37,2.23-.63.72-.26,1.43-.55,2.11-.87.73-.32,1.45-.61,2.17-.87.73-.26,1.41-.61,2.05-1.05.68-.44,1.32-.9,1.9-1.38.58-.48,1.16-1,1.72-1.56.56-.56,1.09-1.14,1.57-1.74.48-.6.95-1.22,1.39-1.86.44-.64.87-1.29,1.27-1.95ZM156.57,151.2c-.2.68-.4,1.36-.6,2.04-.2.68-.42,1.35-.66,2.01-.24.66-.54,1.29-.91,1.89-.36.6-.76,1.18-1.18,1.74-.42.56-.9,1.08-1.42,1.56-.48.52-1.02.97-1.6,1.35-.58.38-1.18.75-1.78,1.11-.6.32-1.23.63-1.87.93-.64.3-1.31.55-1.99.75-1.33.36-2.72.54-4.17.54h-2.14c-.7,0-1.4-.1-2.08-.3-.69-.2-1.37-.43-2.05-.69-.69-.26-1.33-.57-1.93-.93-.6-.36-1.2-.75-1.78-1.17-.58-.42-1.14-.87-1.66-1.35-.48-.52-.89-1.1-1.21-1.74-.32-.64-.66-1.26-1.03-1.86-.36-.64-.7-1.26-1.03-1.86-.32-.6-.58-1.24-.79-1.92-.2-.68-.35-1.37-.45-2.07-.1-.7-.15-1.41-.15-2.13s.05-1.43.15-2.13c.1-.7.25-1.39.45-2.07.2-.68.41-1.36.63-2.04.22-.68.51-1.32.88-1.92.36-.6.79-1.16,1.27-1.68.48-.52.99-1.02,1.51-1.5.48-.52,1.01-.98,1.57-1.38.56-.4,1.17-.78,1.81-1.14.6-.36,1.23-.68,1.87-.96.64-.28,1.31-.52,1.99-.72.68-.2,1.37-.39,2.05-.57.68-.18,1.39-.27,2.11-.27s1.43.09,2.11.27c.68.18,1.37.37,2.05.57.68.2,1.37.41,2.05.63.68.22,1.33.49,1.93.81.64.36,1.23.78,1.75,1.26.52.48,1.03.96,1.51,1.44.52.52,1,1.06,1.42,1.62s.82,1.14,1.18,1.74c.76,1.28,1.35,2.56,1.75,3.84.2.68.37,1.37.51,2.07.14.7.21,1.41.21,2.13s-.1,1.42-.3,2.1Z"/>
      <path class="cls-1" d="M1.61,102.12c.27.72.58,1.45.94,2.18.35.73.74,1.43,1.16,2.09.42.66.88,1.31,1.37,1.93.49.63.94,1.29,1.35,1.99.41.7.91,1.31,1.49,1.83.62.53,1.28.99,1.98,1.38.7.39,1.38.8,2.06,1.21.67.41,1.37.79,2.07,1.12.71.33,1.45.65,2.22.96.78.26,1.55.51,2.31.73.76.22,1.54.38,2.34.49.8.11,1.57.16,2.32.16.75,0,1.52-.03,2.3-.09.78-.06,1.55-.13,2.31-.21.76-.08,1.5-.23,2.22-.46.75-.18,1.5-.41,2.22-.67.73-.27,1.44-.58,2.14-.93.7-.35,1.35-.74,1.95-1.16.6-.42,1.22-.88,1.86-1.36.63-.48,1.22-.96,1.78-1.43.55-.47,1.09-1.01,1.62-1.63h0c.23-.1,1.93-2.39,2.08-2.61.46-.7.82-1.26,1.08-1.67.26-.41.5-.79.73-1.14.23-.35.47-.73.73-1.14.26-.41.62-.97,1.08-1.67.21-.37.64-.52,1.28-.44.48.06.87.11,1.17.13.3.02.57.05.81.08.24.03.51.06.81.08.3.02.69.06,1.17.12.48.06.87.13,1.16.18.3.06.56.13.8.2.23.07.5.14.8.2.3.06.69.12,1.16.18l4.01.53c.48.06.87.09,1.18.09.3,0,.58,0,.82-.01.24,0,.52-.01.82-.01.3,0,.7.03,1.17.09.28.04.55.15.81.35.26.2.41.4.47.61.26.8.43,1.44.5,1.91.08.47.15.92.22,1.33.07.41,1.15,4.72,1.25,5.19.1.48.28,1.12.53,1.92.05.25.2.44.47.58.27.14.54.22.82.26.76.1,1.36.17,1.8.21.44.04.84.07,1.21.1.36.03.76.06,1.2.1.44.04,1.02.11,1.74.2.24.03.44-.01.6-.13.16-.12.21-.28.16-.49-.17-.55-.31-.97-.41-1.26-.1-.29-.2-.58-.28-.85-.08-.27-.18-.56-.28-.85-.1-.29-1.22-4.58-1.35-5.12-.13-.54-.25-.96-.35-1.25-.1-.29-.2-.58-.28-.85-.09-.27-.18-.56-.28-.85-.1-.29-.22-.71-.35-1.26-.13-.54-.23-.97-.29-1.28-.06-.31-.11-.61-.15-.9-.04-.29-.09-.59-.15-.9-.06-.31-.18-.72-.35-1.23-.13-.54-.23-.97-.32-1.28-.08-.31-.15-.6-.22-.88-.06-.27-.14-.56-.22-.88-.08-.31-.21-.72-.38-1.23l-1.13-4.26c-.17-.55-.31-.97-.41-1.26-.1-.3-.2-.58-.28-.85-.08-.27-.17-.56-.25-.85-.08-.29-.21-.71-.38-1.26-.13-.54-.25-.96-.35-1.26-.1-.29-.21-.57-.32-.83-.11-.26-.21-.53-.31-.83-.1-.3-.24-.72-.41-1.26-.13-.54-.23-.97-.29-1.28-.06-.31-.1-.61-.12-.89-.02-.28-.05-.58-.09-.89-.04-.31-.14-.73-.31-1.28-.13-.54-.26-.96-.38-1.26-.12-.3-.24-.58-.35-.83-.11-.26-.22-.53-.35-.83-.12-.3-.25-.72-.38-1.26-.17-.55-.3-.97-.38-1.26-.08-.29-.17-.58-.25-.85-.08-.27-.18-.56-.28-.85-.1-.29-.22-.71-.35-1.25-.17-.55-.29-.98-.35-1.29-.06-.31-.12-.6-.19-.87-.07-.27-.13-.56-.19-.87-.06-.31-.16-.74-.29-1.28-.08-.29-.3-.47-.66-.54-.36-.07-.59.03-.71.3-.31.48-.53.87-.67,1.15-.14.28-.27.56-.39.83-.12.27-.25.54-.38.83-.14.28-.36.65-.66,1.09-.31.48-.55.85-.73,1.11-.18.26-.34.51-.5.75-.16.24-.32.49-.5.75-.18.26-.4.63-.67,1.12-.31.48-.55.85-.73,1.11-.18.26-.35.51-.53.75-.18.24-.35.49-.53.75-.18.26-.4.63-.67,1.12-.3.44-.53.81-.66,1.09-.14.28-.27.56-.39.83-.12.27-.25.54-.38.83-.14.28-.36.67-.67,1.15-.31.48-.54.86-.7,1.12-.16.26-.31.51-.47.75-.15.24-.31.49-.47.75-.16.26-.39.63-.7,1.12-.27.49-.49.86-.67,1.12-.18.26-.34.51-.5.75-.16.24-.32.49-.5.75-.18.26-.42.63-.73,1.11-.31.48-.54.87-.7,1.15-.16.28-.31.53-.44.76-.13.22-.28.48-.44.76-.16.28-.39.66-.7,1.15-.3.44-.55.8-.72,1.08-.18.28-.34.53-.5.75-.15.22-.31.47-.47.75-.16.28-.39.66-.7,1.15-.3.44-.52.81-.66,1.09-.14.28-.28.55-.41.79-.13.24-.27.51-.41.79-.14.28-.36.67-.67,1.15l-2.34,3.8c-.3.44-.54.8-.72,1.08-.18.28-.35.53-.5.75-.15.22-.32.47-.5.75-.13.2-.54.53-.68.82-.46.42-.95.82-1.47,1.17-.72.49-1.45.95-2.19,1.37-.75.43-1.52.82-2.32,1.18-.8.36-1.62.62-2.45.79-.83.13-1.68.17-2.54.12-.87-.05-1.74-.14-2.61-.26-1.48-.2-2.85-.56-4.12-1.09-.65-.29-1.31-.58-1.98-.87-.67-.29-1.28-.65-1.83-1.09-.59-.44-1.13-.93-1.63-1.46-.5-.53-.98-1.07-1.43-1.61-.41-.58-.77-1.19-1.09-1.84-.32-.65-.62-1.31-.89-1.99-.24-.64-.41-1.3-.52-2-.11-.7-.22-1.42-.32-2.16-.07-.69-.15-1.39-.24-2.09-.09-.7-.09-1.4,0-2.11.1-.71.25-1.41.46-2.09.21-.68.46-1.34.75-1.99.29-.65.64-1.26,1.04-1.83.4-.57.82-1.13,1.26-1.68.83-1.06,1.85-2.01,3.06-2.86.58-.41,1.15-.81,1.72-1.22.56-.41,1.18-.73,1.87-.96.65-.28,1.32-.47,2.03-.58.7-.11,1.41-.22,2.11-.33.7-.07,1.4-.13,2.1-.18.7-.05,1.4-.03,2.12.07.83.15,1.66.34,2.48.57.82.23,1.61.54,2.37.92.76.38,1.47.84,2.13,1.37.66.53,1.29,1.1,1.9,1.7.91.9,1.72,1.91,2.54,2.89.66.8,1.23,1.98,2.03,2.82.16.14.33.26.51.33.4.15.71.11,1.12-.04.88-.32,1.64-1.12,2.22-1.85.71-.89,1.18-1.94,1.26-3.08.02-.25.01-.49,0-.74-.3-.53-.6-1.06-.96-1.55-.46-.63-.94-1.25-1.42-1.88-1.05-1.27-2.14-2.38-3.27-3.34-.62-.52-1.23-1.01-1.85-1.45-.61-.44-1.28-.85-2-1.23-.68-.41-1.35-.8-2.04-1.18-.68-.37-1.41-.69-2.19-.95-.74-.22-1.51-.42-2.3-.61-.79-.18-1.58-.31-2.39-.38-.76-.1-1.51-.12-2.25-.06-.74.06-1.48.13-2.22.19-1.45.17-2.9.44-4.37.81-.72.23-1.44.44-2.16.62-.72.19-1.42.46-2.12.81-.66.36-1.27.77-1.84,1.24-.57.47-1.15.93-1.74,1.37-.63.44-1.26.86-1.89,1.26-.63.4-1.2.89-1.73,1.46-.52.54-.99,1.11-1.4,1.72-.41.61-.82,1.23-1.23,1.86-.41.63-.75,1.29-1,1.98-.26.69-.53,1.38-.83,2.07-.26.69-.5,1.39-.74,2.08-.24.69-.43,1.42-.57,2.16-.14.79-.23,1.58-.26,2.38-.03.8-.03,1.59-.01,2.36.02.81.09,1.61.23,2.39.14.78.3,1.55.49,2.3.18.79.41,1.55.68,2.27ZM51.33,94.75c.31-.48.54-.88.71-1.18.16-.3.3-.58.42-.85.12-.27.26-.55.42-.85.16-.3.4-.71.71-1.24.31-.48.55-.87.74-1.17.18-.3.36-.57.54-.81.17-.24.35-.5.53-.78.18-.28.43-.68.74-1.2.31-.48.56-.87.77-1.17.2-.3.39-.55.56-.77.17-.22.36-.47.56-.74.2-.28.46-.68.77-1.2.16-.26.35-.4.57-.41.22-.01.38.13.46.42.17.59.3,1.04.4,1.35.1.32.19.62.27.91.08.29.16.61.24.94.08.33.2.77.37,1.32.16.59.29,1.04.37,1.35.08.31.16.62.24.91.08.29.16.61.24.94.08.33.2.77.37,1.32l1.34,4.53c.1.42-.06.6-.5.54-.48-.06-.86-.1-1.14-.12-.28-.02-.54-.03-.79-.04-.24-.01-.51-.03-.79-.04-.28-.02-.66-.06-1.14-.12-.48-.06-.87-.11-1.17-.15-.3-.04-.57-.08-.8-.14-.24-.05-.5-.1-.77-.13-.28-.04-.66-.09-1.14-.15-.48-.06-.86-.12-1.13-.18-.28-.06-.53-.1-.77-.13-.24-.03-.5-.08-.77-.13-.28-.06-.66-.12-1.13-.18-.4-.05-.49-.27-.28-.64Z"/>
      <path class="cls-1" d="M113.73,141.18c.08-.34.15-.64.21-.92.06-.28.13-.57.2-.89.07-.32.19-.75.35-1.29.16-.54.3-.98.42-1.3.12-.32.22-.62.3-.9.08-.27.18-.57.3-.89.4-1.11.66-2.26,1.03-3.38.33-1.01,1.05-1.97,1.27-2.99.14-.64.25-1.28.33-1.93.09-.82.16-1.74.01-2.55-.49-2.8-3.46-1.41-5.4-1.46-.57.06-1.02.11-1.37.14-.34.04-.66.08-.94.13-.28.05-.59.09-.91.13-.32.03-.77.08-1.34.14-.57.06-1.02.11-1.37.14-.34.04-.66.06-.95.07-.29.01-.6.03-.95.07-.34.04-.8.08-1.37.14-.57.06-1.02.12-1.37.17-.34.06-.66.11-.94.16-.28.05-.58.1-.91.16-.32.06-.77.11-1.34.17-1.48.16-2.97.25-4.46.25-.56,0-1.12-.02-1.71.01-1.24.07-2.28,1.49-2.09,2.68.2,1.28.51,2.63,1.1,3.81.29.58.68,1.22,1.28,1.51.69.34,1.38.03,2.09-.04.57-.06,1.02-.13,1.36-.21.34-.08.65-.14.93-.19.28-.05.58-.11.9-.19.32-.07.76-.14,1.33-.2.57-.06,1.03-.09,1.38-.08.35,0,.67,0,.95,0,.29,0,.6-.01.95,0,.35,0,.81-.02,1.38-.08.57-.06,1.03-.11,1.37-.14.34-.04.66-.08.94-.13.28-.05.6-.09.94-.13.21-.02.46-.05.75-.08l-.11.38c-.16.54-.27.99-.33,1.33-.06.34-.12.65-.18.93-.06.28-.12.58-.17.9-.05.32-.16.76-.32,1.3-.16.54-.31.98-.45,1.29-.14.32-.26.61-.36.88-.1.27-.22.56-.35.88-.14.32-.29.75-.45,1.3-.16.55-.29.98-.39,1.31-.1.33-.18.63-.24.91-.06.28-.14.58-.24.91-.1.33-.23.77-.39,1.31-.16.54-.29.97-.38,1.28-.09.31-.19.6-.29.87-.1.26-.2.56-.29.89-1.38,4.66-2.6,11.11-5.16,15.24-.45.72-.95,1.37-1.51,1.97-1.2,1.17-2.62,2.05-4.28,2.62-.79.23-1.6.34-2.42.31-.82-.03-1.66-.1-2.52-.23-1.08-.18-2.19-.42-3.23-.82-.37-.28-.71-.6-.97-.98-.53-.8-.64-1.86-.27-2.75.08-.2.19-.4.15-.61-.07-.38-.57-.53-.93-.4-1.48.54-2.88,1.78-4.23,2.62-1.08.68-2.46,1.56-2.59,2.96-.09.99.3,1.76.96,2.38,0,.01,0,.02.01.03.03.05.06.1.08.13.07.1.15.18.22.28.93.8,2.1,1.67,3.37,2.24.21.24.45.42.73.5.77.14,6.22,2.24,6.97,2.25.74,0,1.48,0,2.2,0,.74-.04,1.48-.11,2.23-.21.75-.1,1.48-.26,2.18-.47.7-.22,1.41-.43,2.14-.65.72-.21,1.4-.52,2.03-.93,1.38-.78,2.58-1.7,3.62-2.75.5-.53.96-1.1,1.4-1.72.43-.61.85-1.24,1.26-1.88.35-.61.66-1.27.93-1.98.27-.7.51-1.4.72-2.1.16-.54.3-.98.42-1.3.12-.32.23-.62.32-.89.1-.27.21-.56.33-.89.12-.32.26-.76.42-1.3.16-.54,3.02-8.08,3.11-8.41.1-.33.18-.63.24-.91.06-.28.14-.57.23-.88.09-.31.22-.74.38-1.28.16-.54.29-.98.39-1.31.1-.33.2-.63.3-.9.1-.27.2-.56.3-.9.1-.33.23-.77.39-1.31.16-.54.28-.98.36-1.32Z"/>
      <path class="cls-1" d="M3.51,182.3H1.26s-.08.02-.11.05c-.03.03-.05.07-.05.11v8.82s.01.08.05.11c.03.03.07.05.11.05h2.25c.75,0,1.36-.23,1.81-.68.45-.45.68-1.06.68-1.81v-4.15c0-.76-.23-1.36-.68-1.81-.45-.45-1.05-.68-1.81-.68ZM4.47,188.85c0,.38-.1.69-.28.92-.18.23-.41.35-.7.35h-.79s-.07,0-.07-.05v-6.39s.02-.07.07-.07h.78c.31,0,.55.11.73.35.18.23.27.54.27.93v3.97Z"/>
      <path class="cls-1" d="M13.6,182.2c-.75,0-1.36.23-1.82.68-.46.45-.69,1.05-.69,1.8v4.38c0,.75.23,1.35.69,1.8.46.45,1.07.68,1.82.68s1.36-.23,1.83-.68c.46-.45.7-1.05.7-1.8v-4.38c0-.75-.23-1.35-.7-1.8-.46-.45-1.07-.68-1.83-.68ZM14.6,189.13c0,.33-.09.6-.28.8-.18.2-.43.31-.72.31s-.54-.1-.72-.31c-.18-.2-.27-.47-.27-.8v-4.51c0-.33.09-.6.27-.8.18-.21.42-.31.72-.31s.54.1.72.31c.18.2.28.47.28.8v4.51Z"/>
      <path class="cls-1" d="M26.87,182.3h-1.21c-.09,0-.15.04-.2.1l-1.25,2.23s-.05.04-.08,0l-1.27-2.23c-.04-.07-.11-.1-.2-.1h-1.21s-.08.02-.11.05c-.03.03-.05.07-.05.11v8.82s.02.08.05.11c.03.03.07.05.11.05h1.21s.08-.02.11-.05c.03-.03.05-.07.05-.11v-6.16s0-.05.03-.05.04.01.05.04l1.14,2.06c.04.07.08.1.12.1s.07-.03.12-.1l1.14-2.06s.04-.04.05-.04.03.02.03.05v6.16s.02.08.05.11c.03.03.07.05.11.05h1.21s.08-.02.11-.05c.03-.03.05-.07.05-.11v-8.82s-.01-.08-.05-.11c-.03-.03-.07-.05-.11-.05Z"/>
      <path class="cls-1" d="M33.71,182.3h-1.21s-.08.02-.11.05c-.03.03-.05.07-.05.11v8.82s.02.08.05.11c.03.03.07.05.11.05h1.21s.08-.02.11-.05c.03-.03.05-.07.05-.11v-8.82s-.02-.08-.05-.11c-.03-.03-.07-.05-.11-.05Z"/>
      <path class="cls-1" d="M44.32,182.3h-1.2s-.08.02-.11.05c-.03.03-.05.07-.05.11v5.45s-.01.04-.03.05c-.02,0-.04,0-.05-.03l-1.97-5.49c-.03-.09-.08-.13-.17-.13h-1.35s-.08.02-.11.05c-.03.03-.05.07-.05.11v8.82s.02.08.05.11c.03.03.07.05.11.05h1.2s.08-.02.11-.05c.03-.03.05-.07.05-.11v-5.49s0-.04.02-.05c.02,0,.04,0,.05.03l1.96,5.53c.03.09.08.13.17.13h1.38s.08-.02.11-.05c.03-.03.05-.07.05-.11v-8.82s-.02-.08-.05-.11c-.03-.03-.07-.05-.11-.05Z"/>
      <path class="cls-1" d="M51.21,182.3h-1.21s-.08.02-.11.05c-.03.03-.05.07-.05.11v8.82s.02.08.05.11c.03.03.07.05.11.05h1.21s.08-.02.11-.05c.03-.03.05-.07.05-.11v-8.82s-.02-.08-.05-.11c-.03-.03-.07-.05-.11-.05Z"/>
      <path class="cls-1" d="M59.04,182.2c-.74,0-1.34.22-1.79.66-.45.44-.68,1.03-.68,1.78v4.45c0,.74.23,1.33.68,1.78.45.45,1.05.67,1.79.67s1.36-.22,1.81-.67c.45-.45.68-1.04.68-1.78v-.16s-.02-.08-.05-.11c-.03-.03-.07-.04-.11-.04l-1.22-.05s-.08.01-.11.04c-.03.03-.05.07-.05.11v.33c0,.3-.09.55-.26.74-.17.19-.41.29-.7.29s-.51-.1-.68-.29c-.18-.19-.26-.44-.26-.74v-4.67c0-.3.09-.55.26-.74.17-.19.4-.29.68-.29s.52.1.7.29c.18.19.26.44.26.74v.33c0,.1.05.16.16.16l1.22-.05s.08-.02.11-.05c.03-.03.05-.07.05-.12v-.16c0-.75-.23-1.34-.68-1.78-.46-.44-1.06-.66-1.81-.66Z"/>
      <path class="cls-1" d="M69.55,182.3h-1.39c-.1,0-.15.05-.17.14l-1.95,8.82c-.03.11.02.17.14.17h1.2c.1,0,.16-.05.17-.14l.25-1.37s.03-.07.08-.07h1.92c.05,0,.08.02.08.07l.25,1.37c0,.1.07.14.17.14h1.22c.1,0,.14-.04.14-.12v-.05l-1.94-8.82c-.02-.1-.07-.14-.17-.14ZM69.57,188.67h-1.46c-.05,0-.07-.02-.07-.07l.75-4.12s.02-.04.04-.04.03.01.04.04l.76,4.12s-.01.07-.07.07Z"/>
      <path class="cls-1" d="M81.59,182.3h-1.2s-.08.02-.11.05c-.03.03-.05.07-.05.11v5.45s-.01.04-.03.05c-.02,0-.04,0-.05-.03l-1.97-5.49c-.03-.09-.08-.13-.17-.13h-1.35s-.08.02-.11.05c-.03.03-.05.07-.05.11v8.82s.02.08.05.11c.03.03.07.05.11.05h1.2s.08-.02.11-.05c.03-.03.05-.07.05-.11v-5.49s0-.04.02-.05c.02,0,.04,0,.05.03l1.96,5.53c.03.09.08.13.17.13h1.38s.08-.02.11-.05c.03-.03.05-.07.05-.11v-8.82s-.02-.08-.05-.11c-.03-.03-.07-.05-.11-.05Z"/>
      <path class="cls-1" d="M97.43,187.33s0-.07.04-.08c.38-.2.67-.49.88-.89.21-.39.32-.86.32-1.4s-.1-.99-.3-1.39c-.2-.4-.47-.72-.83-.94-.36-.22-.76-.33-1.23-.33h-2.47s-.08.02-.11.05c-.03.03-.05.07-.05.11v8.82s.01.08.05.11c.03.03.07.05.11.05h1.21s.08-.02.11-.05c.03-.03.05-.07.05-.11v-3.71s.02-.06.07-.06h.7s.05.02.07.05l1.12,3.74c.03.09.08.13.17.13h1.26c.1,0,.14-.04.14-.12,0-.03,0-.05-.01-.07l-1.29-3.93ZM96.85,185.97c-.2.24-.45.37-.77.37h-.8s-.07-.02-.07-.07v-2.6s.02-.07.07-.07h.8c.32,0,.57.12.77.37.2.25.3.58.3,1s-.1.75-.3.99Z"/>
      <path class="cls-1" d="M108.12,182.3h-4.27s-.08.02-.11.05c-.03.03-.05.07-.05.11v8.82s.02.08.05.11c.03.03.07.05.11.05h4.27s.08-.02.11-.05c.03-.03.05-.07.05-.11v-.99s-.01-.08-.05-.11c-.03-.03-.07-.05-.11-.05h-2.84s-.07-.02-.07-.07v-2.48s.02-.07.07-.07h1.68s.08-.02.11-.04c.03-.03.05-.07.05-.11v-1s-.02-.08-.05-.11c-.03-.03-.07-.05-.11-.05h-1.68s-.07-.02-.07-.07v-2.46s.02-.07.07-.07h2.84s.08-.01.11-.05c.03-.03.05-.07.05-.11v-.99s-.01-.08-.05-.11c-.03-.03-.07-.05-.11-.05Z"/>
      <path class="cls-1" d="M117.19,182.63c-.35-.22-.76-.34-1.23-.34h-2.47s-.08.01-.11.04c-.03.03-.05.07-.05.11v8.83s.01.08.05.11c.03.03.07.05.11.05h1.21s.08-.02.11-.05c.03-.03.05-.07.05-.11v-3.63s.02-.07.07-.07h1.12c.68,0,1.23-.24,1.65-.72.42-.48.62-1.11.62-1.89,0-.52-.1-.99-.3-1.4-.2-.41-.47-.73-.83-.95ZM116.5,186.03c-.2.25-.46.37-.78.37h-.79s-.07-.02-.07-.06v-2.68s.02-.07.07-.07h.79c.32,0,.58.13.78.38.2.26.3.6.3,1.04s-.1.76-.3,1.01Z"/>
      <path class="cls-1" d="M128.05,182.3h-1.21s-.08.02-.11.05c-.03.03-.05.07-.05.11v6.6c0,.35-.09.63-.26.85-.18.22-.41.33-.7.33s-.52-.11-.7-.33c-.18-.22-.26-.5-.26-.85v-6.6s-.02-.08-.05-.11c-.03-.03-.07-.05-.11-.05h-1.21s-.08.02-.11.05c-.03.03-.05.07-.05.11v6.45c0,.79.23,1.43.68,1.91.45.48,1.05.72,1.81.72s1.35-.24,1.8-.72c.45-.48.68-1.12.68-1.91v-6.45s-.02-.08-.05-.11c-.03-.03-.07-.05-.11-.05Z"/>
      <path class="cls-1" d="M137.32,186.75s-.02-.05.03-.08c.64-.38.96-1.02.96-1.92,0-.8-.24-1.41-.71-1.83-.47-.42-1.13-.63-1.96-.63h-2.08s-.08.02-.11.05c-.03.03-.05.07-.05.11v8.82s.01.08.05.11c.03.03.07.05.11.05h2.31c.75,0,1.36-.22,1.83-.65.47-.44.7-1.05.7-1.85,0-.51-.1-.94-.29-1.31-.19-.36-.46-.66-.8-.87ZM134.93,183.68s.02-.07.07-.07h.67c.36,0,.64.11.84.34.2.23.3.55.3.97s-.1.71-.3.93c-.2.22-.48.33-.84.33h-.67s-.07-.02-.07-.07v-2.43ZM136.59,189.75c-.2.24-.48.37-.83.37h-.76s-.07-.02-.07-.07v-2.71s.02-.07.07-.07h.76c.35,0,.63.13.83.38.2.26.3.61.3,1.06s-.1.79-.3,1.03Z"/>
      <path class="cls-1" d="M147.85,190.13h-2.84s-.07-.02-.07-.07v-7.61s-.02-.08-.05-.11c-.03-.03-.07-.05-.11-.05h-1.21s-.08.02-.11.05c-.03.03-.05.07-.05.11v8.82s.02.08.05.11c.03.03.07.05.11.05h4.27s.08-.02.11-.05c.03-.03.05-.07.05-.11v-.99s-.02-.08-.05-.11c-.03-.03-.07-.05-.11-.05Z"/>
      <path class="cls-1" d="M154.18,182.3h-1.21s-.08.02-.11.05c-.03.03-.05.07-.05.11v8.82s.02.08.05.11c.03.03.07.05.11.05h1.21s.08-.02.11-.05c.03-.03.05-.07.05-.11v-8.82s-.02-.08-.05-.11c-.03-.03-.07-.05-.11-.05Z"/>
      <path class="cls-1" d="M163.13,185.02l1.22-.05s.08-.02.11-.05c.03-.03.05-.07.05-.12v-.16c0-.75-.23-1.34-.68-1.78-.46-.44-1.06-.66-1.81-.66s-1.34.22-1.79.66c-.45.44-.68,1.03-.68,1.78v4.45c0,.74.23,1.33.68,1.78.45.45,1.05.67,1.79.67s1.36-.22,1.81-.67c.45-.45.68-1.04.68-1.78v-.16s-.01-.08-.05-.11c-.03-.03-.07-.04-.11-.04l-1.22-.05s-.08.01-.11.04c-.03.03-.05.07-.05.11v.33c0,.3-.09.55-.26.74-.17.19-.41.29-.7.29s-.51-.1-.68-.29c-.18-.19-.26-.44-.26-.74v-4.67c0-.3.09-.55.26-.74.18-.19.4-.29.68-.29s.52.1.7.29c.18.19.26.44.26.74v.33c0,.1.05.16.16.16Z"/>
      <path class="cls-1" d="M13.73,45.83c3.98-.34,8.1-.74,11.8-2.33,4.63-1.98,6.68-7.31,11.11-8.94,5.41-1.99,11.27-2.67,17.08-1.96.83.1,1.85.23,2.96-.04,1.88-.45,3.14-1.81,4.16-2.9.28-.3.56-.61.86-.88,1.03-.97,2.33-1.56,3.76-1.72l1.03-.12.6-.85.41-.61c.13-.24.24-.42.35-.56.16-.21.3-.42.44-.61.1-.15.21-.31.33-.47.15-.2.36-.5.57-.81.25-.33.44-.62.59-.88.14.2.33.44.56.71.25.34.46.6.64.8l2.66,2.9,1.43-4.26c.15-.43.3-.81.45-1.14.18-.41.38-.87.58-1.37.03-.08.06-.16.09-.25l2.21,2.23,1.44-2.89c.13-.27.24-.51.31-.69.13-.33.25-.65.35-.95.08-.23.16-.47.27-.73.02-.06.12-.28.42-.78l.12-.23c.19-.4.34-.71.47-.93.15-.25.3-.49.47-.74.18-.27.36-.56.54-.85.18-.29.42-.71.73-1.25l.08-.15c.18-.4.34-.71.48-.93.18-.3.35-.58.51-.87.13-.23.27-.47.41-.71.18-.29.42-.71.68-1.18.36-.59.61-1.08.78-1.5.05-.13.1-.25.14-.37.07.12.13.24.2.36.19.36.46.79.84,1.31.33.54.61.96.82,1.22.18.23.35.46.51.68.16.22.31.44.47.68.17.25.42.61.75,1.07.34.56.66,1,.96,1.34l1.26,1.41c.07.08.23.28.53.77l.09.14c.36.5.44.69.45.71.1.23.19.45.26.66.13.36.29.72.49,1.11.16.3.4.72.72,1.24l.09.14c.36.51.65.89.86,1.16.21.26.41.51.62.74l1.77,1.99,1.72-2.03c.07-.08.15-.17.22-.27.18.39.35.77.5,1.12.16.37.31.77.45,1.19.19.54.47,1.21.82,1.97.09.21.14.42.19.6.18.64.44,1.62,1.37,2.27.1.07.2.16.31.28l1.8,1.88s1.68-1.96,1.69-1.95c.08.06.16.13.23.19.16.15.42.35.78.59.29.22.54.39.72.49.13.08.25.15.37.23.11.07.21.14.35.24.13.09.32.22.57.38.32.24.62.43.88.57l.98.5c.08.04.16.11.26.18l.15.11c.08.05.14.09.16.12.16.23.36.45.62.68.14.13.35.3.63.52l1.75,1.1,1.78-.93c.5-.26,1.16-.42,1.96-.48.39-.02.63,0,.74,0,.8.76,1.45,1.34,1.95,1.75.47.39.9.78,1.27,1.12.37.35.72.72,1.05,1.1.47.55,1.17,1.21,2.05,1.95.8.76.21.12.59.51.43.45.87.89,1.33,1.32.37.34.72.71,1.04,1.08.06.07.13.15.2.22.23.29.48.65.75,1.03,2.83,4.03,5.14,4.29,9.82,4.31,5.05,0,11.38,0,16.44,0h7.58v-4.67h-7.58c-5.05,0-11.38,0-16.43,0-1.73,0-3.12.38-4.58-.62-2.08-1.41-2.28-2.8-4.03-4.61-.43-.44-1.07-1.07-2.03-1.98-.96-.81-1.41-1.27-1.63-1.53-.44-.5-.89-.98-1.38-1.44-.45-.42-.94-.85-1.48-1.3-.48-.4-1.11-.97-1.9-1.71-.91-.87-2.28-1.22-4.07-1.11-1.09.08-2.08.28-2.97.63-.03-.03-.06-.07-.09-.1-.22-.25-.51-.48-.92-.75-.32-.24-.62-.43-.89-.57l-.97-.5c-.08-.04-.16-.1-.25-.18l-.68-.46c-.16-.11-.32-.22-.47-.32-.15-.1-.32-.2-.53-.33-.09-.05-.19-.13-.31-.23l-.16-.11c-.13-.08-.23-.15-.29-.2-.15-.13-.29-.25-.47-.39-.06-.05-.13-.1-.21-.17-.14-.13-.35-.3-.73-.59-.75-.52-1.61-.55-2.18-.53-.17,0-.47.02-.82.09-.01-.04-.03-.07-.05-.11-.31-.68-.55-1.22-.69-1.65-.18-.51-.36-.99-.55-1.45-.18-.43-.38-.89-.6-1.35-.2-.42-.46-1.02-.79-1.8-.56-1.33-1.81-2.1-3.22-1.96-.73.06-1.41.34-1.98.79-.03-.05-.06-.1-.08-.15-.09-.17-.17-.34-.23-.51-.11-.3-.23-.62-.37-.94-.18-.42-.46-.9-.88-1.48-.36-.58-.66-1-.97-1.35l-1.25-1.4c-.06-.07-.23-.28-.52-.76l-.1-.15c-.32-.45-.57-.8-.72-1.03-.19-.28-.37-.55-.55-.8-.18-.25-.38-.52-.62-.82-.16-.2-.34-.49-.56-.86l-.1-.15c-.26-.36-.45-.65-.57-.86-.16-.31-.33-.6-.5-.89-.12-.2-.24-.41-.38-.67-.16-.3-.4-.71-.76-1.31-.36-.53-1.21-1.42-2.92-1.4-1.81.07-2.57,1.07-2.87,1.68-.31.56-.54,1.01-.68,1.38-.13.33-.24.65-.35.96-.08.23-.17.47-.26.72-.02.06-.12.29-.47.86-.27.47-.47.84-.64,1.1-.18.3-.35.59-.5.85-.13.23-.27.47-.42.72-.19.32-.43.75-.69,1.32-.24.44-.44.78-.59,1.02-.15.25-.31.49-.45.72-.19.28-.37.57-.55.87-.19.31-.41.73-.67,1.28-.12.2-.23.39-.33.57-.69-.28-1.45-.31-2.2-.08-1.13.36-1.97,1.23-2.3,2.41-.11.4-.21.72-.29.99-.44-.5-1.23-1.05-2.56-1.02-1.56.05-2.29.83-2.62,1.39-.29.42-.48.76-.6,1-.12.24-.22.48-.32.71-.06.15-.13.3-.2.44-.06.11-.16.25-.34.49-.22.31-.38.56-.51.73-.16.21-.31.42-.44.62-.1.15-.22.31-.33.46-.1.13-.21.3-.34.5-1.99.42-3.8,1.37-5.28,2.76-.36.34-.71.72-1.06,1.09-.66.71-1.34,1.44-1.86,1.56-.29.07-.81,0-1.45-.07-6.41-.78-13.01,0-19.1,2.23-5.08,1.87-7.66,7.2-12.5,9.41-2.95,1.35-6.63,1.29-9.81,1.55-4.15.33-8.32.5-12.48.5-.08,0-.16,0-.25,0v4.67h.24c4.5,0,8.99-.19,13.47-.57Z"/>
    </g>
  </g>
</svg>