<?xml version="1.0" encoding="UTF-8"?>
<svg id="Capa_2" data-name="Capa 2" xmlns="http://www.w3.org/2000/svg" viewBox="0 0 180.22 193.45">
  <defs>
    <style>
      .cls-1 {
        fill: #fff;
      }
    </style>
  </defs>
  <g id="Capa_1-2" data-name="Capa 1">
    <g>
      <path class="cls-1" d="M127.34,0h-3.49l-26.85,168.95h16.32l2.24-15.06h23.59l2.24,15.06h16.32L130.84,0h-3.49ZM118.18,136.18l9.16-61.6,9.16,61.6h-18.32Z"/>
      <path class="cls-1" d="M66.4,12.69h1.79c1.75,0,3.25-.62,4.49-1.86,1.24-1.24,1.86-2.74,1.86-4.49s-.62-3.25-1.86-4.49c-1.24-1.24-2.74-1.86-4.49-1.86h-5.6v21.58h3.81v-8.89ZM66.4,3.81h1.79c.7,0,1.3.25,1.8.74.5.49.74,1.09.74,1.8s-.25,1.3-.74,1.8c-.49.5-1.09.74-1.8.74h-1.79V3.81Z"/>
      <path class="cls-1" d="M82.75,21.58c1.75,0,3.25-.62,4.49-1.86,1.24-1.24,1.86-2.74,1.86-4.49V6.35c0-1.75-.62-3.25-1.86-4.49s-2.74-1.86-4.49-1.86-3.25.62-4.49,1.86c-1.24,1.24-1.86,2.74-1.86,4.49v8.89c0,1.75.62,3.25,1.86,4.49,1.24,1.24,2.74,1.86,4.49,1.86ZM80.21,6.35c0-.7.25-1.3.74-1.8.5-.5,1.09-.74,1.8-.74s1.3.25,1.8.74c.5.49.74,1.09.74,1.8v8.89c0,.7-.25,1.3-.74,1.8-.49.5-1.09.74-1.8.74s-1.3-.25-1.8-.74-.74-1.09-.74-1.8V6.35Z"/>
      <path class="cls-1" d="M95.34,12.69h1.23l3.49,8.89h4.09l-3.69-9.41c.69-.31,1.33-.76,1.92-1.35,1.24-1.24,1.85-2.73,1.85-4.48s-.62-3.25-1.86-4.49c-1.24-1.24-2.74-1.86-4.49-1.86h-6.35v21.58h3.81v-8.89ZM95.34,3.81h2.54c.7,0,1.3.25,1.8.74.5.49.74,1.09.74,1.8s-.25,1.3-.74,1.8-1.09.74-1.8.74h-2.54V3.81Z"/>
      <polygon class="cls-1" points="110.01 21.58 113.81 21.58 113.81 3.81 117.62 3.81 117.62 0 106.2 0 106.2 3.81 110.01 3.81 110.01 21.58"/>
      <polygon class="cls-1" points="180.22 24.32 139.76 24.32 142.67 42.67 160.15 42.67 148.6 97.12 157.62 153.89 180.22 153.89 180.22 136.18 159.88 136.18 180.22 35.11 180.22 24.32"/>
      <path class="cls-1" d="M49.79,0h-3.49l-26.85,168.95h16.32l2.24-15.06h23.59l2.24,15.06h16.32L53.28,0h-3.49ZM40.63,136.18l9.16-61.6,9.16,61.6h-18.32Z"/>
      <polygon class="cls-1" points="22.32 136.18 17.92 136.18 17.92 24.32 0 24.32 0 153.89 19.5 153.89 22.32 136.18"/>
      <path class="cls-1" d="M89.69,119l7.11-3.68c2.48-1.29,4.86-2.77,7.1-4.42l10.25-64.49c-1.37-2.14-2.92-4.32-4.67-6.54-3.94-5.01-8.69-8.86-14.23-11.55-5.61-2.72-11.8-3.99-18.03-3.99h-5.22v78.77l10.47,65.86h7.23v-49.95ZM89.69,47.2c5.23,3.26,8.92,7.22,11.08,11.87,1.87,4.13,2.81,9.52,2.81,16.19,0,5.08-1.06,9.57-3.17,13.45-2.54,4.65-6.12,7.31-10.72,7.99v-49.5Z"/>
      <g>
        <path class="cls-1" d="M59.04,180.86l.56,1.13c1.03,2.11,2.16,4.26,3.4,6.44l.97,1.73.67-1.17c1.38-2.42,2.82-5.13,4.32-8.13.13.04.26.05.4.05s.26-.02.38-.05l.14,1.49c.2,2.07.44,4.16.72,6.26.3,2.23.54,3.76.72,4.59-.58-.07-1.01-.11-1.29-.11-.25,0-.66.04-1.22.11l-.05-.67c-.05-.65-.1-1.41-.16-2.28l-.58-5.22c-1.88,3.2-3.31,5.92-4.28,8.16h-.7c-.37-.71-1.2-2.28-2.48-4.73-.52-.94-1.12-2.02-1.8-3.25-.4,3.12-.65,5.78-.76,7.98-.32-.07-.6-.11-.83-.11-.19,0-.44.04-.76.11l.11-.56c.2-1.08.52-3.06.95-5.95.41-2.81.67-4.75.77-5.83.14.04.28.05.41.05.01,0,.14-.02.4-.05Z"/>
        <path class="cls-1" d="M75.75,181.98v4.23c1.84,0,3.13-.04,3.87-.13-.06.22-.09.43-.09.65,0,.26.03.47.09.61-1.09-.08-2.38-.13-3.87-.13v4.87c1.07,0,2.5-.04,4.28-.13-.06.13-.09.33-.09.59s.03.48.09.65c-1.08-.07-2.18-.11-3.31-.11s-2.21.04-3.36.11c.04-.85.07-1.6.09-2.25.05-1.59.07-2.95.07-4.06,0-2.47-.05-4.48-.16-6.02,1.17.07,2.26.11,3.26.11.31,0,.8-.01,1.47-.04.91-.04,1.52-.06,1.83-.07-.06.24-.09.43-.09.58,0,.29.03.51.09.67l-1.68-.09c-.45-.02-1.28-.04-2.49-.04Z"/>
        <path class="cls-1" d="M87.15,186.46c1.57,2.76,2.96,5.01,4.17,6.74-.91-.07-1.43-.11-1.56-.11-.3,0-.76.04-1.38.11l-.79-1.62c-.28-.58-.86-1.65-1.76-3.22l-.92,1.29c-.28.4-1,1.58-2.16,3.54-.5-.07-.82-.11-.94-.11-.2,0-.49.04-.85.11l1.8-2.48c.22-.3.51-.71.88-1.24l1.55-2.18c-.42-.76-1.06-1.85-1.92-3.27l-2.01-3.17c.54.07,1.03.11,1.46.11.37,0,.85-.04,1.42-.11.84,1.82,1.64,3.34,2.39,4.55.41-.62.88-1.35,1.42-2.19.31-.53.77-1.31,1.38-2.36.41.07.73.11.97.11l.86-.11c-1.04,1.36-2.38,3.22-4.01,5.59Z"/>
        <path class="cls-1" d="M93.23,185.02c0-1.61-.06-2.99-.18-4.15.68.07,1.11.11,1.28.11.28,0,.7-.04,1.28-.11-.13.89-.2,2.97-.2,6.26,0,2.84.06,4.87.18,6.08-.12,0-.32-.02-.6-.05-.28-.04-.5-.05-.66-.05-.14,0-.36.02-.65.05-.32.04-.54.05-.65.05.13-1.43.2-4.15.2-8.18Z"/>
        <path class="cls-1" d="M109.11,181.62l-.54,1.76h-.18c-.56-1.13-1.71-1.69-3.43-1.69-1.49,0-2.63.47-3.42,1.4s-1.19,2.26-1.19,3.97c0,1.55.37,2.8,1.1,3.76.83,1.09,1.91,1.64,3.26,1.64,1.61,0,2.99-.68,4.15-2.05l.2.13-.2,1.78c-1.37.76-2.88,1.13-4.55,1.13-1.83,0-3.35-.53-4.53-1.6-1.26-1.13-1.89-2.67-1.89-4.62s.57-3.45,1.71-4.6c1.23-1.27,3-1.91,5.31-1.91,1.47,0,2.88.3,4.21.9Z"/>
        <path class="cls-1" d="M117.17,180.72c1.85,0,3.37.49,4.59,1.46,1.38,1.1,2.07,2.67,2.07,4.69s-.62,3.58-1.85,4.78c-1.23,1.2-2.85,1.8-4.86,1.8s-3.52-.53-4.75-1.6c-1.31-1.13-1.96-2.64-1.96-4.55,0-2.17.67-3.84,2.01-5,1.21-1.06,2.79-1.58,4.75-1.58ZM112.87,187.09c0,1.51.32,2.75.97,3.72.74,1.15,1.83,1.73,3.27,1.73s2.51-.59,3.27-1.76c.65-.99.97-2.22.97-3.69,0-1.62-.31-2.9-.94-3.83-.73-1.08-1.83-1.62-3.31-1.62s-2.51.6-3.27,1.8c-.65,1.01-.97,2.22-.97,3.65Z"/>
      </g>
    </g>
  </g>
</svg>