<?xml version="1.0" encoding="UTF-8"?>
<svg id="Capa_2" data-name="Capa 2" xmlns="http://www.w3.org/2000/svg" viewBox="0 0 300 49.38">
  <defs>
    <style>
      .cls-1 {
        fill: #fff;
      }
    </style>
  </defs>
  <g id="Capa_1-2" data-name="Capa 1">
    <g>
      <path class="cls-1" d="M14.15,4.45c8.53,1.09,13.13,4.89,16.41,10.79l.22-14.44H0c1.53,4.23,2.04,8.75,2.04,12.69v21.95c0,3.94-.66,8.53-2.04,12.76h30.71l-.29-14.37c-2.84,5.47-6.78,10.06-16.19,10.65-.29-3.14-.36-6.27-.36-9.04v-9.7h.22c4.16,0,8.17,1.97,12.69,6.78V15.83c-4.52,4.67-8.53,5.98-12.69,5.98h-.22v-8.31c0-2.84,0-5.91.29-9.04Z"/>
      <path class="cls-1" d="M63.6,13.86v15.61l-13.93-21.22c-1.6-2.41-2.7-4.08-2.7-5.76,0-.58.15-1.09.36-1.68h-12.47c1.53,2.77,2.04,6.56,2.04,10.21v24.14c0,3.94-.58,8.82-2.04,13.06h8.46c-1.39-4.23-1.97-9.12-1.97-13.06v-15.75l19.77,28.81h7.07V13.86c0-3.94.44-8.83,1.97-13.06h-8.53c1.39,4.23,1.97,9.12,1.97,13.06Z"/>
      <path class="cls-1" d="M96.42,21.59l-6.13-3.94c-5.98-3.87-7.66-5.91-7.66-8.82,0-1.68,1.46-2.84,3.36-2.84,5.98,0,11.89,7.66,14.44,12.91l2.26-17.65c-3.14-.58-6.86-1.24-9.77-1.24-11.67,0-19.11,7.22-19.11,15.32,0,6.78,3.35,9.04,8.31,12.11l8.32,5.11c4.3,2.63,5.62,4.6,5.62,7.51,0,1.75-1.31,3.43-3.43,3.43-3.72,0-7.15-3.28-10.72-11.82l-9.04,5.91c2.7,8.46,9.7,11.82,15.61,11.82,8.61,0,15.53-6.93,15.53-15.83,0-6.05-3.79-9.48-7.58-11.96Z"/>
      <path class="cls-1" d="M121.95,4.45c8.53,1.09,13.13,4.89,16.41,10.79l.22-14.44h-30.78c1.53,4.23,2.04,8.75,2.04,12.69v21.95c0,3.94-.66,8.53-2.04,12.76h30.71l-.29-14.37c-2.84,5.47-6.78,10.06-16.19,10.65-.29-3.14-.36-6.27-.36-9.04v-9.7h.22c4.16,0,8.17,1.97,12.69,6.78V15.83c-4.52,4.67-8.53,5.98-12.69,5.98h-.22v-8.31c0-2.84,0-5.91.29-9.04Z"/>
      <path class="cls-1" d="M171.41,13.86v15.61l-13.93-21.22c-1.6-2.41-2.7-4.08-2.7-5.76,0-.58.15-1.09.36-1.68h-12.47c1.53,2.77,2.04,6.56,2.04,10.21v24.14c0,3.94-.58,8.82-2.04,13.06h8.46c-1.39-4.23-1.97-9.12-1.97-13.06v-15.75l19.77,28.81h7.07V13.86c0-3.94.44-8.83,1.97-13.06h-8.53c1.39,4.23,1.97,9.12,1.97,13.06Z"/>
      <path class="cls-1" d="M300,48.21c-2.48-3.14-4.01-7.51-5.25-11.3L282.79.15h-5.25l-12.03,36.76c-1.46,4.45-3.21,8.53-5.62,11.3h10.06c-.66-1.02-1.09-3.28-1.09-5.76,0-1.75.22-3.57.66-5.18l1.24-4.38h9.63l1.09,4.38c.51,2.04.8,4.3.8,6.27s-.29,3.72-1.02,4.67h18.74ZM271.56,30.05l4.23-15.32,3.87,15.32h-8.1Z"/>
      <path class="cls-1" d="M215.12,18.39c.05.09.26.18.36.15.58-.15,1.15-.31,1.72-.49.3-.1.63-.42.72-.72.17-.55.31-1.11.49-1.65.09-.26.03-.38-.21-.5-.91-.44-1.82-.9-2.72-1.36-.62-.31-1.24-.62-1.87-.93-.54-.27-1.11.3-.84.84.79,1.59,1.57,3.13,2.35,4.67Z"/>
      <path class="cls-1" d="M229.61,24.51c0-2.83-2.3-5.15-5.12-5.16-2.85-.02-5.19,2.31-5.19,5.15,0,2.82,2.3,5.15,5.12,5.16,2.85.01,5.19-2.3,5.19-5.15Z"/>
      <path class="cls-1" d="M238.59.8h-14.14c-.15,0-.31.08-.36.26-.16.49-.32.96-.47,1.43-.15.46-.3.91-.45,1.37-.31.87-.58,1.68-.85,2.56-.03.1-.06.2-.1.31v.02c-.49,1.6-1.01,3.47-1.82,6.3-.42,1.46-.9,3.18-1.49,5.26-.03.08-.05.14-.08.2-.11.18-.26.29-.52.37-2.32.67-4.01,1.16-5.29,1.52-1.28.37-2.15.61-2.8.79L203.35.14h-5.25l-12.03,36.76c-1.46,4.45-3.21,8.53-5.61,11.31h10.06c-.66-1.02-1.1-3.29-1.1-5.76,0-1.75.22-3.57.66-5.18l1.24-4.38h9.63l1.09,4.38c.51,2.04.8,4.3.8,6.27s-.29,3.72-1.02,4.67h18.74c-1.63-2.07-3.49-6.61-4.61-9.56-.45-1.2-1.53-1.91-2.72-2.38-.02,0-.04-.02-.05-.04,0,0,0,0,0,0,.14.04.28.03.43-.04.64-.32,1.25-.63,1.87-.93.91-.45,1.81-.92,2.72-1.36.24-.12.3-.23.21-.5-.18-.55-.32-1.1-.49-1.65-.09-.3-.42-.63-.72-.72-.57-.18-1.14-.34-1.72-.49-.11-.03-.32.06-.36.15-.47.92-.93,1.85-1.4,2.78-.61-1.02-1.33-1.97-2.15-2.83-1.51-1.59-3.33-2.87-5.38-3.76-.47-.2-.95-.41-1.4-.65l-.33-.18c.63.22,1.26.42,1.91.62.1.03.2.07.31.1h.02c1.6.49,3.47,1.02,6.3,1.82,1.46.41,3.18.9,5.26,1.49.08.03.14.05.2.08.18.11.29.26.37.51.68,2.32,1.16,4.02,1.52,5.29,1.21,4.25,1.07,3.93,1.87,6.32.01.03.01.06.03.09.33.96.65,1.92.97,2.88.13.38.26.76.38,1.14.17.51.34,1.02.51,1.55.03.08.08.14.14.19.06.04.13.06.2.07,0,0,0,0,0,0h0s.02,0,.02,0c0,0,0,0,0,0h14.7c11.59,0,20.86-7.95,20.86-24.8,0-17.87-11.09-22.61-21.44-22.61ZM192.13,30.05l4.23-15.32,3.87,15.32h-8.1ZM236.91,19.72v-6.22c0-2.85.08-5.91.15-9.05h1.6c6.06,0,8.86,8.57,9.1,19.62h0c-.91-.29-1.78-.58-2.65-.87-.88-.31-1.69-.58-2.56-.85-.11-.03-.2-.06-.31-.1h-.03c-1.59-.49-3.46-1.01-6.29-1.82-1.46-.42-3.18-.9-5.26-1.49-.08-.03-.14-.06-.2-.08-.18-.11-.29-.26-.37-.52-.04-.15-.08-.29-.13-.43-.61-2.1-1.06-3.66-1.39-4.87-1.21-4.24-1.07-3.93-1.87-6.32,0-.03,0-.06-.02-.09-.03-.08-.05-.16-.08-.24l2.42,5.8c1.35,3.58,4.26,6.34,7.9,7.51ZM217.05,23.53c.42-3.34,3.11-6.04,6.46-6.45.54-.07,1.07-.08,1.59-.04,1.98.16,3.73,1.09,4.98,2.48,1.37,1.55,2.12,3.67,1.84,5.96-.2,1.55-.88,2.95-1.89,4.06-1.16,1.29-2.78,2.17-4.57,2.4-.12.02-.24.03-.36.04-4.74.38-8.65-3.66-8.04-8.45ZM238,44.71h-.65c-.36-3.21-.44-6.41-.44-9.26v-6.13h-.01c-3.63,1.18-6.53,3.94-7.87,7.51l-2.43,5.83s.01-.04.02-.06c.03-.11.06-.2.1-.31v-.03c.49-1.59,1.02-3.46,1.82-6.3.41-1.46.9-3.17,1.49-5.25.03-.08.05-.15.08-.2.11-.18.26-.29.51-.37,2.32-.68,4.02-1.16,5.3-1.53,4.24-1.2,3.93-1.06,6.32-1.87.03,0,.06,0,.09-.02.96-.34,1.92-.65,2.88-.97.85-.28,1.68-.58,2.56-.86,0,0,0,0,0,0,0,.26,0,.51,0,.77,0,10.51-1.6,19.04-9.78,19.04Z"/>
    </g>
  </g>
</svg>