<?xml version="1.0" encoding="UTF-8"?>
<svg id="Capa_1" data-name="Capa 1" xmlns="http://www.w3.org/2000/svg" viewBox="0 0 24.94 26.47">
  <path d="M6.81,8.65s0-.04,0-.06,0-.05,0-.09c0-.05.03-.08.08-.08h.1s.05,0,.07,0c.02,0,.04,0,.07,0h.1s.08,0,.1,0c.02,0,.05,0,.07,0,.02,0,.04,0,.07,0,.02,0,.06,0,.1,0,.11,0,.21-.01.32-.04.1-.03.2-.07.3-.12.05-.03.09-.06.14-.09.04-.03.08-.07.12-.1.07-.07.14-.16.19-.26.03-.05.05-.09.08-.14.02-.05.04-.1.06-.15.01-.05.02-.1.03-.15,0-.05,0-.11,0-.16s0-.11-.02-.16c-.01-.05-.02-.1-.04-.15-.01-.05-.03-.1-.04-.15-.01-.05-.03-.1-.06-.15-.03-.05-.06-.09-.1-.13s-.08-.07-.12-.11c-.04-.04-.08-.08-.12-.11-.04-.04-.08-.07-.13-.09-.05-.03-.1-.05-.15-.06-.05-.01-.1-.02-.16-.04-.11-.03-.21-.05-.32-.05h-.09s-.04,0-.06,0c-.02,0-.04,0-.06,0h-.09s-.3,0-.3,0h-.29s-.07,0-.09,0c-.02,0-.04,0-.06,0-.02,0-.04,0-.06,0-.02,0-.05,0-.09,0-.03,0-.05,0-.06.03-.02.02-.03.04-.03.06,0,.04,0,.07,0,.09,0,.02,0,.04,0,.06,0,.02,0,.04,0,.06,0,.02,0,.05,0,.09,0,.04,0,.07,0,.09,0,.02,0,.04.01.06,0,.02,0,.04.01.06,0,.02,0,.05,0,.09s0,.07,0,.09c0,.02,0,.04-.01.06,0,.02,0,.04-.01.06,0,.02,0,.05,0,.09v.3s0,.07,0,.09c0,.02,0,.04,0,.06,0,.02,0,.04,0,.06,0,.02,0,.05,0,.09v.09s0,.04,0,.06c0,.02,0,.04,0,.06v.09s0,.07,0,.09c0,.02,0,.04,0,.06,0,.02,0,.04,0,.06,0,.02,0,.05,0,.09,0,.04,0,.07,0,.09,0,.02,0,.04,0,.06,0,.02,0,.04,0,.06,0,.02,0,.05,0,.09v.09s0,.04,0,.06c0,.02,0,.04,0,.06v.09s0,.07,0,.09,0,.88,0,.9c0,.02,0,.04,0,.06v.09s0,.05.03.07c.02.02.04.03.07.03h.1s.05,0,.07,0c.02,0,.05,0,.07,0h.1s.05,0,.07-.03c.02-.02.03-.04.03-.06,0-.04,0-.06,0-.09,0-.02,0-.04,0-.06,0-.02,0-.87,0-.9,0-.02,0-.05,0-.09,0-.04,0-.06,0-.09,0-.02,0-.04,0-.06ZM6.79,7.82s0-.07,0-.09c0-.02,0-.04,0-.06,0-.02,0-.04,0-.06,0-.02,0-.05,0-.09v-.09s0-.04,0-.06,0-.04,0-.06v-.09s0-.07,0-.09c0-.02,0-.04,0-.06,0-.02,0-.04,0-.06,0-.02,0-.05,0-.09,0-.04,0-.07,0-.09,0-.02,0-.04,0-.06,0-.02,0-.04,0-.06,0-.02,0-.05,0-.09,0-.02.01-.04.03-.06.02-.01.04-.02.07-.02h.33s.08,0,.1,0c.02,0,.05,0,.07,0s.04,0,.07,0c.02,0,.06,0,.1,0,.05,0,.09,0,.14.02.04,0,.09.02.13.04.04.02.09.04.13.06.04.02.08.05.11.08.03.03.06.07.08.12.02.04.04.09.06.13.03.08.05.17.04.27,0,.09-.02.17-.06.26-.04.08-.09.15-.16.22-.03.03-.07.06-.11.08-.04.02-.08.05-.12.06-.04.02-.09.03-.13.05-.04.01-.09.02-.14.02h-.1s-.05,0-.07,0c-.02,0-.04,0-.07,0h-.09s-.33,0-.33,0c-.03,0-.05-.01-.07-.03-.02-.02-.03-.04-.03-.07Z" style="fill: #fff;"/>
  <path d="M12.16,8.41s.05-.09.08-.14c.02-.05.04-.1.05-.15.01-.05.02-.11.03-.16.01-.05.02-.11.02-.16,0-.05,0-.11,0-.16s0-.11,0-.16c0-.05-.01-.11-.02-.16-.01-.06-.03-.11-.04-.16-.02-.05-.03-.1-.05-.15-.02-.05-.05-.1-.07-.14-.03-.05-.06-.09-.09-.14-.03-.04-.06-.09-.09-.14-.03-.05-.06-.09-.1-.13-.04-.04-.08-.07-.13-.1-.04-.03-.09-.06-.13-.09-.05-.03-.09-.06-.14-.09-.05-.03-.09-.05-.14-.07-.1-.04-.2-.07-.31-.1-.05,0-.11-.02-.16-.03-.05,0-.11-.01-.16-.02s-.11,0-.16.02c-.05.01-.11.02-.16.03-.06.01-.11.02-.16.04-.05.02-.1.03-.15.06-.05.02-.1.05-.15.07-.05.02-.09.05-.14.08-.05.03-.1.06-.14.08-.05.02-.09.06-.13.1-.04.04-.07.08-.1.12-.03.04-.06.09-.09.13-.06.09-.11.19-.15.29-.02.05-.04.1-.06.15-.02.05-.03.1-.04.16-.01.05-.02.11-.02.16,0,.05,0,.11,0,.16v.16c0,.05,0,.11.02.16.01.05.02.11.04.16.01.05.03.1.05.15.02.05.05.1.07.15.03.05.06.09.09.14.03.04.07.08.11.12.04.04.08.07.12.11.04.04.08.08.11.12.04.04.08.07.12.1.04.03.09.06.14.08.05.02.1.04.15.07.05.02.1.04.15.06.05.02.1.03.16.04.05.01.11.02.16.02.05,0,.11,0,.16,0s.11,0,.16,0c.05,0,.11-.02.16-.03.05-.01.11-.03.16-.04.05-.02.1-.04.15-.06.05-.02.1-.04.15-.06.05-.02.1-.04.14-.07.05-.03.09-.06.13-.1.04-.03.08-.07.12-.11s.08-.08.11-.12c.03-.04.07-.08.1-.13.03-.04.06-.09.09-.14ZM11.82,7.78s-.03.09-.04.14c-.01.05-.03.09-.05.14-.02.05-.04.09-.06.13-.03.04-.05.08-.08.12-.03.04-.06.07-.1.11-.03.04-.07.07-.11.09-.04.03-.08.05-.12.08-.04.02-.09.04-.13.06-.05.02-.09.04-.14.05-.09.02-.19.04-.29.04h-.15s-.1,0-.15-.02c-.05-.01-.1-.03-.14-.05-.05-.02-.09-.04-.13-.06-.04-.03-.08-.05-.12-.08-.04-.03-.08-.06-.12-.09-.03-.04-.06-.08-.08-.12-.02-.04-.05-.09-.07-.13-.03-.04-.05-.09-.07-.13-.02-.04-.04-.09-.05-.13-.01-.05-.02-.1-.03-.14,0-.05-.01-.1-.01-.15s0-.1.01-.15c0-.05.02-.1.03-.14.01-.05.03-.09.04-.14.02-.05.04-.09.06-.13.03-.04.06-.08.09-.12.03-.04.07-.07.11-.1.03-.04.07-.07.11-.1.04-.03.08-.05.13-.08.04-.02.09-.05.13-.07.05-.02.09-.04.14-.05.05-.01.1-.03.14-.04.05-.01.1-.02.15-.02s.1,0,.15.02c.05.01.1.03.14.04.05.01.1.03.14.04.05.02.09.03.13.06.04.03.09.05.12.09.04.03.07.07.11.1.04.04.07.07.1.11.03.04.06.08.08.12.05.09.09.18.12.27.01.05.03.1.04.14,0,.05.01.1.01.15s0,.1-.02.15Z" style="fill: #fff;"/>
  <path d="M12.68,8.6s0,.04,0,.06c0,.02,0,.04,0,.06,0,.02,0,.05,0,.09v1.12s0,.05.03.07c.02.02.05.03.07.03.04,0,.08,0,.1,0,.03,0,.05,0,.07,0,.02,0,.05,0,.07,0,.03,0,.06,0,.1,0,.05,0,.08-.02.08-.07,0-.05,0-.08,0-.11,0-.03,0-.87,0-.89,0-.03,0-.05,0-.08,0-.03,0-.07,0-.11s0-.08,0-.11,0-.05,0-.08c0-.02,0-.05,0-.08,0-.03,0-.07,0-.11,0-.02.01-.05.03-.06.02-.02.05-.02.07-.02.05,0,.1,0,.17,0,.07,0,.13,0,.21,0s.14,0,.21.01c.07,0,.12.01.16.01.02,0,.04,0,.06.01.02,0,.03.02.03.05.01.05.02.1.03.15,0,.05.02.1.04.14.02.05.04.09.07.14.03.04.06.08.09.12.03.04.06.07.1.1.04.03.07.06.11.08.04.03.08.05.12.06.04.02.09.03.14.04.04.01.09.03.13.04.05.02.09.02.14.03.03,0,.05,0,.07-.02.02-.02.04-.04.04-.07,0-.04,0-.07,0-.1,0-.03,0-.05,0-.07,0-.02,0-.05,0-.07,0-.03,0-.06,0-.1,0-.02,0-.04-.03-.07-.02-.02-.04-.03-.06-.03-.05,0-.09-.01-.13-.02-.04,0-.08-.03-.12-.05-.03-.02-.06-.05-.09-.08-.03-.03-.05-.07-.08-.11-.01-.04-.03-.07-.04-.11,0-.04-.02-.09-.02-.14,0-.02,0-.03,0-.05,0-.02.01-.03.03-.04.09-.05.17-.11.23-.18.04-.04.07-.07.11-.11.04-.03.07-.07.09-.11.03-.04.05-.09.06-.14.02-.05.03-.09.05-.14.01-.05.02-.1.02-.14,0-.05,0-.1,0-.15,0-.05,0-.1,0-.15,0-.05-.01-.1-.02-.14-.01-.05-.03-.09-.05-.14-.02-.05-.04-.09-.07-.13-.03-.04-.05-.09-.09-.12-.03-.04-.07-.07-.1-.11-.04-.03-.07-.07-.11-.1-.04-.03-.08-.06-.12-.09-.05-.02-.09-.04-.14-.06-.05-.02-.1-.04-.15-.05-.05-.01-.1-.02-.15-.02-.05,0-.1,0-.15,0-.04,0-.07,0-.1,0-.02,0-.05,0-.07,0-.02,0-.04,0-.07,0-.02,0-.06,0-.1,0s-.08,0-.1,0c-.02,0-.05,0-.07,0-.02,0-.04,0-.07,0-.02,0-.06,0-.1,0s-.08,0-.1,0c-.02,0-.05,0-.07,0-.02,0-.04,0-.07,0-.02,0-.06,0-.1,0-.04,0-.08,0-.1,0-.02,0-.05,0-.07,0-.02,0-.04,0-.07,0-.02,0-.06,0-.1,0-.03,0-.05.01-.07.03-.02.02-.03.04-.03.07,0,.04,0,.07,0,.09,0,.02,0,.04,0,.06,0,.02,0,.04,0,.06,0,.02,0,.05,0,.09v.09s0,.04,0,.06c0,.02,0,.04,0,.06v.09s0,.07,0,.09c0,.02,0,.04,0,.06s0,.04,0,.06c0,.02,0,.05,0,.09v.09s0,.04,0,.06c0,.02,0,.04,0,.06v.09s0,.3,0,.3c0,.04,0,.07,0,.09,0,.02,0,.04,0,.06,0,.02,0,.04,0,.06,0,.02,0,.05,0,.09,0,.04,0,.07,0,.09,0,.02,0,.04,0,.06,0,.02,0,.04,0,.06,0,.02,0,.05,0,.09v.09s0,.04,0,.06c0,.02,0,.04,0,.06v.09s0,.07,0,.09ZM13.19,7.55s0-.05,0-.07,0-.05,0-.07c0-.02,0-.06,0-.1s0-.08,0-.1c0-.02,0-.05,0-.07s0-.05,0-.07c0-.02,0-.06,0-.1v-.1s0-.05,0-.07c0-.02,0-.05,0-.07v-.1s0-.04.03-.06c.02-.01.04-.02.06-.02h.27s.06,0,.08,0c.02,0,.04,0,.05,0,.02,0,.03,0,.05,0,.02,0,.04,0,.08,0s.06,0,.08,0c.02,0,.04,0,.05,0,.02,0,.04,0,.05,0,.02,0,.05,0,.08,0,.06,0,.11.01.16.03.05.02.1.05.15.07.05.03.09.06.13.09.04.03.08.08.1.12.03.05.04.1.05.15,0,.05.01.1.01.16,0,.12-.03.22-.09.3-.03.05-.06.09-.1.13-.04.04-.08.07-.12.1-.1.05-.2.08-.31.08h-.27s-.06,0-.08,0c-.02,0-.04,0-.05,0-.02,0-.03,0-.05,0-.02,0-.04,0-.08,0h-.08s-.04,0-.05,0c-.02,0-.03,0-.05,0h-.08s-.05,0-.07-.02c-.02-.01-.03-.03-.03-.06,0-.04,0-.08,0-.1Z" style="fill: #fff;"/>
  <path d="M18.43,6.62s.07,0,.09,0c.02,0,.04,0,.06,0,.02,0,.04,0,.06,0,.02,0,.05,0,.09,0,.03,0,.05,0,.07-.02.02-.02.03-.04.03-.06,0-.04,0-.07,0-.1s0-.05,0-.07c0-.02,0-.05,0-.07,0-.03,0-.06,0-.1,0-.02,0-.04-.03-.06-.02-.01-.04-.02-.06-.02-.04,0-.07,0-.09,0-.02,0-.04,0-.06,0-.02,0-.04,0-.06,0-.02,0-.05,0-.09,0h-.89s-.04,0-.06,0c-.02,0-.04,0-.06,0h-.09s-.07,0-.09,0-.04,0-.06,0c-.02,0-.04,0-.06,0h-.09s-.07,0-.09,0c-.02,0-.04,0-.06,0s-.04,0-.06,0c-.02,0-.05,0-.09,0-.04,0-.07,0-.09,0-.02,0-.04,0-.06,0-.02,0-.04,0-.06,0-.02,0-.05,0-.09,0h-.31s-.07,0-.09,0-.04,0-.06,0c-.02,0-.04,0-.06,0h-.09s-.07,0-.09,0c-.02,0-.04,0-.06,0-.02,0-.04,0-.06,0-.02,0-.05,0-.09,0-.02,0-.04.01-.06.03-.02.02-.02.05-.02.07,0,.04,0,.07,0,.1,0,.02,0,.05,0,.07s0,.05,0,.07c0,.03,0,.06,0,.1,0,.02,0,.05.03.06.02.02.04.03.06.03h.09s.04,0,.06,0c.02,0,.04,0,.06,0h.09s.29,0,.29,0c.04,0,.07,0,.09,0,.02,0,.04,0,.06,0,.02,0,.04,0,.06,0,.02,0,.05,0,.09,0,.02,0,.04,0,.06.02.02.01.03.03.03.05v.09s0,.04,0,.06c0,.02,0,.04,0,.06v.09s0,.07,0,.09,0,.04,0,.06c0,.02,0,.04,0,.06v.09s0,.07,0,.09,0,.04,0,.06,0,.04,0,.06c0,.02,0,.05,0,.09v.09s0,.04,0,.06c0,.02,0,.04,0,.06v.09s0,.07,0,.09c0,.02,0,.04,0,.06,0,.02,0,.04,0,.06,0,.02,0,.05,0,.09,0,.04,0,.07,0,.09,0,.02,0,.04,0,.06,0,.02,0,.04,0,.06,0,.02,0,.05,0,.09,0,.04,0,.07,0,.09,0,.02,0,.04,0,.06,0,.02,0,.04,0,.06,0,.02,0,.05,0,.09v.09s0,.04,0,.06c0,.02,0,.04,0,.06v.09s0,.05.03.06c.02.02.04.03.07.03h.35s.05,0,.06-.03c.02-.02.03-.04.03-.06v-.09s0-.04,0-.06c0-.02,0-.04,0-.06v-.09s0-.07,0-.09c0-.02,0-.04,0-.06,0-.02,0-.04,0-.06,0-.02,0-.05,0-.09,0-.04,0-.07,0-.09,0-.02,0-.04,0-.06s0-.04,0-.06c0-.02,0-.05,0-.09,0-.04,0-.07,0-.09,0-.02,0-.04,0-.06s0-.04,0-.06c0-.02,0-.05,0-.09,0-.04,0-.07,0-.09,0-.02,0-.04,0-.06,0-.02,0-.04,0-.06,0-.02,0-.05,0-.09,0-.04,0-.07,0-.09,0-.02,0-.04,0-.06s0-.04,0-.06c0-.02,0-.05,0-.09,0-.04,0-.07,0-.09,0-.02,0-.04,0-.06,0-.02,0-.04,0-.06,0-.02,0-.05,0-.09,0-.04,0-.07,0-.09,0-.02,0-.04,0-.06,0-.02,0-.04,0-.06,0-.02,0-.05,0-.09,0-.05.03-.08.08-.08h.09s.04,0,.06,0c.02,0,.04,0,.06,0h.09s.07,0,.09,0,.04,0,.06,0c.02,0,.04,0,.06,0h.88Z" style="fill: #fff;"/>
  <path d="M12.05,16.91s0,.09,0,.14c0,.05,0,.11,0,.2s0,.15,0,.2c0,.05,0,.09,0,.14,0,.04,0,.09,0,.14,0,.05,0,.12,0,.2,0,.05.01.1.05.14.03.05.07.07.13.07.08,0,.14,0,.19,0,.05,0,.09-.01.13-.02.04,0,.09-.02.13-.02.05,0,.11,0,.19,0h.64c.08,0,.14,0,.19.01.05,0,.09.01.13.02.04,0,.09.01.13.02.05,0,.11,0,.19,0h.19s.09,0,.13,0c.04,0,.09,0,.13,0h.19c.08,0,.14,0,.19,0,.05,0,.09,0,.13,0s.09,0,.13,0c.05,0,.11,0,.19,0,.11,0,.22-.03.32-.07.1-.04.2-.08.3-.11.1-.04.2-.07.3-.12.09-.04.19-.1.27-.16.09-.07.16-.14.23-.22.07-.08.13-.16.19-.24.07-.08.12-.17.17-.27.04-.09.08-.19.11-.29.03-.1.06-.2.08-.3.02-.1.04-.2.04-.31,0-.1,0-.2-.01-.31,0-.1-.03-.2-.07-.3-.04-.1-.09-.19-.15-.27-.07-.08-.14-.15-.21-.23-.07-.07-.14-.14-.22-.21-.08-.07-.18-.11-.28-.15-.04-.01-.06-.04-.06-.07,0-.04,0-.07.04-.09.12-.08.22-.16.31-.26.09-.09.17-.2.22-.32.09-.22.14-.48.14-.78,0-.11,0-.23-.03-.33s-.05-.21-.08-.32c-.04-.1-.09-.2-.15-.29-.06-.09-.13-.18-.2-.26-.07-.09-.13-.18-.2-.27-.06-.09-.14-.16-.23-.23-.09-.07-.18-.13-.28-.18-.1-.05-.2-.09-.31-.12-.1-.04-.21-.06-.32-.06-.11,0-.22,0-.34,0-.09,0-.15,0-.21,0-.05,0-.1,0-.14,0-.04,0-.09,0-.14,0-.05,0-.12,0-.2,0s-.15,0-.21,0c-.05,0-.1,0-.14,0s-.09,0-.14,0c-.05,0-.12,0-.21,0s-.15,0-.2,0c-.05,0-.09,0-.14,0s-.09,0-.14,0c-.05,0-.12,0-.21,0s-.15,0-.21,0c-.05,0-.1,0-.14.01-.04,0-.09.01-.14.01-.05,0-.12,0-.2,0-.06,0-.1.01-.14.04-.04.03-.06.07-.06.12v.2s0,.09,0,.14c0,.04,0,.09,0,.14v.2s0,.67,0,.67c0,.08,0,.15,0,.2,0,.05,0,.09.01.14,0,.04.01.09.01.14,0,.05,0,.12,0,.2s0,.15,0,.2c0,.05,0,.09,0,.14,0,.04,0,.09,0,.14,0,.05,0,.11,0,.2s0,.15,0,.2c0,.05,0,.09,0,.14,0,.04,0,.09,0,.14,0,.05,0,.12,0,.2v.2s0,.09,0,.14c0,.04,0,.09,0,.14v.2c0,.08,0,.15,0,.2,0,.05,0,.1,0,.14s0,.09,0,.14c0,.05,0,.11,0,.2s0,.15,0,.2c0,.05,0,.09,0,.14,0,.04,0,.09,0,.14,0,.05,0,.11,0,.2s0,.15,0,.2c0,.05,0,.1,0,.14ZM13.25,12.17s.1-.06.15-.06c.1,0,.18,0,.24,0,.06,0,.12.01.16.01s.1,0,.16.01c.06,0,.14,0,.24,0h.25c.06,0,.12,0,.16,0,.05,0,.1,0,.16,0h.24c.27,0,.49.09.67.26.09.08.16.18.23.29.07.11.1.23.1.36,0,.13-.04.24-.11.35-.06.1-.14.2-.23.28-.18.17-.4.25-.65.25-.1,0-.19,0-.25,0-.06,0-.12.01-.16.01-.05,0-.1,0-.16.01-.06,0-.14,0-.24,0-.1,0-.19,0-.25,0-.06,0-.12,0-.16,0-.05,0-.1,0-.16,0-.06,0-.14,0-.25,0-.05,0-.09-.02-.14-.05-.04-.03-.06-.07-.06-.12,0-.1,0-.17,0-.22,0-.05,0-.1,0-.15,0-.05,0-.1,0-.15,0-.05,0-.13,0-.22s0-.16,0-.22c0-.05-.01-.1-.01-.15,0-.05,0-.1-.01-.15,0-.05,0-.13,0-.22,0-.05.02-.1.07-.14ZM13.17,16.58c0-.05.01-.11.02-.15,0-.05.01-.1.02-.15,0-.05,0-.13.01-.23v-.22c0-.05,0-.11,0-.15,0-.05,0-.1,0-.15v-.22c0-.05.01-.1.04-.14.03-.04.07-.06.11-.06.08,0,.14,0,.19,0,.05,0,.09,0,.14,0,.04,0,.09,0,.13,0,.05,0,.11,0,.2,0,.08,0,.14,0,.19,0,.05,0,.09,0,.14,0,.04,0,.09,0,.13,0,.05,0,.11,0,.2,0,.08,0,.14,0,.19,0,.05,0,.09,0,.14,0,.04,0,.09,0,.13,0,.05,0,.11,0,.2,0,.13,0,.26.02.38.06.12.04.22.1.31.18.09.08.15.19.19.3.04.12.07.24.07.37,0,.27-.1.49-.3.67-.09.08-.19.15-.3.2-.12.05-.24.08-.38.08-.09,0-.15,0-.2,0-.05,0-.09,0-.13-.01-.04,0-.09-.01-.13-.01-.05,0-.11,0-.19,0h-.2s-.09,0-.13,0c-.04,0-.09,0-.14,0h-.19c-.08,0-.14,0-.19,0s-.09,0-.13,0c-.04,0-.09,0-.14,0h-.19s-.1-.02-.15-.05c-.05-.03-.07-.07-.07-.13,0-.09,0-.16.01-.22Z" style="fill: #fff;"/>
  <path d="M17.83,15.6c.03.11.07.22.11.33.05.11.1.21.16.32.06.1.12.2.19.3.07.1.14.18.23.26.09.08.17.16.26.24.09.08.17.17.24.25.08.08.17.16.27.23.1.07.2.12.31.17.11.05.21.09.32.14.11.05.22.09.32.13.11.04.22.07.34.1.12.02.23.04.35.05.12,0,.24.01.36.01s.24,0,.36-.02c.12-.01.23-.03.35-.06.12-.02.23-.06.34-.09.11-.04.22-.08.32-.13.11-.05.22-.09.33-.13.11-.04.21-.09.31-.16.1-.07.2-.13.29-.21.09-.07.18-.15.26-.23.09-.08.17-.17.24-.26.07-.09.14-.18.21-.28.07-.1.13-.19.19-.29s.12-.2.17-.31c.05-.11.09-.22.11-.33.02-.11.05-.23.07-.34.02-.11.04-.23.05-.34,0-.11,0-.23.01-.35s0-.24-.01-.35c0-.11-.03-.23-.05-.34-.02-.12-.05-.24-.09-.34s-.08-.21-.12-.32c-.05-.11-.1-.21-.16-.31s-.12-.2-.19-.29c-.07-.1-.13-.19-.2-.29-.06-.1-.14-.19-.22-.28-.09-.08-.18-.16-.27-.22-.1-.06-.2-.12-.29-.19-.1-.07-.2-.13-.3-.19-.1-.06-.2-.11-.31-.16-.22-.08-.44-.16-.67-.21-.12-.02-.23-.04-.35-.06-.12-.02-.24-.03-.36-.03s-.24.01-.36.04c-.12.02-.23.05-.34.07-.12.02-.24.05-.35.08-.11.03-.22.07-.32.12-.11.05-.22.1-.32.15-.1.05-.2.11-.3.18-.1.07-.21.13-.31.18-.1.05-.2.12-.28.21-.09.08-.16.17-.23.27-.06.1-.13.19-.2.29-.13.2-.24.41-.33.62-.04.1-.08.21-.12.32-.04.11-.07.22-.09.34-.02.11-.04.23-.04.34,0,.11,0,.23,0,.35v.35c0,.11.01.23.03.34.02.11.05.23.08.34ZM18.85,14.25c.02-.11.04-.21.07-.31.03-.1.06-.2.1-.31.03-.1.08-.2.13-.29.06-.09.12-.17.19-.25.07-.08.15-.15.23-.23.07-.08.15-.15.24-.21.09-.06.18-.12.28-.17.09-.05.19-.1.28-.14.1-.04.2-.08.3-.11.1-.03.21-.06.31-.08s.21-.04.32-.04.22.01.32.04c.1.03.21.06.31.09.1.03.21.06.31.1.1.03.2.07.29.12.1.05.19.12.26.19.08.07.16.15.23.22.08.08.15.16.21.24.06.08.12.17.18.26.12.19.2.39.26.58.03.1.06.21.08.31.02.11.03.21.03.32s-.02.21-.05.32c-.03.1-.06.2-.09.31-.03.1-.06.2-.1.3-.04.1-.08.19-.14.28-.06.09-.12.18-.18.26-.06.08-.14.16-.22.23-.07.08-.15.15-.24.2-.09.06-.18.11-.27.17-.09.05-.19.09-.28.14-.1.04-.2.08-.3.11-.2.05-.41.08-.63.08h-.33c-.11,0-.21-.02-.32-.05-.1-.03-.21-.07-.31-.11-.1-.04-.2-.09-.29-.14-.09-.05-.18-.11-.27-.18-.09-.06-.17-.13-.25-.2-.07-.08-.13-.17-.18-.26-.05-.1-.1-.19-.15-.28-.05-.1-.11-.19-.15-.28-.05-.09-.09-.19-.12-.29-.03-.1-.05-.21-.07-.31-.01-.11-.02-.21-.02-.32s0-.22.02-.32Z" style="fill: #fff;"/>
  <path d="M5.98,26.08c.05,0,.11-.01.16-.05.05-.04.08-.09.08-.15,0-.09,0-.16,0-.22,0-.05,0-.11,0-.15,0-.05,0-.1,0-.15s0-.13,0-.22c0-.05-.02-.1-.06-.14-.04-.05-.08-.07-.13-.07-.1-.01-.81-.16-.89-.19-.09-.02-.17-.06-.26-.11-.07-.05-.13-.1-.19-.17-.06-.06-.12-.15-.17-.25-.03-.08-.06-.16-.08-.25s-.04-.19-.05-.3c0-.04,0-.07,0-.11,0-.04.02-.07.06-.09.19-.11.36-.24.51-.39.08-.08.16-.15.24-.23.08-.07.14-.16.2-.25.06-.1.1-.2.14-.3.04-.1.07-.2.1-.31.02-.1.04-.21.03-.31,0-.11,0-.21,0-.32,0-.11,0-.22,0-.33,0-.11-.02-.21-.05-.31-.03-.1-.07-.2-.1-.3-.04-.1-.09-.19-.14-.29-.05-.1-.12-.19-.19-.27s-.14-.16-.22-.24c-.08-.07-.16-.14-.24-.21-.08-.07-.17-.13-.27-.19-.1-.05-.2-.09-.3-.14-.1-.04-.21-.08-.32-.11-.1-.03-.21-.04-.32-.04-.11,0-.22,0-.33,0-.09,0-.15,0-.21,0-.05,0-.1,0-.14,0-.04,0-.09,0-.14,0-.05,0-.12,0-.22,0s-.16,0-.22,0c-.05,0-.1-.01-.14-.01-.04,0-.09,0-.14-.01-.05,0-.12,0-.22,0s-.16,0-.22,0c-.05,0-.1,0-.14.01-.04,0-.09.01-.14.01-.05,0-.12,0-.21,0-.09,0-.16,0-.22,0-.05,0-.1,0-.14,0-.04,0-.09,0-.14,0-.05,0-.12,0-.22,0-.06,0-.1.02-.14.07-.04.05-.06.1-.06.14,0,.08,0,.15,0,.2,0,.05,0,.09,0,.14,0,.04,0,.09,0,.14,0,.05,0,.11,0,.19v.19s0,.09,0,.13c0,.04,0,.09,0,.14v.2c0,.08,0,.15,0,.19,0,.05,0,.09,0,.13s0,.09,0,.14c0,.05,0,.11,0,.19v.2s0,.09,0,.14c0,.04,0,.09,0,.14v.19s0,.66,0,.66c0,.08,0,.15,0,.19,0,.05,0,.09.01.13,0,.04.01.09.01.14,0,.05,0,.11,0,.19,0,.08,0,.15,0,.2,0,.05,0,.09,0,.14,0,.04,0,.09,0,.14,0,.05,0,.11,0,.19v.19s0,.09,0,.13c0,.04,0,.09,0,.14v.2c0,.08,0,.15-.01.19,0,.05-.01.09-.02.13,0,.04-.01.09-.02.14,0,.05,0,.11,0,.19v.66c0,.05.02.1.07.14.05.04.1.06.16.06.09,0,.16,0,.22,0,.05,0,.11-.01.16-.01.05,0,.1,0,.16-.01.05,0,.13,0,.22,0,.11,0,.17-.05.17-.16,0-.1,0-.18,0-.24s0-.12,0-.17c0-.05,0-.11,0-.17,0-.06,0-.14,0-.24s0-.18,0-.24c0-.06,0-.12,0-.17,0-.05,0-.11,0-.17,0-.06,0-.14,0-.24,0-.05.02-.1.07-.13.05-.03.1-.05.16-.05.1,0,.22,0,.36-.02.14-.01.29-.02.45-.02s.31.01.46.03c.15.02.27.03.36.03.05,0,.09,0,.13.03.04.02.06.05.06.1.02.11.05.23.06.33.02.11.05.21.09.31.04.1.09.2.16.29.06.09.13.18.19.27.07.08.14.15.22.21.08.06.16.12.24.18.09.05.18.1.27.13.09.03.19.07.3.1.09.03.19.06.28.1.1.03.81.19.92.2ZM4.1,22.32c-.08.09-.17.16-.27.21-.21.11-.44.17-.68.17h-.58c-.07,0-.13,0-.17-.01-.04,0-.08-.01-.11-.01-.04,0-.07,0-.11-.01-.04,0-.1,0-.17,0h-.17s-.08,0-.11,0c-.04,0-.07,0-.11,0h-.17c-.05,0-.11-.02-.15-.05-.05-.03-.07-.07-.07-.13,0-.1,0-.17,0-.23,0-.05,0-.11,0-.15s0-.1,0-.15c0-.05,0-.13,0-.23s0-.17,0-.23c0-.05,0-.11,0-.15s0-.1,0-.15c0-.05,0-.13,0-.23v-.23c0-.05,0-.11,0-.15,0-.05,0-.1,0-.15v-.23c0-.05.02-.1.06-.13.04-.03.08-.04.14-.04h.58c.07,0,.13,0,.17,0,.04,0,.08-.01.12-.02.04,0,.07-.01.11-.02.04,0,.1,0,.17,0s.13,0,.17,0c.04,0,.08,0,.12,0,.04,0,.08,0,.12,0,.04,0,.1,0,.17,0,.12,0,.24.02.34.07.11.05.21.1.32.16.1.06.2.13.29.2.09.08.16.16.22.27.05.1.09.21.11.32.02.11.03.23.03.35-.01.25-.07.47-.19.65-.07.1-.14.2-.22.28Z" style="fill: #fff;"/>
  <path d="M11.98,24.24c.09-.07.18-.15.26-.23.09-.08.17-.17.24-.26.07-.09.14-.18.21-.28.07-.1.13-.19.19-.29.06-.1.12-.2.17-.31.05-.11.09-.22.11-.33.02-.11.05-.23.07-.34.02-.11.04-.23.05-.34,0-.11,0-.23.01-.35s0-.24-.01-.35c0-.11-.03-.23-.05-.34-.02-.12-.05-.24-.09-.34-.04-.11-.08-.21-.12-.32-.05-.11-.1-.21-.16-.31-.06-.1-.12-.2-.19-.29-.07-.1-.13-.19-.2-.29-.06-.1-.14-.19-.22-.28-.09-.08-.18-.16-.27-.22-.1-.06-.2-.12-.29-.19-.1-.07-.2-.13-.3-.19-.1-.06-.2-.11-.31-.16-.22-.08-.44-.16-.67-.21-.12-.02-.23-.04-.35-.06-.12-.02-.24-.03-.36-.03s-.24.01-.36.04c-.12.02-.23.05-.34.07-.12.02-.24.05-.35.08-.11.03-.22.07-.32.12-.11.05-.22.1-.32.15-.1.05-.2.11-.3.18-.1.07-.21.13-.31.18-.1.05-.2.12-.28.21-.09.08-.16.17-.23.27-.06.1-.13.19-.2.29-.13.2-.24.41-.33.62-.04.1-.08.21-.12.32-.04.11-.07.22-.09.34-.02.11-.04.23-.04.34,0,.11,0,.23,0,.35v.35c0,.11.01.23.03.34.02.11.05.23.08.34.03.11.07.22.11.33.05.11.1.21.16.32.06.1.12.2.19.3.07.1.14.18.23.26.09.08.17.16.26.24.09.08.17.17.24.25.08.08.17.16.27.23.1.07.2.12.31.17.11.05.21.09.32.14.11.05.22.09.32.13.11.04.22.07.34.1.12.02.23.04.35.05.12,0,.24.01.36.01s.24,0,.36-.02c.12-.01.23-.03.35-.06.12-.02.23-.06.34-.09.11-.04.22-.08.32-.13.11-.05.22-.09.33-.13.11-.04.21-.09.31-.16.1-.07.2-.13.29-.21ZM11.42,23.19c-.07.08-.15.15-.24.2-.09.06-.18.11-.27.17-.09.05-.19.09-.28.14-.1.04-.2.08-.3.11-.2.05-.41.08-.63.08h-.33c-.11,0-.21-.02-.32-.05-.1-.03-.21-.07-.31-.11-.1-.04-.2-.09-.29-.14-.09-.05-.18-.11-.27-.18-.09-.06-.17-.13-.25-.2-.07-.08-.13-.17-.18-.26-.05-.1-.1-.19-.15-.28-.05-.1-.11-.19-.15-.28-.05-.09-.09-.19-.12-.29-.03-.1-.05-.21-.07-.31-.02-.11-.02-.21-.02-.32s0-.22.02-.32c.02-.11.04-.21.07-.31.03-.1.06-.2.1-.31.03-.1.08-.2.13-.29.06-.09.12-.17.19-.25.07-.08.15-.15.23-.23.07-.08.15-.15.24-.21.09-.06.18-.12.28-.17.09-.05.19-.1.28-.14.1-.04.2-.08.3-.11.1-.03.21-.06.31-.08.1-.03.21-.04.32-.04s.22.01.32.04c.1.03.21.06.31.09.1.03.21.06.31.1.1.03.2.07.29.12.1.05.19.12.27.19.08.07.16.15.23.22.08.08.15.16.21.24.06.08.12.17.18.26.12.19.2.39.26.58.03.1.06.21.08.31.02.11.03.21.03.32s-.02.21-.05.32c-.03.1-.06.2-.09.31-.03.1-.06.2-.1.3-.04.1-.08.19-.14.28-.06.09-.12.18-.18.26-.06.08-.14.16-.22.23Z" style="fill: #fff;"/>
  <path d="M24.44,24.21c.06-.1.12-.2.17-.31.05-.11.09-.22.11-.33.02-.11.05-.23.07-.34.02-.11.04-.23.05-.34,0-.11,0-.23.01-.35s0-.24-.01-.35c0-.11-.03-.23-.05-.34-.02-.12-.05-.24-.09-.34-.04-.11-.08-.21-.12-.32-.05-.11-.1-.21-.16-.31-.06-.1-.12-.2-.19-.29-.07-.1-.13-.19-.2-.29-.06-.1-.14-.19-.22-.28-.09-.08-.18-.16-.27-.22-.1-.06-.2-.12-.29-.19-.1-.07-.2-.13-.3-.19-.1-.06-.2-.11-.31-.16-.22-.08-.44-.16-.67-.21-.12-.02-.23-.04-.35-.06-.12-.02-.24-.03-.36-.03s-.24.01-.36.04c-.12.02-.23.05-.34.07-.12.02-.24.05-.35.08-.11.03-.22.07-.32.12-.11.05-.22.1-.32.15-.1.05-.2.11-.3.18-.1.07-.21.13-.31.18-.1.05-.2.12-.28.21-.09.08-.16.17-.23.27-.06.1-.13.19-.2.29-.13.2-.24.41-.33.62-.04.1-.08.21-.12.32-.04.11-.07.22-.09.34-.02.11-.04.23-.04.34,0,.11,0,.23,0,.35v.35c0,.11.01.23.03.34.02.11.05.23.08.34.03.11.07.22.11.33.05.11.1.21.16.32.06.1.12.2.19.3.07.1.14.18.23.26.09.08.17.16.26.24.09.08.17.17.24.25.08.08.17.16.27.23.1.07.2.12.31.17.11.05.21.09.32.14.11.05.22.09.32.13.11.04.22.07.34.1.12.02.23.04.35.05.12,0,.24.01.36.01s.24,0,.36-.02c.12-.01.23-.03.35-.06.12-.02.23-.06.34-.09.11-.04.22-.08.32-.13.11-.05.22-.09.33-.13.11-.04.21-.09.31-.16.1-.07.2-.13.29-.21.09-.07.18-.15.26-.23.09-.08.17-.17.24-.26.07-.09.14-.18.21-.28.07-.1.13-.19.19-.29ZM23.7,22.84c-.03.1-.06.2-.09.31-.03.1-.06.2-.1.3-.04.1-.08.19-.14.28-.06.09-.12.18-.18.26-.06.08-.14.16-.22.23-.07.08-.15.15-.24.2-.09.06-.18.11-.27.17-.09.05-.19.09-.28.14-.1.04-.2.08-.3.11-.2.05-.41.08-.63.08h-.33c-.11,0-.21-.02-.32-.05-.1-.03-.21-.07-.31-.11-.1-.04-.2-.09-.29-.14-.09-.05-.18-.11-.27-.18-.09-.06-.17-.13-.25-.2-.07-.08-.13-.17-.18-.26-.05-.1-.1-.19-.15-.28-.05-.1-.11-.19-.15-.28-.05-.09-.09-.19-.12-.29-.03-.1-.05-.21-.07-.31-.02-.11-.02-.21-.02-.32s0-.22.02-.32c.02-.11.04-.21.07-.31.03-.1.06-.2.1-.31s.08-.2.13-.29c.06-.09.12-.17.19-.25.07-.08.15-.15.23-.23.07-.08.15-.15.24-.21.09-.06.18-.12.28-.17.09-.05.19-.1.28-.14.1-.04.2-.08.3-.11.1-.03.21-.06.31-.08.1-.03.21-.04.32-.04s.22.01.32.04c.1.03.21.06.31.09.1.03.21.06.31.1.1.03.2.07.29.12.1.05.19.12.27.19.08.07.16.15.23.22.08.08.15.16.21.24.06.08.12.17.18.26.12.19.2.39.26.58.03.1.06.21.08.31.02.11.03.21.03.32s-.02.21-.05.32Z" style="fill: #fff;"/>
  <path d="M.22,15.36c.04.11.09.22.14.33.05.11.11.22.18.32.06.1.13.2.21.29.07.1.14.2.2.3.06.11.14.2.23.28.09.08.19.15.3.21.11.06.21.12.31.18.1.06.21.12.31.17.11.05.22.1.34.15.12.04.23.08.35.11.12.03.23.06.35.08.12.02.24.02.35.02.11,0,.23,0,.35-.01s.24-.02.35-.03c.12-.01.23-.03.34-.07.11-.03.23-.06.34-.1.11-.04.22-.09.32-.14.11-.05.2-.11.3-.17.09-.06.19-.13.28-.2.1-.07.19-.14.27-.21.08-.07.17-.15.25-.25h0s.29-.36.32-.39c.07-.11.12-.19.16-.25.04-.06.08-.12.11-.17.04-.05.07-.11.11-.17.04-.06.09-.15.16-.25.03-.06.1-.08.19-.07.07,0,.13.02.18.02.05,0,.09,0,.12.01.04,0,.08,0,.12.01.05,0,.1,0,.18.02.07,0,.13.02.18.03.04,0,.09.02.12.03.04.01.08.02.12.03.04,0,.1.02.18.03l.61.08c.07,0,.13.01.18.01.05,0,.09,0,.12,0,.04,0,.08,0,.12,0,.05,0,.11,0,.18.01.04,0,.08.02.12.05.04.03.06.06.07.09.04.12.06.22.08.29.01.07.02.14.03.2,0,.06.17.71.19.78.01.07.04.17.08.29,0,.04.03.07.07.09.04.02.08.03.12.04.11.02.21.03.27.03.07,0,.13.01.18.02.05,0,.12,0,.18.02.07,0,.15.02.26.03.04,0,.07,0,.09-.02.02-.02.03-.04.02-.07-.03-.08-.05-.15-.06-.19-.02-.04-.03-.09-.04-.13-.01-.04-.03-.08-.04-.13-.02-.04-.18-.69-.2-.77-.02-.08-.04-.14-.05-.19-.02-.04-.03-.09-.04-.13-.01-.04-.03-.08-.04-.13-.02-.04-.03-.11-.05-.19-.02-.08-.03-.15-.04-.19,0-.05-.02-.09-.02-.14,0-.04-.01-.09-.02-.14,0-.05-.03-.11-.05-.19-.02-.08-.04-.15-.05-.19-.01-.05-.02-.09-.03-.13,0-.04-.02-.08-.03-.13-.01-.05-.03-.11-.06-.19l-.17-.64c-.03-.08-.05-.15-.06-.19-.02-.04-.03-.09-.04-.13-.01-.04-.03-.08-.04-.13-.01-.04-.03-.11-.06-.19-.02-.08-.04-.14-.05-.19-.02-.04-.03-.09-.05-.12-.02-.04-.03-.08-.05-.13-.02-.04-.04-.11-.06-.19-.02-.08-.03-.15-.04-.19,0-.05-.02-.09-.02-.13,0-.04,0-.09-.01-.13,0-.05-.02-.11-.05-.19-.02-.08-.04-.15-.06-.19-.02-.04-.04-.09-.05-.13-.02-.04-.03-.08-.05-.13-.02-.05-.04-.11-.06-.19-.03-.08-.04-.15-.06-.19-.01-.04-.02-.09-.04-.13-.01-.04-.03-.08-.04-.13-.02-.04-.03-.11-.05-.19-.03-.08-.04-.15-.05-.19,0-.05-.02-.09-.03-.13,0-.04-.02-.08-.03-.13,0-.05-.02-.11-.04-.19-.01-.04-.05-.07-.1-.08-.05-.01-.09,0-.11.04-.05.07-.08.13-.1.17-.02.04-.04.08-.06.12-.02.04-.04.08-.06.12-.02.04-.06.1-.1.16-.05.07-.08.13-.11.17-.03.04-.05.08-.08.11-.02.04-.05.07-.08.11-.03.04-.06.1-.1.17-.05.07-.08.13-.11.17-.03.04-.05.08-.08.11-.03.04-.05.07-.08.11-.03.04-.06.1-.1.17-.05.07-.08.12-.1.16-.02.04-.04.08-.06.12-.02.04-.04.08-.06.12-.02.04-.06.1-.1.17-.05.07-.08.13-.11.17-.02.04-.05.08-.07.11-.02.04-.05.07-.07.11-.02.04-.06.1-.11.17-.04.07-.08.13-.1.17-.03.04-.05.08-.08.11-.02.04-.05.07-.08.11-.03.04-.06.09-.11.17-.05.07-.08.13-.11.17-.02.04-.05.08-.07.11-.02.03-.04.07-.07.11-.02.04-.06.1-.11.17-.05.07-.08.12-.11.16-.03.04-.05.08-.08.11-.02.03-.05.07-.07.11-.02.04-.06.1-.11.17-.05.07-.08.12-.1.16-.02.04-.04.08-.06.12-.02.04-.04.08-.06.12-.02.04-.06.1-.1.17l-.36.57c-.05.07-.08.12-.11.16-.03.04-.05.08-.08.11-.02.03-.05.07-.08.11-.02.03-.08.08-.1.12-.07.06-.14.12-.22.18-.11.07-.22.14-.33.21-.11.06-.23.12-.35.18-.12.05-.25.09-.37.12-.13.02-.25.02-.39.02-.13,0-.26-.02-.4-.04-.22-.03-.43-.09-.62-.17-.1-.04-.2-.09-.3-.13-.1-.04-.19-.1-.28-.17-.09-.07-.17-.14-.25-.22-.08-.08-.15-.16-.22-.24-.06-.09-.12-.18-.17-.28-.05-.1-.09-.2-.13-.3-.04-.1-.06-.2-.08-.3-.02-.11-.03-.21-.05-.33-.01-.1-.02-.21-.03-.31-.01-.11-.01-.21,0-.32.01-.11.04-.21.07-.31.03-.1.07-.2.12-.3.04-.1.1-.19.16-.28.06-.09.13-.17.19-.25.13-.16.28-.3.47-.43.09-.06.18-.12.26-.18.09-.06.18-.11.28-.14.1-.04.2-.07.31-.09.11-.02.21-.03.32-.05.11,0,.21-.02.32-.03.11,0,.21,0,.32.01.13.02.25.05.38.09.12.04.24.08.36.14.12.06.22.13.32.21.1.08.2.17.29.26.14.14.26.29.38.44.1.12.19.3.31.43.02.02.05.04.08.05.06.02.11.02.17,0,.13-.05.25-.17.34-.28.11-.13.18-.29.19-.46,0-.04,0-.07,0-.11-.04-.08-.09-.16-.14-.23-.07-.09-.14-.19-.21-.28-.16-.19-.32-.36-.49-.5-.09-.08-.19-.15-.28-.22-.09-.07-.19-.13-.3-.19-.1-.06-.21-.12-.31-.18-.1-.06-.21-.1-.33-.15-.11-.03-.23-.06-.35-.09-.12-.03-.24-.05-.36-.06-.11-.02-.23-.02-.34,0-.11,0-.22.02-.34.03-.22.03-.44.07-.66.12-.11.03-.22.06-.33.09-.11.03-.22.07-.32.12-.1.05-.19.12-.28.19-.09.07-.18.14-.26.21-.1.07-.19.13-.29.19-.1.06-.18.13-.26.22-.08.08-.15.17-.21.26-.06.09-.13.19-.19.28-.06.09-.11.19-.15.3-.04.1-.08.21-.13.31-.04.1-.08.21-.11.31-.04.1-.07.21-.09.33-.02.12-.04.24-.04.36,0,.12,0,.24,0,.36,0,.12.01.24.03.36.02.12.05.23.07.35.03.12.06.23.1.34ZM7.76,14.27c.05-.07.08-.13.11-.18.02-.05.05-.09.06-.13.02-.04.04-.08.06-.13.02-.05.06-.11.11-.19.05-.07.08-.13.11-.18.03-.04.05-.09.08-.12.03-.04.05-.07.08-.12.03-.04.07-.1.11-.18.05-.07.09-.13.12-.18.03-.04.06-.08.09-.12.03-.03.05-.07.08-.11.03-.04.07-.1.12-.18.02-.04.05-.06.09-.06.03,0,.06.02.07.06.02.09.04.16.06.2.01.05.03.09.04.14.01.04.02.09.04.14.01.05.03.12.06.2.02.09.04.16.06.2.01.05.02.09.04.14.01.04.02.09.04.14.01.05.03.12.06.2l.2.68c.02.06,0,.09-.08.08-.07,0-.13-.02-.17-.02-.04,0-.08,0-.12,0-.04,0-.08,0-.12,0-.04,0-.1,0-.17-.02-.07,0-.13-.02-.18-.02-.05,0-.09-.01-.12-.02-.04,0-.08-.01-.12-.02-.04,0-.1-.01-.17-.02-.07,0-.13-.02-.17-.03-.04,0-.08-.02-.12-.02-.04,0-.08-.01-.12-.02-.04,0-.1-.02-.17-.03-.06,0-.07-.04-.04-.1Z" style="fill: #fff;"/>
  <path d="M17.21,21.31c.01-.05.02-.1.03-.14,0-.04.02-.09.03-.13.01-.05.03-.11.05-.19.02-.08.05-.15.06-.2.02-.05.03-.09.05-.13.01-.04.03-.09.05-.13.06-.17.1-.34.16-.51.05-.15.16-.3.19-.45.02-.1.04-.19.05-.29.01-.12.02-.26,0-.38-.07-.42-.52-.21-.82-.22-.09,0-.16.02-.21.02-.05,0-.1.01-.14.02-.04,0-.09.01-.14.02-.05,0-.12.01-.2.02-.09,0-.16.02-.21.02-.05,0-.1,0-.14.01-.04,0-.09,0-.14.01-.05,0-.12.01-.21.02-.09,0-.16.02-.21.03-.05,0-.1.02-.14.02-.04,0-.09.02-.14.02-.05,0-.12.02-.2.03-.22.02-.45.04-.68.04-.08,0-.17,0-.26,0-.19.01-.35.22-.32.4.03.19.08.4.16.57.04.09.1.18.19.23.11.05.21,0,.32,0,.09,0,.16-.02.21-.03.05-.01.1-.02.14-.03.04,0,.09-.02.14-.03.05-.01.12-.02.2-.03s.16-.01.21-.01c.05,0,.1,0,.14,0,.04,0,.09,0,.14,0,.05,0,.12,0,.21-.01.09,0,.16-.02.21-.02.05,0,.1-.01.14-.02.04,0,.09-.01.14-.02.03,0,.07,0,.11-.01l-.02.06c-.02.08-.04.15-.05.2,0,.05-.02.1-.03.14,0,.04-.02.09-.03.14,0,.05-.02.11-.05.2-.02.08-.05.15-.07.2-.02.05-.04.09-.05.13-.02.04-.03.08-.05.13-.02.05-.04.11-.07.2-.02.08-.04.15-.06.2-.02.05-.03.1-.04.14,0,.04-.02.09-.04.14-.01.05-.03.12-.06.2-.02.08-.04.15-.06.19-.01.05-.03.09-.04.13-.02.04-.03.08-.04.13-.21.7-.4,1.68-.79,2.3-.07.11-.14.21-.23.3-.18.18-.4.31-.65.39-.12.03-.24.05-.37.05-.12,0-.25-.02-.38-.04-.16-.03-.33-.06-.49-.12-.06-.04-.11-.09-.15-.15-.08-.12-.1-.28-.04-.41.01-.03.03-.06.02-.09,0-.06-.09-.08-.14-.06-.23.08-.44.27-.64.39-.16.1-.37.23-.39.44-.01.15.05.27.14.36,0,0,0,0,0,0,0,0,0,.02.01.02,0,.01.02.03.03.04.14.12.32.25.51.34.03.04.07.06.11.08.12.02.94.34,1.06.34.11,0,.22,0,.33,0,.11,0,.22-.02.34-.03.11-.01.22-.04.33-.07.11-.03.21-.06.32-.1.11-.03.21-.08.31-.14.21-.12.39-.25.55-.41.08-.08.15-.17.21-.26.07-.09.13-.19.19-.28.05-.09.1-.19.14-.3.04-.11.08-.21.11-.32.02-.08.05-.15.06-.2.02-.05.03-.09.05-.13.02-.04.03-.08.05-.13.02-.05.04-.11.06-.2.02-.08.46-1.22.48-1.27.01-.05.03-.1.04-.14,0-.04.02-.09.04-.13.01-.05.03-.11.06-.19.02-.08.04-.15.06-.2.01-.05.03-.09.05-.13.02-.04.03-.09.05-.13.01-.05.03-.12.06-.2.02-.08.04-.15.05-.2Z" style="fill: #fff;"/>
  <path d="M2.08,6.88c.6-.05,1.23-.11,1.79-.35.7-.3,1.02-1.1,1.69-1.34.82-.3,1.71-.4,2.59-.29.13.02.28.04.45,0,.28-.07.48-.27.63-.44.04-.05.09-.09.13-.13.16-.15.35-.23.57-.26l.16-.02.09-.13.06-.09s.04-.06.05-.08c.02-.03.05-.06.07-.09.02-.02.03-.05.05-.07.02-.03.05-.08.09-.12.04-.05.07-.09.09-.13.02.03.05.07.08.11.04.05.07.09.1.12l.4.44.22-.64c.02-.06.05-.12.07-.17.03-.06.06-.13.09-.21,0-.01,0-.02.01-.04l.33.34.22-.44s.04-.08.05-.1c.02-.05.04-.1.05-.14.01-.03.03-.07.04-.11,0,0,.02-.04.06-.12l.02-.03c.03-.06.05-.11.07-.14.02-.04.05-.07.07-.11.03-.04.06-.08.08-.13.03-.04.06-.11.11-.19v-.02c.04-.06.06-.11.08-.14.03-.04.05-.09.08-.13.02-.03.04-.07.06-.11.03-.04.06-.11.1-.18.05-.09.09-.16.12-.23,0-.02.01-.04.02-.06,0,.02.02.04.03.05.03.05.07.12.13.2.05.08.09.14.12.18.03.04.05.07.08.1.02.03.05.07.07.1.03.04.06.09.11.16.05.08.1.15.15.2l.19.21s.04.04.08.12v.02c.07.08.08.1.08.11.01.03.03.07.04.1.02.05.04.11.07.17.02.05.06.11.11.19v.02c.07.08.11.14.14.18.03.04.06.08.09.11l.27.3.26-.31s.02-.03.03-.04c.03.06.05.12.08.17.02.06.05.12.07.18.03.08.07.18.12.3.01.03.02.06.03.09.03.1.07.24.21.34.02.01.03.02.05.04l.27.28s.26-.3.26-.29c.01,0,.02.02.03.03.02.02.06.05.12.09.04.03.08.06.11.07.02.01.04.02.06.04.02.01.03.02.05.04.02.01.05.03.09.06.05.04.09.07.13.09l.15.08s.02.02.04.03l.02.02s.02.01.02.02c.02.03.05.07.09.1.02.02.05.05.1.08l.26.17.27-.14c.08-.04.18-.06.3-.07.06,0,.09,0,.11,0,.12.11.22.2.3.26.07.06.14.12.19.17.06.05.11.11.16.17.07.08.18.18.31.3.12.11.03.02.09.08.06.07.13.13.2.2.06.05.11.11.16.16,0,.01.02.02.03.03.03.04.07.1.11.16.43.61.78.65,1.49.65.77,0,1.73,0,2.49,0h1.15s0-.7,0-.7h-1.15c-.77,0-1.73,0-2.49-.01-.26,0-.47.06-.7-.1-.31-.21-.34-.42-.61-.7-.06-.07-.16-.16-.31-.3-.15-.12-.21-.19-.25-.23-.07-.08-.13-.15-.21-.22-.07-.06-.14-.13-.22-.2-.07-.06-.17-.15-.29-.26-.14-.13-.34-.18-.62-.17-.17.01-.32.04-.45.09,0,0,0-.01-.01-.02-.03-.04-.08-.07-.14-.11-.05-.04-.09-.06-.13-.09l-.15-.08s-.02-.02-.04-.03l-.1-.07s-.05-.03-.07-.05c-.02-.02-.05-.03-.08-.05-.01,0-.03-.02-.05-.03l-.02-.02s-.03-.02-.04-.03c-.02-.02-.04-.04-.07-.06,0,0-.02-.02-.03-.03-.02-.02-.05-.05-.11-.09-.11-.08-.24-.08-.33-.08-.03,0-.07,0-.12.01,0,0,0-.01,0-.02-.05-.1-.08-.18-.1-.25-.03-.08-.05-.15-.08-.22-.03-.07-.06-.13-.09-.2-.03-.06-.07-.15-.12-.27-.08-.2-.27-.32-.49-.3-.11,0-.21.05-.3.12,0,0,0-.02-.01-.02-.01-.03-.03-.05-.03-.08-.02-.05-.04-.09-.06-.14-.03-.06-.07-.14-.13-.22-.05-.09-.1-.15-.15-.2l-.19-.21s-.03-.04-.08-.11v-.02c-.06-.07-.1-.12-.12-.16-.03-.04-.06-.08-.08-.12-.03-.04-.06-.08-.09-.12-.02-.03-.05-.07-.09-.13l-.02-.02c-.04-.05-.07-.1-.09-.13-.02-.05-.05-.09-.08-.13-.02-.03-.04-.06-.06-.1-.02-.05-.06-.11-.11-.2-.05-.08-.18-.21-.44-.21-.27,0-.39.16-.44.25-.05.08-.08.15-.1.21-.02.05-.04.1-.05.14-.01.04-.03.07-.04.11,0,0-.02.04-.07.13-.04.07-.07.13-.1.17-.03.05-.05.09-.08.13-.02.03-.04.07-.06.11-.03.05-.06.11-.11.2-.04.07-.07.12-.09.15-.02.04-.05.07-.07.11-.03.04-.06.09-.08.13-.03.05-.06.11-.1.19-.02.03-.04.06-.05.09-.1-.04-.22-.05-.33-.01-.17.05-.3.18-.35.36-.02.06-.03.11-.04.15-.07-.08-.19-.16-.39-.15-.24,0-.35.12-.4.21-.04.06-.07.11-.09.15-.02.04-.03.07-.05.11,0,.02-.02.04-.03.07,0,.02-.02.04-.05.07-.03.05-.06.08-.08.11-.02.03-.05.06-.07.09-.02.02-.03.05-.05.07-.02.02-.03.05-.05.07-.3.06-.58.2-.8.41-.06.05-.11.11-.16.16-.1.11-.2.22-.28.23-.04.01-.12,0-.22-.01-.97-.12-1.97,0-2.9.33-.77.28-1.16,1.08-1.9,1.41-.45.2-1.01.19-1.49.23-.63.05-1.26.07-1.89.07-.01,0-.02,0-.04,0v.7s.02,0,.03,0c.68,0,1.36-.02,2.04-.08Z" style="fill: #fff;"/>
</svg>