<?xml version="1.0" encoding="UTF-8"?>
<svg id="Capa_2" data-name="Capa 2" xmlns="http://www.w3.org/2000/svg" viewBox="0 0 190.1 64.48">
  <defs>
    <style>
      .cls-1 {
        fill: #fff;
      }
    </style>
  </defs>
  <g id="Capa_1-2" data-name="Capa 1">
    <g>
      <path class="cls-1" d="M165.21,24.88l-.14-.29c-.29-.48-.33-.99-.14-1.53.19-.54.54-.92,1.05-1.14,3.15-1.24,6.29-1.3,9.44-.19.22.1.41.18.57.24,2.07.73,4.15.73,6.25,0,.44-.16.88-.17,1.31-.02.43.14.75.41.98.79l.14.29c.29.51.33,1.03.12,1.55-.21.52-.58.9-1.12,1.12-1.46.54-2.97.81-4.53.81s-3.07-.27-4.53-.81c-.22-.1-.43-.17-.62-.24-.95-.35-1.97-.52-3.05-.52-1.18,0-2.3.22-3.38.67-.41.16-.84.18-1.29.05-.44-.13-.79-.38-1.05-.76"/>
      <path class="cls-1" d="M188.62,50.48c.41,0,.76.14,1.05.43.29.29.43.64.43,1.05v1c0,.41-.14.76-.43,1.05-.29.29-.64.43-1.05.43h-8.44c-.29,0-.54-.06-.76-.19-.22-.13-.4-.3-.52-.52-.13-.22-.19-.48-.19-.76v-1.52c0-.25.1-.48.29-.67.19-.19.41-.29.67-.29.35,0,.62-.15.81-.45.19-.3.21-.61.05-.93l-5.05-10.3c-.13-.25-.33-.38-.6-.38s-.47.13-.6.38l-5.05,10.3c-.16.32-.14.63.05.93.19.3.46.45.81.45.29,0,.52.1.72.29.19.19.29.41.29.67v1.52c0,.41-.15.76-.45,1.05-.3.29-.64.43-1.03.43h-8.49c-.41,0-.76-.14-1.05-.43-.29-.29-.43-.64-.43-1.05v-1c0-.25.06-.5.19-.74.13-.24.31-.42.55-.55.24-.13.48-.19.74-.19h2.05c.64,0,1.1-.29,1.38-.86l8.44-17.21c.38-.76,1.01-1.14,1.88-1.14s1.5.38,1.88,1.14l8.49,17.21c.25.57.7.86,1.33.86h2.05Z"/>
      <path class="cls-1" d="M136.82,50.38c.41,0,.76.14,1.05.43.29.29.43.64.43,1.05v1c0,.41-.14.76-.43,1.05-.29.29-.64.43-1.05.43h-8.49c-.41,0-.76-.14-1.05-.43-.29-.29-.43-.64-.43-1.05v-1c0-.41.14-.76.43-1.05.29-.29.64-.43,1.05-.43h.76c.41,0,.76-.15,1.05-.45.29-.3.43-.66.43-1.07v-22.41c0-.41-.14-.77-.43-1.07-.29-.3-.64-.45-1.05-.45h-.76c-.41,0-.76-.14-1.05-.43-.29-.29-.43-.64-.43-1.05v-1c0-.41.14-.76.43-1.05.29-.29.64-.43,1.05-.43h8.49c.41,0,.76.14,1.05.43.29.29.43.64.43,1.05v1c0,.41-.14.76-.43,1.05-.29.29-.64.43-1.05.43h-.67l11.77,18.74c.16.25.38.34.67.26.29-.08.43-.28.43-.6v-16.88c0-.41-.14-.77-.43-1.07-.29-.3-.64-.45-1.05-.45h-.76c-.41,0-.76-.14-1.05-.43-.29-.29-.43-.64-.43-1.05v-1c0-.41.14-.76.43-1.05.29-.29.64-.43,1.05-.43h8.49c.41,0,.76.14,1.05.43.29.29.43.64.43,1.05v1c0,.41-.14.76-.43,1.05-.29.29-.64.43-1.05.43h-.76c-.41,0-.76.15-1.05.45-.29.3-.43.66-.43,1.07v22.41c0,.41.14.77.43,1.07.29.3.64.45,1.05.45h.76c.41,0,.76.14,1.05.43.29.29.43.64.43,1.05v1c0,.41-.14.76-.43,1.05-.29.29-.64.43-1.05.43h-8.49c-.41,0-.76-.14-1.05-.43-.29-.29-.43-.64-.43-1.05v-1c0-.41.14-.76.43-1.05.29-.29.64-.43,1.05-.43h.67l-11.78-18.73c-.16-.25-.38-.34-.67-.26-.29.08-.43.28-.43.6v16.88c0,.41.14.77.43,1.07.29.3.64.45,1.05.45h.76Z"/>
      <path class="cls-1" d="M99.06,52.61l-.14-.29c-.29-.48-.33-.98-.14-1.52.19-.54.54-.92,1.05-1.14,3.15-1.24,6.29-1.3,9.44-.19.22.1.41.18.57.24,2.07.73,4.15.73,6.24,0,.44-.16.88-.17,1.31-.02.43.14.75.41.98.79l.14.29c.29.51.33,1.02.12,1.55-.21.52-.58.9-1.12,1.12-1.46.54-2.97.81-4.53.81s-3.07-.27-4.53-.81c-.22-.1-.43-.17-.62-.24-.95-.35-1.97-.52-3.05-.52-1.18,0-2.3.22-3.39.67-.41.16-.84.18-1.29.05-.44-.13-.79-.38-1.05-.76"/>
      <path class="cls-1" d="M122.47,39.62c.41,0,.76.14,1.05.43.29.29.43.64.43,1.05v1c0,.41-.14.76-.43,1.05-.29.29-.64.43-1.05.43h-8.44c-.29,0-.54-.06-.76-.19-.22-.13-.4-.3-.52-.52-.13-.22-.19-.48-.19-.76v-1.52c0-.25.1-.48.29-.67.19-.19.41-.29.67-.29.35,0,.62-.15.81-.45.19-.3.21-.61.05-.93l-5.05-10.3c-.13-.25-.33-.38-.6-.38s-.47.13-.6.38l-5.05,10.3c-.16.32-.14.63.05.93.19.3.46.45.81.45.29,0,.52.1.72.29.19.19.29.41.29.67v1.52c0,.41-.15.76-.45,1.05-.3.29-.64.43-1.03.43h-8.49c-.41,0-.76-.14-1.05-.43-.29-.29-.43-.64-.43-1.05v-1c0-.25.06-.5.19-.74.13-.24.31-.42.55-.55.24-.13.48-.19.74-.19h2.05c.64,0,1.1-.29,1.38-.86l8.44-17.21c.38-.76,1.01-1.14,1.88-1.14s1.5.38,1.88,1.14l8.49,17.21c.25.57.7.86,1.33.86h2.05Z"/>
      <path class="cls-1" d="M66.45,50.38c.41,0,.76.14,1.05.43.29.29.43.64.43,1.05v1c0,.41-.14.76-.43,1.05-.29.29-.64.43-1.05.43h-8.49c-.41,0-.76-.14-1.05-.43-.29-.29-.43-.64-.43-1.05v-1c0-.41.14-.76.43-1.05.29-.29.64-.43,1.05-.43h.76c.41,0,.76-.15,1.05-.45.29-.3.43-.64.43-1.02v-22.45c0-.41-.14-.77-.43-1.07-.29-.3-.64-.45-1.05-.45h-.76c-.41,0-.76-.14-1.05-.43-.29-.29-.43-.64-.43-1.05v-1c0-.41.14-.76.43-1.05.29-.29.64-.43,1.05-.43h9.06c.25,0,.47.09.64.26.17.18.26.39.26.64v2.19c0,.22-.09.42-.26.6-.18.18-.39.26-.64.26-.35,0-.61.15-.79.45-.18.3-.17.6.02.88l7.25,13.54h.05l7.29-13.54c.16-.29.15-.58-.02-.88-.17-.3-.44-.45-.79-.45-.22,0-.42-.09-.6-.26-.18-.17-.26-.37-.26-.6v-2.19c0-.25.09-.47.26-.64.17-.17.37-.26.6-.26h9.06c.41,0,.76.14,1.05.43.29.29.43.64.43,1.05v1c0,.41-.14.76-.43,1.05-.29.29-.64.43-1.05.43h-.76c-.41,0-.76.15-1.05.45-.29.3-.43.66-.43,1.07v22.41c0,.41.14.77.43,1.07.29.3.63.45,1.05.45h.76c.41,0,.76.14,1.05.43.29.29.43.64.43,1.05v1c0,.41-.14.76-.43,1.05-.29.29-.64.43-1.05.43h-8.44c-.41,0-.76-.14-1.05-.43-.29-.29-.43-.64-.43-1.05v-1c0-.41.14-.76.43-1.05.29-.29.64-.43,1.05-.43h.76c.41,0,.76-.15,1.05-.45.29-.3.43-.66.43-1.07v-15.59c0-.32-.16-.52-.48-.6-.32-.08-.54.02-.67.31l-6.1,11.3c-.45.86-1.14,1.29-2.1,1.29s-1.67-.43-2.15-1.29l-6.05-11.3c-.16-.29-.39-.39-.69-.31-.3.08-.45.28-.45.6v15.59c0,.41.14.77.43,1.07.29.3.64.45,1.05.45h.76Z"/>
      <path class="cls-1" d="M28.7,24.88l-.14-.29c-.29-.48-.33-.99-.14-1.53.19-.54.54-.92,1.05-1.14,3.15-1.24,6.29-1.3,9.44-.19.22.1.41.18.57.24,2.07.73,4.15.73,6.25,0,.44-.16.88-.17,1.31-.02.43.14.75.41.98.79l.14.29c.29.51.33,1.03.12,1.55-.21.52-.58.9-1.12,1.12-1.46.54-2.97.81-4.53.81s-3.07-.27-4.53-.81c-.22-.1-.43-.17-.62-.24-.95-.35-1.97-.52-3.05-.52-1.18,0-2.3.22-3.38.67-.41.16-.84.18-1.29.05-.44-.13-.79-.38-1.05-.76"/>
      <path class="cls-1" d="M52.1,50.48c.41,0,.76.14,1.05.43.29.29.43.64.43,1.05v1c0,.41-.14.76-.43,1.05-.29.29-.64.43-1.05.43h-8.44c-.29,0-.54-.06-.76-.19-.22-.13-.4-.3-.52-.52-.13-.22-.19-.48-.19-.76v-1.52c0-.25.1-.48.29-.67.19-.19.41-.29.67-.29.35,0,.62-.15.81-.45.19-.3.21-.61.05-.93l-5.05-10.3c-.13-.25-.33-.38-.6-.38s-.47.13-.6.38l-5.05,10.3c-.16.32-.14.63.05.93.19.3.46.45.81.45.29,0,.52.1.72.29.19.19.29.41.29.67v1.52c0,.41-.15.76-.45,1.05-.3.29-.64.43-1.02.43h-8.49c-.41,0-.76-.14-1.05-.43-.29-.29-.43-.64-.43-1.05v-1c0-.25.06-.5.19-.74.13-.24.31-.42.55-.55.24-.13.48-.19.74-.19h2.05c.64,0,1.1-.29,1.38-.86l8.44-17.21c.38-.76,1.01-1.14,1.88-1.14s1.5.38,1.88,1.14l8.49,17.21c.25.57.7.86,1.33.86h2.05Z"/>
      <path class="cls-1" d="M10.63,34.99c.86.32,1.5.57,1.93.76.43.19,1.04.48,1.84.86.79.38,1.41.74,1.86,1.07.45.33.95.77,1.53,1.31.57.54,1.01,1.09,1.31,1.65.3.56.56,1.22.79,2,.22.78.33,1.61.33,2.5,0,2.61-.93,4.79-2.79,6.55-1.86,1.76-4.19,2.65-6.98,2.65-2.35,0-4.51-.81-6.48-2.43v.24c0,.41-.14.77-.43,1.07-.29.3-.64.45-1.05.45h-1c-.41,0-.76-.15-1.05-.45C.14,52.92,0,52.56,0,52.15v-6.72c0-.41.14-.77.43-1.07.29-.3.64-.45,1.05-.45h1.19c.25,0,.48.06.67.17.19.11.36.25.5.43.14.18.23.37.26.6.35,1.4,1.14,2.63,2.38,3.69,1.24,1.07,2.56,1.6,3.96,1.6,1.56,0,2.91-.47,4.08-1.41,1.16-.94,1.74-2.22,1.74-3.84,0-.86-.14-1.6-.43-2.22-.29-.62-.79-1.18-1.5-1.69-.71-.51-1.42-.93-2.12-1.26-.7-.33-1.7-.77-3-1.31-.8-.29-1.41-.52-1.84-.69-.43-.17-1.02-.45-1.76-.84-.75-.38-1.34-.72-1.76-1.02-.43-.3-.92-.71-1.48-1.22-.56-.51-.99-1.03-1.29-1.57-.3-.54-.56-1.17-.76-1.88C.1,30.72,0,29.95,0,29.12,0,26.55.91,24.44,2.74,22.8c1.83-1.64,4.19-2.46,7.08-2.46,2.13,0,4.07.64,5.82,1.91v-.43c0-.41.14-.77.43-1.07.29-.3.64-.45,1.05-.45h1c.41,0,.76.15,1.05.45.29.3.43.66.43,1.07v6.82c0,.41-.14.76-.43,1.05-.29.29-.64.43-1.05.43h-1.1c-.19,0-.37-.02-.52-.07-.16-.05-.31-.13-.45-.24-.14-.11-.26-.24-.36-.38-.1-.14-.16-.29-.19-.45-.16-.89-.52-1.68-1.07-2.38-.56-.7-1.24-1.26-2.05-1.67-.81-.41-1.66-.62-2.55-.62-.99,0-1.9.14-2.74.43-.84.29-1.57.81-2.19,1.57-.62.76-.93,1.7-.93,2.81,0,1.4.51,2.49,1.52,3.27,1.02.78,2.73,1.64,5.15,2.6"/>
      <path class="cls-1" d="M80.06,63.64c.14.02.28.02.41.02.15,0,.31-.01.45-.03.28-.04.55-.11.79-.22.25-.11.47-.25.66-.43.19-.17.33-.39.44-.65.11-.26.16-.55.16-.87,0-.34-.06-.66-.19-.95-.13-.29-.31-.53-.55-.73-.24-.21-.55-.36-.92-.44-.23-.05-.47-.08-.73-.08-.17,0-.34.01-.52.03v4.35ZM79.19,64.36v-5.79c.41-.06.8-.09,1.16-.1h.06c.34,0,.65.02.92.07.28.05.55.12.78.21.24.1.45.21.62.33.18.13.33.26.47.42.14.15.25.31.34.47.09.16.16.33.22.5.06.18.1.34.12.5.02.16.04.32.04.48s-.01.31-.04.46c-.03.15-.07.32-.12.49-.06.17-.13.34-.22.5-.09.16-.21.31-.34.47-.14.16-.3.3-.48.42-.18.12-.39.23-.62.33-.23.1-.5.18-.79.22-.29.05-.61.08-.96.08h-.13c-.31,0-.66-.03-1.02-.08"/>
      <path class="cls-1" d="M87.38,60.54c-.11.28-.17.59-.17.92s.06.63.17.91c.11.28.27.52.46.71.19.19.41.34.67.45.26.11.53.16.81.16s.55-.05.81-.16c.26-.11.48-.26.67-.45.19-.19.35-.43.46-.71.11-.28.17-.59.17-.91s-.06-.63-.17-.92c-.11-.28-.27-.52-.46-.72-.19-.2-.42-.35-.67-.46-.26-.11-.53-.17-.81-.17s-.55.05-.81.17c-.26.11-.48.26-.67.46-.19.2-.34.43-.46.72M86.27,61.46c0-.42.08-.81.23-1.18.15-.37.36-.69.63-.96.27-.27.59-.49.97-.64.38-.16.79-.24,1.22-.24s.84.08,1.22.24c.38.16.7.37.97.64.27.27.48.59.63.96.15.37.23.77.23,1.18s-.08.81-.23,1.18c-.15.37-.36.69-.63.96-.27.27-.59.48-.97.64-.38.16-.79.24-1.22.24-.58,0-1.1-.13-1.57-.4-.47-.27-.83-.63-1.09-1.09s-.39-.97-.39-1.52"/>
      <polygon class="cls-1" points="94.97 64.36 94.97 58.52 95.11 58.48 97.44 60.77 99.77 58.48 99.91 58.52 99.91 64.36 99.04 64.36 99.04 60.34 97.48 61.9 97.39 61.9 95.84 60.34 95.84 64.36 94.97 64.36"/>
      <rect class="cls-1" x="102.88" y="58.55" width=".87" height="5.82"/>
      <polygon class="cls-1" points="106.73 64.36 106.73 58.53 106.84 58.48 110.1 60.83 110.1 58.55 110.94 58.55 110.94 64.36 110.1 64.36 110.1 61.86 107.57 60.06 107.57 64.36 106.73 64.36"/>
      <rect class="cls-1" x="113.92" y="58.55" width=".87" height="5.82"/>
      <path class="cls-1" d="M117.38,61.44c0-.44.08-.86.25-1.24.17-.38.39-.7.67-.96.28-.26.6-.46.98-.6.37-.14.76-.22,1.16-.22.84,0,1.58.28,2.21.85l-.52.62c-.21-.19-.45-.36-.74-.5-.28-.14-.6-.21-.94-.21-.39,0-.75.1-1.08.3-.33.2-.59.47-.77.81-.19.34-.28.72-.28,1.13s.09.78.27,1.12c.18.34.44.62.77.82.33.21.71.31,1.12.31.32,0,.63-.06.93-.19.3-.13.55-.28.76-.47l.51.58c-.12.12-.25.23-.37.31-.12.09-.28.18-.46.27-.18.09-.4.16-.65.21-.25.05-.52.07-.82.07-.42,0-.82-.08-1.2-.23-.37-.16-.69-.37-.96-.64-.27-.27-.47-.59-.63-.97-.15-.37-.23-.77-.23-1.2"/>
      <path class="cls-1" d="M126.44,62.46h1.9l-.95-2.21-.96,2.21ZM124.64,64.36l2.71-5.88h.11l2.68,5.88h-.96l-.52-1.17h-2.52l-.52,1.17h-.97Z"/>
      <polygon class="cls-1" points="132.48 64.36 132.48 58.53 132.6 58.48 135.85 60.83 135.85 58.55 136.7 58.55 136.7 64.36 135.85 64.36 135.85 61.86 133.33 60.06 133.33 64.36 132.48 64.36"/>
      <path class="cls-1" d="M144.19,61.68c.11.01.22.02.32.02.4,0,.72-.09.98-.28.32-.24.48-.57.48-.99,0-.19-.04-.36-.11-.52-.08-.16-.19-.29-.34-.4-.15-.11-.34-.19-.56-.23-.1-.02-.22-.03-.34-.03-.14,0-.28.01-.44.04v2.39ZM143.32,64.36v-5.77c.42-.08.81-.12,1.15-.12.28,0,.54.02.77.08.52.12.92.34,1.2.67.28.33.42.73.42,1.22,0,.33-.08.65-.24.95-.16.3-.4.55-.71.74l1.61,2.25h-1.1l-1.32-1.95c-.19.04-.39.06-.59.06-.11,0-.22,0-.33-.02v1.9h-.87Z"/>
      <polygon class="cls-1" points="149.89 64.36 149.89 58.55 153.1 58.55 153.1 59.29 150.76 59.29 150.76 60.71 152.65 60.71 152.65 61.45 150.76 61.45 150.76 63.62 153.21 63.62 153.21 64.36 149.89 64.36"/>
      <path class="cls-1" d="M156.85,61.89c.09,0,.18.01.26.01.45,0,.81-.11,1.08-.34.32-.26.48-.62.48-1.05,0-.41-.16-.73-.49-.98-.25-.19-.55-.28-.92-.28-.13,0-.26.01-.41.03v2.6ZM155.99,64.36v-5.77c.39-.08.76-.12,1.1-.12.28,0,.54.03.79.08.53.12.95.35,1.25.7.3.35.45.77.45,1.26,0,.35-.07.66-.21.94-.14.28-.34.51-.58.69-.25.18-.54.32-.86.41-.27.08-.56.11-.86.11-.06,0-.13,0-.19,0v1.69h-.87Z"/>
      <path class="cls-1" d="M162.07,62.33v-3.79h.87v3.75c0,.4.12.74.35,1.01.23.27.54.41.91.41s.68-.14.92-.41c.24-.27.36-.61.36-1.01v-3.75h.87v3.79c0,.28-.05.55-.14.8-.09.25-.22.48-.39.68-.17.2-.4.36-.68.48-.28.12-.6.18-.95.18s-.67-.06-.94-.18c-.28-.12-.5-.28-.67-.48-.17-.2-.3-.43-.38-.68-.09-.25-.13-.52-.13-.8"/>
      <path class="cls-1" d="M170.15,63.62c.16.02.34.03.54.03s.4-.02.57-.06c.17-.04.33-.1.48-.18.14-.08.26-.19.34-.34.08-.14.12-.31.12-.5,0-.17-.03-.32-.08-.45-.06-.13-.12-.23-.21-.3-.08-.07-.18-.13-.3-.17-.12-.04-.22-.07-.32-.09-.1-.01-.21-.02-.32-.02h-.82v2.06ZM170.15,60.88h.81c.19-.02.35-.12.49-.27.13-.16.2-.34.2-.55,0-.16-.03-.3-.09-.41-.06-.11-.15-.2-.25-.26-.11-.06-.22-.1-.34-.13-.12-.03-.24-.04-.38-.04-.18,0-.32.01-.43.03v1.64ZM169.28,64.35v-5.78c.43-.07.81-.1,1.13-.1.22,0,.43.01.63.04.2.03.39.08.57.15.19.07.34.16.47.27.13.11.23.26.31.43.08.18.12.38.12.61,0,.25-.06.48-.18.68-.12.2-.25.35-.4.44.15.03.29.09.42.16.13.07.26.17.37.29.11.12.2.26.27.44.07.18.1.37.1.58,0,.61-.23,1.07-.67,1.39-.45.32-1.07.47-1.87.47-.44,0-.87-.03-1.27-.08"/>
      <polygon class="cls-1" points="175.58 64.36 175.58 58.55 176.45 58.55 176.45 63.62 178.72 63.62 178.72 64.36 175.58 64.36"/>
      <rect class="cls-1" x="181.3" y="58.55" width=".87" height="5.82"/>
      <path class="cls-1" d="M184.75,61.44c0-.44.08-.86.25-1.24.16-.38.39-.7.67-.96.28-.26.6-.46.98-.6.37-.14.76-.22,1.16-.22.84,0,1.58.28,2.21.85l-.52.62c-.21-.19-.45-.36-.74-.5-.28-.14-.6-.21-.94-.21-.39,0-.75.1-1.08.3-.33.2-.59.47-.77.81-.19.34-.28.72-.28,1.13s.09.78.27,1.12c.18.34.44.62.77.82.33.21.71.31,1.12.31.32,0,.63-.06.93-.19.3-.13.55-.28.76-.47l.51.58c-.12.12-.25.23-.37.31-.12.09-.28.18-.46.27-.18.09-.4.16-.65.21-.25.05-.52.07-.82.07-.42,0-.82-.08-1.2-.23-.37-.16-.69-.37-.96-.64-.27-.27-.47-.59-.63-.97-.15-.37-.23-.77-.23-1.2"/>
      <path class="cls-1" d="M14.41,5.06c-.27.68-.41,1.41-.41,2.2s.13,1.52.41,2.19c.27.67.64,1.24,1.1,1.7.46.46.99.82,1.61,1.08.61.26,1.26.39,1.95.39s1.33-.13,1.94-.39c.62-.26,1.16-.62,1.62-1.08.46-.46.83-1.02,1.11-1.7.27-.68.41-1.41.41-2.19s-.14-1.51-.41-2.19c-.27-.68-.64-1.25-1.11-1.73-.46-.47-1-.83-1.62-1.1-.62-.27-1.26-.4-1.94-.4s-1.33.13-1.94.4c-.62.26-1.15.63-1.61,1.1-.46.47-.82,1.04-1.1,1.72M11.76,7.25c0-1,.18-1.95.55-2.84.36-.89.86-1.66,1.5-2.31.64-.65,1.41-1.16,2.32-1.54.91-.38,1.88-.57,2.93-.57s2.02.19,2.93.57c.91.38,1.69.89,2.33,1.54.64.65,1.14,1.42,1.51,2.31.37.89.55,1.84.55,2.84s-.18,1.94-.55,2.83c-.37.89-.87,1.66-1.51,2.3-.64.65-1.41,1.16-2.33,1.54-.91.38-1.89.57-2.93.57-1.39,0-2.64-.32-3.76-.96-1.12-.64-1.99-1.52-2.61-2.62-.62-1.1-.93-2.32-.93-3.65"/>
      <path class="cls-1" d="M31.65,7.79c.27.03.53.05.77.05.95,0,1.73-.22,2.34-.67.78-.57,1.16-1.36,1.15-2.37,0-.46-.09-.87-.27-1.25-.18-.38-.45-.7-.8-.97-.36-.27-.81-.45-1.34-.55-.25-.05-.52-.07-.8-.07-.32,0-.67.03-1.05.09v5.74ZM29.57,14.21V.37c1.01-.19,1.93-.29,2.76-.29.68,0,1.29.05,1.85.18,1.25.28,2.21.82,2.88,1.6.67.78,1,1.75,1,2.91,0,.8-.19,1.55-.58,2.27-.39.72-.95,1.31-1.7,1.76l3.87,5.39h-2.63l-3.16-4.66c-.45.09-.93.13-1.41.13-.26,0-.52-.01-.78-.04v4.56h-2.08Z"/>
      <path class="cls-1" d="M2.08,8.29c.21.02.42.03.62.03,1.08,0,1.94-.27,2.59-.81.76-.63,1.15-1.47,1.15-2.52,0-.97-.39-1.75-1.18-2.35-.59-.45-1.32-.67-2.21-.67-.3,0-.63.03-.97.08v6.24ZM0,14.21V.38C.94.19,1.82.1,2.63.1c.67,0,1.3.06,1.88.2,1.28.28,2.27.84,2.99,1.68.72.84,1.08,1.84,1.08,3.02,0,.83-.17,1.58-.51,2.26-.34.68-.81,1.23-1.39,1.66-.59.44-1.28.77-2.07.99-.65.18-1.34.27-2.06.26-.16,0-.31,0-.47,0v4.05H0Z"/>
      <polygon class="cls-1" points="53.62 .07 48.19 .07 46.1 .07 40.67 .07 40.67 1.85 46.1 1.85 46.1 14.21 46.11 14.21 48.18 14.21 48.19 14.21 48.19 1.85 53.62 1.85 53.62 .07"/>
    </g>
  </g>
</svg>