<svg version="1.2" xmlns="http://www.w3.org/2000/svg" viewBox="0 0 287 111" width="287" height="111">
	<title>file</title>
	<style>
		.s0 { fill: #ffffff } 
	</style>
	<g id="Capa_1-2">
		<path class="s0" d="m187.83 31.55c0.97 0.97 2.56 0.97 3.53 0l3.77-3.77c0.97-0.97 0.97-2.56 0-3.53l-4.12-4.12c-0.79-0.79-2.06-0.79-2.85 0l-4.12 4.12c-0.97 0.97-0.97 2.56 0 3.53l3.77 3.77z"/>
		<path class="s0" d="m258.5 45.84c-1.14 0.49-2.37 0.88-3.62 1.19-1.86 0.46-3.78 0.66-5.7 0.66h-0.11c-10.81 0-14.81 4.69-14.81 11.44 0 7.25 5.06 10.87 11.87 10.87 4.81 0 8.6-1.79 11.28-4.48l0.23-0.22c1.36-1.36 3.84 1.56 3.58 3.47-0.16 1.14 0.8 2.13 1.95 2.13h8.58c2.02 0 3.29-2.21 2.24-3.94q-0.03-0.04-0.06-0.1c-2.16-3.51-3.17-9.45-2.73-13.55l0.93-8.49c1.6-10.56-5.31-16.81-18.12-16.81-10.89 0-17.34 4.72-19.19 14.1-0.21 1.06 0.5 2.08 1.57 2.24l9.12 1.35q0.05-1.81 0.2-3.45c0.32-3.53 3.32-6.23 6.86-6.23 4.27 0 6.77 1.79 7.9 5.41v0.03c0.55 1.76-0.29 3.67-1.98 4.4zm2.69 8.42c0 0 0 0.08 0 0.1 0 0.42-0.14 0.83-0.4 1.16-3.24 4.12-6.51 5.8-10.41 5.8-3.13 0-5.19-1.44-5.19-4.44v-0.1c0-1.68 1.24-3.08 2.9-3.37 2.72-0.47 4.99-1.45 6.9-2.5 2.67-1.46 6.01 0.31 6.2 3.35z"/>
		<path class="s0" d="m183.93 68.32c0 0.72 0.57 1.3 1.29 1.29l10.08-0.11c0 0-0.22-13.79-0.22-19.99 0-6.2 0.05-6.98 0.2-13.7 0.03-1.1-0.89-1.93-1.99-1.93-1.1 0-1.52 0.27-1.99 0.59h-0.01c-2.17 1.58-4.99 0.26-6.5-0.41-0.42-0.18-0.89 0.14-0.88 0.6 0.22 8.32 0.18 26.7 0.03 32.61 0 0 0 1.05-0.01 1.05z"/>
		<path class="s0" d="m229.79 69.5v-2.12c0 0-0.22-37.21-0.1-44.58 0.02-1.1-0.91-1.98-2-1.91l-9.46 0.62c0.07 4.06 0.14 45.79 0.14 45.79v0.92c0 0.7 0.57 1.27 1.28 1.27h10.15z"/>
		<path class="s0" d="m201.21 68.23c0 0.7 0.57 1.27 1.28 1.27h10.15v-2.12c0 0-0.22-37.21-0.1-44.58 0.02-1.1-0.91-1.98-2-1.91l-9.46 0.62c0.07 4.06 0.14 45.79 0.14 45.79v0.92z"/>
		<path class="s0" d="m178.57 22.8c0.01-1.1-0.91-1.98-2-1.91l-9.46 0.62c0.07 4.06 0.14 45.79 0.14 45.79v0.92c0 0.7 0.57 1.27 1.28 1.27h10.15v-2.12c0 0-0.22-37.21-0.1-44.58z"/>
		<path class="s0" d="m136.97 52.35c5.61-2.27 12.52-3.38 17.43-3.91l8.05-0.62c-0.19-13.12-7.31-19.69-19.19-19.69-11.88 0-19.75 7.12-19.75 20.87 0 5.86 1.32 10.52 3.81 13.93q0.02 0.03 0.02 0.03c3.34 4.58 8.77 6.92 15.93 6.92 10.17 0 16.77-4.48 18.6-14.3 0.23-1.21-0.71-2.32-1.93-2.32h-3.98c-2.53 0-4.68 1.86-5.03 4.36v0.07c-0.36 2.47-2.48 4.3-4.97 4.31h-2.12c-4.63 0-7.3-2.1-8.42-6.54-0.33-1.29 0.34-2.61 1.57-3.11zm-2.16-7.97q0 0 0-0.01c-0.09-3.82 2.76-6.74 6.16-7.78 2.83-0.86 6.04-0.41 8.24 1.92 0.78 0.83 1.29 1.86 1.51 2.97 0.25 1.22-0.38 2.42-1.62 2.52-3.55 0.66-7.64 1.95-10.52 2.94-1.79 0.62-3.7-0.66-3.77-2.56z"/>
		<path class="s0" d="m104.22 29.73q1.56-1.11 3.29-2.03c0.12-0.06 0.2-0.19 0.2-0.32v-5.57c0-0.2 0.17-0.37 0.37-0.37h2.73q1.92 0 3.27-0.62 1.35-0.61 2.06-1.78 0.72-1.15 0.71-2.82 0-1.66-0.71-2.82-0.71-1.15-2.06-1.78-1.35-0.62-3.27-0.62l-6.81 0.02c-0.2 0-0.37 0.17-0.37 0.37v18.04c0 0.3 0.34 0.47 0.59 0.3zm3.49-15.67h2.46q1.29 0 1.93 0.53 0.65 0.53 0.65 1.63 0 1.09-0.65 1.63-0.65 0.54-1.93 0.53h-2.46z"/>
		<path class="s0" d="m121.19 26.15q1.42 0.72 3.25 0.72c1.22 0 2.34-0.24 3.28-0.72q1.41-0.72 2.2-2.11 0.79-1.38 0.79-3.33-0.01-1.94-0.79-3.33-0.79-1.38-2.2-2.11-1.41-0.72-3.28-0.72c-1.25 0-2.3 0.24-3.25 0.72q-1.43 0.72-2.22 2.11-0.79 1.38-0.79 3.33 0 1.94 0.79 3.33 0.79 1.39 2.22 2.11zm1.31-7.33q0.26-0.73 0.76-1.07 0.5-0.33 1.18-0.33c0.45 0 0.88 0.11 1.21 0.33q0.49 0.33 0.76 1.07 0.26 0.73 0.26 1.9 0 1.16-0.26 1.88-0.26 0.72-0.76 1.07-0.49 0.34-1.21 0.34c-0.48 0-0.85-0.11-1.18-0.34q-0.49-0.34-0.76-1.07-0.26-0.72-0.26-1.88 0-1.16 0.26-1.9z"/>
		<path class="s0" d="m133.5 26.81q1.53-0.58 3.23-0.97c0.17-0.04 0.29-0.19 0.29-0.36v-4.82q0.01-0.93 0.37-1.53 0.37-0.6 0.98-0.91 0.61-0.31 1.33-0.31 0.51 0 0.89 0.06 0.36 0.06 0.61 0.15l0.4-3.31q-0.19-0.12-0.51-0.19-0.32-0.07-0.77-0.07-1.38 0-2.26 0.73-0.89 0.74-1.34 2.06l-0.17-2.56h-3.55v11.68c0 0.26 0.26 0.44 0.5 0.35z"/>
		<g>
			<path class="s0" d="m131.63 84.79q-0.66 0.52-1.61 0.52-1 0-1.69-0.45-0.67-0.46-1.02-1.36-0.34-0.91-0.34-2.23 0-1.33 0.37-2.24 0.36-0.9 1.05-1.35 0.68-0.45 1.61-0.45 0.94 0 1.57 0.45 0.61 0.45 0.9 1.68l2.98-1.2q-0.33-1.25-1.12-2.03-0.79-0.79-1.93-1.17-1.14-0.38-2.51-0.38-1.95 0-3.39 0.8-1.44 0.8-2.21 2.3-0.77 1.5-0.77 3.61 0 2.11 0.77 3.61 0.77 1.5 2.21 2.3 1.44 0.8 3.41 0.8 1.38 0 2.52-0.4 1.14-0.41 1.97-1.28 0.82-0.88 1.2-2.24l-3.08-0.87q-0.24 1.08-0.9 1.61z"/>
			<path class="s0" d="m138.94 73.55q-1.02 0-1.49 0.38-0.46 0.39-0.46 1.23 0 0.84 0.46 1.21 0.47 0.39 1.49 0.39 1.01 0 1.48-0.39 0.47-0.39 0.47-1.21 0-0.84-0.47-1.23-0.48-0.39-1.48-0.38z"/>
			<path fill-rule="evenodd" class="s0" d="m137.26 77.91h3.35v9.87h-3.35z"/>
			<path class="s0" d="m149.25 85.48q-0.34 0.11-0.82 0.11-0.62 0-0.96-0.31-0.35-0.3-0.35-1.02v-3.97h2.94v-2.39h-2.94v-3.14l-3.35 0.93v2.21h-1.7v2.39h1.7v4.52q0.02 1.14 0.46 1.83 0.45 0.69 1.26 1.01 0.82 0.32 1.94 0.32 0.79 0 1.54-0.2 0.75-0.2 1.24-0.55l-0.35-2.07q-0.27 0.22-0.61 0.33z"/>
			<path class="s0" d="m156.7 83.46l-0.55 2.17-0.47-2.09-1.52-5.62h-3.69l2.96 7.4 1.14 2.68-0.26 0.61q-0.21 0.55-0.58 0.75-0.37 0.2-0.94 0.2-0.61 0-1.01-0.11-0.39-0.1-0.75-0.37l-0.67 2.27q0.51 0.31 1.2 0.49 0.69 0.18 1.52 0.18 1.25 0 2.13-0.41 0.88-0.41 1.54-1.34 0.64-0.93 1.2-2.49l3.59-9.87h-3.33l-1.52 5.54z"/>
			<path class="s0" d="m175.37 78.32q-1.17-0.6-2.73-0.6c-1.04 0-1.91 0.2-2.7 0.6q-1.18 0.6-1.84 1.76-0.66 1.15-0.66 2.77 0 1.62 0.66 2.77 0.67 1.16 1.84 1.76 1.19 0.6 2.7 0.6c1.01 0 1.95-0.2 2.73-0.6q1.17-0.6 1.84-1.76 0.66-1.15 0.66-2.77 0-1.62-0.66-2.77-0.66-1.15-1.84-1.76zm-1.09 6.09q-0.21 0.6-0.63 0.89-0.41 0.29-1.01 0.29-0.58 0-0.99-0.29-0.42-0.29-0.63-0.89-0.21-0.6-0.22-1.57 0-0.97 0.22-1.58 0.21-0.61 0.63-0.89 0.42-0.27 0.99-0.28 0.58 0 1.01 0.28 0.42 0.27 0.63 0.89 0.22 0.61 0.22 1.58 0 0.97-0.22 1.57z"/>
			<path class="s0" d="m183.95 76.12q0.44-0.32 1.13-0.32 0.42 0 0.69 0.08 0.27 0.08 0.49 0.22l0.33-2.09q-0.3-0.21-0.91-0.38-0.61-0.17-1.42-0.17-0.8 0-1.5 0.2-0.71 0.19-1.26 0.63-0.56 0.44-0.86 1.1-0.3 0.67-0.31 1.62v0.91h-1.58v2.39h1.58v7.48h3.35v-7.48h2.8v-2.39h-3v-0.69q0-0.79 0.44-1.1z"/>
			<path class="s0" d="m201 84.79q-0.66 0.52-1.61 0.52-1 0-1.69-0.45-0.67-0.46-1.02-1.36-0.34-0.91-0.34-2.23 0-1.33 0.37-2.24 0.36-0.9 1.05-1.35 0.68-0.45 1.61-0.45 0.94 0 1.57 0.45 0.62 0.45 0.9 1.68l2.98-1.2q-0.34-1.25-1.12-2.03-0.79-0.79-1.93-1.17-1.14-0.38-2.51-0.38-1.95 0-3.39 0.8-1.44 0.8-2.21 2.3-0.77 1.5-0.77 3.61 0 2.11 0.77 3.61 0.77 1.5 2.21 2.3 1.44 0.8 3.41 0.8 1.38 0 2.52-0.4 1.14-0.41 1.97-1.28 0.82-0.88 1.2-2.24l-3.08-0.87q-0.24 1.08-0.9 1.61z"/>
			<path class="s0" d="m213.09 83.2q0 0.57-0.13 1-0.13 0.42-0.37 0.69-0.24 0.27-0.55 0.39-0.31 0.13-0.67 0.13-0.69-0.01-1.07-0.37-0.37-0.38-0.37-1.32v-5.8h-3.35v6.59q0.01 1.24 0.43 2.01 0.44 0.76 1.19 1.12 0.76 0.35 1.77 0.35 1.21 0 2.05-0.5 0.86-0.5 1.32-1.55l0.1 1.85h3v-9.87h-3.35v5.29z"/>
			<path class="s0" d="m223.11 85.63q-0.51 0-0.73-0.28-0.21-0.27-0.22-0.93v-10.69h-3.35v11.13q0 1.65 0.71 2.39 0.71 0.73 2.29 0.73 0.55 0 1.12-0.14 0.57-0.14 0.93-0.36l0.22-2.01q-0.27 0.07-0.47 0.12-0.2 0.04-0.49 0.04z"/>
			<path class="s0" d="m231.21 85.48q-0.34 0.11-0.82 0.11-0.61 0-0.96-0.31-0.35-0.3-0.35-1.02v-3.97h2.94v-2.39h-2.94v-3.14l-3.35 0.93v2.21h-1.7v2.39h1.7v4.52q0.02 1.14 0.46 1.83 0.45 0.69 1.26 1.01 0.82 0.32 1.94 0.32 0.79 0 1.54-0.2 0.75-0.2 1.24-0.55l-0.35-2.07q-0.27 0.22-0.61 0.33z"/>
			<path class="s0" d="m243.39 77.91h-3.35v5.29q0 0.57-0.13 1-0.13 0.42-0.37 0.69-0.24 0.27-0.55 0.39-0.31 0.13-0.67 0.13-0.69 0-1.07-0.37-0.37-0.38-0.37-1.32v-5.8h-3.35v6.59q0.01 1.24 0.43 2.01 0.44 0.76 1.19 1.12 0.77 0.35 1.77 0.35 1.21 0 2.05-0.5 0.86-0.5 1.32-1.55l0.1 1.85h3v-9.87z"/>
			<path class="s0" d="m252.12 80.57q0.3 0.05 0.5 0.13l0.34-2.76q-0.17-0.1-0.42-0.16-0.27-0.06-0.64-0.06-1.14 0-1.88 0.61-0.73 0.61-1.11 1.72l-0.14-2.13h-2.96v9.87h3.35v-4.97q0-0.77 0.31-1.27 0.3-0.51 0.82-0.76 0.51-0.26 1.1-0.26 0.44 0 0.74 0.05z"/>
			<path class="s0" d="m263.69 83.1q0.02-0.35 0.02-0.71 0-1.36-0.57-2.42-0.57-1.06-1.67-1.66-1.1-0.6-2.65-0.6-1.53 0-2.69 0.61-1.17 0.61-1.82 1.76-0.65 1.14-0.65 2.76 0 1.62 0.65 2.76 0.65 1.14 1.84 1.76 1.2 0.61 2.83 0.61 1.03 0 1.96-0.3 0.93-0.3 1.62-0.88 0.68-0.58 0.96-1.43l-2.68-0.89q-0.22 0.53-0.66 0.83-0.44 0.3-1.19 0.3-0.67 0-1.14-0.27-0.48-0.27-0.73-0.87-0.14-0.34-0.2-0.78h6.73q0.05-0.24 0.06-0.59zm-6.76-1.2q0.06-0.33 0.14-0.61 0.22-0.63 0.67-0.93 0.44-0.3 1.08-0.3 0.89 0 1.31 0.63 0.3 0.46 0.39 1.2h-3.59z"/>
			<path class="s0" d="m270.6 85.55q-0.39 0.18-1.01 0.18-1.01 0-1.82-0.42-0.82-0.43-1.31-1.06l-1.58 1.85q0.83 0.91 2.1 1.39 1.28 0.48 2.75 0.48 1.56 0 2.59-0.44 1.03-0.45 1.54-1.21 0.51-0.76 0.51-1.74 0-1.02-0.67-1.76-0.68-0.73-2.19-1.01l-1.8-0.35q-0.67-0.13-0.92-0.33-0.25-0.18-0.25-0.44 0-0.24 0.16-0.39 0.16-0.16 0.48-0.25 0.32-0.09 0.8-0.09 0.75 0 1.5 0.34 0.75 0.33 1.22 0.93l1.6-1.82q-0.67-0.82-1.82-1.26-1.14-0.43-2.64-0.43-1.6 0-2.62 0.46-1.02 0.47-1.52 1.2-0.49 0.74-0.49 1.55 0 1.2 0.78 1.94 0.78 0.73 2.63 1.11l1.38 0.28q0.59 0.12 0.79 0.29 0.2 0.17 0.2 0.44 0 0.37-0.39 0.56z"/>
		</g>
		<g>
			<path class="s0" d="m245.66 91.73q0.27-0.09 0.71-0.09 0.75 0 1.33 0.27 0.58 0.26 1.09 0.8l0.98-1.31q-0.61-0.65-1.45-0.99-0.84-0.34-1.92-0.34c-0.72 0-1.3 0.11-1.81 0.33q-0.75 0.33-1.16 0.9-0.4 0.57-0.4 1.31 0 0.65 0.3 1.08 0.3 0.43 0.81 0.69 0.51 0.26 1.18 0.41l1.44 0.32q0.5 0.12 0.67 0.29 0.18 0.16 0.18 0.42 0 0.22-0.13 0.39-0.13 0.16-0.41 0.25-0.28 0.09-0.69 0.08-0.52 0-1.05-0.15-0.51-0.15-0.95-0.42-0.43-0.27-0.73-0.61l-0.98 1.36q0.39 0.42 0.96 0.73 0.57 0.32 1.28 0.49 0.71 0.17 1.49 0.17 0.96 0 1.7-0.29 0.75-0.29 1.17-0.86 0.43-0.57 0.43-1.4c0-0.55-0.18-1.04-0.54-1.38q-0.54-0.52-1.71-0.79l-1.31-0.3q-0.52-0.12-0.75-0.29-0.23-0.17-0.23-0.42 0-0.21 0.12-0.38 0.12-0.17 0.39-0.26z"/>
			<path class="s0" d="m255.89 92.32q-0.54-0.36-1.28-0.36-0.58 0-1.03 0.26-0.45 0.26-0.73 0.71-0.1 0.17-0.18 0.37l-0.06-1.22h-1.81v8.39h2.01v-3.52q0.18 0.38 0.47 0.67 0.49 0.48 1.3 0.48 0.74 0 1.28-0.37 0.55-0.36 0.86-1.06 0.31-0.69 0.31-1.67 0-0.98-0.3-1.65-0.3-0.68-0.85-1.04zm-1.17 3.92q-0.3 0.38-0.82 0.38-0.35 0-0.59-0.19-0.25-0.19-0.37-0.55-0.12-0.36-0.12-0.86 0-0.51 0.14-0.87 0.14-0.36 0.38-0.54 0.25-0.18 0.58-0.18 0.53 0 0.81 0.38 0.29 0.39 0.29 1.21 0 0.83-0.3 1.21z"/>
			<path class="s0" d="m263.46 96.36v-2.16q0-0.73-0.33-1.24-0.33-0.5-0.93-0.76-0.62-0.25-1.47-0.25-1.29 0-2 0.51-0.71 0.51-0.87 1.36l1.7 0.4q0.11-0.49 0.38-0.69 0.28-0.19 0.67-0.19 0.39 0 0.62 0.24 0.23 0.24 0.23 0.66v0.17l-2.04 0.42q-0.83 0.17-1.21 0.59-0.39 0.42-0.38 1.06 0 0.53 0.24 0.89 0.24 0.36 0.69 0.55 0.45 0.19 1.05 0.19 0.52 0 1-0.17 0.48-0.16 0.78-0.51 0.09-0.1 0.15-0.22 0.04 0.15 0.13 0.29 0.2 0.3 0.56 0.45 0.36 0.15 0.82 0.15 0.51 0 0.86-0.17l0.12-1.15q-0.13 0.05-0.34 0.05-0.41 0-0.41-0.46zm-2-0.56q0 0.25-0.08 0.45-0.09 0.19-0.22 0.31-0.13 0.12-0.33 0.18-0.18 0.06-0.38 0.06-0.26 0-0.45-0.13-0.19-0.13-0.19-0.39 0-0.26 0.17-0.41 0.17-0.13 0.53-0.21l0.96-0.2v0.33z"/>
			<path class="s0" d="m266.01 89.46q-0.62 0-0.89 0.23-0.28 0.23-0.28 0.74 0 0.5 0.28 0.73 0.27 0.23 0.89 0.23 0.61 0 0.89-0.23 0.28-0.23 0.28-0.73 0-0.51-0.28-0.74-0.28-0.23-0.89-0.23z"/>
			<path fill-rule="evenodd" class="s0" d="m265 92.07h2.01v5.91h-2.01z"/>
			<path class="s0" d="m273.39 92.19q-0.45-0.24-1.07-0.24-0.57 0-1.02 0.22-0.45 0.22-0.76 0.64-0.13 0.19-0.24 0.45l-0.06-1.19h-1.8v5.91h2.01v-3.13q0-0.49 0.14-0.79 0.13-0.3 0.39-0.43 0.25-0.14 0.53-0.14 0.36 0 0.6 0.24 0.24 0.24 0.24 0.85v3.4h2.01v-3.94q0-0.69-0.26-1.16-0.26-0.46-0.72-0.7z"/>
		</g>
		<path class="s0" d="m143.83 24.01c0 0.27 0 0.21 0 0z"/>
		<path class="s0" d="m144.16 25.22c1.18 0.1 5.21 0.48 6.95 0.99 0.23 0.07 0.47-0.11 0.47-0.35v-1.41-0.58c0-0.16-0.1-0.3-0.25-0.35-0.75-0.25-2.09-0.48-3.44-0.66q-0.03-0.19-0.03-0.43v-4.39c0-0.2 0.17-0.37 0.37-0.37h2.79c0.2 0 0.37-0.17 0.37-0.37v-2.13c0-0.2-0.17-0.37-0.37-0.37h-3.16v-2.29c0-0.82-0.66-1.48-1.48-1.48h-2.55v11.4 0.66q0 0.32 0 0.69 0 0.03 0 0.06 0 0.06 0 0.13 0 0.03 0 0.06c0 0.32 0 0.63 0 0.84 0 0.19 0.14 0.35 0.33 0.35z"/>
		<g>
			<path class="s0" d="m87.52 30.37c-11.74-0.93-20.89 14.65-21.44 15.6q-0.03 0.04-0.03 0.04c-6.28 10.03-10.89 31.73-21.8 38.72-7.91 5.06-19.71 3.71-26.84-2.69-2.33-2.1-4.23-4.69-5.61-7.5-0.05-0.12-0.39-1.03-0.72-1.91-0.32-0.85 0.28-1.76 1.19-1.78q0.18-0.01 0.38-0.02c33.41 0 31.13-34.24 48.21-51.32 3.4-3.4 7.56-6.14 12.14-7.68 4.22-1.43 9.26-1.27 12.15 2.5q0.09 0.12 0.17 0.23c3.33 4.64 3.09 11.61 2.2 15.81z"/>
			<path class="s0" d="m97.88 48.02c-4.13 5.41-9.11 12.58-13.57 12.73-8.29 0.27-4.05-18.88-10.95-19.87 3.3-3.73 8.01-7.69 13.15-7.69q0.17 0 0.34 0.01c-0.92 4.42-2.01 12.55 1.36 15.57 1.77 1.58 4.76 1.77 9.67-0.76z"/>
			<path class="s0" d="m122.33 32c-0.03 0.97-0.35 1.9-0.81 2.76-7.32-1.29-14.05 3.32-18.52 7.55q-0.03 0.03-0.04 0.05-0.02 0.01-0.04 0.04c-2.93 2.76-6.73 4.43-10.75 4.65q-0.14-0.01-0.24 0.02c5.02-4.91 11.89-18.47 26.03-19.29 0.76-0.04 1.53 0 2.21 0.32 1.65 0.76 2.21 2.31 2.15 3.9z"/>
			<path class="s0" d="m125.11 70.7q0 0.01-0.02 0.01c-20.94 7.74-25.61-9.3-20.27-20.39 0.73-1.52 1.33-2.86 1.59-3.92 0.24-0.89 0.43-1.84 0.22-2.73q-0.07-0.29-0.22-0.58c3.31-2.84 7.83-5.69 12.59-5.69q0.67 0 1.34 0.08c-1.25 3.37-1.91 7.25-1.91 11.6 0 6.53 1.46 12.04 4.23 16.3q0.13 0.2 0.26 0.4c0.76 1.21 1.75 2.15 2.55 2.84 0.71 0.61 0.51 1.76-0.36 2.08z"/>
		</g>
	</g>
</svg>