<?xml version="1.0" encoding="utf-8"?>
<svg xmlns="http://www.w3.org/2000/svg" xmlns:xlink="http://www.w3.org/1999/xlink" xml:space="preserve" width="936" height="936" viewBox="0 0 936 936"><g fill="#ffffff">
<g transform="translate(216,24) scale(4.12)"><circle cx="3" cy="3" r="3"/></g>
<g transform="translate(240,24) scale(4.12)"><circle cx="3" cy="3" r="3"/></g>
<g transform="translate(288,24) scale(4.12)"><circle cx="3" cy="3" r="3"/></g>
<g transform="translate(312,24) scale(4.12)"><circle cx="3" cy="3" r="3"/></g>
<g transform="translate(336,24) scale(4.12)"><circle cx="3" cy="3" r="3"/></g>
<g transform="translate(384,24) scale(4.12)"><circle cx="3" cy="3" r="3"/></g>
<g transform="translate(408,24) scale(4.12)"><circle cx="3" cy="3" r="3"/></g>
<g transform="translate(576,24) scale(4.12)"><circle cx="3" cy="3" r="3"/></g>
<g transform="translate(648,24) scale(4.12)"><circle cx="3" cy="3" r="3"/></g>
<g transform="translate(696,24) scale(4.12)"><circle cx="3" cy="3" r="3"/></g>
<g transform="translate(216,48) scale(4.12)"><circle cx="3" cy="3" r="3"/></g>
<g transform="translate(240,48) scale(4.12)"><circle cx="3" cy="3" r="3"/></g>
<g transform="translate(288,48) scale(4.12)"><circle cx="3" cy="3" r="3"/></g>
<g transform="translate(312,48) scale(4.12)"><circle cx="3" cy="3" r="3"/></g>
<g transform="translate(384,48) scale(4.12)"><circle cx="3" cy="3" r="3"/></g>
<g transform="translate(408,48) scale(4.12)"><circle cx="3" cy="3" r="3"/></g>
<g transform="translate(432,48) scale(4.12)"><circle cx="3" cy="3" r="3"/></g>
<g transform="translate(456,48) scale(4.12)"><circle cx="3" cy="3" r="3"/></g>
<g transform="translate(480,48) scale(4.12)"><circle cx="3" cy="3" r="3"/></g>
<g transform="translate(552,48) scale(4.12)"><circle cx="3" cy="3" r="3"/></g>
<g transform="translate(576,48) scale(4.12)"><circle cx="3" cy="3" r="3"/></g>
<g transform="translate(624,48) scale(4.12)"><circle cx="3" cy="3" r="3"/></g>
<g transform="translate(672,48) scale(4.12)"><circle cx="3" cy="3" r="3"/></g>
<g transform="translate(696,48) scale(4.12)"><circle cx="3" cy="3" r="3"/></g>
<g transform="translate(216,72) scale(4.12)"><circle cx="3" cy="3" r="3"/></g>
<g transform="translate(264,72) scale(4.12)"><circle cx="3" cy="3" r="3"/></g>
<g transform="translate(288,72) scale(4.12)"><circle cx="3" cy="3" r="3"/></g>
<g transform="translate(408,72) scale(4.12)"><circle cx="3" cy="3" r="3"/></g>
<g transform="translate(432,72) scale(4.12)"><circle cx="3" cy="3" r="3"/></g>
<g transform="translate(504,72) scale(4.12)"><circle cx="3" cy="3" r="3"/></g>
<g transform="translate(528,72) scale(4.12)"><circle cx="3" cy="3" r="3"/></g>
<g transform="translate(552,72) scale(4.12)"><circle cx="3" cy="3" r="3"/></g>
<g transform="translate(576,72) scale(4.12)"><circle cx="3" cy="3" r="3"/></g>
<g transform="translate(696,72) scale(4.12)"><circle cx="3" cy="3" r="3"/></g>
<g transform="translate(240,96) scale(4.12)"><circle cx="3" cy="3" r="3"/></g>
<g transform="translate(288,96) scale(4.12)"><circle cx="3" cy="3" r="3"/></g>
<g transform="translate(336,96) scale(4.12)"><circle cx="3" cy="3" r="3"/></g>
<g transform="translate(360,96) scale(4.12)"><circle cx="3" cy="3" r="3"/></g>
<g transform="translate(384,96) scale(4.12)"><circle cx="3" cy="3" r="3"/></g>
<g transform="translate(432,96) scale(4.12)"><circle cx="3" cy="3" r="3"/></g>
<g transform="translate(456,96) scale(4.12)"><circle cx="3" cy="3" r="3"/></g>
<g transform="translate(480,96) scale(4.12)"><circle cx="3" cy="3" r="3"/></g>
<g transform="translate(504,96) scale(4.12)"><circle cx="3" cy="3" r="3"/></g>
<g transform="translate(528,96) scale(4.12)"><circle cx="3" cy="3" r="3"/></g>
<g transform="translate(552,96) scale(4.12)"><circle cx="3" cy="3" r="3"/></g>
<g transform="translate(576,96) scale(4.12)"><circle cx="3" cy="3" r="3"/></g>
<g transform="translate(600,96) scale(4.12)"><circle cx="3" cy="3" r="3"/></g>
<g transform="translate(624,96) scale(4.12)"><circle cx="3" cy="3" r="3"/></g>
<g transform="translate(648,96) scale(4.12)"><circle cx="3" cy="3" r="3"/></g>
<g transform="translate(672,96) scale(4.12)"><circle cx="3" cy="3" r="3"/></g>
<g transform="translate(264,120) scale(4.12)"><circle cx="3" cy="3" r="3"/></g>
<g transform="translate(336,120) scale(4.12)"><circle cx="3" cy="3" r="3"/></g>
<g transform="translate(408,120) scale(4.12)"><circle cx="3" cy="3" r="3"/></g>
<g transform="translate(456,120) scale(4.12)"><circle cx="3" cy="3" r="3"/></g>
<g transform="translate(504,120) scale(4.12)"><circle cx="3" cy="3" r="3"/></g>
<g transform="translate(528,120) scale(4.12)"><circle cx="3" cy="3" r="3"/></g>
<g transform="translate(552,120) scale(4.12)"><circle cx="3" cy="3" r="3"/></g>
<g transform="translate(576,120) scale(4.12)"><circle cx="3" cy="3" r="3"/></g>
<g transform="translate(648,120) scale(4.12)"><circle cx="3" cy="3" r="3"/></g>
<g transform="translate(216,144) scale(4.12)"><circle cx="3" cy="3" r="3"/></g>
<g transform="translate(264,144) scale(4.12)"><circle cx="3" cy="3" r="3"/></g>
<g transform="translate(288,144) scale(4.12)"><circle cx="3" cy="3" r="3"/></g>
<g transform="translate(312,144) scale(4.12)"><circle cx="3" cy="3" r="3"/></g>
<g transform="translate(336,144) scale(4.12)"><circle cx="3" cy="3" r="3"/></g>
<g transform="translate(456,144) scale(4.12)"><circle cx="3" cy="3" r="3"/></g>
<g transform="translate(504,144) scale(4.12)"><circle cx="3" cy="3" r="3"/></g>
<g transform="translate(528,144) scale(4.12)"><circle cx="3" cy="3" r="3"/></g>
<g transform="translate(576,144) scale(4.12)"><circle cx="3" cy="3" r="3"/></g>
<g transform="translate(600,144) scale(4.12)"><circle cx="3" cy="3" r="3"/></g>
<g transform="translate(672,144) scale(4.12)"><circle cx="3" cy="3" r="3"/></g>
<g transform="translate(696,144) scale(4.12)"><circle cx="3" cy="3" r="3"/></g>
<g transform="translate(216,168) scale(4.12)"><circle cx="3" cy="3" r="3"/></g>
<g transform="translate(264,168) scale(4.12)"><circle cx="3" cy="3" r="3"/></g>
<g transform="translate(312,168) scale(4.12)"><circle cx="3" cy="3" r="3"/></g>
<g transform="translate(360,168) scale(4.12)"><circle cx="3" cy="3" r="3"/></g>
<g transform="translate(408,168) scale(4.12)"><circle cx="3" cy="3" r="3"/></g>
<g transform="translate(456,168) scale(4.12)"><circle cx="3" cy="3" r="3"/></g>
<g transform="translate(504,168) scale(4.12)"><circle cx="3" cy="3" r="3"/></g>
<g transform="translate(552,168) scale(4.12)"><circle cx="3" cy="3" r="3"/></g>
<g transform="translate(600,168) scale(4.12)"><circle cx="3" cy="3" r="3"/></g>
<g transform="translate(648,168) scale(4.12)"><circle cx="3" cy="3" r="3"/></g>
<g transform="translate(696,168) scale(4.12)"><circle cx="3" cy="3" r="3"/></g>
<g transform="translate(216,192) scale(4.12)"><circle cx="3" cy="3" r="3"/></g>
<g transform="translate(240,192) scale(4.12)"><circle cx="3" cy="3" r="3"/></g>
<g transform="translate(288,192) scale(4.12)"><circle cx="3" cy="3" r="3"/></g>
<g transform="translate(312,192) scale(4.12)"><circle cx="3" cy="3" r="3"/></g>
<g transform="translate(360,192) scale(4.12)"><circle cx="3" cy="3" r="3"/></g>
<g transform="translate(384,192) scale(4.12)"><circle cx="3" cy="3" r="3"/></g>
<g transform="translate(408,192) scale(4.12)"><circle cx="3" cy="3" r="3"/></g>
<g transform="translate(504,192) scale(4.12)"><circle cx="3" cy="3" r="3"/></g>
<g transform="translate(552,192) scale(4.12)"><circle cx="3" cy="3" r="3"/></g>
<g transform="translate(576,192) scale(4.12)"><circle cx="3" cy="3" r="3"/></g>
<g transform="translate(600,192) scale(4.12)"><circle cx="3" cy="3" r="3"/></g>
<g transform="translate(648,192) scale(4.12)"><circle cx="3" cy="3" r="3"/></g>
<g transform="translate(696,192) scale(4.12)"><circle cx="3" cy="3" r="3"/></g>
<g transform="translate(72,216) scale(4.12)"><circle cx="3" cy="3" r="3"/></g>
<g transform="translate(96,216) scale(4.12)"><circle cx="3" cy="3" r="3"/></g>
<g transform="translate(120,216) scale(4.12)"><circle cx="3" cy="3" r="3"/></g>
<g transform="translate(168,216) scale(4.12)"><circle cx="3" cy="3" r="3"/></g>
<g transform="translate(216,216) scale(4.12)"><circle cx="3" cy="3" r="3"/></g>
<g transform="translate(288,216) scale(4.12)"><circle cx="3" cy="3" r="3"/></g>
<g transform="translate(312,216) scale(4.12)"><circle cx="3" cy="3" r="3"/></g>
<g transform="translate(336,216) scale(4.12)"><circle cx="3" cy="3" r="3"/></g>
<g transform="translate(360,216) scale(4.12)"><circle cx="3" cy="3" r="3"/></g>
<g transform="translate(408,216) scale(4.12)"><circle cx="3" cy="3" r="3"/></g>
<g transform="translate(432,216) scale(4.12)"><circle cx="3" cy="3" r="3"/></g>
<g transform="translate(456,216) scale(4.12)"><circle cx="3" cy="3" r="3"/></g>
<g transform="translate(480,216) scale(4.12)"><circle cx="3" cy="3" r="3"/></g>
<g transform="translate(528,216) scale(4.12)"><circle cx="3" cy="3" r="3"/></g>
<g transform="translate(576,216) scale(4.12)"><circle cx="3" cy="3" r="3"/></g>
<g transform="translate(720,216) scale(4.12)"><circle cx="3" cy="3" r="3"/></g>
<g transform="translate(744,216) scale(4.12)"><circle cx="3" cy="3" r="3"/></g>
<g transform="translate(768,216) scale(4.12)"><circle cx="3" cy="3" r="3"/></g>
<g transform="translate(840,216) scale(4.12)"><circle cx="3" cy="3" r="3"/></g>
<g transform="translate(864,216) scale(4.12)"><circle cx="3" cy="3" r="3"/></g>
<g transform="translate(888,216) scale(4.12)"><circle cx="3" cy="3" r="3"/></g>
<g transform="translate(24,240) scale(4.12)"><circle cx="3" cy="3" r="3"/></g>
<g transform="translate(72,240) scale(4.12)"><circle cx="3" cy="3" r="3"/></g>
<g transform="translate(96,240) scale(4.12)"><circle cx="3" cy="3" r="3"/></g>
<g transform="translate(288,240) scale(4.12)"><circle cx="3" cy="3" r="3"/></g>
<g transform="translate(312,240) scale(4.12)"><circle cx="3" cy="3" r="3"/></g>
<g transform="translate(336,240) scale(4.12)"><circle cx="3" cy="3" r="3"/></g>
<g transform="translate(360,240) scale(4.12)"><circle cx="3" cy="3" r="3"/></g>
<g transform="translate(384,240) scale(4.12)"><circle cx="3" cy="3" r="3"/></g>
<g transform="translate(408,240) scale(4.12)"><circle cx="3" cy="3" r="3"/></g>
<g transform="translate(432,240) scale(4.12)"><circle cx="3" cy="3" r="3"/></g>
<g transform="translate(456,240) scale(4.12)"><circle cx="3" cy="3" r="3"/></g>
<g transform="translate(480,240) scale(4.12)"><circle cx="3" cy="3" r="3"/></g>
<g transform="translate(504,240) scale(4.12)"><circle cx="3" cy="3" r="3"/></g>
<g transform="translate(552,240) scale(4.12)"><circle cx="3" cy="3" r="3"/></g>
<g transform="translate(624,240) scale(4.12)"><circle cx="3" cy="3" r="3"/></g>
<g transform="translate(648,240) scale(4.12)"><circle cx="3" cy="3" r="3"/></g>
<g transform="translate(672,240) scale(4.12)"><circle cx="3" cy="3" r="3"/></g>
<g transform="translate(696,240) scale(4.12)"><circle cx="3" cy="3" r="3"/></g>
<g transform="translate(744,240) scale(4.12)"><circle cx="3" cy="3" r="3"/></g>
<g transform="translate(48,264) scale(4.12)"><circle cx="3" cy="3" r="3"/></g>
<g transform="translate(168,264) scale(4.12)"><circle cx="3" cy="3" r="3"/></g>
<g transform="translate(240,264) scale(4.12)"><circle cx="3" cy="3" r="3"/></g>
<g transform="translate(264,264) scale(4.12)"><circle cx="3" cy="3" r="3"/></g>
<g transform="translate(288,264) scale(4.12)"><circle cx="3" cy="3" r="3"/></g>
<g transform="translate(336,264) scale(4.12)"><circle cx="3" cy="3" r="3"/></g>
<g transform="translate(384,264) scale(4.12)"><circle cx="3" cy="3" r="3"/></g>
<g transform="translate(408,264) scale(4.12)"><circle cx="3" cy="3" r="3"/></g>
<g transform="translate(432,264) scale(4.12)"><circle cx="3" cy="3" r="3"/></g>
<g transform="translate(504,264) scale(4.12)"><circle cx="3" cy="3" r="3"/></g>
<g transform="translate(576,264) scale(4.12)"><circle cx="3" cy="3" r="3"/></g>
<g transform="translate(600,264) scale(4.12)"><circle cx="3" cy="3" r="3"/></g>
<g transform="translate(624,264) scale(4.12)"><circle cx="3" cy="3" r="3"/></g>
<g transform="translate(648,264) scale(4.12)"><circle cx="3" cy="3" r="3"/></g>
<g transform="translate(744,264) scale(4.12)"><circle cx="3" cy="3" r="3"/></g>
<g transform="translate(768,264) scale(4.12)"><circle cx="3" cy="3" r="3"/></g>
<g transform="translate(792,264) scale(4.12)"><circle cx="3" cy="3" r="3"/></g>
<g transform="translate(816,264) scale(4.12)"><circle cx="3" cy="3" r="3"/></g>
<g transform="translate(864,264) scale(4.12)"><circle cx="3" cy="3" r="3"/></g>
<g transform="translate(888,264) scale(4.12)"><circle cx="3" cy="3" r="3"/></g>
<g transform="translate(24,288) scale(4.12)"><circle cx="3" cy="3" r="3"/></g>
<g transform="translate(72,288) scale(4.12)"><circle cx="3" cy="3" r="3"/></g>
<g transform="translate(96,288) scale(4.12)"><circle cx="3" cy="3" r="3"/></g>
<g transform="translate(120,288) scale(4.12)"><circle cx="3" cy="3" r="3"/></g>
<g transform="translate(240,288) scale(4.12)"><circle cx="3" cy="3" r="3"/></g>
<g transform="translate(312,288) scale(4.12)"><circle cx="3" cy="3" r="3"/></g>
<g transform="translate(360,288) scale(4.12)"><circle cx="3" cy="3" r="3"/></g>
<g transform="translate(456,288) scale(4.12)"><circle cx="3" cy="3" r="3"/></g>
<g transform="translate(480,288) scale(4.12)"><circle cx="3" cy="3" r="3"/></g>
<g transform="translate(504,288) scale(4.12)"><circle cx="3" cy="3" r="3"/></g>
<g transform="translate(576,288) scale(4.12)"><circle cx="3" cy="3" r="3"/></g>
<g transform="translate(600,288) scale(4.12)"><circle cx="3" cy="3" r="3"/></g>
<g transform="translate(648,288) scale(4.12)"><circle cx="3" cy="3" r="3"/></g>
<g transform="translate(696,288) scale(4.12)"><circle cx="3" cy="3" r="3"/></g>
<g transform="translate(744,288) scale(4.12)"><circle cx="3" cy="3" r="3"/></g>
<g transform="translate(768,288) scale(4.12)"><circle cx="3" cy="3" r="3"/></g>
<g transform="translate(792,288) scale(4.12)"><circle cx="3" cy="3" r="3"/></g>
<g transform="translate(72,312) scale(4.12)"><circle cx="3" cy="3" r="3"/></g>
<g transform="translate(144,312) scale(4.12)"><circle cx="3" cy="3" r="3"/></g>
<g transform="translate(168,312) scale(4.12)"><circle cx="3" cy="3" r="3"/></g>
<g transform="translate(240,312) scale(4.12)"><circle cx="3" cy="3" r="3"/></g>
<g transform="translate(264,312) scale(4.12)"><circle cx="3" cy="3" r="3"/></g>
<g transform="translate(360,312) scale(4.12)"><circle cx="3" cy="3" r="3"/></g>
<g transform="translate(384,312) scale(4.12)"><circle cx="3" cy="3" r="3"/></g>
<g transform="translate(456,312) scale(4.12)"><circle cx="3" cy="3" r="3"/></g>
<g transform="translate(480,312) scale(4.12)"><circle cx="3" cy="3" r="3"/></g>
<g transform="translate(528,312) scale(4.12)"><circle cx="3" cy="3" r="3"/></g>
<g transform="translate(576,312) scale(4.12)"><circle cx="3" cy="3" r="3"/></g>
<g transform="translate(600,312) scale(4.12)"><circle cx="3" cy="3" r="3"/></g>
<g transform="translate(624,312) scale(4.12)"><circle cx="3" cy="3" r="3"/></g>
<g transform="translate(648,312) scale(4.12)"><circle cx="3" cy="3" r="3"/></g>
<g transform="translate(696,312) scale(4.12)"><circle cx="3" cy="3" r="3"/></g>
<g transform="translate(720,312) scale(4.12)"><circle cx="3" cy="3" r="3"/></g>
<g transform="translate(744,312) scale(4.12)"><circle cx="3" cy="3" r="3"/></g>
<g transform="translate(792,312) scale(4.12)"><circle cx="3" cy="3" r="3"/></g>
<g transform="translate(816,312) scale(4.12)"><circle cx="3" cy="3" r="3"/></g>
<g transform="translate(840,312) scale(4.12)"><circle cx="3" cy="3" r="3"/></g>
<g transform="translate(864,312) scale(4.12)"><circle cx="3" cy="3" r="3"/></g>
<g transform="translate(24,336) scale(4.12)"><circle cx="3" cy="3" r="3"/></g>
<g transform="translate(72,336) scale(4.12)"><circle cx="3" cy="3" r="3"/></g>
<g transform="translate(96,336) scale(4.12)"><circle cx="3" cy="3" r="3"/></g>
<g transform="translate(120,336) scale(4.12)"><circle cx="3" cy="3" r="3"/></g>
<g transform="translate(192,336) scale(4.12)"><circle cx="3" cy="3" r="3"/></g>
<g transform="translate(288,336) scale(4.12)"><circle cx="3" cy="3" r="3"/></g>
<g transform="translate(336,336) scale(4.12)"><circle cx="3" cy="3" r="3"/></g>
<g transform="translate(360,336) scale(4.12)"><circle cx="3" cy="3" r="3"/></g>
<g transform="translate(384,336) scale(4.12)"><circle cx="3" cy="3" r="3"/></g>
<g transform="translate(456,336) scale(4.12)"><circle cx="3" cy="3" r="3"/></g>
<g transform="translate(480,336) scale(4.12)"><circle cx="3" cy="3" r="3"/></g>
<g transform="translate(504,336) scale(4.12)"><circle cx="3" cy="3" r="3"/></g>
<g transform="translate(576,336) scale(4.12)"><circle cx="3" cy="3" r="3"/></g>
<g transform="translate(648,336) scale(4.12)"><circle cx="3" cy="3" r="3"/></g>
<g transform="translate(696,336) scale(4.12)"><circle cx="3" cy="3" r="3"/></g>
<g transform="translate(720,336) scale(4.12)"><circle cx="3" cy="3" r="3"/></g>
<g transform="translate(816,336) scale(4.12)"><circle cx="3" cy="3" r="3"/></g>
<g transform="translate(840,336) scale(4.12)"><circle cx="3" cy="3" r="3"/></g>
<g transform="translate(48,360) scale(4.12)"><circle cx="3" cy="3" r="3"/></g>
<g transform="translate(96,360) scale(4.12)"><circle cx="3" cy="3" r="3"/></g>
<g transform="translate(120,360) scale(4.12)"><circle cx="3" cy="3" r="3"/></g>
<g transform="translate(168,360) scale(4.12)"><circle cx="3" cy="3" r="3"/></g>
<g transform="translate(216,360) scale(4.12)"><circle cx="3" cy="3" r="3"/></g>
<g transform="translate(264,360) scale(4.12)"><circle cx="3" cy="3" r="3"/></g>
<g transform="translate(312,360) scale(4.12)"><circle cx="3" cy="3" r="3"/></g>
<g transform="translate(336,360) scale(4.12)"><circle cx="3" cy="3" r="3"/></g>
<g transform="translate(360,360) scale(4.12)"><circle cx="3" cy="3" r="3"/></g>
<g transform="translate(384,360) scale(4.12)"><circle cx="3" cy="3" r="3"/></g>
<g transform="translate(408,360) scale(4.12)"><circle cx="3" cy="3" r="3"/></g>
<g transform="translate(504,360) scale(4.12)"><circle cx="3" cy="3" r="3"/></g>
<g transform="translate(528,360) scale(4.12)"><circle cx="3" cy="3" r="3"/></g>
<g transform="translate(576,360) scale(4.12)"><circle cx="3" cy="3" r="3"/></g>
<g transform="translate(624,360) scale(4.12)"><circle cx="3" cy="3" r="3"/></g>
<g transform="translate(672,360) scale(4.12)"><circle cx="3" cy="3" r="3"/></g>
<g transform="translate(696,360) scale(4.12)"><circle cx="3" cy="3" r="3"/></g>
<g transform="translate(744,360) scale(4.12)"><circle cx="3" cy="3" r="3"/></g>
<g transform="translate(768,360) scale(4.12)"><circle cx="3" cy="3" r="3"/></g>
<g transform="translate(816,360) scale(4.12)"><circle cx="3" cy="3" r="3"/></g>
<g transform="translate(888,360) scale(4.12)"><circle cx="3" cy="3" r="3"/></g>
<g transform="translate(24,384) scale(4.12)"><circle cx="3" cy="3" r="3"/></g>
<g transform="translate(48,384) scale(4.12)"><circle cx="3" cy="3" r="3"/></g>
<g transform="translate(96,384) scale(4.12)"><circle cx="3" cy="3" r="3"/></g>
<g transform="translate(120,384) scale(4.12)"><circle cx="3" cy="3" r="3"/></g>
<g transform="translate(192,384) scale(4.12)"><circle cx="3" cy="3" r="3"/></g>
<g transform="translate(240,384) scale(4.12)"><circle cx="3" cy="3" r="3"/></g>
<g transform="translate(408,384) scale(4.12)"><circle cx="3" cy="3" r="3"/></g>
<g transform="translate(432,384) scale(4.12)"><circle cx="3" cy="3" r="3"/></g>
<g transform="translate(456,384) scale(4.12)"><circle cx="3" cy="3" r="3"/></g>
<g transform="translate(480,384) scale(4.12)"><circle cx="3" cy="3" r="3"/></g>
<g transform="translate(504,384) scale(4.12)"><circle cx="3" cy="3" r="3"/></g>
<g transform="translate(528,384) scale(4.12)"><circle cx="3" cy="3" r="3"/></g>
<g transform="translate(552,384) scale(4.12)"><circle cx="3" cy="3" r="3"/></g>
<g transform="translate(576,384) scale(4.12)"><circle cx="3" cy="3" r="3"/></g>
<g transform="translate(600,384) scale(4.12)"><circle cx="3" cy="3" r="3"/></g>
<g transform="translate(696,384) scale(4.12)"><circle cx="3" cy="3" r="3"/></g>
<g transform="translate(720,384) scale(4.12)"><circle cx="3" cy="3" r="3"/></g>
<g transform="translate(768,384) scale(4.12)"><circle cx="3" cy="3" r="3"/></g>
<g transform="translate(792,384) scale(4.12)"><circle cx="3" cy="3" r="3"/></g>
<g transform="translate(864,384) scale(4.12)"><circle cx="3" cy="3" r="3"/></g>
<g transform="translate(24,408) scale(4.12)"><circle cx="3" cy="3" r="3"/></g>
<g transform="translate(48,408) scale(4.12)"><circle cx="3" cy="3" r="3"/></g>
<g transform="translate(72,408) scale(4.12)"><circle cx="3" cy="3" r="3"/></g>
<g transform="translate(168,408) scale(4.12)"><circle cx="3" cy="3" r="3"/></g>
<g transform="translate(192,408) scale(4.12)"><circle cx="3" cy="3" r="3"/></g>
<g transform="translate(216,408) scale(4.12)"><circle cx="3" cy="3" r="3"/></g>
<g transform="translate(264,408) scale(4.12)"><circle cx="3" cy="3" r="3"/></g>
<g transform="translate(312,408) scale(4.12)"><circle cx="3" cy="3" r="3"/></g>
<g transform="translate(336,408) scale(4.12)"><circle cx="3" cy="3" r="3"/></g>
<g transform="translate(360,408) scale(4.12)"><circle cx="3" cy="3" r="3"/></g>
<g transform="translate(384,408) scale(4.12)"><circle cx="3" cy="3" r="3"/></g>
<g transform="translate(432,408) scale(4.12)"><circle cx="3" cy="3" r="3"/></g>
<g transform="translate(504,408) scale(4.12)"><circle cx="3" cy="3" r="3"/></g>
<g transform="translate(600,408) scale(4.12)"><circle cx="3" cy="3" r="3"/></g>
<g transform="translate(624,408) scale(4.12)"><circle cx="3" cy="3" r="3"/></g>
<g transform="translate(648,408) scale(4.12)"><circle cx="3" cy="3" r="3"/></g>
<g transform="translate(720,408) scale(4.12)"><circle cx="3" cy="3" r="3"/></g>
<g transform="translate(744,408) scale(4.12)"><circle cx="3" cy="3" r="3"/></g>
<g transform="translate(768,408) scale(4.12)"><circle cx="3" cy="3" r="3"/></g>
<g transform="translate(792,408) scale(4.12)"><circle cx="3" cy="3" r="3"/></g>
<g transform="translate(840,408) scale(4.12)"><circle cx="3" cy="3" r="3"/></g>
<g transform="translate(864,408) scale(4.12)"><circle cx="3" cy="3" r="3"/></g>
<g transform="translate(888,408) scale(4.12)"><circle cx="3" cy="3" r="3"/></g>
<g transform="translate(48,432) scale(4.12)"><circle cx="3" cy="3" r="3"/></g>
<g transform="translate(72,432) scale(4.12)"><circle cx="3" cy="3" r="3"/></g>
<g transform="translate(192,432) scale(4.12)"><circle cx="3" cy="3" r="3"/></g>
<g transform="translate(216,432) scale(4.12)"><circle cx="3" cy="3" r="3"/></g>
<g transform="translate(240,432) scale(4.12)"><circle cx="3" cy="3" r="3"/></g>
<g transform="translate(336,432) scale(4.12)"><circle cx="3" cy="3" r="3"/></g>
<g transform="translate(360,432) scale(4.12)"><circle cx="3" cy="3" r="3"/></g>
<g transform="translate(456,432) scale(4.12)"><circle cx="3" cy="3" r="3"/></g>
<g transform="translate(528,432) scale(4.12)"><circle cx="3" cy="3" r="3"/></g>
<g transform="translate(552,432) scale(4.12)"><circle cx="3" cy="3" r="3"/></g>
<g transform="translate(600,432) scale(4.12)"><circle cx="3" cy="3" r="3"/></g>
<g transform="translate(696,432) scale(4.12)"><circle cx="3" cy="3" r="3"/></g>
<g transform="translate(720,432) scale(4.12)"><circle cx="3" cy="3" r="3"/></g>
<g transform="translate(768,432) scale(4.12)"><circle cx="3" cy="3" r="3"/></g>
<g transform="translate(840,432) scale(4.12)"><circle cx="3" cy="3" r="3"/></g>
<g transform="translate(24,456) scale(4.12)"><circle cx="3" cy="3" r="3"/></g>
<g transform="translate(72,456) scale(4.12)"><circle cx="3" cy="3" r="3"/></g>
<g transform="translate(120,456) scale(4.12)"><circle cx="3" cy="3" r="3"/></g>
<g transform="translate(168,456) scale(4.12)"><circle cx="3" cy="3" r="3"/></g>
<g transform="translate(216,456) scale(4.12)"><circle cx="3" cy="3" r="3"/></g>
<g transform="translate(264,456) scale(4.12)"><circle cx="3" cy="3" r="3"/></g>
<g transform="translate(312,456) scale(4.12)"><circle cx="3" cy="3" r="3"/></g>
<g transform="translate(480,456) scale(4.12)"><circle cx="3" cy="3" r="3"/></g>
<g transform="translate(504,456) scale(4.12)"><circle cx="3" cy="3" r="3"/></g>
<g transform="translate(552,456) scale(4.12)"><circle cx="3" cy="3" r="3"/></g>
<g transform="translate(648,456) scale(4.12)"><circle cx="3" cy="3" r="3"/></g>
<g transform="translate(672,456) scale(4.12)"><circle cx="3" cy="3" r="3"/></g>
<g transform="translate(696,456) scale(4.12)"><circle cx="3" cy="3" r="3"/></g>
<g transform="translate(720,456) scale(4.12)"><circle cx="3" cy="3" r="3"/></g>
<g transform="translate(792,456) scale(4.12)"><circle cx="3" cy="3" r="3"/></g>
<g transform="translate(816,456) scale(4.12)"><circle cx="3" cy="3" r="3"/></g>
<g transform="translate(840,456) scale(4.12)"><circle cx="3" cy="3" r="3"/></g>
<g transform="translate(864,456) scale(4.12)"><circle cx="3" cy="3" r="3"/></g>
<g transform="translate(888,456) scale(4.12)"><circle cx="3" cy="3" r="3"/></g>
<g transform="translate(24,480) scale(4.12)"><circle cx="3" cy="3" r="3"/></g>
<g transform="translate(48,480) scale(4.12)"><circle cx="3" cy="3" r="3"/></g>
<g transform="translate(96,480) scale(4.12)"><circle cx="3" cy="3" r="3"/></g>
<g transform="translate(120,480) scale(4.12)"><circle cx="3" cy="3" r="3"/></g>
<g transform="translate(144,480) scale(4.12)"><circle cx="3" cy="3" r="3"/></g>
<g transform="translate(240,480) scale(4.12)"><circle cx="3" cy="3" r="3"/></g>
<g transform="translate(312,480) scale(4.12)"><circle cx="3" cy="3" r="3"/></g>
<g transform="translate(360,480) scale(4.12)"><circle cx="3" cy="3" r="3"/></g>
<g transform="translate(384,480) scale(4.12)"><circle cx="3" cy="3" r="3"/></g>
<g transform="translate(408,480) scale(4.12)"><circle cx="3" cy="3" r="3"/></g>
<g transform="translate(432,480) scale(4.12)"><circle cx="3" cy="3" r="3"/></g>
<g transform="translate(504,480) scale(4.12)"><circle cx="3" cy="3" r="3"/></g>
<g transform="translate(528,480) scale(4.12)"><circle cx="3" cy="3" r="3"/></g>
<g transform="translate(600,480) scale(4.12)"><circle cx="3" cy="3" r="3"/></g>
<g transform="translate(672,480) scale(4.12)"><circle cx="3" cy="3" r="3"/></g>
<g transform="translate(720,480) scale(4.12)"><circle cx="3" cy="3" r="3"/></g>
<g transform="translate(768,480) scale(4.12)"><circle cx="3" cy="3" r="3"/></g>
<g transform="translate(792,480) scale(4.12)"><circle cx="3" cy="3" r="3"/></g>
<g transform="translate(864,480) scale(4.12)"><circle cx="3" cy="3" r="3"/></g>
<g transform="translate(888,480) scale(4.12)"><circle cx="3" cy="3" r="3"/></g>
<g transform="translate(72,504) scale(4.12)"><circle cx="3" cy="3" r="3"/></g>
<g transform="translate(168,504) scale(4.12)"><circle cx="3" cy="3" r="3"/></g>
<g transform="translate(192,504) scale(4.12)"><circle cx="3" cy="3" r="3"/></g>
<g transform="translate(240,504) scale(4.12)"><circle cx="3" cy="3" r="3"/></g>
<g transform="translate(264,504) scale(4.12)"><circle cx="3" cy="3" r="3"/></g>
<g transform="translate(312,504) scale(4.12)"><circle cx="3" cy="3" r="3"/></g>
<g transform="translate(408,504) scale(4.12)"><circle cx="3" cy="3" r="3"/></g>
<g transform="translate(432,504) scale(4.12)"><circle cx="3" cy="3" r="3"/></g>
<g transform="translate(456,504) scale(4.12)"><circle cx="3" cy="3" r="3"/></g>
<g transform="translate(480,504) scale(4.12)"><circle cx="3" cy="3" r="3"/></g>
<g transform="translate(504,504) scale(4.12)"><circle cx="3" cy="3" r="3"/></g>
<g transform="translate(552,504) scale(4.12)"><circle cx="3" cy="3" r="3"/></g>
<g transform="translate(576,504) scale(4.12)"><circle cx="3" cy="3" r="3"/></g>
<g transform="translate(624,504) scale(4.12)"><circle cx="3" cy="3" r="3"/></g>
<g transform="translate(648,504) scale(4.12)"><circle cx="3" cy="3" r="3"/></g>
<g transform="translate(672,504) scale(4.12)"><circle cx="3" cy="3" r="3"/></g>
<g transform="translate(720,504) scale(4.12)"><circle cx="3" cy="3" r="3"/></g>
<g transform="translate(744,504) scale(4.12)"><circle cx="3" cy="3" r="3"/></g>
<g transform="translate(768,504) scale(4.12)"><circle cx="3" cy="3" r="3"/></g>
<g transform="translate(792,504) scale(4.12)"><circle cx="3" cy="3" r="3"/></g>
<g transform="translate(816,504) scale(4.12)"><circle cx="3" cy="3" r="3"/></g>
<g transform="translate(840,504) scale(4.12)"><circle cx="3" cy="3" r="3"/></g>
<g transform="translate(864,504) scale(4.12)"><circle cx="3" cy="3" r="3"/></g>
<g transform="translate(888,504) scale(4.12)"><circle cx="3" cy="3" r="3"/></g>
<g transform="translate(24,528) scale(4.12)"><circle cx="3" cy="3" r="3"/></g>
<g transform="translate(96,528) scale(4.12)"><circle cx="3" cy="3" r="3"/></g>
<g transform="translate(120,528) scale(4.12)"><circle cx="3" cy="3" r="3"/></g>
<g transform="translate(192,528) scale(4.12)"><circle cx="3" cy="3" r="3"/></g>
<g transform="translate(264,528) scale(4.12)"><circle cx="3" cy="3" r="3"/></g>
<g transform="translate(288,528) scale(4.12)"><circle cx="3" cy="3" r="3"/></g>
<g transform="translate(384,528) scale(4.12)"><circle cx="3" cy="3" r="3"/></g>
<g transform="translate(408,528) scale(4.12)"><circle cx="3" cy="3" r="3"/></g>
<g transform="translate(432,528) scale(4.12)"><circle cx="3" cy="3" r="3"/></g>
<g transform="translate(480,528) scale(4.12)"><circle cx="3" cy="3" r="3"/></g>
<g transform="translate(528,528) scale(4.12)"><circle cx="3" cy="3" r="3"/></g>
<g transform="translate(576,528) scale(4.12)"><circle cx="3" cy="3" r="3"/></g>
<g transform="translate(600,528) scale(4.12)"><circle cx="3" cy="3" r="3"/></g>
<g transform="translate(624,528) scale(4.12)"><circle cx="3" cy="3" r="3"/></g>
<g transform="translate(648,528) scale(4.12)"><circle cx="3" cy="3" r="3"/></g>
<g transform="translate(720,528) scale(4.12)"><circle cx="3" cy="3" r="3"/></g>
<g transform="translate(768,528) scale(4.12)"><circle cx="3" cy="3" r="3"/></g>
<g transform="translate(816,528) scale(4.12)"><circle cx="3" cy="3" r="3"/></g>
<g transform="translate(864,528) scale(4.12)"><circle cx="3" cy="3" r="3"/></g>
<g transform="translate(24,552) scale(4.12)"><circle cx="3" cy="3" r="3"/></g>
<g transform="translate(72,552) scale(4.12)"><circle cx="3" cy="3" r="3"/></g>
<g transform="translate(96,552) scale(4.12)"><circle cx="3" cy="3" r="3"/></g>
<g transform="translate(120,552) scale(4.12)"><circle cx="3" cy="3" r="3"/></g>
<g transform="translate(168,552) scale(4.12)"><circle cx="3" cy="3" r="3"/></g>
<g transform="translate(216,552) scale(4.12)"><circle cx="3" cy="3" r="3"/></g>
<g transform="translate(288,552) scale(4.12)"><circle cx="3" cy="3" r="3"/></g>
<g transform="translate(360,552) scale(4.12)"><circle cx="3" cy="3" r="3"/></g>
<g transform="translate(384,552) scale(4.12)"><circle cx="3" cy="3" r="3"/></g>
<g transform="translate(432,552) scale(4.12)"><circle cx="3" cy="3" r="3"/></g>
<g transform="translate(456,552) scale(4.12)"><circle cx="3" cy="3" r="3"/></g>
<g transform="translate(552,552) scale(4.12)"><circle cx="3" cy="3" r="3"/></g>
<g transform="translate(624,552) scale(4.12)"><circle cx="3" cy="3" r="3"/></g>
<g transform="translate(648,552) scale(4.12)"><circle cx="3" cy="3" r="3"/></g>
<g transform="translate(672,552) scale(4.12)"><circle cx="3" cy="3" r="3"/></g>
<g transform="translate(720,552) scale(4.12)"><circle cx="3" cy="3" r="3"/></g>
<g transform="translate(840,552) scale(4.12)"><circle cx="3" cy="3" r="3"/></g>
<g transform="translate(864,552) scale(4.12)"><circle cx="3" cy="3" r="3"/></g>
<g transform="translate(888,552) scale(4.12)"><circle cx="3" cy="3" r="3"/></g>
<g transform="translate(24,576) scale(4.12)"><circle cx="3" cy="3" r="3"/></g>
<g transform="translate(72,576) scale(4.12)"><circle cx="3" cy="3" r="3"/></g>
<g transform="translate(96,576) scale(4.12)"><circle cx="3" cy="3" r="3"/></g>
<g transform="translate(120,576) scale(4.12)"><circle cx="3" cy="3" r="3"/></g>
<g transform="translate(192,576) scale(4.12)"><circle cx="3" cy="3" r="3"/></g>
<g transform="translate(240,576) scale(4.12)"><circle cx="3" cy="3" r="3"/></g>
<g transform="translate(288,576) scale(4.12)"><circle cx="3" cy="3" r="3"/></g>
<g transform="translate(336,576) scale(4.12)"><circle cx="3" cy="3" r="3"/></g>
<g transform="translate(408,576) scale(4.12)"><circle cx="3" cy="3" r="3"/></g>
<g transform="translate(456,576) scale(4.12)"><circle cx="3" cy="3" r="3"/></g>
<g transform="translate(528,576) scale(4.12)"><circle cx="3" cy="3" r="3"/></g>
<g transform="translate(600,576) scale(4.12)"><circle cx="3" cy="3" r="3"/></g>
<g transform="translate(624,576) scale(4.12)"><circle cx="3" cy="3" r="3"/></g>
<g transform="translate(768,576) scale(4.12)"><circle cx="3" cy="3" r="3"/></g>
<g transform="translate(864,576) scale(4.12)"><circle cx="3" cy="3" r="3"/></g>
<g transform="translate(888,576) scale(4.12)"><circle cx="3" cy="3" r="3"/></g>
<g transform="translate(24,600) scale(4.12)"><circle cx="3" cy="3" r="3"/></g>
<g transform="translate(72,600) scale(4.12)"><circle cx="3" cy="3" r="3"/></g>
<g transform="translate(96,600) scale(4.12)"><circle cx="3" cy="3" r="3"/></g>
<g transform="translate(120,600) scale(4.12)"><circle cx="3" cy="3" r="3"/></g>
<g transform="translate(168,600) scale(4.12)"><circle cx="3" cy="3" r="3"/></g>
<g transform="translate(192,600) scale(4.12)"><circle cx="3" cy="3" r="3"/></g>
<g transform="translate(240,600) scale(4.12)"><circle cx="3" cy="3" r="3"/></g>
<g transform="translate(312,600) scale(4.12)"><circle cx="3" cy="3" r="3"/></g>
<g transform="translate(360,600) scale(4.12)"><circle cx="3" cy="3" r="3"/></g>
<g transform="translate(384,600) scale(4.12)"><circle cx="3" cy="3" r="3"/></g>
<g transform="translate(408,600) scale(4.12)"><circle cx="3" cy="3" r="3"/></g>
<g transform="translate(432,600) scale(4.12)"><circle cx="3" cy="3" r="3"/></g>
<g transform="translate(480,600) scale(4.12)"><circle cx="3" cy="3" r="3"/></g>
<g transform="translate(504,600) scale(4.12)"><circle cx="3" cy="3" r="3"/></g>
<g transform="translate(552,600) scale(4.12)"><circle cx="3" cy="3" r="3"/></g>
<g transform="translate(576,600) scale(4.12)"><circle cx="3" cy="3" r="3"/></g>
<g transform="translate(600,600) scale(4.12)"><circle cx="3" cy="3" r="3"/></g>
<g transform="translate(648,600) scale(4.12)"><circle cx="3" cy="3" r="3"/></g>
<g transform="translate(696,600) scale(4.12)"><circle cx="3" cy="3" r="3"/></g>
<g transform="translate(720,600) scale(4.12)"><circle cx="3" cy="3" r="3"/></g>
<g transform="translate(792,600) scale(4.12)"><circle cx="3" cy="3" r="3"/></g>
<g transform="translate(816,600) scale(4.12)"><circle cx="3" cy="3" r="3"/></g>
<g transform="translate(840,600) scale(4.12)"><circle cx="3" cy="3" r="3"/></g>
<g transform="translate(888,600) scale(4.12)"><circle cx="3" cy="3" r="3"/></g>
<g transform="translate(24,624) scale(4.12)"><circle cx="3" cy="3" r="3"/></g>
<g transform="translate(48,624) scale(4.12)"><circle cx="3" cy="3" r="3"/></g>
<g transform="translate(72,624) scale(4.12)"><circle cx="3" cy="3" r="3"/></g>
<g transform="translate(96,624) scale(4.12)"><circle cx="3" cy="3" r="3"/></g>
<g transform="translate(120,624) scale(4.12)"><circle cx="3" cy="3" r="3"/></g>
<g transform="translate(144,624) scale(4.12)"><circle cx="3" cy="3" r="3"/></g>
<g transform="translate(240,624) scale(4.12)"><circle cx="3" cy="3" r="3"/></g>
<g transform="translate(264,624) scale(4.12)"><circle cx="3" cy="3" r="3"/></g>
<g transform="translate(312,624) scale(4.12)"><circle cx="3" cy="3" r="3"/></g>
<g transform="translate(336,624) scale(4.12)"><circle cx="3" cy="3" r="3"/></g>
<g transform="translate(408,624) scale(4.12)"><circle cx="3" cy="3" r="3"/></g>
<g transform="translate(456,624) scale(4.12)"><circle cx="3" cy="3" r="3"/></g>
<g transform="translate(504,624) scale(4.12)"><circle cx="3" cy="3" r="3"/></g>
<g transform="translate(672,624) scale(4.12)"><circle cx="3" cy="3" r="3"/></g>
<g transform="translate(744,624) scale(4.12)"><circle cx="3" cy="3" r="3"/></g>
<g transform="translate(816,624) scale(4.12)"><circle cx="3" cy="3" r="3"/></g>
<g transform="translate(24,648) scale(4.12)"><circle cx="3" cy="3" r="3"/></g>
<g transform="translate(72,648) scale(4.12)"><circle cx="3" cy="3" r="3"/></g>
<g transform="translate(120,648) scale(4.12)"><circle cx="3" cy="3" r="3"/></g>
<g transform="translate(168,648) scale(4.12)"><circle cx="3" cy="3" r="3"/></g>
<g transform="translate(240,648) scale(4.12)"><circle cx="3" cy="3" r="3"/></g>
<g transform="translate(288,648) scale(4.12)"><circle cx="3" cy="3" r="3"/></g>
<g transform="translate(312,648) scale(4.12)"><circle cx="3" cy="3" r="3"/></g>
<g transform="translate(360,648) scale(4.12)"><circle cx="3" cy="3" r="3"/></g>
<g transform="translate(384,648) scale(4.12)"><circle cx="3" cy="3" r="3"/></g>
<g transform="translate(456,648) scale(4.12)"><circle cx="3" cy="3" r="3"/></g>
<g transform="translate(528,648) scale(4.12)"><circle cx="3" cy="3" r="3"/></g>
<g transform="translate(552,648) scale(4.12)"><circle cx="3" cy="3" r="3"/></g>
<g transform="translate(576,648) scale(4.12)"><circle cx="3" cy="3" r="3"/></g>
<g transform="translate(600,648) scale(4.12)"><circle cx="3" cy="3" r="3"/></g>
<g transform="translate(624,648) scale(4.12)"><circle cx="3" cy="3" r="3"/></g>
<g transform="translate(648,648) scale(4.12)"><circle cx="3" cy="3" r="3"/></g>
<g transform="translate(672,648) scale(4.12)"><circle cx="3" cy="3" r="3"/></g>
<g transform="translate(696,648) scale(4.12)"><circle cx="3" cy="3" r="3"/></g>
<g transform="translate(744,648) scale(4.12)"><circle cx="3" cy="3" r="3"/></g>
<g transform="translate(792,648) scale(4.12)"><circle cx="3" cy="3" r="3"/></g>
<g transform="translate(888,648) scale(4.12)"><circle cx="3" cy="3" r="3"/></g>
<g transform="translate(24,672) scale(4.12)"><circle cx="3" cy="3" r="3"/></g>
<g transform="translate(96,672) scale(4.12)"><circle cx="3" cy="3" r="3"/></g>
<g transform="translate(120,672) scale(4.12)"><circle cx="3" cy="3" r="3"/></g>
<g transform="translate(216,672) scale(4.12)"><circle cx="3" cy="3" r="3"/></g>
<g transform="translate(240,672) scale(4.12)"><circle cx="3" cy="3" r="3"/></g>
<g transform="translate(360,672) scale(4.12)"><circle cx="3" cy="3" r="3"/></g>
<g transform="translate(408,672) scale(4.12)"><circle cx="3" cy="3" r="3"/></g>
<g transform="translate(456,672) scale(4.12)"><circle cx="3" cy="3" r="3"/></g>
<g transform="translate(504,672) scale(4.12)"><circle cx="3" cy="3" r="3"/></g>
<g transform="translate(528,672) scale(4.12)"><circle cx="3" cy="3" r="3"/></g>
<g transform="translate(576,672) scale(4.12)"><circle cx="3" cy="3" r="3"/></g>
<g transform="translate(648,672) scale(4.12)"><circle cx="3" cy="3" r="3"/></g>
<g transform="translate(672,672) scale(4.12)"><circle cx="3" cy="3" r="3"/></g>
<g transform="translate(720,672) scale(4.12)"><circle cx="3" cy="3" r="3"/></g>
<g transform="translate(768,672) scale(4.12)"><circle cx="3" cy="3" r="3"/></g>
<g transform="translate(792,672) scale(4.12)"><circle cx="3" cy="3" r="3"/></g>
<g transform="translate(864,672) scale(4.12)"><circle cx="3" cy="3" r="3"/></g>
<g transform="translate(888,672) scale(4.12)"><circle cx="3" cy="3" r="3"/></g>
<g transform="translate(24,696) scale(4.12)"><circle cx="3" cy="3" r="3"/></g>
<g transform="translate(72,696) scale(4.12)"><circle cx="3" cy="3" r="3"/></g>
<g transform="translate(96,696) scale(4.12)"><circle cx="3" cy="3" r="3"/></g>
<g transform="translate(120,696) scale(4.12)"><circle cx="3" cy="3" r="3"/></g>
<g transform="translate(168,696) scale(4.12)"><circle cx="3" cy="3" r="3"/></g>
<g transform="translate(192,696) scale(4.12)"><circle cx="3" cy="3" r="3"/></g>
<g transform="translate(216,696) scale(4.12)"><circle cx="3" cy="3" r="3"/></g>
<g transform="translate(240,696) scale(4.12)"><circle cx="3" cy="3" r="3"/></g>
<g transform="translate(264,696) scale(4.12)"><circle cx="3" cy="3" r="3"/></g>
<g transform="translate(312,696) scale(4.12)"><circle cx="3" cy="3" r="3"/></g>
<g transform="translate(384,696) scale(4.12)"><circle cx="3" cy="3" r="3"/></g>
<g transform="translate(528,696) scale(4.12)"><circle cx="3" cy="3" r="3"/></g>
<g transform="translate(552,696) scale(4.12)"><circle cx="3" cy="3" r="3"/></g>
<g transform="translate(576,696) scale(4.12)"><circle cx="3" cy="3" r="3"/></g>
<g transform="translate(600,696) scale(4.12)"><circle cx="3" cy="3" r="3"/></g>
<g transform="translate(624,696) scale(4.12)"><circle cx="3" cy="3" r="3"/></g>
<g transform="translate(648,696) scale(4.12)"><circle cx="3" cy="3" r="3"/></g>
<g transform="translate(672,696) scale(4.12)"><circle cx="3" cy="3" r="3"/></g>
<g transform="translate(696,696) scale(4.12)"><circle cx="3" cy="3" r="3"/></g>
<g transform="translate(720,696) scale(4.12)"><circle cx="3" cy="3" r="3"/></g>
<g transform="translate(744,696) scale(4.12)"><circle cx="3" cy="3" r="3"/></g>
<g transform="translate(768,696) scale(4.12)"><circle cx="3" cy="3" r="3"/></g>
<g transform="translate(792,696) scale(4.12)"><circle cx="3" cy="3" r="3"/></g>
<g transform="translate(816,696) scale(4.12)"><circle cx="3" cy="3" r="3"/></g>
<g transform="translate(840,696) scale(4.12)"><circle cx="3" cy="3" r="3"/></g>
<g transform="translate(864,696) scale(4.12)"><circle cx="3" cy="3" r="3"/></g>
<g transform="translate(216,720) scale(4.12)"><circle cx="3" cy="3" r="3"/></g>
<g transform="translate(264,720) scale(4.12)"><circle cx="3" cy="3" r="3"/></g>
<g transform="translate(288,720) scale(4.12)"><circle cx="3" cy="3" r="3"/></g>
<g transform="translate(336,720) scale(4.12)"><circle cx="3" cy="3" r="3"/></g>
<g transform="translate(360,720) scale(4.12)"><circle cx="3" cy="3" r="3"/></g>
<g transform="translate(456,720) scale(4.12)"><circle cx="3" cy="3" r="3"/></g>
<g transform="translate(576,720) scale(4.12)"><circle cx="3" cy="3" r="3"/></g>
<g transform="translate(648,720) scale(4.12)"><circle cx="3" cy="3" r="3"/></g>
<g transform="translate(672,720) scale(4.12)"><circle cx="3" cy="3" r="3"/></g>
<g transform="translate(696,720) scale(4.12)"><circle cx="3" cy="3" r="3"/></g>
<g transform="translate(792,720) scale(4.12)"><circle cx="3" cy="3" r="3"/></g>
<g transform="translate(864,720) scale(4.12)"><circle cx="3" cy="3" r="3"/></g>
<g transform="translate(264,744) scale(4.12)"><circle cx="3" cy="3" r="3"/></g>
<g transform="translate(288,744) scale(4.12)"><circle cx="3" cy="3" r="3"/></g>
<g transform="translate(312,744) scale(4.12)"><circle cx="3" cy="3" r="3"/></g>
<g transform="translate(384,744) scale(4.12)"><circle cx="3" cy="3" r="3"/></g>
<g transform="translate(432,744) scale(4.12)"><circle cx="3" cy="3" r="3"/></g>
<g transform="translate(504,744) scale(4.12)"><circle cx="3" cy="3" r="3"/></g>
<g transform="translate(528,744) scale(4.12)"><circle cx="3" cy="3" r="3"/></g>
<g transform="translate(552,744) scale(4.12)"><circle cx="3" cy="3" r="3"/></g>
<g transform="translate(696,744) scale(4.12)"><circle cx="3" cy="3" r="3"/></g>
<g transform="translate(744,744) scale(4.12)"><circle cx="3" cy="3" r="3"/></g>
<g transform="translate(792,744) scale(4.12)"><circle cx="3" cy="3" r="3"/></g>
<g transform="translate(816,744) scale(4.12)"><circle cx="3" cy="3" r="3"/></g>
<g transform="translate(864,744) scale(4.12)"><circle cx="3" cy="3" r="3"/></g>
<g transform="translate(888,744) scale(4.12)"><circle cx="3" cy="3" r="3"/></g>
<g transform="translate(240,768) scale(4.12)"><circle cx="3" cy="3" r="3"/></g>
<g transform="translate(264,768) scale(4.12)"><circle cx="3" cy="3" r="3"/></g>
<g transform="translate(336,768) scale(4.12)"><circle cx="3" cy="3" r="3"/></g>
<g transform="translate(432,768) scale(4.12)"><circle cx="3" cy="3" r="3"/></g>
<g transform="translate(528,768) scale(4.12)"><circle cx="3" cy="3" r="3"/></g>
<g transform="translate(552,768) scale(4.12)"><circle cx="3" cy="3" r="3"/></g>
<g transform="translate(576,768) scale(4.12)"><circle cx="3" cy="3" r="3"/></g>
<g transform="translate(648,768) scale(4.12)"><circle cx="3" cy="3" r="3"/></g>
<g transform="translate(696,768) scale(4.12)"><circle cx="3" cy="3" r="3"/></g>
<g transform="translate(792,768) scale(4.12)"><circle cx="3" cy="3" r="3"/></g>
<g transform="translate(864,768) scale(4.12)"><circle cx="3" cy="3" r="3"/></g>
<g transform="translate(216,792) scale(4.12)"><circle cx="3" cy="3" r="3"/></g>
<g transform="translate(264,792) scale(4.12)"><circle cx="3" cy="3" r="3"/></g>
<g transform="translate(312,792) scale(4.12)"><circle cx="3" cy="3" r="3"/></g>
<g transform="translate(336,792) scale(4.12)"><circle cx="3" cy="3" r="3"/></g>
<g transform="translate(384,792) scale(4.12)"><circle cx="3" cy="3" r="3"/></g>
<g transform="translate(408,792) scale(4.12)"><circle cx="3" cy="3" r="3"/></g>
<g transform="translate(432,792) scale(4.12)"><circle cx="3" cy="3" r="3"/></g>
<g transform="translate(480,792) scale(4.12)"><circle cx="3" cy="3" r="3"/></g>
<g transform="translate(504,792) scale(4.12)"><circle cx="3" cy="3" r="3"/></g>
<g transform="translate(576,792) scale(4.12)"><circle cx="3" cy="3" r="3"/></g>
<g transform="translate(624,792) scale(4.12)"><circle cx="3" cy="3" r="3"/></g>
<g transform="translate(648,792) scale(4.12)"><circle cx="3" cy="3" r="3"/></g>
<g transform="translate(672,792) scale(4.12)"><circle cx="3" cy="3" r="3"/></g>
<g transform="translate(696,792) scale(4.12)"><circle cx="3" cy="3" r="3"/></g>
<g transform="translate(720,792) scale(4.12)"><circle cx="3" cy="3" r="3"/></g>
<g transform="translate(744,792) scale(4.12)"><circle cx="3" cy="3" r="3"/></g>
<g transform="translate(768,792) scale(4.12)"><circle cx="3" cy="3" r="3"/></g>
<g transform="translate(792,792) scale(4.12)"><circle cx="3" cy="3" r="3"/></g>
<g transform="translate(840,792) scale(4.12)"><circle cx="3" cy="3" r="3"/></g>
<g transform="translate(864,792) scale(4.12)"><circle cx="3" cy="3" r="3"/></g>
<g transform="translate(888,792) scale(4.12)"><circle cx="3" cy="3" r="3"/></g>
<g transform="translate(216,816) scale(4.12)"><circle cx="3" cy="3" r="3"/></g>
<g transform="translate(240,816) scale(4.12)"><circle cx="3" cy="3" r="3"/></g>
<g transform="translate(264,816) scale(4.12)"><circle cx="3" cy="3" r="3"/></g>
<g transform="translate(288,816) scale(4.12)"><circle cx="3" cy="3" r="3"/></g>
<g transform="translate(384,816) scale(4.12)"><circle cx="3" cy="3" r="3"/></g>
<g transform="translate(600,816) scale(4.12)"><circle cx="3" cy="3" r="3"/></g>
<g transform="translate(672,816) scale(4.12)"><circle cx="3" cy="3" r="3"/></g>
<g transform="translate(744,816) scale(4.12)"><circle cx="3" cy="3" r="3"/></g>
<g transform="translate(792,816) scale(4.12)"><circle cx="3" cy="3" r="3"/></g>
<g transform="translate(816,816) scale(4.12)"><circle cx="3" cy="3" r="3"/></g>
<g transform="translate(840,816) scale(4.12)"><circle cx="3" cy="3" r="3"/></g>
<g transform="translate(216,840) scale(4.12)"><circle cx="3" cy="3" r="3"/></g>
<g transform="translate(240,840) scale(4.12)"><circle cx="3" cy="3" r="3"/></g>
<g transform="translate(264,840) scale(4.12)"><circle cx="3" cy="3" r="3"/></g>
<g transform="translate(312,840) scale(4.12)"><circle cx="3" cy="3" r="3"/></g>
<g transform="translate(360,840) scale(4.12)"><circle cx="3" cy="3" r="3"/></g>
<g transform="translate(408,840) scale(4.12)"><circle cx="3" cy="3" r="3"/></g>
<g transform="translate(456,840) scale(4.12)"><circle cx="3" cy="3" r="3"/></g>
<g transform="translate(504,840) scale(4.12)"><circle cx="3" cy="3" r="3"/></g>
<g transform="translate(528,840) scale(4.12)"><circle cx="3" cy="3" r="3"/></g>
<g transform="translate(624,840) scale(4.12)"><circle cx="3" cy="3" r="3"/></g>
<g transform="translate(672,840) scale(4.12)"><circle cx="3" cy="3" r="3"/></g>
<g transform="translate(720,840) scale(4.12)"><circle cx="3" cy="3" r="3"/></g>
<g transform="translate(768,840) scale(4.12)"><circle cx="3" cy="3" r="3"/></g>
<g transform="translate(888,840) scale(4.12)"><circle cx="3" cy="3" r="3"/></g>
<g transform="translate(264,864) scale(4.12)"><circle cx="3" cy="3" r="3"/></g>
<g transform="translate(288,864) scale(4.12)"><circle cx="3" cy="3" r="3"/></g>
<g transform="translate(312,864) scale(4.12)"><circle cx="3" cy="3" r="3"/></g>
<g transform="translate(336,864) scale(4.12)"><circle cx="3" cy="3" r="3"/></g>
<g transform="translate(360,864) scale(4.12)"><circle cx="3" cy="3" r="3"/></g>
<g transform="translate(384,864) scale(4.12)"><circle cx="3" cy="3" r="3"/></g>
<g transform="translate(408,864) scale(4.12)"><circle cx="3" cy="3" r="3"/></g>
<g transform="translate(456,864) scale(4.12)"><circle cx="3" cy="3" r="3"/></g>
<g transform="translate(504,864) scale(4.12)"><circle cx="3" cy="3" r="3"/></g>
<g transform="translate(528,864) scale(4.12)"><circle cx="3" cy="3" r="3"/></g>
<g transform="translate(600,864) scale(4.12)"><circle cx="3" cy="3" r="3"/></g>
<g transform="translate(672,864) scale(4.12)"><circle cx="3" cy="3" r="3"/></g>
<g transform="translate(696,864) scale(4.12)"><circle cx="3" cy="3" r="3"/></g>
<g transform="translate(720,864) scale(4.12)"><circle cx="3" cy="3" r="3"/></g>
<g transform="translate(744,864) scale(4.12)"><circle cx="3" cy="3" r="3"/></g>
<g transform="translate(768,864) scale(4.12)"><circle cx="3" cy="3" r="3"/></g>
<g transform="translate(792,864) scale(4.12)"><circle cx="3" cy="3" r="3"/></g>
<g transform="translate(888,864) scale(4.12)"><circle cx="3" cy="3" r="3"/></g>
<g transform="translate(240,888) scale(4.12)"><circle cx="3" cy="3" r="3"/></g>
<g transform="translate(312,888) scale(4.12)"><circle cx="3" cy="3" r="3"/></g>
<g transform="translate(360,888) scale(4.12)"><circle cx="3" cy="3" r="3"/></g>
<g transform="translate(408,888) scale(4.12)"><circle cx="3" cy="3" r="3"/></g>
<g transform="translate(432,888) scale(4.12)"><circle cx="3" cy="3" r="3"/></g>
<g transform="translate(456,888) scale(4.12)"><circle cx="3" cy="3" r="3"/></g>
<g transform="translate(480,888) scale(4.12)"><circle cx="3" cy="3" r="3"/></g>
<g transform="translate(528,888) scale(4.12)"><circle cx="3" cy="3" r="3"/></g>
<g transform="translate(600,888) scale(4.12)"><circle cx="3" cy="3" r="3"/></g>
<g transform="translate(624,888) scale(4.12)"><circle cx="3" cy="3" r="3"/></g>
<g transform="translate(648,888) scale(4.12)"><circle cx="3" cy="3" r="3"/></g>
<g transform="translate(744,888) scale(4.12)"><circle cx="3" cy="3" r="3"/></g>
<g transform="translate(768,888) scale(4.12)"><circle cx="3" cy="3" r="3"/></g>
<g transform="translate(792,888) scale(4.12)"><circle cx="3" cy="3" r="3"/></g>
<g transform="translate(816,888) scale(4.12)"><circle cx="3" cy="3" r="3"/></g>
<g transform="translate(840,888) scale(4.12)"><circle cx="3" cy="3" r="3"/></g>
<g transform="translate(864,888) scale(4.12)"><circle cx="3" cy="3" r="3"/></g>
<g transform="translate(888,888) scale(4.12)"><circle cx="3" cy="3" r="3"/></g>
<g transform="translate(24,24)"><g transform="scale(12)"><path d="M4.5,14h5.1C12,14,14,12,14,9.6V4.5C14,2,12,0,9.5,0H4.4C2,0,0,2,0,4.4v5.1C0,12,2,14,4.5,14z M12,4.8v4.4 c0,1.5-1.3,2.8-2.8,2.8H4.8C3.2,12,2,10.8,2,9.2V4.8C2,3.3,3.3,2,4.8,2h4.4C10.8,2,12,3.2,12,4.8z"/></g></g>
<g transform="translate(744,24)"><g transform="scale(12)"><path d="M4.5,14h5.1C12,14,14,12,14,9.6V4.5C14,2,12,0,9.5,0H4.4C2,0,0,2,0,4.4v5.1C0,12,2,14,4.5,14z M12,4.8v4.4 c0,1.5-1.3,2.8-2.8,2.8H4.8C3.2,12,2,10.8,2,9.2V4.8C2,3.3,3.3,2,4.8,2h4.4C10.8,2,12,3.2,12,4.8z"/></g></g>
<g transform="translate(24,744)"><g transform="scale(12)"><path d="M4.5,14h5.1C12,14,14,12,14,9.6V4.5C14,2,12,0,9.5,0H4.4C2,0,0,2,0,4.4v5.1C0,12,2,14,4.5,14z M12,4.8v4.4 c0,1.5-1.3,2.8-2.8,2.8H4.8C3.2,12,2,10.8,2,9.2V4.8C2,3.3,3.3,2,4.8,2h4.4C10.8,2,12,3.2,12,4.8z"/></g></g>
<g transform="translate(72,72)"><g transform="scale(12)"><path d="M6,1.7v2.7C6,5.2,5.2,6,4.3,6H1.7C0.7,6,0,5.3,0,4.3V1.7C0,0.8,0.8,0,1.7,0h2.7C5.3,0,6,0.7,6,1.7z"/></g></g>
<g transform="translate(792,72)"><g transform="scale(12)"><path d="M6,1.7v2.7C6,5.2,5.2,6,4.3,6H1.7C0.7,6,0,5.3,0,4.3V1.7C0,0.8,0.8,0,1.7,0h2.7C5.3,0,6,0.7,6,1.7z"/></g></g>
<g transform="translate(72,792)"><g transform="scale(12)"><path d="M6,1.7v2.7C6,5.2,5.2,6,4.3,6H1.7C0.7,6,0,5.3,0,4.3V1.7C0,0.8,0.8,0,1.7,0h2.7C5.3,0,6,0.7,6,1.7z"/></g></g>
</g></svg>
