<svg version="1.2" xmlns="http://www.w3.org/2000/svg" viewBox="0 0 36 26" width="36" height="26">
	<title>file</title>
	<style>
		.s0 { fill: #002d62 } 
		.s1 { fill: #dd2e44 } 
		.s2 { fill: #ce1225 } 
		.s3 { fill: #eeeeee } 
		.s4 { fill: #ffffff } 
		.s5 { fill: #996b38 } 
		.s6 { fill: #ffce46 } 
		.s7 { fill: #000000 } 
		.s8 { fill: #549334 } 
	</style>
	<path class="s0" d="m36 22q0 0.8-0.3 1.5-0.3 0.8-0.9 1.3-0.5 0.6-1.3 0.9-0.7 0.3-1.5 0.3h-28q-0.8 0-1.5-0.3-0.8-0.3-1.3-0.9-0.6-0.5-0.9-1.3-0.3-0.7-0.3-1.5v-18q0-0.8 0.3-1.5 0.3-0.8 0.9-1.3 0.5-0.6 1.3-0.9 0.7-0.3 1.5-0.3h28q0.8 0 1.5 0.3 0.8 0.3 1.3 0.9 0.6 0.5 0.9 1.3 0.3 0.7 0.3 1.5z"/>
	<path class="s1" d="m32 0h-12v11h16v-7q0-0.8-0.3-1.5-0.3-0.8-0.9-1.3-0.5-0.6-1.3-0.9-0.7-0.3-1.5-0.3z"/>
	<path class="s2" d="m4 26h12v-11h-16v7q0 0.8 0.3 1.5 0.3 0.8 0.9 1.3 0.5 0.6 1.3 0.9 0.7 0.3 1.5 0.3z"/>
	<path class="s3" d="m36 10h-15v-10h-6v10h-15v6h15v10h6v-10h15z"/>
	<path class="s0" d="m18 10.9h-1.9l0.3 0.4v1.6h1.6zm0 4c0.3-0.3 0.5-0.3 1.2-0.3 0.4 0 0.4-0.3 0.4-0.8v-0.9h-1.6z"/>
	<path class="s2" d="m18 14.9c-0.2-0.3-0.4-0.3-1.1-0.3-0.4 0-0.5-0.2-0.5-0.8v-0.9h1.6zm0-3.9h1.9l-0.3 0.3v1.7h-1.6z"/>
	<path class="s4" d="m18.3 14.7v-3.8h-0.6v3.8q0.1 0 0.1 0 0.1 0 0.1 0.1 0 0 0.1 0 0 0 0 0.1 0-0.1 0.1-0.1 0 0 0 0 0.1-0.1 0.1-0.1 0.1 0 0.1 0z"/>
	<path class="s4" d="m16.4 12.6h3.2v0.6h-3.2z"/>
	<path class="s0" d="m18 12.6l1.1-1.2v0.4l0.2-0.2v1.9c0 0.7-1.1 0.6-1.3 0.3-0.1 0.3-1.2 0.4-1.2-0.3v-1.9l0.2 0.2v-0.4z"/>
	<path class="s4" d="m18 13.7c-0.5 0.3-0.8 0.1-0.8-0.2v-0.3c-0.2 0-0.4-0.1-0.4-0.1v-0.3c0 0.1 0.3 0.1 0.4 0.1v-0.9l0.2 0.1v-0.2l0.3 0.3v0.2l-0.2-0.2v0.8c0.2 0 0.3 0.1 0.5 0.1 0.2 0 0.4-0.1 0.6-0.1v-0.8l-0.2 0.2v-0.2l0.3-0.3v0.2l0.1-0.1v0.9c0.1 0 0.5 0 0.5-0.1v0.3c0 0-0.3 0.1-0.5 0.1v0.3c0 0.3-0.3 0.5-0.8 0.2v-0.2c0.3 0.1 0.6 0.2 0.6 0v-0.2c-0.2 0-0.4 0.1-0.6 0.1-0.2 0-0.3-0.1-0.5-0.1v0.2c0 0.2 0.3 0.1 0.5 0z"/>
	<path class="s2" d="m18.4 12.2v0.2l0.2-0.2v0.8c-0.2 0-0.4 0.1-0.6 0.1-0.2 0-0.3-0.1-0.5-0.1v-0.8l0.2 0.2v-0.2l0.3 0.4z"/>
	<path class="s2" d="m16.8 13.1v0.4c0 0.7 1.1 0.6 1.2 0.3 0.2 0.3 1.3 0.4 1.3-0.3v-0.4c0 0-0.3 0.1-0.5 0.1v0.3c0 0.3-0.3 0.5-0.8 0.2-0.5 0.3-0.8 0.1-0.8-0.2v-0.3c-0.2 0-0.4-0.1-0.4-0.1z"/>
	<path class="s0" d="m18.4 10.3q0.1-0.1 0.1-0.2-0.1 0-0.1 0-0.1 0-0.1 0-0.1 0-0.2 0 0 0-0.1 0-0.2 0-0.5 0 0.1 0.1 0.1 0.2c0 0-0.1 0.1-0.3 0.1q-0.1 0-0.2 0-0.1 0-0.3 0-0.1 0-0.2 0-0.1 0-0.2 0.1c0.1 0 0.1 0 0.1 0.1q0 0.1-0.4 0.2c-0.3 0-0.4 0.3-0.5 0.7q-0.1 0-0.1-0.1 0 0-0.1 0 0 0-0.1 0 0 0-0.1 0c0.1-0.3 0.3-0.9 0.5-0.9 0-0.2 0-0.2 0.2-0.3 0.3-0.2 0.7-0.2 1.2-0.3 0-0.1 0-0.1 0.2-0.2 0.1-0.1 0.3-0.1 0.7-0.1 0.4 0 0.6 0 0.8 0.1 0.1 0.1 0.1 0.1 0.1 0.2 0.5 0.1 0.9 0.1 1.2 0.3 0.2 0.1 0.3 0.1 0.2 0.3 0.3 0 0.5 0.6 0.5 0.9-0.1 0-0.2 0-0.3 0.1-0.1-0.4-0.2-0.7-0.5-0.7q-0.4-0.1-0.4-0.2c0-0.1 0-0.1 0-0.1q-0.1-0.1-0.2-0.1-0.1 0-0.2 0-0.1 0-0.2 0-0.1 0-0.2 0c-0.3 0-0.4-0.1-0.4-0.1z"/>
	<g>
		<path class="s5" d="m18 12.6l1.3-1-1.3 1.1zm0-0.1l1.1-1.2-1.1 1.2zm0-0.1l0.9-1.2-0.9 1.3zm0 0.2l-1.3-1 1.3 1.1z"/>
		<path class="s5" d="m18 12.5l-1.1-1.1 1.1 1.2zm0-0.2l-0.8-1.1h-0.1l0.9 1.2z"/>
	</g>
	<path class="s6" d="m19.3 11.5l0.2-0.1-0.2 0.2c0 0 0 0 0-0.1zm-0.2-0.2l0.1-0.1-0.1 0.2c0 0 0 0 0-0.1zm-0.2-0.1l0.1-0.2-0.1 0.2c0 0-0.1 0 0 0zm-2.1 0.3l-0.2-0.1 0.1 0.2c0 0 0.1 0 0.1-0.1zm0.2-0.2l-0.2-0.1 0.1 0.2c0 0 0.1 0 0.1-0.1zm0.2-0.1l-0.2-0.2 0.1 0.2c0 0 0.1 0 0.1 0z"/>
	<path class="s4" d="m17.7 12.4c0.1-0.1 0.2-0.1 0.3-0.1 0.1-0.1 0.2-0.1 0.3-0.1l0.2 0.6c-0.1 0-0.2 0-0.2 0-0.1 0-0.1 0-0.1 0.1q-0.1 0-0.2 0c0 0 0 0-0.1 0z"/>
	<path class="s7" d="m17.9 12.9l-0.2-0.5c0.1-0.1 0.2-0.1 0.3-0.1 0-0.1 0.2-0.1 0.3-0.1l0.2 0.6q-0.1 0-0.1 0-0.1 0-0.1 0 0 0 0 0 0 0 0 0 0 0 0 0-0.1 0-0.1 0.1c0 0-0.1 0-0.2 0q0 0 0 0 0 0-0.1 0zm-0.2-0.5l0.2 0.5q0 0 0 0 0 0 0 0 0.1 0 0.1 0 0 0 0 0 0 0 0 0 0 0 0 0 0 0 0 0 0 0 0 0 0.1-0.1 0.2 0c0-0.1 0-0.1 0-0.1q0.1 0 0.2 0 0 0 0.1 0l-0.2-0.6c-0.1 0-0.2 0-0.3 0.1-0.1 0-0.2 0-0.3 0.1z"/>
	<path class="s8" d="m19.7 15.3c0.2 0 0.4 0 0.5 0q-0.1 0-0.1 0 0 0-0.1 0 0-0.1-0.1-0.1 0 0 0 0c0.1 0 0.2 0 0.3 0.1 0 0 0 0 0 0.1 0 0.1 0 0.2 0.1 0 0-0.1 0-0.1 0-0.2q-0.1 0-0.1 0 0 0-0.1 0 0-0.1 0-0.1-0.1 0-0.1 0 0.3 0.1 0.4 0.2 0-0.1 0-0.1 0 0-0.1-0.1 0 0 0 0-0.1 0-0.1-0.1c0.1 0.1 0.3 0.1 0.4 0.2q0-0.1-0.1-0.1 0 0 0 0-0.1-0.1-0.1-0.1 0 0-0.1 0c0.2 0 0.4 0 0.5 0.1q-0.2-0.2-0.4-0.3c0.2 0 0.4 0.1 0.5 0.1-0.1-0.1-0.2-0.2-0.4-0.2q0.3 0 0.4 0.1 0 0-0.1-0.1 0 0-0.1 0 0-0.1-0.1-0.1-0.1 0-0.1 0 0.2 0 0.4 0-0.1 0-0.1 0-0.1 0-0.1-0.1 0 0-0.1 0 0 0-0.1 0 0.3-0.1 0.7 0-0.1 0-0.2 0 0 0-0.1-0.1 0 0-0.1 0 0 0-0.1 0c0.1 0 0.2-0.1 0.3 0q0-0.1-0.1-0.1 0 0-0.1 0 0 0-0.1 0 0 0-0.1 0c0.2-0.1 0.4-0.1 0.5-0.1q-0.3 0-0.6 0c0.2-0.2 0.3-0.2 0.5-0.2 0.1 0 0.2-0.1 0.1-0.1q-0.2 0-0.2 0c0.1 0 0.3-0.1 0.4-0.2 0 0 0.2-0.1 0 0-0.2 0-0.4 0-0.6 0.1q0 0-0.1 0 0 0 0 0-0.1 0-0.1 0 0 0 0 0 0.1-0.1 0.3-0.2c0.2 0 0.2-0.1 0.3 0.1q0.1 0.1 0-0.2c-0.1-0.1-0.2-0.1-0.3 0q-0.1 0-0.2 0.1c0.1-0.1 0.4-0.4 0.4-0.5 0.1-0.1 0.1 0 0.2 0.1 0.1 0 0.1 0 0-0.1-0.1-0.1-0.1-0.1-0.2-0.1 0 0.1-0.3 0.2-0.5 0.4 0.3-0.3 0.6-0.6 0.7-0.7q-0.2 0.2-0.4 0.3c0-0.1 0.1-0.2 0.1-0.2q-0.1 0-0.2 0.1c0.1-0.1 0.2-0.2 0.2-0.3q0 0 0.1 0h0.1c0.1 0 0.1 0 0 0-0.2-0.1-0.2-0.1-0.2 0q-0.1 0-0.1 0 0 0 0 0.1 0 0 0 0-0.1 0-0.1 0c0.1-0.1 0.3-0.3 0.3-0.3q-0.3 0.1-0.4 0.2c0.1-0.1 0.4-0.3 0.5-0.4-0.1 0-0.3 0.1-0.3 0.2q0-0.1 0.1-0.3-0.1 0.1-0.1 0.1 0 0-0.1 0.1 0 0-0.1 0.1 0 0 0 0.1 0-0.1 0-0.2c0.1 0 0.2-0.2 0.2-0.2 0.1-0.1 0.1-0.1 0.3 0q0 0 0 0 0-0.1-0.1-0.1 0 0 0 0 0-0.1 0-0.1c-0.1 0-0.1 0-0.1 0q-0.1 0.1-0.2 0.2c0.1-0.2 0.2-0.4 0.2-0.6q0 0.1-0.1 0.1 0 0.1-0.1 0.2 0 0 0 0.1-0.1 0.1-0.1 0.1c0-0.1 0.1-0.4 0.1-0.5q0 0-0.1 0 0 0.1 0 0.1 0 0.1 0 0.1-0.1 0.1-0.1 0.1c0-0.1 0-0.3 0-0.4 0 0.1-0.1 0.3-0.1 0.4q-0.1-0.2-0.2-0.4c0 0.1 0 0.3 0.1 0.5-0.1-0.2-0.3-0.3-0.3-0.4 0 0.1 0.2 0.4 0.2 0.5q0 0.1 0 0.1c-0.1-0.1-0.2-0.2-0.3-0.4 0 0.1 0.1 0.3 0.1 0.3-0.1 0-0.1 0-0.3 0.3 0.1-0.1 0.1-0.1 0.1-0.1 0.1-0.1 0.1-0.1 0.2 0 0 0.1 0.1 0.2 0.2 0.5 0-0.1-0.1-0.3-0.2-0.3 0 0 0.1 0.1 0.1 0.2q0-0.1-0.1-0.1 0 0 0-0.1 0 0 0-0.1-0.1 0-0.1-0.1c0 0.1 0.1 0.4 0.1 0.4q-0.1-0.1-0.1-0.2c0 0.1 0 0.3 0 0.4q0 0 0 0 0 0 0-0.1-0.1 0-0.1 0 0-0.1 0-0.1c0 0.1 0 0.3 0 0.4q0 0 0 0 0 0 0 0 0 0 0-0.1 0 0 0 0c-0.1-0.1-0.1 0.1-0.1 0.2-0.1 0.1-0.1 0.1 0 0 0-0.1 0-0.1 0.1 0 0 0.1 0.1 0.3 0.1 0.5 0-0.1-0.1-0.3-0.1-0.3-0.1-0.1-0.1-0.1 0 0 0 0.2 0.1 0.4 0 0.6q0-0.1 0-0.1 0-0.1 0-0.1-0.1-0.1-0.1-0.2 0 0 0-0.1c0 0.1 0 0.3 0 0.4q0 0 0 0 0-0.1 0-0.1 0 0-0.1 0 0 0 0 0c0.1 0.1 0.1 0.3 0.1 0.5q0 0 0-0.1-0.1 0-0.1 0 0-0.1 0-0.1 0 0 0 0 0 0 0 0.1 0 0 0 0.1 0 0 0 0.1 0 0.1 0 0.1 0 0 0-0.1 0 0 0 0 0 0 0-0.1 0 0-0.1 0c0.1 0.1 0.1 0.3 0 0.4q0 0 0 0 0-0.1 0-0.1 0 0 0 0 0-0.1 0-0.1c0 0.1 0 0.2-0.1 0.3q0 0 0-0.1 0 0 0 0 0-0.1 0-0.1 0 0 0-0.1 0 0.1 0 0.1 0 0.1 0 0.1 0 0 0 0.1-0.1 0-0.1 0.1 0-0.1 0.1-0.3-0.1 0.1-0.1 0.2 0-0.2 0-0.2 0 0 0 0.1-0.1 0-0.1 0.1 0 0 0 0.1-0.1 0-0.1 0.1c0-0.2 0-0.3 0-0.4 0 0.2 0 0.2-0.2 0.4q0.1-0.1 0.1-0.1 0 0 0-0.1 0 0 0-0.1 0 0 0 0 0 0-0.1 0.2 0 0 0-0.1 0 0 0-0.1 0 0 0 0 0-0.1 0-0.1c-0.1 0-0.1 0.1-0.1 0.2q0 0-0.1-0.1 0 0 0 0 0 0 0-0.1 0 0 0 0c0 0.3 0 0.5-0.2 0.6-0.4 0.3-0.7 0.8-1.1 1q0 0 0 0 0 0.1 0.1 0.1 0 0 0 0 0 0 0 0c0.5-0.2 0.7-0.6 1.1-0.8 0.1-0.1 0.5 0.1 0.9 0 0.2-0.1 0.5 0 0.6 0.1q-0.1-0.2-0.4-0.2z"/>
	<path class="s8" d="m16.6 15c0 0 0.3 0 0.4 0-0.1 0 0-0.3-0.2-0.4 0.2 0.1 0.2 0.1 0.3 0.1q0 0 0-0.1 0 0 0 0 0 0 0 0 0.1-0.1 0.1-0.1c0 0.1 0.1 0.1 0.1 0.2q0 0 0.1 0c0-0.1 0.1-0.2 0.1-0.2 0 0 0.1 0.1 0.1 0.2 0.1 0.2-0.1 0.3-0.1 0.5 0.4 0.2 0.7 0.7 1.2 0.9q0 0 0 0-0.1 0.1-0.1 0.1 0 0 0 0 0 0 0 0c-0.7-0.2-1-1-1.6-1q-0.2 0.1-0.4 0.1-0.1 0-0.1 0 0 0-0.1 0 0 0-0.1 0 0 0-0.1 0c0.2-0.2 0.3-0.3 0.4-0.3q-0.1 0-0.1 0-0.1 0-0.1 0 0 0-0.1 0 0 0-0.1 0c0 0.2-0.2 0.2-0.3 0.2q-0.3 0.1-0.3 0.2 0 0 0-0.1 0 0 0 0 0-0.1 0-0.1 0 0 0 0-0.1 0-0.1 0 0 0 0 0-0.1 0-0.1 0 0 0-0.1 0c0.1-0.1 0.2-0.3 0.4-0.3q0 0 0-0.1 0 0 0 0-0.1 0-0.1 0 0 0 0 0c0.1 0 0.1 0 0.2-0.1q0 0 0 0 0.1 0 0.1 0 0 0 0 0 0.1 0 0.1 0 0 0-0.1 0 0 0 0-0.1 0 0 0 0 0-0.1-0.1-0.1c0 0.2-0.2 0.3-0.4 0.3q-0.2 0-0.2 0.1 0-0.2 0.1-0.3-0.1 0.1-0.2 0.1 0-0.1 0-0.1 0-0.1 0.1-0.1 0 0 0-0.1 0 0 0.1 0c-0.1 0-0.2-0.2-0.2-0.3 0 0.1 0.3 0 0.5 0.2q-0.1-0.1-0.1-0.1 0 0 0-0.1-0.1 0-0.1 0 0-0.1 0-0.1c0 0 0.1 0 0.2 0.1-0.1-0.4-0.4-0.3-0.5-0.4-0.2-0.2-0.1-0.4-0.2-0.5q0 0 0.1 0c0-0.1 0-0.3 0-0.3 0 0.1 0.1 0.1 0.2 0.2q0 0 0-0.1 0 0 0 0 0 0 0 0 0 0 0 0 0.1 0.1 0.2 0.2c0-0.2 0-0.2 0.1-0.3-0.1 0.1 0 0.2 0 0.3q0.1 0.1 0 0.3c0 0.2 0.1 0.3 0.2 0.5 0-0.1 0-0.3-0.1-0.4q0-0.1 0-0.3 0.1 0.1 0.2 0.2 0 0 0 0 0 0 0 0 0 0 0 0 0 0.1 0 0.1 0-0.1 0-0.2c0.1 0-0.2-0.1-0.2-0.4-0.2-0.1-0.3-0.2-0.4-0.5q0 0.1 0.1 0.1 0 0 0 0 0 0 0 0 0 0 0 0c-0.1-0.1-0.1-0.3-0.1-0.4 0.1 0.1 0.1 0.1 0.2 0.1 0-0.1-0.1-0.2-0.1-0.4 0-0.2 0.1-0.2 0.2-0.4q0 0 0 0.1 0 0 0 0 0 0 0 0 0 0.1 0 0.1c0.1-0.1 0.2-0.2 0.2-0.3 0.1 0.1 0.1 0.2 0.1 0.3q0 0 0 0 0 0 0.1 0 0 0 0 0 0.1 0 0.1 0.1c-0.2 0-0.2 0.2-0.3 0.2-0.1 0.1-0.2 0.2-0.2 0.4q0.1 0.1 0.2 0.4 0 0 0 0.1 0-0.1 0.1-0.1 0 0 0 0 0 0 0 0 0-0.1 0-0.1c0-0.1-0.1-0.1-0.1-0.2-0.1-0.1 0-0.3 0-0.4 0 0 0.1 0 0.2 0.1 0-0.1 0.1-0.2 0.1-0.3q0.1 0.1 0.1 0.2 0-0.1 0-0.1 0.1 0 0.1 0 0-0.1 0.1-0.1 0 0 0.1 0c-0.1 0.1-0.1 0.2-0.1 0.3 0 0.1 0 0.3-0.1 0.4-0.2 0.1-0.2 0.2-0.3 0.5 0.1-0.2 0.3-0.3 0.3-0.4q0 0.2 0 0.4 0.1-0.1 0.3-0.1c-0.1 0.1-0.2 0.4-0.4 0.4-0.2 0.1-0.3 0.3-0.3 0.4-0.1 0.1-0.1 0.1 0 0.3q0-0.1 0-0.1 0 0 0-0.1 0 0 0-0.1 0 0 0 0c0.1-0.2 0.2-0.2 0.2-0.3q0.1 0 0.1 0.1 0 0 0 0 0 0 0 0.1 0 0 0 0c0.1-0.2 0.3-0.1 0.3-0.2q0 0.1 0 0.1 0 0 0 0 0 0.1 0 0.1-0.1 0-0.1 0.1 0 0 0 0.1 0 0 0 0-0.1 0.1-0.1 0.1 0 0-0.1 0c-0.1 0.1-0.2 0.1-0.2 0.2 0 0 0 0.1 0 0.2q0 0 0 0 0-0.1 0-0.1 0.1 0 0.1 0 0 0 0 0 0.1-0.1 0.1-0.2 0.1 0.2 0.1 0.4c-0.1 0.1-0.1 0.2 0 0.3q0 0 0 0 0 0.1 0.1 0.1 0 0 0 0 0 0 0 0c0.1-0.1 0-0.1 0-0.2-0.1-0.1-0.1-0.3-0.1-0.3q0.2-0.2 0.2-0.3c0 0.1 0.1 0.1 0.1 0.2q0 0 0-0.1 0 0 0 0 0 0 0 0 0.1 0 0.1-0.1c0 0.1 0.1 0.2 0.1 0.3q0 0 0 0 0-0.1 0-0.1 0 0 0.1 0 0 0 0 0c0 0 0.1 0.1 0.1 0.2q0 0 0 0 0 0 0 0 0 0.1-0.1 0.1 0 0 0 0 0 0 0 0.1 0 0 0 0 0 0-0.1 0.1 0 0 0 0-0.1 0-0.1 0c0.1 0 0.3 0.1 0.3 0.1-0.1 0-0.2 0.1-0.3 0.1z"/>
	<g>
		<path class="s2" d="m18.1 15.7q0 0-0.1 0 0 0-0.1 0c-0.2-0.1-0.3-0.1-0.3 0v0.2c0 0 0.1 0.1 0.3 0q0.1 0 0.1 0 0.1 0 0.1 0c0.3 0.1 0.3 0 0.3 0v-0.2c0-0.1-0.1-0.1-0.3 0z"/>
		<path class="s2" d="m18.4 15.7q0.1 0 0.1 0 0 0 0 0 0.1 0 0.1 0 0 0 0.1 0 0 0.1 0 0.1 0 0-0.1 0 0 0.1 0 0.1 0 0 0 0.1 0-0.1 0-0.1 0 0-0.1 0 0 0 0 0 0 0-0.1 0c0 0 0-0.2 0-0.2zm-0.8 0q0 0 0 0-0.1 0-0.1 0 0 0-0.1 0 0 0 0 0c0 0.1 0 0.2 0 0.3q0-0.1 0.1-0.1 0 0 0 0 0 0 0.1 0 0 0 0 0z"/>
		<path class="s2" d="m18 15.5q0.9 0 1.4 0.1-0.1 0.1-0.1 0.1c0 0 0 0.1 0 0.2q0.1 0 0.2 0 0 0 0.1 0.1 0 0 0.1-0.1 0 0 0.1 0h0.1q-0.1 0-0.1 0.1c0.1 0.3 0.5-0.1 0.8 0.2 0.1 0 0.2-0.2 0.3-0.3-0.2-0.1-0.3-0.1-0.5-0.1 0-0.1 0.1-0.2-0.1-0.3 0 0-0.2 0-0.4 0.1 0.1-0.1 0.1-0.2-0.2-0.3-0.4-0.2-1.1-0.3-1.7-0.3-0.6 0-1.3 0.1-1.7 0.3-0.2 0.1-0.2 0.2-0.2 0.3-0.2-0.1-0.3-0.1-0.4-0.1-0.1 0.1-0.1 0.2 0 0.3-0.2 0-0.4 0-0.5 0.1 0 0.1 0.2 0.3 0.3 0.3 0.2-0.3 0.6 0.1 0.7-0.2q0-0.1 0-0.1h0.1q0 0 0.1 0 0 0.1 0.1 0.1 0-0.1 0.1-0.1 0 0 0.1 0c0.1-0.1 0.1-0.2 0-0.2q0 0-0.1-0.1 0.6-0.1 1.4-0.1z"/>
	</g>
</svg>