<svg id="Capa_1" data-name="Capa 1" xmlns="http://www.w3.org/2000/svg" xmlns:xlink="http://www.w3.org/1999/xlink" viewBox="0 0 611.31 84.73"><defs><style>.cls-1{fill:none;}.cls-2{clip-path:url(#clip-path);}.cls-3{fill:#fff;}</style><clipPath id="clip-path" transform="translate(0 0)"><rect class="cls-1" width="611.31" height="84.73"/></clipPath></defs><title>logo</title><g class="cls-2"><path class="cls-3" d="M532.57,50.5,509.69,1.38h-6.54L485.47,43.19l6,1.66,12.4-29,16,34.27c4.15.29,8.42.41,12.69.38" transform="translate(0 0)"/><path class="cls-3" d="M531.26,58.86q-3.71,0-7.38-.15l.4.86,11.08,23.77h12.5L536.43,58.79c-1.72.05-3.44.07-5.17.07" transform="translate(0 0)"/><polygon class="cls-3" points="487.95 53.19 488.21 52.59 482.2 50.94 468.84 82.51 468.5 83.34 475.1 83.34 485.25 59.57 487.95 53.19"/><polygon class="cls-3" points="30.92 83.34 42.61 83.34 42.61 54.25 30.92 51.05 30.92 83.34"/><polygon class="cls-3" points="73.53 1.38 0 1.38 0 8.92 30.92 8.92 30.92 42.4 42.61 45.61 42.61 8.92 73.53 8.92 73.53 1.38"/><path class="cls-3" d="M124.72,43.38l-19.56-42H98.62L77.85,50.5c2.25,0,4.51,0,6.75-.07L99.38,15.85l14.24,30.57Z" transform="translate(0 0)"/><path class="cls-3" d="M80.72,59.57l.3-.72c-2.23,0-4.46,0-6.67-.07l-10,23.73-.35.83h6.6Z" transform="translate(0 0)"/><polygon class="cls-3" points="117.19 54.09 119.75 59.57 130.83 83.34 143.33 83.34 128.29 51.04 117.19 54.09"/><path class="cls-3" d="M163.72,32.9c3.65-.74,7.59-1.31,11.69-1.73V1.38H163.72Z" transform="translate(0 0)"/><path class="cls-3" d="M163.72,83.34h11.69V39.56a109.36,109.36,0,0,0-11.69,1.86Z" transform="translate(0 0)"/><path class="cls-3" d="M211.69,39.8c-2.11-.27-4.28-.48-6.5-.65V83.34h6.5Z" transform="translate(0 0)"/><path class="cls-3" d="M270.27,46.11l3,.81c1.13.31,2.32.6,3.54.87V1.38h-6.49Z" transform="translate(0 0)"/><path class="cls-3" d="M276.76,56.31q-3-.6-5.75-1.35l-.74-.2v8L259,51.68l-23.87-6.55,40.18,39.6h1.41Z" transform="translate(0 0)"/><path class="cls-3" d="M206.61,0h-1.42V30.78q3.31.24,6.5.62V22l11.47,11.3c1.3.29,2.56.6,3.77.93l19.95,5.48Z" transform="translate(0 0)"/><path class="cls-3" d="M414.61,7.65h13.48a20.23,20.23,0,0,1,7.45,1.23,14.19,14.19,0,0,1,5,3.21,12.19,12.19,0,0,1,2.81,4.51,15.58,15.58,0,0,1,.89,5.11,14.11,14.11,0,0,1-1.28,6,13.86,13.86,0,0,1-2.8,4,105.65,105.65,0,0,1,10.6,2,20,20,0,0,0,3.95-5.44A16.17,16.17,0,0,0,456.38,21,17.83,17.83,0,0,0,455,14.21a19.05,19.05,0,0,0-4.36-6.31,22.64,22.64,0,0,0-7.48-4.68,28.62,28.62,0,0,0-10.69-1.84h-29.5V31c3.81-.34,7.73-.56,11.69-.64Z" transform="translate(0 0)"/><path class="cls-3" d="M451,42.87c-.79-.41-1.59-.77-2.39-1.11-12.57-3-30.38-3.84-45.68-2.37v44h29.67a37.79,37.79,0,0,0,13.31-2.06,24.76,24.76,0,0,0,8.78-5.38,20.15,20.15,0,0,0,4.83-7.55A25.37,25.37,0,0,0,461,59.9c0-4.49-1-8.14-3-10.85a20.81,20.81,0,0,0-7-6.18m-4.12,24.86a15.73,15.73,0,0,1-3.73,5.11A15.41,15.41,0,0,1,437.62,76a21.5,21.5,0,0,1-6.82,1.06H414.61V43h12.14a28.71,28.71,0,0,1,9.64,1.46,19.29,19.29,0,0,1,6.68,3.92A15.7,15.7,0,0,1,447,54a18.48,18.48,0,0,1,1.29,6.81,16.24,16.24,0,0,1-1.4,6.91" transform="translate(0 0)"/><polygon class="cls-3" points="603.7 1.38 579.91 42.41 589.07 39.9 611.31 1.38 603.7 1.38"/><polygon class="cls-3" points="570.8 83.34 582.49 83.34 582.49 51.29 570.8 53.56 570.8 83.34"/><polygon class="cls-3" points="555.71 1.38 542.46 1.38 567.22 45.89 578.59 42.77 555.71 1.38"/><path class="cls-3" d="M332.92,2.78q-11.13,0-19.1,3.93a41.09,41.09,0,0,0-13.14,9.94,39.46,39.46,0,0,0-7.58,13.2,42.69,42.69,0,0,0-2.41,13.59,36.66,36.66,0,0,0,.6,6.47c3.55.31,7.23.5,10.93.57a47.18,47.18,0,0,1-.53-7A41.59,41.59,0,0,1,304.11,29a34.87,34.87,0,0,1,6.62-11.28,30,30,0,0,1,9.94-7.36,29.45,29.45,0,0,1,12.47-2.64,30.27,30.27,0,0,1,12.52,2.64A32,32,0,0,1,356,17.72,35.2,35.2,0,0,1,363,29a37.89,37.89,0,0,1,2.39,10.3l10.44-2.86A46,46,0,0,0,374,30a40.53,40.53,0,0,0-8-13.2,43.06,43.06,0,0,0-13.65-10,44.33,44.33,0,0,0-19.48-4" transform="translate(0 0)"/><path class="cls-3" d="M363,57.87a35.25,35.25,0,0,1-7,11.29,32,32,0,0,1-10.34,7.35,30.27,30.27,0,0,1-12.52,2.64,29.45,29.45,0,0,1-12.47-2.64,30.07,30.07,0,0,1-9.93-7.35,34.33,34.33,0,0,1-6.22-10.3c-3.64,0-7.27-.15-10.83-.39a40.34,40.34,0,0,0,7,11.58,41.24,41.24,0,0,0,13.14,10.06q8,4,19.1,4a46.83,46.83,0,0,0,13.64-1.85,43.27,43.27,0,0,0,11-5A39.84,39.84,0,0,0,366.05,70a41.65,41.65,0,0,0,5.89-8.65,44.83,44.83,0,0,0,3.49-9.15,37,37,0,0,0,1.13-7.31L365.36,48A37.19,37.19,0,0,1,363,57.87" transform="translate(0 0)"/></g></svg>